<?xml version="1.0" standalone="no"?>
<!DOCTYPE svg PUBLIC "-//W3C//DTD SVG 1.1//EN" "http://www.w3.org/Graphics/SVG/1.1/DTD/svg11.dtd" >
<svg xmlns="http://www.w3.org/2000/svg">
<metadata></metadata>
<defs>
<font id="arcade_interlacedregular" horiz-adv-x="2004" >
<font-face units-per-em="2048" ascent="1797" descent="-251" />
<missing-glyph horiz-adv-x="500" />
<glyph horiz-adv-x="0" />
<glyph unicode="&#xd;" />
<glyph unicode=" " />
<glyph unicode="!" d="M501 94q0 -94 30 -94h439q32 0 32 94t-32 94h-439q-30 0 -30 -94zM501 345q0 -94 30 -94h439q32 0 32 94t-32 94h-439q-30 0 -30 -94zM501 846q0 -94 30 -94h439q32 0 32 94t-32 94h-439q-30 0 -30 -94zM501 1097q0 -95 30 -95h439q32 0 32 95q0 94 -32 94h-439 q-30 0 -30 -94zM501 1347q0 -94 30 -94h439q32 0 32 94t-32 94h-439q-30 0 -30 -94zM501 1598q0 -94 30 -94h439q32 0 32 94t-32 94h-439q-30 0 -30 -94z" />
<glyph unicode="&#x22;" d="M251 846q0 -94 30 -94h188q32 0 32 94t-32 94h-188q-30 0 -30 -94zM251 1347q0 -94 30 -94h439q32 0 32 94t-32 94h-439q-30 0 -30 -94zM251 1598q0 -94 30 -94h439q32 0 32 94t-32 94h-439q-30 0 -30 -94zM501 1097q0 -95 30 -95h189q32 0 32 95q0 94 -32 94h-189 q-30 0 -30 -94zM1002 846q0 -94 30 -94h189q32 0 32 94t-32 94h-189q-30 0 -30 -94zM1002 1347q0 -94 30 -94h439q33 0 33 94t-33 94h-439q-30 0 -30 -94zM1002 1598q0 -94 30 -94h439q33 0 33 94t-33 94h-439q-30 0 -30 -94zM1253 1097q0 -95 30 -95h188q33 0 33 95 q0 94 -33 94h-188q-30 0 -30 -94z" />
<glyph unicode="#" d="M251 595q0 -94 30 -94h1190q33 0 33 94t-33 95h-1190q-30 0 -30 -95zM251 1097q0 -95 30 -95h1190q33 0 33 95q0 94 -33 94h-1190q-30 0 -30 -94zM501 345q0 -94 30 -94h189q32 0 32 94t-32 94h-189q-30 0 -30 -94zM501 846q0 -94 30 -94h189q32 0 32 94t-32 94h-189 q-30 0 -30 -94zM501 1347q0 -94 30 -94h189q32 0 32 94t-32 94h-189q-30 0 -30 -94zM1002 345q0 -94 30 -94h189q32 0 32 94t-32 94h-189q-30 0 -30 -94zM1002 846q0 -94 30 -94h189q32 0 32 94t-32 94h-189q-30 0 -30 -94zM1002 1347q0 -94 30 -94h189q32 0 32 94t-32 94 h-189q-30 0 -30 -94z" />
<glyph unicode="$" d="M251 345q0 -94 30 -94h940q32 0 32 94t-32 94h-940q-30 0 -30 -94zM251 1097q0 -95 30 -95h188q32 0 32 95q0 94 -32 94h-188q-30 0 -30 -94zM501 846q0 -94 30 -94h690q32 0 32 94t-32 94h-690q-30 0 -30 -94zM501 1347q0 -94 30 -94h940q33 0 33 94t-33 94h-940 q-30 0 -30 -94zM752 94q0 -94 30 -94h188q32 0 32 94t-32 94h-188q-30 0 -30 -94zM752 595q0 -94 30 -94h188q32 0 32 94t-32 95h-188q-30 0 -30 -95zM752 1097q0 -95 30 -95h188q32 0 32 95q0 94 -32 94h-188q-30 0 -30 -94zM752 1598q0 -94 30 -94h188q32 0 32 94t-32 94 h-188q-30 0 -30 -94zM1253 595q0 -94 30 -94h188q33 0 33 94t-33 95h-188q-30 0 -30 -95z" />
<glyph unicode="%" d="M0 94q0 -94 30 -94h189q32 0 32 94t-32 94h-189q-30 0 -30 -94zM0 1347q0 -94 30 -94h189q32 0 32 94t-32 94h-189q-30 0 -30 -94zM251 345q0 -94 30 -94h188q32 0 32 94t-32 94h-188q-30 0 -30 -94zM251 1097q0 -95 30 -95h188q32 0 32 95q0 94 -32 94h-188 q-30 0 -30 -94zM251 1598q0 -94 30 -94h188q32 0 32 94t-32 94h-188q-30 0 -30 -94zM501 595q0 -94 30 -94h189q32 0 32 94t-32 95h-189q-30 0 -30 -95zM501 1347q0 -94 30 -94h189q32 0 32 94t-32 94h-189q-30 0 -30 -94zM752 846q0 -94 30 -94h188q32 0 32 94t-32 94h-188 q-30 0 -30 -94zM1002 345q0 -94 30 -94h189q32 0 32 94t-32 94h-189q-30 0 -30 -94zM1002 1097q0 -95 30 -95h189q32 0 32 95q0 94 -32 94h-189q-30 0 -30 -94zM1253 94q0 -94 30 -94h188q33 0 33 94t-33 94h-188q-30 0 -30 -94zM1253 595q0 -94 30 -94h188q33 0 33 94 t-33 95h-188q-30 0 -30 -95zM1253 1347q0 -94 30 -94h188q33 0 33 94t-33 94h-188q-30 0 -30 -94zM1504 345q0 -94 30 -94h188q32 0 32 94t-32 94h-188q-30 0 -30 -94zM1504 1598q0 -94 30 -94h188q32 0 32 94t-32 94h-188q-30 0 -30 -94z" />
<glyph unicode="&#x26;" d="M0 345q0 -94 30 -94h189q32 0 32 94t-32 94h-189q-30 0 -30 -94zM0 595q0 -94 30 -94h189q32 0 32 94t-32 95h-189q-30 0 -30 -95zM0 1097q0 -95 30 -95h690q32 0 32 95q0 94 -32 94h-690q-30 0 -30 -94zM0 1347q0 -94 30 -94h439q32 0 32 94t-32 94h-439q-30 0 -30 -94z M251 94q0 -94 30 -94h689q32 0 32 94t-32 94h-689q-30 0 -30 -94zM251 846q0 -94 30 -94h689q32 0 32 94t-32 94h-689q-30 0 -30 -94zM251 1598q0 -94 30 -94h689q32 0 32 94t-32 94h-689q-30 0 -30 -94zM752 595q0 -94 30 -94h940q32 0 32 94t-32 95h-940q-30 0 -30 -95z M1002 345q0 -94 30 -94h439q33 0 33 94t-33 94h-439q-30 0 -30 -94zM1002 1097q0 -95 30 -95h189q32 0 32 95q0 94 -32 94h-189q-30 0 -30 -94zM1002 1347q0 -94 30 -94h189q32 0 32 94t-32 94h-189q-30 0 -30 -94zM1253 94q0 -94 30 -94h439q32 0 32 94t-32 94h-439 q-30 0 -30 -94z" />
<glyph unicode="'" d="M251 846q0 -94 30 -94h188q32 0 32 94t-32 94h-188q-30 0 -30 -94zM251 1347q0 -94 30 -94h439q32 0 32 94t-32 94h-439q-30 0 -30 -94zM251 1598q0 -94 30 -94h439q32 0 32 94t-32 94h-439q-30 0 -30 -94zM501 1097q0 -95 30 -95h189q32 0 32 95q0 94 -32 94h-189 q-30 0 -30 -94z" />
<glyph unicode="(" d="M251 595q0 -94 30 -94h439q32 0 32 94t-32 95h-439q-30 0 -30 -95zM251 846q0 -94 30 -94h439q32 0 32 94t-32 94h-439q-30 0 -30 -94zM251 1097q0 -95 30 -95h439q32 0 32 95q0 94 -32 94h-439q-30 0 -30 -94zM501 345q0 -94 30 -94h439q32 0 32 94t-32 94h-439 q-30 0 -30 -94zM501 1347q0 -94 30 -94h439q32 0 32 94t-32 94h-439q-30 0 -30 -94zM752 94q0 -94 30 -94h439q32 0 32 94t-32 94h-439q-30 0 -30 -94zM752 1598q0 -94 30 -94h439q32 0 32 94t-32 94h-439q-30 0 -30 -94z" />
<glyph unicode=")" d="M501 94q0 -94 30 -94h439q32 0 32 94t-32 94h-439q-30 0 -30 -94zM501 1598q0 -94 30 -94h439q32 0 32 94t-32 94h-439q-30 0 -30 -94zM752 345q0 -94 30 -94h439q32 0 32 94t-32 94h-439q-30 0 -30 -94zM752 1347q0 -94 30 -94h439q32 0 32 94t-32 94h-439 q-30 0 -30 -94zM1002 595q0 -94 30 -94h439q33 0 33 94t-33 95h-439q-30 0 -30 -95zM1002 846q0 -94 30 -94h439q33 0 33 94t-33 94h-439q-30 0 -30 -94zM1002 1097q0 -95 30 -95h439q33 0 33 95q0 94 -33 94h-439q-30 0 -30 -94z" />
<glyph unicode="*" d="M251 595q0 -94 30 -94h188q32 0 32 94t-32 95h-188q-30 0 -30 -95zM251 1097q0 -95 30 -95h188q32 0 32 95q0 94 -32 94h-188q-30 0 -30 -94zM501 846q0 -94 30 -94h690q32 0 32 94t-32 94h-690q-30 0 -30 -94zM752 345q0 -94 30 -94h188q32 0 32 94t-32 94h-188 q-30 0 -30 -94zM752 595q0 -94 30 -94h188q32 0 32 94t-32 95h-188q-30 0 -30 -95zM752 1097q0 -95 30 -95h188q32 0 32 95q0 94 -32 94h-188q-30 0 -30 -94zM752 1347q0 -94 30 -94h188q32 0 32 94t-32 94h-188q-30 0 -30 -94zM1253 595q0 -94 30 -94h188q33 0 33 94 t-33 95h-188q-30 0 -30 -95zM1253 1097q0 -95 30 -95h188q33 0 33 95q0 94 -33 94h-188q-30 0 -30 -94z" />
<glyph unicode="+" d="M251 846q0 -94 30 -94h1190q33 0 33 94t-33 94h-1190q-30 0 -30 -94zM752 345q0 -94 30 -94h188q32 0 32 94t-32 94h-188q-30 0 -30 -94zM752 595q0 -94 30 -94h188q32 0 32 94t-32 95h-188q-30 0 -30 -95zM752 1097q0 -95 30 -95h188q32 0 32 95q0 94 -32 94h-188 q-30 0 -30 -94zM752 1347q0 -94 30 -94h188q32 0 32 94t-32 94h-188q-30 0 -30 -94z" />
<glyph unicode="," d="M251 94q0 -94 30 -94h188q32 0 32 94t-32 94h-188q-30 0 -30 -94zM251 595q0 -94 30 -94h439q32 0 32 94t-32 95h-439q-30 0 -30 -95zM251 846q0 -94 30 -94h439q32 0 32 94t-32 94h-439q-30 0 -30 -94zM501 345q0 -94 30 -94h189q32 0 32 94t-32 94h-189q-30 0 -30 -94z " />
<glyph unicode="-" d="M251 846q0 -94 30 -94h1190q33 0 33 94t-33 94h-1190q-30 0 -30 -94z" />
<glyph unicode="." d="M251 94q0 -94 30 -94h439q32 0 32 94t-32 94h-439q-30 0 -30 -94zM251 345q0 -94 30 -94h439q32 0 32 94t-32 94h-439q-30 0 -30 -94z" />
<glyph unicode="/" d="M0 94q0 94 30 94h189q32 0 32 -94t-32 -94h-189q-30 0 -30 94zM251 345q0 94 30 94h188q32 0 32 -94t-32 -94h-188q-30 0 -30 94zM501 595q0 94 30 95h189q32 0 32 -95q0 -94 -32 -94h-189q-30 0 -30 94zM752 846q0 94 30 94h188q32 0 32 -94t-32 -94h-188q-30 0 -30 94z M1002 1097q0 94 30 94h189q32 0 32 -94q0 -95 -32 -95h-189q-30 0 -30 95zM1253 1347q0 94 30 94h188q33 0 33 -94t-33 -94h-188q-30 0 -30 94zM1504 1598q0 94 30 94h188q32 0 32 -94t-32 -94h-188q-30 0 -30 94z" />
<glyph unicode="0" d="M0 595q0 -94 30 -94h439q32 0 32 94t-32 95h-439q-30 0 -30 -95zM0 846q0 -94 30 -94h439q32 0 32 94t-32 94h-439q-30 0 -30 -94zM0 1097q0 -95 30 -95h439q32 0 32 95q0 94 -32 94h-439q-30 0 -30 -94zM251 345q0 -94 30 -94h439q32 0 32 94t-32 94h-439q-30 0 -30 -94 zM251 1347q0 -94 30 -94h188q32 0 32 94t-32 94h-188q-30 0 -30 -94zM501 94q0 -94 30 -94h690q32 0 32 94t-32 94h-690q-30 0 -30 -94zM501 1598q0 -94 30 -94h690q32 0 32 94t-32 94h-690q-30 0 -30 -94zM1002 1347q0 -94 30 -94h439q33 0 33 94t-33 94h-439 q-30 0 -30 -94zM1253 345q0 -94 30 -94h188q33 0 33 94t-33 94h-188q-30 0 -30 -94zM1253 595q0 -94 30 -94h439q32 0 32 94t-32 95h-439q-30 0 -30 -95zM1253 846q0 -94 30 -94h439q32 0 32 94t-32 94h-439q-30 0 -30 -94zM1253 1097q0 -95 30 -95h439q32 0 32 95 q0 94 -32 94h-439q-30 0 -30 -94z" />
<glyph unicode="1" d="M251 94q0 -94 30 -94h1441q32 0 32 94t-32 94h-1441q-30 0 -30 -94zM501 1347q0 -94 30 -94h690q32 0 32 94t-32 94h-690q-30 0 -30 -94zM752 345q0 -94 30 -94h439q32 0 32 94t-32 94h-439q-30 0 -30 -94zM752 595q0 -94 30 -94h439q32 0 32 94t-32 95h-439 q-30 0 -30 -95zM752 846q0 -94 30 -94h439q32 0 32 94t-32 94h-439q-30 0 -30 -94zM752 1097q0 -95 30 -95h439q32 0 32 95q0 94 -32 94h-439q-30 0 -30 -94zM752 1598q0 -94 30 -94h439q32 0 32 94t-32 94h-439q-30 0 -30 -94z" />
<glyph unicode="2" d="M0 94q0 -94 30 -94h1692q32 0 32 94t-32 94h-1692q-30 0 -30 -94zM0 345q0 -94 30 -94h690q32 0 32 94t-32 94h-690q-30 0 -30 -94zM0 1347q0 -94 30 -94h439q32 0 32 94t-32 94h-439q-30 0 -30 -94zM251 595q0 -94 30 -94h940q32 0 32 94t-32 95h-940q-30 0 -30 -95z M251 1598q0 -94 30 -94h1190q33 0 33 94t-33 94h-1190q-30 0 -30 -94zM501 846q0 -94 30 -94h940q33 0 33 94t-33 94h-940q-30 0 -30 -94zM1002 1097q0 -95 30 -95h690q32 0 32 95q0 94 -32 94h-690q-30 0 -30 -94zM1253 1347q0 -94 30 -94h439q32 0 32 94t-32 94h-439 q-30 0 -30 -94z" />
<glyph unicode="3" d="M0 345q0 -94 30 -94h439q32 0 32 94t-32 94h-439q-30 0 -30 -94zM251 94q0 -94 30 -94h1190q33 0 33 94t-33 94h-1190q-30 0 -30 -94zM251 1598q0 -94 30 -94h1441q32 0 32 94t-32 94h-1441q-30 0 -30 -94zM501 846q0 -94 30 -94h940q33 0 33 94t-33 94h-940 q-30 0 -30 -94zM752 1097q0 -95 30 -95h439q32 0 32 95q0 94 -32 94h-439q-30 0 -30 -94zM1002 1347q0 -94 30 -94h439q33 0 33 94t-33 94h-439q-30 0 -30 -94zM1253 345q0 -94 30 -94h439q32 0 32 94t-32 94h-439q-30 0 -30 -94zM1253 595q0 -94 30 -94h439q32 0 32 94 t-32 95h-439q-30 0 -30 -95z" />
<glyph unicode="4" d="M0 595q0 -94 30 -94h1692q32 0 32 94t-32 95h-1692q-30 0 -30 -95zM0 846q0 -94 30 -94h439q32 0 32 94t-32 94h-439q-30 0 -30 -94zM251 1097q0 -95 30 -95h439q32 0 32 95q0 94 -32 94h-439q-30 0 -30 -94zM501 1347q0 -94 30 -94h940q33 0 33 94t-33 94h-940 q-30 0 -30 -94zM752 1598q0 -94 30 -94h689q33 0 33 94t-33 94h-689q-30 0 -30 -94zM1002 94q0 -94 30 -94h439q33 0 33 94t-33 94h-439q-30 0 -30 -94zM1002 345q0 -94 30 -94h439q33 0 33 94t-33 94h-439q-30 0 -30 -94zM1002 846q0 -94 30 -94h439q33 0 33 94t-33 94 h-439q-30 0 -30 -94zM1002 1097q0 -95 30 -95h439q33 0 33 95q0 94 -33 94h-439q-30 0 -30 -94z" />
<glyph unicode="5" d="M0 345q0 -94 30 -94h439q32 0 32 94t-32 94h-439q-30 0 -30 -94zM0 1097q0 -95 30 -95h1441q33 0 33 95q0 94 -33 94h-1441q-30 0 -30 -94zM0 1347q0 -94 30 -94h439q32 0 32 94t-32 94h-439q-30 0 -30 -94zM0 1598q0 -94 30 -94h1441q33 0 33 94t-33 94h-1441 q-30 0 -30 -94zM251 94q0 -94 30 -94h1190q33 0 33 94t-33 94h-1190q-30 0 -30 -94zM1253 345q0 -94 30 -94h439q32 0 32 94t-32 94h-439q-30 0 -30 -94zM1253 595q0 -94 30 -94h439q32 0 32 94t-32 95h-439q-30 0 -30 -95zM1253 846q0 -94 30 -94h439q32 0 32 94t-32 94 h-439q-30 0 -30 -94z" />
<glyph unicode="6" d="M0 345q0 -94 30 -94h439q32 0 32 94t-32 94h-439q-30 0 -30 -94zM0 595q0 -94 30 -94h439q32 0 32 94t-32 95h-439q-30 0 -30 -95zM0 846q0 -94 30 -94h1441q33 0 33 94t-33 94h-1441q-30 0 -30 -94zM0 1097q0 -95 30 -95h439q32 0 32 95q0 94 -32 94h-439q-30 0 -30 -94 zM251 94q0 -94 30 -94h1190q33 0 33 94t-33 94h-1190q-30 0 -30 -94zM251 1347q0 -94 30 -94h439q32 0 32 94t-32 94h-439q-30 0 -30 -94zM501 1598q0 -94 30 -94h940q33 0 33 94t-33 94h-940q-30 0 -30 -94zM1253 345q0 -94 30 -94h439q32 0 32 94t-32 94h-439 q-30 0 -30 -94zM1253 595q0 -94 30 -94h439q32 0 32 94t-32 95h-439q-30 0 -30 -95z" />
<glyph unicode="7" d="M0 1347q0 -94 30 -94h439q32 0 32 94t-32 94h-439q-30 0 -30 -94zM0 1598q0 -94 30 -94h1692q32 0 32 94t-32 94h-1692q-30 0 -30 -94zM501 94q0 -94 30 -94h439q32 0 32 94t-32 94h-439q-30 0 -30 -94zM501 345q0 -94 30 -94h439q32 0 32 94t-32 94h-439q-30 0 -30 -94z M501 595q0 -94 30 -94h439q32 0 32 94t-32 95h-439q-30 0 -30 -95zM752 846q0 -94 30 -94h439q32 0 32 94t-32 94h-439q-30 0 -30 -94zM1002 1097q0 -95 30 -95h439q33 0 33 95q0 94 -33 94h-439q-30 0 -30 -94zM1253 1347q0 -94 30 -94h439q32 0 32 94t-32 94h-439 q-30 0 -30 -94z" />
<glyph unicode="8" d="M0 345q0 -94 30 -94h189q32 0 32 94t-32 94h-189q-30 0 -30 -94zM0 595q0 -94 30 -94h189q32 0 32 94t-32 95h-189q-30 0 -30 -95zM0 1097q0 -95 30 -95h690q32 0 32 95q0 94 -32 94h-690q-30 0 -30 -94zM0 1347q0 -94 30 -94h439q32 0 32 94t-32 94h-439q-30 0 -30 -94z M251 94q0 -94 30 -94h1190q33 0 33 94t-33 94h-1190q-30 0 -30 -94zM251 846q0 -94 30 -94h940q32 0 32 94t-32 94h-940q-30 0 -30 -94zM251 1598q0 -94 30 -94h940q32 0 32 94t-32 94h-940q-30 0 -30 -94zM752 595q0 -94 30 -94h940q32 0 32 94t-32 95h-940q-30 0 -30 -95z M1253 345q0 -94 30 -94h439q32 0 32 94t-32 94h-439q-30 0 -30 -94zM1253 1097q0 -95 30 -95h188q33 0 33 95q0 94 -33 94h-188q-30 0 -30 -94zM1253 1347q0 -94 30 -94h188q33 0 33 94t-33 94h-188q-30 0 -30 -94z" />
<glyph unicode="9" d="M0 1097q0 -95 30 -95h439q32 0 32 95q0 94 -32 94h-439q-30 0 -30 -94zM0 1347q0 -94 30 -94h439q32 0 32 94t-32 94h-439q-30 0 -30 -94zM251 94q0 -94 30 -94h940q32 0 32 94t-32 94h-940q-30 0 -30 -94zM251 846q0 -94 30 -94h1441q32 0 32 94t-32 94h-1441 q-30 0 -30 -94zM251 1598q0 -94 30 -94h1190q33 0 33 94t-33 94h-1190q-30 0 -30 -94zM1002 345q0 -94 30 -94h439q33 0 33 94t-33 94h-439q-30 0 -30 -94zM1253 595q0 -94 30 -94h439q32 0 32 94t-32 95h-439q-30 0 -30 -95zM1253 1097q0 -95 30 -95h439q32 0 32 95 q0 94 -32 94h-439q-30 0 -30 -94zM1253 1347q0 -94 30 -94h439q32 0 32 94t-32 94h-439q-30 0 -30 -94z" />
<glyph unicode=":" d="M251 94q0 -94 30 -94h439q32 0 32 94t-32 94h-439q-30 0 -30 -94zM251 345q0 -94 30 -94h439q32 0 32 94t-32 94h-439q-30 0 -30 -94zM251 1097q0 -95 30 -95h439q32 0 32 95q0 94 -32 94h-439q-30 0 -30 -94zM251 1347q0 -94 30 -94h439q32 0 32 94t-32 94h-439 q-30 0 -30 -94z" />
<glyph unicode=";" d="M251 94q0 -94 30 -94h188q32 0 32 94t-32 94h-188q-30 0 -30 -94zM251 595q0 -94 30 -94h439q32 0 32 94t-32 95h-439q-30 0 -30 -95zM251 846q0 -94 30 -94h439q32 0 32 94t-32 94h-439q-30 0 -30 -94zM251 1347q0 -94 30 -94h439q32 0 32 94t-32 94h-439q-30 0 -30 -94 zM251 1598q0 -94 30 -94h439q32 0 32 94t-32 94h-439q-30 0 -30 -94zM501 345q0 -94 30 -94h189q32 0 32 94t-32 94h-189q-30 0 -30 -94z" />
<glyph unicode="&#x3c;" d="M251 846q0 -94 30 -94h439q32 0 32 94t-32 94h-439q-30 0 -30 -94zM501 595q0 -94 30 -94h439q32 0 32 94t-32 95h-439q-30 0 -30 -95zM501 1097q0 -95 30 -95h439q32 0 32 95q0 94 -32 94h-439q-30 0 -30 -94zM752 345q0 -94 30 -94h439q32 0 32 94t-32 94h-439 q-30 0 -30 -94zM752 1347q0 -94 30 -94h439q32 0 32 94t-32 94h-439q-30 0 -30 -94z" />
<glyph unicode="=" d="M251 595q0 -94 30 -94h1190q33 0 33 94t-33 95h-1190q-30 0 -30 -95zM251 1097q0 -95 30 -95h1190q33 0 33 95q0 94 -33 94h-1190q-30 0 -30 -94z" />
<glyph unicode="&#x3e;" d="M501 345q0 -94 30 -94h439q32 0 32 94t-32 94h-439q-30 0 -30 -94zM501 1347q0 -94 30 -94h439q32 0 32 94t-32 94h-439q-30 0 -30 -94zM752 595q0 -94 30 -94h439q32 0 32 94t-32 95h-439q-30 0 -30 -95zM752 1097q0 -95 30 -95h439q32 0 32 95q0 94 -32 94h-439 q-30 0 -30 -94zM1002 846q0 -94 30 -94h439q33 0 33 94t-33 94h-439q-30 0 -30 -94z" />
<glyph unicode="?" d="M0 1347q0 -94 30 -94h439q32 0 32 94t-32 94h-439q-30 0 -30 -94zM251 1598q0 -94 30 -94h1190q33 0 33 94t-33 94h-1190q-30 0 -30 -94zM501 94q0 -94 30 -94h439q32 0 32 94t-32 94h-439q-30 0 -30 -94zM501 345q0 -94 30 -94h439q32 0 32 94t-32 94h-439 q-30 0 -30 -94zM501 846q0 -94 30 -94h439q32 0 32 94t-32 94h-439q-30 0 -30 -94zM752 1097q0 -95 30 -95h689q33 0 33 95q0 94 -33 94h-689q-30 0 -30 -94zM1253 1347q0 -94 30 -94h439q32 0 32 94t-32 94h-439q-30 0 -30 -94z" />
<glyph unicode="@" d="M0 345q0 -94 30 -94h439q32 0 32 94t-32 94h-439q-30 0 -30 -94zM0 595q0 -94 30 -94h1441q33 0 33 94t-33 95h-1441q-30 0 -30 -95zM0 846q0 -94 30 -94h439q32 0 32 94t-32 94h-439q-30 0 -30 -94zM0 1097q0 -95 30 -95h940q32 0 32 95q0 94 -32 94h-940q-30 0 -30 -94 zM0 1347q0 -94 30 -94h439q32 0 32 94t-32 94h-439q-30 0 -30 -94zM251 94q0 -94 30 -94h1190q33 0 33 94t-33 94h-1190q-30 0 -30 -94zM251 1598q0 -94 30 -94h1190q33 0 33 94t-33 94h-1190q-30 0 -30 -94zM752 846q0 -94 30 -94h188q32 0 32 94t-32 94h-188 q-30 0 -30 -94zM1253 846q0 -94 30 -94h439q32 0 32 94t-32 94h-439q-30 0 -30 -94zM1253 1097q0 -95 30 -95h439q32 0 32 95q0 94 -32 94h-439q-30 0 -30 -94zM1253 1347q0 -94 30 -94h439q32 0 32 94t-32 94h-439q-30 0 -30 -94z" />
<glyph unicode="A" d="M0 94q0 -94 30 -94h439q32 0 32 94t-32 94h-439q-30 0 -30 -94zM0 345q0 -94 30 -94h439q32 0 32 94t-32 94h-439q-30 0 -30 -94zM0 595q0 -94 30 -94h1692q32 0 32 94t-32 95h-1692q-30 0 -30 -95zM0 846q0 -94 30 -94h439q32 0 32 94t-32 94h-439q-30 0 -30 -94z M0 1097q0 -95 30 -95h439q32 0 32 95q0 94 -32 94h-439q-30 0 -30 -94zM251 1347q0 -94 30 -94h439q32 0 32 94t-32 94h-439q-30 0 -30 -94zM501 1598q0 -94 30 -94h690q32 0 32 94t-32 94h-690q-30 0 -30 -94zM1002 1347q0 -94 30 -94h439q33 0 33 94t-33 94h-439 q-30 0 -30 -94zM1253 94q0 -94 30 -94h439q32 0 32 94t-32 94h-439q-30 0 -30 -94zM1253 345q0 -94 30 -94h439q32 0 32 94t-32 94h-439q-30 0 -30 -94zM1253 846q0 -94 30 -94h439q32 0 32 94t-32 94h-439q-30 0 -30 -94zM1253 1097q0 -95 30 -95h439q32 0 32 95 q0 94 -32 94h-439q-30 0 -30 -94z" />
<glyph unicode="B" d="M0 94q0 -94 30 -94h1441q33 0 33 94t-33 94h-1441q-30 0 -30 -94zM0 345q0 -94 30 -94h439q32 0 32 94t-32 94h-439q-30 0 -30 -94zM0 595q0 -94 30 -94h439q32 0 32 94t-32 95h-439q-30 0 -30 -95zM0 846q0 -94 30 -94h1441q33 0 33 94t-33 94h-1441q-30 0 -30 -94z M0 1097q0 -95 30 -95h439q32 0 32 95q0 94 -32 94h-439q-30 0 -30 -94zM0 1347q0 -94 30 -94h439q32 0 32 94t-32 94h-439q-30 0 -30 -94zM0 1598q0 -94 30 -94h1441q33 0 33 94t-33 94h-1441q-30 0 -30 -94zM1253 345q0 -94 30 -94h439q32 0 32 94t-32 94h-439 q-30 0 -30 -94zM1253 595q0 -94 30 -94h439q32 0 32 94t-32 95h-439q-30 0 -30 -95zM1253 1097q0 -95 30 -95h439q32 0 32 95q0 94 -32 94h-439q-30 0 -30 -94zM1253 1347q0 -94 30 -94h439q32 0 32 94t-32 94h-439q-30 0 -30 -94z" />
<glyph unicode="C" d="M0 595q0 -94 30 -94h439q32 0 32 94t-32 95h-439q-30 0 -30 -95zM0 846q0 -94 30 -94h439q32 0 32 94t-32 94h-439q-30 0 -30 -94zM0 1097q0 -95 30 -95h439q32 0 32 95q0 94 -32 94h-439q-30 0 -30 -94zM251 345q0 -94 30 -94h439q32 0 32 94t-32 94h-439q-30 0 -30 -94 zM251 1347q0 -94 30 -94h439q32 0 32 94t-32 94h-439q-30 0 -30 -94zM501 94q0 -94 30 -94h940q33 0 33 94t-33 94h-940q-30 0 -30 -94zM501 1598q0 -94 30 -94h940q33 0 33 94t-33 94h-940q-30 0 -30 -94zM1253 345q0 -94 30 -94h439q32 0 32 94t-32 94h-439q-30 0 -30 -94 zM1253 1347q0 -94 30 -94h439q32 0 32 94t-32 94h-439q-30 0 -30 -94z" />
<glyph unicode="D" d="M0 94q0 -94 30 -94h1191q32 0 32 94t-32 94h-1191q-30 0 -30 -94zM0 345q0 -94 30 -94h439q32 0 32 94t-32 94h-439q-30 0 -30 -94zM0 595q0 -94 30 -94h439q32 0 32 94t-32 95h-439q-30 0 -30 -95zM0 846q0 -94 30 -94h439q32 0 32 94t-32 94h-439q-30 0 -30 -94z M0 1097q0 -95 30 -95h439q32 0 32 95q0 94 -32 94h-439q-30 0 -30 -94zM0 1347q0 -94 30 -94h439q32 0 32 94t-32 94h-439q-30 0 -30 -94zM0 1598q0 -94 30 -94h1191q32 0 32 94t-32 94h-1191q-30 0 -30 -94zM1002 345q0 -94 30 -94h439q33 0 33 94t-33 94h-439 q-30 0 -30 -94zM1002 1347q0 -94 30 -94h439q33 0 33 94t-33 94h-439q-30 0 -30 -94zM1253 595q0 -94 30 -94h439q32 0 32 94t-32 95h-439q-30 0 -30 -95zM1253 846q0 -94 30 -94h439q32 0 32 94t-32 94h-439q-30 0 -30 -94zM1253 1097q0 -95 30 -95h439q32 0 32 95 q0 94 -32 94h-439q-30 0 -30 -94z" />
<glyph unicode="E" d="M0 94q0 -94 30 -94h1692q32 0 32 94t-32 94h-1692q-30 0 -30 -94zM0 345q0 -94 30 -94h439q32 0 32 94t-32 94h-439q-30 0 -30 -94zM0 595q0 -94 30 -94h439q32 0 32 94t-32 95h-439q-30 0 -30 -95zM0 846q0 -94 30 -94h1441q33 0 33 94t-33 94h-1441q-30 0 -30 -94z M0 1097q0 -95 30 -95h439q32 0 32 95q0 94 -32 94h-439q-30 0 -30 -94zM0 1347q0 -94 30 -94h439q32 0 32 94t-32 94h-439q-30 0 -30 -94zM0 1598q0 -94 30 -94h1692q32 0 32 94t-32 94h-1692q-30 0 -30 -94z" />
<glyph unicode="F" d="M0 94q0 -94 30 -94h439q32 0 32 94t-32 94h-439q-30 0 -30 -94zM0 345q0 -94 30 -94h439q32 0 32 94t-32 94h-439q-30 0 -30 -94zM0 595q0 -94 30 -94h439q32 0 32 94t-32 95h-439q-30 0 -30 -95zM0 846q0 -94 30 -94h1441q33 0 33 94t-33 94h-1441q-30 0 -30 -94z M0 1097q0 -95 30 -95h439q32 0 32 95q0 94 -32 94h-439q-30 0 -30 -94zM0 1347q0 -94 30 -94h439q32 0 32 94t-32 94h-439q-30 0 -30 -94zM0 1598q0 -94 30 -94h1692q32 0 32 94t-32 94h-1692q-30 0 -30 -94z" />
<glyph unicode="G" d="M0 595q0 -94 30 -94h439q32 0 32 94t-32 95h-439q-30 0 -30 -95zM0 846q0 -94 30 -94h439q32 0 32 94t-32 94h-439q-30 0 -30 -94zM0 1097q0 -95 30 -95h439q32 0 32 95q0 94 -32 94h-439q-30 0 -30 -94zM251 345q0 -94 30 -94h439q32 0 32 94t-32 94h-439q-30 0 -30 -94 zM251 1347q0 -94 30 -94h439q32 0 32 94t-32 94h-439q-30 0 -30 -94zM501 94q0 -94 30 -94h1191q32 0 32 94t-32 94h-1191q-30 0 -30 -94zM501 1598q0 -94 30 -94h1191q32 0 32 94t-32 94h-1191q-30 0 -30 -94zM1002 846q0 -94 30 -94h690q32 0 32 94t-32 94h-690 q-30 0 -30 -94zM1253 345q0 -94 30 -94h439q32 0 32 94t-32 94h-439q-30 0 -30 -94zM1253 595q0 -94 30 -94h439q32 0 32 94t-32 95h-439q-30 0 -30 -95z" />
<glyph unicode="H" d="M0 94q0 -94 30 -94h439q32 0 32 94t-32 94h-439q-30 0 -30 -94zM0 345q0 -94 30 -94h439q32 0 32 94t-32 94h-439q-30 0 -30 -94zM0 595q0 -94 30 -94h439q32 0 32 94t-32 95h-439q-30 0 -30 -95zM0 846q0 -94 30 -94h1692q32 0 32 94t-32 94h-1692q-30 0 -30 -94z M0 1097q0 -95 30 -95h439q32 0 32 95q0 94 -32 94h-439q-30 0 -30 -94zM0 1347q0 -94 30 -94h439q32 0 32 94t-32 94h-439q-30 0 -30 -94zM0 1598q0 -94 30 -94h439q32 0 32 94t-32 94h-439q-30 0 -30 -94zM1253 94q0 -94 30 -94h439q32 0 32 94t-32 94h-439q-30 0 -30 -94z M1253 345q0 -94 30 -94h439q32 0 32 94t-32 94h-439q-30 0 -30 -94zM1253 595q0 -94 30 -94h439q32 0 32 94t-32 95h-439q-30 0 -30 -95zM1253 1097q0 -95 30 -95h439q32 0 32 95q0 94 -32 94h-439q-30 0 -30 -94zM1253 1347q0 -94 30 -94h439q32 0 32 94t-32 94h-439 q-30 0 -30 -94zM1253 1598q0 -94 30 -94h439q32 0 32 94t-32 94h-439q-30 0 -30 -94z" />
<glyph unicode="I" d="M251 94q0 -94 30 -94h1441q32 0 32 94t-32 94h-1441q-30 0 -30 -94zM251 1598q0 -94 30 -94h1441q32 0 32 94t-32 94h-1441q-30 0 -30 -94zM752 345q0 -94 30 -94h439q32 0 32 94t-32 94h-439q-30 0 -30 -94zM752 595q0 -94 30 -94h439q32 0 32 94t-32 95h-439 q-30 0 -30 -95zM752 846q0 -94 30 -94h439q32 0 32 94t-32 94h-439q-30 0 -30 -94zM752 1097q0 -95 30 -95h439q32 0 32 95q0 94 -32 94h-439q-30 0 -30 -94zM752 1347q0 -94 30 -94h439q32 0 32 94t-32 94h-439q-30 0 -30 -94z" />
<glyph unicode="J" d="M0 345q0 -94 30 -94h439q32 0 32 94t-32 94h-439q-30 0 -30 -94zM0 595q0 -94 30 -94h439q32 0 32 94t-32 95h-439q-30 0 -30 -95zM251 94q0 -94 30 -94h1190q33 0 33 94t-33 94h-1190q-30 0 -30 -94zM1253 345q0 -94 30 -94h439q32 0 32 94t-32 94h-439q-30 0 -30 -94z M1253 595q0 -94 30 -94h439q32 0 32 94t-32 95h-439q-30 0 -30 -95zM1253 846q0 -94 30 -94h439q32 0 32 94t-32 94h-439q-30 0 -30 -94zM1253 1097q0 -95 30 -95h439q32 0 32 95q0 94 -32 94h-439q-30 0 -30 -94zM1253 1347q0 -94 30 -94h439q32 0 32 94t-32 94h-439 q-30 0 -30 -94zM1253 1598q0 -94 30 -94h439q32 0 32 94t-32 94h-439q-30 0 -30 -94z" />
<glyph unicode="K" d="M0 94q0 -94 30 -94h439q32 0 32 94t-32 94h-439q-30 0 -30 -94zM0 345q0 -94 30 -94h439q32 0 32 94t-32 94h-439q-30 0 -30 -94zM0 595q0 -94 30 -94h1191q32 0 32 94t-32 95h-1191q-30 0 -30 -95zM0 846q0 -94 30 -94h940q32 0 32 94t-32 94h-940q-30 0 -30 -94z M0 1097q0 -95 30 -95h439q32 0 32 95q0 94 -32 94h-439q-30 0 -30 -94zM0 1347q0 -94 30 -94h439q32 0 32 94t-32 94h-439q-30 0 -30 -94zM0 1598q0 -94 30 -94h439q32 0 32 94t-32 94h-439q-30 0 -30 -94zM752 345q0 -94 30 -94h689q33 0 33 94t-33 94h-689q-30 0 -30 -94z M752 1097q0 -95 30 -95h439q32 0 32 95q0 94 -32 94h-439q-30 0 -30 -94zM1002 94q0 -94 30 -94h690q32 0 32 94t-32 94h-690q-30 0 -30 -94zM1002 1347q0 -94 30 -94h439q33 0 33 94t-33 94h-439q-30 0 -30 -94zM1253 1598q0 -94 30 -94h439q32 0 32 94t-32 94h-439 q-30 0 -30 -94z" />
<glyph unicode="L" d="M0 94q0 -94 30 -94h1692q32 0 32 94t-32 94h-1692q-30 0 -30 -94zM0 345q0 -94 30 -94h439q32 0 32 94t-32 94h-439q-30 0 -30 -94zM0 595q0 -94 30 -94h439q32 0 32 94t-32 95h-439q-30 0 -30 -95zM0 846q0 -94 30 -94h439q32 0 32 94t-32 94h-439q-30 0 -30 -94z M0 1097q0 -95 30 -95h439q32 0 32 95q0 94 -32 94h-439q-30 0 -30 -94zM0 1347q0 -94 30 -94h439q32 0 32 94t-32 94h-439q-30 0 -30 -94zM0 1598q0 -94 30 -94h439q32 0 32 94t-32 94h-439q-30 0 -30 -94z" />
<glyph unicode="M" d="M0 94q0 -94 30 -94h439q32 0 32 94t-32 94h-439q-30 0 -30 -94zM0 345q0 -94 30 -94h439q32 0 32 94t-32 94h-439q-30 0 -30 -94zM0 595q0 -94 30 -94h439q32 0 32 94t-32 95h-439q-30 0 -30 -95zM0 846q0 -94 30 -94h1692q32 0 32 94t-32 94h-1692q-30 0 -30 -94z M0 1097q0 -95 30 -95h1692q32 0 32 95q0 94 -32 94h-1692q-30 0 -30 -94zM0 1347q0 -94 30 -94h690q32 0 32 94t-32 94h-690q-30 0 -30 -94zM0 1598q0 -94 30 -94h439q32 0 32 94t-32 94h-439q-30 0 -30 -94zM752 595q0 -94 30 -94h188q32 0 32 94t-32 95h-188 q-30 0 -30 -95zM1002 1347q0 -94 30 -94h690q32 0 32 94t-32 94h-690q-30 0 -30 -94zM1253 94q0 -94 30 -94h439q32 0 32 94t-32 94h-439q-30 0 -30 -94zM1253 345q0 -94 30 -94h439q32 0 32 94t-32 94h-439q-30 0 -30 -94zM1253 595q0 -94 30 -94h439q32 0 32 94t-32 95 h-439q-30 0 -30 -95zM1253 1598q0 -94 30 -94h439q32 0 32 94t-32 94h-439q-30 0 -30 -94z" />
<glyph unicode="N" d="M0 94q0 -94 30 -94h439q32 0 32 94t-32 94h-439q-30 0 -30 -94zM0 345q0 -94 30 -94h439q32 0 32 94t-32 94h-439q-30 0 -30 -94zM0 595q0 -94 30 -94h439q32 0 32 94t-32 95h-439q-30 0 -30 -95zM0 846q0 -94 30 -94h1692q32 0 32 94t-32 94h-1692q-30 0 -30 -94z M0 1097q0 -95 30 -95h940q32 0 32 95q0 94 -32 94h-940q-30 0 -30 -94zM0 1347q0 -94 30 -94h690q32 0 32 94t-32 94h-690q-30 0 -30 -94zM0 1598q0 -94 30 -94h439q32 0 32 94t-32 94h-439q-30 0 -30 -94zM752 595q0 -94 30 -94h940q32 0 32 94t-32 95h-940q-30 0 -30 -95z M1002 345q0 -94 30 -94h690q32 0 32 94t-32 94h-690q-30 0 -30 -94zM1253 94q0 -94 30 -94h439q32 0 32 94t-32 94h-439q-30 0 -30 -94zM1253 1097q0 -95 30 -95h439q32 0 32 95q0 94 -32 94h-439q-30 0 -30 -94zM1253 1347q0 -94 30 -94h439q32 0 32 94t-32 94h-439 q-30 0 -30 -94zM1253 1598q0 -94 30 -94h439q32 0 32 94t-32 94h-439q-30 0 -30 -94z" />
<glyph unicode="O" d="M0 345q0 -94 30 -94h439q32 0 32 94t-32 94h-439q-30 0 -30 -94zM0 595q0 -94 30 -94h439q32 0 32 94t-32 95h-439q-30 0 -30 -95zM0 846q0 -94 30 -94h439q32 0 32 94t-32 94h-439q-30 0 -30 -94zM0 1097q0 -95 30 -95h439q32 0 32 95q0 94 -32 94h-439q-30 0 -30 -94z M0 1347q0 -94 30 -94h439q32 0 32 94t-32 94h-439q-30 0 -30 -94zM251 94q0 -94 30 -94h1190q33 0 33 94t-33 94h-1190q-30 0 -30 -94zM251 1598q0 -94 30 -94h1190q33 0 33 94t-33 94h-1190q-30 0 -30 -94zM1253 345q0 -94 30 -94h439q32 0 32 94t-32 94h-439 q-30 0 -30 -94zM1253 595q0 -94 30 -94h439q32 0 32 94t-32 95h-439q-30 0 -30 -95zM1253 846q0 -94 30 -94h439q32 0 32 94t-32 94h-439q-30 0 -30 -94zM1253 1097q0 -95 30 -95h439q32 0 32 95q0 94 -32 94h-439q-30 0 -30 -94zM1253 1347q0 -94 30 -94h439q32 0 32 94 t-32 94h-439q-30 0 -30 -94z" />
<glyph unicode="P" d="M0 94q0 -94 30 -94h439q32 0 32 94t-32 94h-439q-30 0 -30 -94zM0 345q0 -94 30 -94h439q32 0 32 94t-32 94h-439q-30 0 -30 -94zM0 595q0 -94 30 -94h1441q33 0 33 94t-33 95h-1441q-30 0 -30 -95zM0 846q0 -94 30 -94h439q32 0 32 94t-32 94h-439q-30 0 -30 -94z M0 1097q0 -95 30 -95h439q32 0 32 95q0 94 -32 94h-439q-30 0 -30 -94zM0 1347q0 -94 30 -94h439q32 0 32 94t-32 94h-439q-30 0 -30 -94zM0 1598q0 -94 30 -94h1441q33 0 33 94t-33 94h-1441q-30 0 -30 -94zM1253 846q0 -94 30 -94h439q32 0 32 94t-32 94h-439 q-30 0 -30 -94zM1253 1097q0 -95 30 -95h439q32 0 32 95q0 94 -32 94h-439q-30 0 -30 -94zM1253 1347q0 -94 30 -94h439q32 0 32 94t-32 94h-439q-30 0 -30 -94z" />
<glyph unicode="Q" d="M0 345q0 -94 30 -94h439q32 0 32 94t-32 94h-439q-30 0 -30 -94zM0 595q0 -94 30 -94h439q32 0 32 94t-32 95h-439q-30 0 -30 -95zM0 846q0 -94 30 -94h439q32 0 32 94t-32 94h-439q-30 0 -30 -94zM0 1097q0 -95 30 -95h439q32 0 32 95q0 94 -32 94h-439q-30 0 -30 -94z M0 1347q0 -94 30 -94h439q32 0 32 94t-32 94h-439q-30 0 -30 -94zM251 94q0 -94 30 -94h940q32 0 32 94t-32 94h-940q-30 0 -30 -94zM251 1598q0 -94 30 -94h1190q33 0 33 94t-33 94h-1190q-30 0 -30 -94zM752 595q0 -94 30 -94h940q32 0 32 94t-32 95h-940q-30 0 -30 -95z M1002 345q0 -94 30 -94h439q33 0 33 94t-33 94h-439q-30 0 -30 -94zM1253 846q0 -94 30 -94h439q32 0 32 94t-32 94h-439q-30 0 -30 -94zM1253 1097q0 -95 30 -95h439q32 0 32 95q0 94 -32 94h-439q-30 0 -30 -94zM1253 1347q0 -94 30 -94h439q32 0 32 94t-32 94h-439 q-30 0 -30 -94zM1504 94q0 -94 30 -94h188q32 0 32 94t-32 94h-188q-30 0 -30 -94z" />
<glyph unicode="R" d="M0 94q0 -94 30 -94h439q32 0 32 94t-32 94h-439q-30 0 -30 -94zM0 345q0 -94 30 -94h439q32 0 32 94t-32 94h-439q-30 0 -30 -94zM0 595q0 -94 30 -94h1191q32 0 32 94t-32 95h-1191q-30 0 -30 -95zM0 846q0 -94 30 -94h439q32 0 32 94t-32 94h-439q-30 0 -30 -94z M0 1097q0 -95 30 -95h439q32 0 32 95q0 94 -32 94h-439q-30 0 -30 -94zM0 1347q0 -94 30 -94h439q32 0 32 94t-32 94h-439q-30 0 -30 -94zM0 1598q0 -94 30 -94h1441q33 0 33 94t-33 94h-1441q-30 0 -30 -94zM752 345q0 -94 30 -94h689q33 0 33 94t-33 94h-689 q-30 0 -30 -94zM1002 94q0 -94 30 -94h690q32 0 32 94t-32 94h-690q-30 0 -30 -94zM1002 846q0 -94 30 -94h690q32 0 32 94t-32 94h-690q-30 0 -30 -94zM1253 1097q0 -95 30 -95h439q32 0 32 95q0 94 -32 94h-439q-30 0 -30 -94zM1253 1347q0 -94 30 -94h439q32 0 32 94 t-32 94h-439q-30 0 -30 -94z" />
<glyph unicode="S" d="M0 345q0 -94 30 -94h439q32 0 32 94t-32 94h-439q-30 0 -30 -94zM0 1097q0 -95 30 -95h439q32 0 32 95q0 94 -32 94h-439q-30 0 -30 -94zM0 1347q0 -94 30 -94h439q32 0 32 94t-32 94h-439q-30 0 -30 -94zM251 94q0 -94 30 -94h1190q33 0 33 94t-33 94h-1190 q-30 0 -30 -94zM251 846q0 -94 30 -94h1190q33 0 33 94t-33 94h-1190q-30 0 -30 -94zM251 1598q0 -94 30 -94h940q32 0 32 94t-32 94h-940q-30 0 -30 -94zM1002 1347q0 -94 30 -94h439q33 0 33 94t-33 94h-439q-30 0 -30 -94zM1253 345q0 -94 30 -94h439q32 0 32 94t-32 94 h-439q-30 0 -30 -94zM1253 595q0 -94 30 -94h439q32 0 32 94t-32 95h-439q-30 0 -30 -95z" />
<glyph unicode="T" d="M251 1598q0 -94 30 -94h1441q32 0 32 94t-32 94h-1441q-30 0 -30 -94zM752 94q0 -94 30 -94h439q32 0 32 94t-32 94h-439q-30 0 -30 -94zM752 345q0 -94 30 -94h439q32 0 32 94t-32 94h-439q-30 0 -30 -94zM752 595q0 -94 30 -94h439q32 0 32 94t-32 95h-439 q-30 0 -30 -95zM752 846q0 -94 30 -94h439q32 0 32 94t-32 94h-439q-30 0 -30 -94zM752 1097q0 -95 30 -95h439q32 0 32 95q0 94 -32 94h-439q-30 0 -30 -94zM752 1347q0 -94 30 -94h439q32 0 32 94t-32 94h-439q-30 0 -30 -94z" />
<glyph unicode="U" d="M0 345q0 -94 30 -94h439q32 0 32 94t-32 94h-439q-30 0 -30 -94zM0 595q0 -94 30 -94h439q32 0 32 94t-32 95h-439q-30 0 -30 -95zM0 846q0 -94 30 -94h439q32 0 32 94t-32 94h-439q-30 0 -30 -94zM0 1097q0 -95 30 -95h439q32 0 32 95q0 94 -32 94h-439q-30 0 -30 -94z M0 1347q0 -94 30 -94h439q32 0 32 94t-32 94h-439q-30 0 -30 -94zM0 1598q0 -94 30 -94h439q32 0 32 94t-32 94h-439q-30 0 -30 -94zM251 94q0 -94 30 -94h1190q33 0 33 94t-33 94h-1190q-30 0 -30 -94zM1253 345q0 -94 30 -94h439q32 0 32 94t-32 94h-439q-30 0 -30 -94z M1253 595q0 -94 30 -94h439q32 0 32 94t-32 95h-439q-30 0 -30 -95zM1253 846q0 -94 30 -94h439q32 0 32 94t-32 94h-439q-30 0 -30 -94zM1253 1097q0 -95 30 -95h439q32 0 32 95q0 94 -32 94h-439q-30 0 -30 -94zM1253 1347q0 -94 30 -94h439q32 0 32 94t-32 94h-439 q-30 0 -30 -94zM1253 1598q0 -94 30 -94h439q32 0 32 94t-32 94h-439q-30 0 -30 -94z" />
<glyph unicode="V" d="M0 846q0 -94 30 -94h690q32 0 32 94t-32 94h-690q-30 0 -30 -94zM0 1097q0 -95 30 -95h439q32 0 32 95q0 94 -32 94h-439q-30 0 -30 -94zM0 1347q0 -94 30 -94h439q32 0 32 94t-32 94h-439q-30 0 -30 -94zM0 1598q0 -94 30 -94h439q32 0 32 94t-32 94h-439q-30 0 -30 -94 zM251 595q0 -94 30 -94h1190q33 0 33 94t-33 95h-1190q-30 0 -30 -95zM501 345q0 -94 30 -94h690q32 0 32 94t-32 94h-690q-30 0 -30 -94zM752 94q0 -94 30 -94h188q32 0 32 94t-32 94h-188q-30 0 -30 -94zM1002 846q0 -94 30 -94h690q32 0 32 94t-32 94h-690q-30 0 -30 -94 zM1253 1097q0 -95 30 -95h439q32 0 32 95q0 94 -32 94h-439q-30 0 -30 -94zM1253 1347q0 -94 30 -94h439q32 0 32 94t-32 94h-439q-30 0 -30 -94zM1253 1598q0 -94 30 -94h439q32 0 32 94t-32 94h-439q-30 0 -30 -94z" />
<glyph unicode="W" d="M0 94q0 -94 30 -94h439q32 0 32 94t-32 94h-439q-30 0 -30 -94zM0 345q0 -94 30 -94h690q32 0 32 94t-32 94h-690q-30 0 -30 -94zM0 595q0 -94 30 -94h1692q32 0 32 94t-32 95h-1692q-30 0 -30 -95zM0 846q0 -94 30 -94h439q32 0 32 94t-32 94h-439q-30 0 -30 -94z M0 1097q0 -95 30 -95h439q32 0 32 95q0 94 -32 94h-439q-30 0 -30 -94zM0 1347q0 -94 30 -94h439q32 0 32 94t-32 94h-439q-30 0 -30 -94zM0 1598q0 -94 30 -94h439q32 0 32 94t-32 94h-439q-30 0 -30 -94zM752 846q0 -94 30 -94h188q32 0 32 94t-32 94h-188q-30 0 -30 -94z M1002 345q0 -94 30 -94h690q32 0 32 94t-32 94h-690q-30 0 -30 -94zM1253 94q0 -94 30 -94h439q32 0 32 94t-32 94h-439q-30 0 -30 -94zM1253 846q0 -94 30 -94h439q32 0 32 94t-32 94h-439q-30 0 -30 -94zM1253 1097q0 -95 30 -95h439q32 0 32 95q0 94 -32 94h-439 q-30 0 -30 -94zM1253 1347q0 -94 30 -94h439q32 0 32 94t-32 94h-439q-30 0 -30 -94zM1253 1598q0 -94 30 -94h439q32 0 32 94t-32 94h-439q-30 0 -30 -94z" />
<glyph unicode="X" d="M0 94q0 -94 30 -94h439q32 0 32 94t-32 94h-439q-30 0 -30 -94zM0 345q0 -94 30 -94h690q32 0 32 94t-32 94h-690q-30 0 -30 -94zM0 1347q0 -94 30 -94h690q32 0 32 94t-32 94h-690q-30 0 -30 -94zM0 1598q0 -94 30 -94h439q32 0 32 94t-32 94h-439q-30 0 -30 -94z M251 595q0 -94 30 -94h1190q33 0 33 94t-33 95h-1190q-30 0 -30 -95zM251 1097q0 -95 30 -95h1190q33 0 33 95q0 94 -33 94h-1190q-30 0 -30 -94zM501 846q0 -94 30 -94h690q32 0 32 94t-32 94h-690q-30 0 -30 -94zM1002 345q0 -94 30 -94h690q32 0 32 94t-32 94h-690 q-30 0 -30 -94zM1002 1347q0 -94 30 -94h690q32 0 32 94t-32 94h-690q-30 0 -30 -94zM1253 94q0 -94 30 -94h439q32 0 32 94t-32 94h-439q-30 0 -30 -94zM1253 1598q0 -94 30 -94h439q32 0 32 94t-32 94h-439q-30 0 -30 -94z" />
<glyph unicode="Y" d="M251 1097q0 -95 30 -95h439q32 0 32 95q0 94 -32 94h-439q-30 0 -30 -94zM251 1347q0 -94 30 -94h439q32 0 32 94t-32 94h-439q-30 0 -30 -94zM251 1598q0 -94 30 -94h439q32 0 32 94t-32 94h-439q-30 0 -30 -94zM501 846q0 -94 30 -94h940q33 0 33 94t-33 94h-940 q-30 0 -30 -94zM752 94q0 -94 30 -94h439q32 0 32 94t-32 94h-439q-30 0 -30 -94zM752 345q0 -94 30 -94h439q32 0 32 94t-32 94h-439q-30 0 -30 -94zM752 595q0 -94 30 -94h439q32 0 32 94t-32 95h-439q-30 0 -30 -95zM1253 1097q0 -95 30 -95h439q32 0 32 95q0 94 -32 94 h-439q-30 0 -30 -94zM1253 1347q0 -94 30 -94h439q32 0 32 94t-32 94h-439q-30 0 -30 -94zM1253 1598q0 -94 30 -94h439q32 0 32 94t-32 94h-439q-30 0 -30 -94z" />
<glyph unicode="Z" d="M0 94q0 -94 30 -94h1692q32 0 32 94t-32 94h-1692q-30 0 -30 -94zM0 345q0 -94 30 -94h690q32 0 32 94t-32 94h-690q-30 0 -30 -94zM0 1598q0 -94 30 -94h1692q32 0 32 94t-32 94h-1692q-30 0 -30 -94zM251 595q0 -94 30 -94h689q32 0 32 94t-32 95h-689q-30 0 -30 -95z M501 846q0 -94 30 -94h690q32 0 32 94t-32 94h-690q-30 0 -30 -94zM752 1097q0 -95 30 -95h689q33 0 33 95q0 94 -33 94h-689q-30 0 -30 -94zM1002 1347q0 -94 30 -94h690q32 0 32 94t-32 94h-690q-30 0 -30 -94z" />
<glyph unicode="[" d="M501 94q0 -94 30 -94h690q32 0 32 94t-32 94h-690q-30 0 -30 -94zM501 345q0 -94 30 -94h439q32 0 32 94t-32 94h-439q-30 0 -30 -94zM501 595q0 -94 30 -94h439q32 0 32 94t-32 95h-439q-30 0 -30 -95zM501 846q0 -94 30 -94h439q32 0 32 94t-32 94h-439q-30 0 -30 -94z M501 1097q0 -95 30 -95h439q32 0 32 95q0 94 -32 94h-439q-30 0 -30 -94zM501 1347q0 -94 30 -94h439q32 0 32 94t-32 94h-439q-30 0 -30 -94zM501 1598q0 -94 30 -94h690q32 0 32 94t-32 94h-690q-30 0 -30 -94z" />
<glyph unicode="\" d="M0 1598q0 94 30 94h189q32 0 32 -94t-32 -94h-189q-30 0 -30 94zM251 1347q0 94 30 94h188q32 0 32 -94t-32 -94h-188q-30 0 -30 94zM501 1097q0 94 30 94h189q32 0 32 -94q0 -95 -32 -95h-189q-30 0 -30 95zM752 846q0 94 30 94h188q32 0 32 -94t-32 -94h-188 q-30 0 -30 94zM1002 595q0 94 30 95h189q32 0 32 -95q0 -94 -32 -94h-189q-30 0 -30 94zM1253 345q0 94 30 94h188q33 0 33 -94t-33 -94h-188q-30 0 -30 94zM1504 94q0 94 30 94h188q32 0 32 -94t-32 -94h-188q-30 0 -30 94z" />
<glyph unicode="]" d="M501 94q0 -94 30 -94h690q32 0 32 94t-32 94h-690q-30 0 -30 -94zM501 1598q0 -94 30 -94h690q32 0 32 94t-32 94h-690q-30 0 -30 -94zM752 345q0 -94 30 -94h439q32 0 32 94t-32 94h-439q-30 0 -30 -94zM752 595q0 -94 30 -94h439q32 0 32 94t-32 95h-439q-30 0 -30 -95 zM752 846q0 -94 30 -94h439q32 0 32 94t-32 94h-439q-30 0 -30 -94zM752 1097q0 -95 30 -95h439q32 0 32 95q0 94 -32 94h-439q-30 0 -30 -94zM752 1347q0 -94 30 -94h439q32 0 32 94t-32 94h-439q-30 0 -30 -94z" />
<glyph unicode="^" d="M501 1347q0 94 30 94h189q32 0 32 -94t-32 -94h-189q-30 0 -30 94zM752 1598q0 94 30 94h188q32 0 32 -94t-32 -94h-188q-30 0 -30 94zM1002 1347q0 94 30 94h189q32 0 32 -94t-32 -94h-189q-30 0 -30 94z" />
<glyph unicode="_" d="M0 94q0 -94 30 -94h1692q32 0 32 94t-32 94h-1692q-30 0 -30 -94z" />
<glyph unicode="`" d="M752 1598q0 94 30 94h188q32 0 32 -94t-32 -94h-188q-30 0 -30 94zM1002 1347q0 94 30 94h189q32 0 32 -94t-32 -94h-189q-30 0 -30 94z" />
<glyph unicode="a" d="M0 94q0 -94 30 -94h439q32 0 32 94t-32 94h-439q-30 0 -30 -94zM0 345q0 -94 30 -94h439q32 0 32 94t-32 94h-439q-30 0 -30 -94zM0 595q0 -94 30 -94h1692q32 0 32 94t-32 95h-1692q-30 0 -30 -95zM0 846q0 -94 30 -94h439q32 0 32 94t-32 94h-439q-30 0 -30 -94z M0 1097q0 -95 30 -95h439q32 0 32 95q0 94 -32 94h-439q-30 0 -30 -94zM251 1347q0 -94 30 -94h439q32 0 32 94t-32 94h-439q-30 0 -30 -94zM501 1598q0 -94 30 -94h690q32 0 32 94t-32 94h-690q-30 0 -30 -94zM1002 1347q0 -94 30 -94h439q33 0 33 94t-33 94h-439 q-30 0 -30 -94zM1253 94q0 -94 30 -94h439q32 0 32 94t-32 94h-439q-30 0 -30 -94zM1253 345q0 -94 30 -94h439q32 0 32 94t-32 94h-439q-30 0 -30 -94zM1253 846q0 -94 30 -94h439q32 0 32 94t-32 94h-439q-30 0 -30 -94zM1253 1097q0 -95 30 -95h439q32 0 32 95 q0 94 -32 94h-439q-30 0 -30 -94z" />
<glyph unicode="b" d="M0 94q0 -94 30 -94h1441q33 0 33 94t-33 94h-1441q-30 0 -30 -94zM0 345q0 -94 30 -94h439q32 0 32 94t-32 94h-439q-30 0 -30 -94zM0 595q0 -94 30 -94h439q32 0 32 94t-32 95h-439q-30 0 -30 -95zM0 846q0 -94 30 -94h1441q33 0 33 94t-33 94h-1441q-30 0 -30 -94z M0 1097q0 -95 30 -95h439q32 0 32 95q0 94 -32 94h-439q-30 0 -30 -94zM0 1347q0 -94 30 -94h439q32 0 32 94t-32 94h-439q-30 0 -30 -94zM0 1598q0 -94 30 -94h1441q33 0 33 94t-33 94h-1441q-30 0 -30 -94zM1253 345q0 -94 30 -94h439q32 0 32 94t-32 94h-439 q-30 0 -30 -94zM1253 595q0 -94 30 -94h439q32 0 32 94t-32 95h-439q-30 0 -30 -95zM1253 1097q0 -95 30 -95h439q32 0 32 95q0 94 -32 94h-439q-30 0 -30 -94zM1253 1347q0 -94 30 -94h439q32 0 32 94t-32 94h-439q-30 0 -30 -94z" />
<glyph unicode="c" d="M0 595q0 -94 30 -94h439q32 0 32 94t-32 95h-439q-30 0 -30 -95zM0 846q0 -94 30 -94h439q32 0 32 94t-32 94h-439q-30 0 -30 -94zM0 1097q0 -95 30 -95h439q32 0 32 95q0 94 -32 94h-439q-30 0 -30 -94zM251 345q0 -94 30 -94h439q32 0 32 94t-32 94h-439q-30 0 -30 -94 zM251 1347q0 -94 30 -94h439q32 0 32 94t-32 94h-439q-30 0 -30 -94zM501 94q0 -94 30 -94h940q33 0 33 94t-33 94h-940q-30 0 -30 -94zM501 1598q0 -94 30 -94h940q33 0 33 94t-33 94h-940q-30 0 -30 -94zM1253 345q0 -94 30 -94h439q32 0 32 94t-32 94h-439q-30 0 -30 -94 zM1253 1347q0 -94 30 -94h439q32 0 32 94t-32 94h-439q-30 0 -30 -94z" />
<glyph unicode="d" d="M0 94q0 -94 30 -94h1191q32 0 32 94t-32 94h-1191q-30 0 -30 -94zM0 345q0 -94 30 -94h439q32 0 32 94t-32 94h-439q-30 0 -30 -94zM0 595q0 -94 30 -94h439q32 0 32 94t-32 95h-439q-30 0 -30 -95zM0 846q0 -94 30 -94h439q32 0 32 94t-32 94h-439q-30 0 -30 -94z M0 1097q0 -95 30 -95h439q32 0 32 95q0 94 -32 94h-439q-30 0 -30 -94zM0 1347q0 -94 30 -94h439q32 0 32 94t-32 94h-439q-30 0 -30 -94zM0 1598q0 -94 30 -94h1191q32 0 32 94t-32 94h-1191q-30 0 -30 -94zM1002 345q0 -94 30 -94h439q33 0 33 94t-33 94h-439 q-30 0 -30 -94zM1002 1347q0 -94 30 -94h439q33 0 33 94t-33 94h-439q-30 0 -30 -94zM1253 595q0 -94 30 -94h439q32 0 32 94t-32 95h-439q-30 0 -30 -95zM1253 846q0 -94 30 -94h439q32 0 32 94t-32 94h-439q-30 0 -30 -94zM1253 1097q0 -95 30 -95h439q32 0 32 95 q0 94 -32 94h-439q-30 0 -30 -94z" />
<glyph unicode="e" d="M0 94q0 -94 30 -94h1692q32 0 32 94t-32 94h-1692q-30 0 -30 -94zM0 345q0 -94 30 -94h439q32 0 32 94t-32 94h-439q-30 0 -30 -94zM0 595q0 -94 30 -94h439q32 0 32 94t-32 95h-439q-30 0 -30 -95zM0 846q0 -94 30 -94h1441q33 0 33 94t-33 94h-1441q-30 0 -30 -94z M0 1097q0 -95 30 -95h439q32 0 32 95q0 94 -32 94h-439q-30 0 -30 -94zM0 1347q0 -94 30 -94h439q32 0 32 94t-32 94h-439q-30 0 -30 -94zM0 1598q0 -94 30 -94h1692q32 0 32 94t-32 94h-1692q-30 0 -30 -94z" />
<glyph unicode="f" d="M0 94q0 -94 30 -94h439q32 0 32 94t-32 94h-439q-30 0 -30 -94zM0 345q0 -94 30 -94h439q32 0 32 94t-32 94h-439q-30 0 -30 -94zM0 595q0 -94 30 -94h439q32 0 32 94t-32 95h-439q-30 0 -30 -95zM0 846q0 -94 30 -94h1441q33 0 33 94t-33 94h-1441q-30 0 -30 -94z M0 1097q0 -95 30 -95h439q32 0 32 95q0 94 -32 94h-439q-30 0 -30 -94zM0 1347q0 -94 30 -94h439q32 0 32 94t-32 94h-439q-30 0 -30 -94zM0 1598q0 -94 30 -94h1692q32 0 32 94t-32 94h-1692q-30 0 -30 -94z" />
<glyph unicode="g" d="M0 595q0 -94 30 -94h439q32 0 32 94t-32 95h-439q-30 0 -30 -95zM0 846q0 -94 30 -94h439q32 0 32 94t-32 94h-439q-30 0 -30 -94zM0 1097q0 -95 30 -95h439q32 0 32 95q0 94 -32 94h-439q-30 0 -30 -94zM251 345q0 -94 30 -94h439q32 0 32 94t-32 94h-439q-30 0 -30 -94 zM251 1347q0 -94 30 -94h439q32 0 32 94t-32 94h-439q-30 0 -30 -94zM501 94q0 -94 30 -94h1191q32 0 32 94t-32 94h-1191q-30 0 -30 -94zM501 1598q0 -94 30 -94h1191q32 0 32 94t-32 94h-1191q-30 0 -30 -94zM1002 846q0 -94 30 -94h690q32 0 32 94t-32 94h-690 q-30 0 -30 -94zM1253 345q0 -94 30 -94h439q32 0 32 94t-32 94h-439q-30 0 -30 -94zM1253 595q0 -94 30 -94h439q32 0 32 94t-32 95h-439q-30 0 -30 -95z" />
<glyph unicode="h" d="M0 94q0 -94 30 -94h439q32 0 32 94t-32 94h-439q-30 0 -30 -94zM0 345q0 -94 30 -94h439q32 0 32 94t-32 94h-439q-30 0 -30 -94zM0 595q0 -94 30 -94h439q32 0 32 94t-32 95h-439q-30 0 -30 -95zM0 846q0 -94 30 -94h1692q32 0 32 94t-32 94h-1692q-30 0 -30 -94z M0 1097q0 -95 30 -95h439q32 0 32 95q0 94 -32 94h-439q-30 0 -30 -94zM0 1347q0 -94 30 -94h439q32 0 32 94t-32 94h-439q-30 0 -30 -94zM0 1598q0 -94 30 -94h439q32 0 32 94t-32 94h-439q-30 0 -30 -94zM1253 94q0 -94 30 -94h439q32 0 32 94t-32 94h-439q-30 0 -30 -94z M1253 345q0 -94 30 -94h439q32 0 32 94t-32 94h-439q-30 0 -30 -94zM1253 595q0 -94 30 -94h439q32 0 32 94t-32 95h-439q-30 0 -30 -95zM1253 1097q0 -95 30 -95h439q32 0 32 95q0 94 -32 94h-439q-30 0 -30 -94zM1253 1347q0 -94 30 -94h439q32 0 32 94t-32 94h-439 q-30 0 -30 -94zM1253 1598q0 -94 30 -94h439q32 0 32 94t-32 94h-439q-30 0 -30 -94z" />
<glyph unicode="i" d="M251 94q0 -94 30 -94h1441q32 0 32 94t-32 94h-1441q-30 0 -30 -94zM251 1598q0 -94 30 -94h1441q32 0 32 94t-32 94h-1441q-30 0 -30 -94zM752 345q0 -94 30 -94h439q32 0 32 94t-32 94h-439q-30 0 -30 -94zM752 595q0 -94 30 -94h439q32 0 32 94t-32 95h-439 q-30 0 -30 -95zM752 846q0 -94 30 -94h439q32 0 32 94t-32 94h-439q-30 0 -30 -94zM752 1097q0 -95 30 -95h439q32 0 32 95q0 94 -32 94h-439q-30 0 -30 -94zM752 1347q0 -94 30 -94h439q32 0 32 94t-32 94h-439q-30 0 -30 -94z" />
<glyph unicode="j" d="M0 345q0 -94 30 -94h439q32 0 32 94t-32 94h-439q-30 0 -30 -94zM0 595q0 -94 30 -94h439q32 0 32 94t-32 95h-439q-30 0 -30 -95zM251 94q0 -94 30 -94h1190q33 0 33 94t-33 94h-1190q-30 0 -30 -94zM1253 345q0 -94 30 -94h439q32 0 32 94t-32 94h-439q-30 0 -30 -94z M1253 595q0 -94 30 -94h439q32 0 32 94t-32 95h-439q-30 0 -30 -95zM1253 846q0 -94 30 -94h439q32 0 32 94t-32 94h-439q-30 0 -30 -94zM1253 1097q0 -95 30 -95h439q32 0 32 95q0 94 -32 94h-439q-30 0 -30 -94zM1253 1347q0 -94 30 -94h439q32 0 32 94t-32 94h-439 q-30 0 -30 -94zM1253 1598q0 -94 30 -94h439q32 0 32 94t-32 94h-439q-30 0 -30 -94z" />
<glyph unicode="k" d="M0 94q0 -94 30 -94h439q32 0 32 94t-32 94h-439q-30 0 -30 -94zM0 345q0 -94 30 -94h439q32 0 32 94t-32 94h-439q-30 0 -30 -94zM0 595q0 -94 30 -94h1191q32 0 32 94t-32 95h-1191q-30 0 -30 -95zM0 846q0 -94 30 -94h940q32 0 32 94t-32 94h-940q-30 0 -30 -94z M0 1097q0 -95 30 -95h439q32 0 32 95q0 94 -32 94h-439q-30 0 -30 -94zM0 1347q0 -94 30 -94h439q32 0 32 94t-32 94h-439q-30 0 -30 -94zM0 1598q0 -94 30 -94h439q32 0 32 94t-32 94h-439q-30 0 -30 -94zM752 345q0 -94 30 -94h689q33 0 33 94t-33 94h-689q-30 0 -30 -94z M752 1097q0 -95 30 -95h439q32 0 32 95q0 94 -32 94h-439q-30 0 -30 -94zM1002 94q0 -94 30 -94h690q32 0 32 94t-32 94h-690q-30 0 -30 -94zM1002 1347q0 -94 30 -94h439q33 0 33 94t-33 94h-439q-30 0 -30 -94zM1253 1598q0 -94 30 -94h439q32 0 32 94t-32 94h-439 q-30 0 -30 -94z" />
<glyph unicode="l" d="M0 94q0 -94 30 -94h1692q32 0 32 94t-32 94h-1692q-30 0 -30 -94zM0 345q0 -94 30 -94h439q32 0 32 94t-32 94h-439q-30 0 -30 -94zM0 595q0 -94 30 -94h439q32 0 32 94t-32 95h-439q-30 0 -30 -95zM0 846q0 -94 30 -94h439q32 0 32 94t-32 94h-439q-30 0 -30 -94z M0 1097q0 -95 30 -95h439q32 0 32 95q0 94 -32 94h-439q-30 0 -30 -94zM0 1347q0 -94 30 -94h439q32 0 32 94t-32 94h-439q-30 0 -30 -94zM0 1598q0 -94 30 -94h439q32 0 32 94t-32 94h-439q-30 0 -30 -94z" />
<glyph unicode="m" d="M0 94q0 -94 30 -94h439q32 0 32 94t-32 94h-439q-30 0 -30 -94zM0 345q0 -94 30 -94h439q32 0 32 94t-32 94h-439q-30 0 -30 -94zM0 595q0 -94 30 -94h439q32 0 32 94t-32 95h-439q-30 0 -30 -95zM0 846q0 -94 30 -94h1692q32 0 32 94t-32 94h-1692q-30 0 -30 -94z M0 1097q0 -95 30 -95h1692q32 0 32 95q0 94 -32 94h-1692q-30 0 -30 -94zM0 1347q0 -94 30 -94h690q32 0 32 94t-32 94h-690q-30 0 -30 -94zM0 1598q0 -94 30 -94h439q32 0 32 94t-32 94h-439q-30 0 -30 -94zM752 595q0 -94 30 -94h188q32 0 32 94t-32 95h-188 q-30 0 -30 -95zM1002 1347q0 -94 30 -94h690q32 0 32 94t-32 94h-690q-30 0 -30 -94zM1253 94q0 -94 30 -94h439q32 0 32 94t-32 94h-439q-30 0 -30 -94zM1253 345q0 -94 30 -94h439q32 0 32 94t-32 94h-439q-30 0 -30 -94zM1253 595q0 -94 30 -94h439q32 0 32 94t-32 95 h-439q-30 0 -30 -95zM1253 1598q0 -94 30 -94h439q32 0 32 94t-32 94h-439q-30 0 -30 -94z" />
<glyph unicode="n" d="M0 94q0 -94 30 -94h439q32 0 32 94t-32 94h-439q-30 0 -30 -94zM0 345q0 -94 30 -94h439q32 0 32 94t-32 94h-439q-30 0 -30 -94zM0 595q0 -94 30 -94h439q32 0 32 94t-32 95h-439q-30 0 -30 -95zM0 846q0 -94 30 -94h1692q32 0 32 94t-32 94h-1692q-30 0 -30 -94z M0 1097q0 -95 30 -95h940q32 0 32 95q0 94 -32 94h-940q-30 0 -30 -94zM0 1347q0 -94 30 -94h690q32 0 32 94t-32 94h-690q-30 0 -30 -94zM0 1598q0 -94 30 -94h439q32 0 32 94t-32 94h-439q-30 0 -30 -94zM752 595q0 -94 30 -94h940q32 0 32 94t-32 95h-940q-30 0 -30 -95z M1002 345q0 -94 30 -94h690q32 0 32 94t-32 94h-690q-30 0 -30 -94zM1253 94q0 -94 30 -94h439q32 0 32 94t-32 94h-439q-30 0 -30 -94zM1253 1097q0 -95 30 -95h439q32 0 32 95q0 94 -32 94h-439q-30 0 -30 -94zM1253 1347q0 -94 30 -94h439q32 0 32 94t-32 94h-439 q-30 0 -30 -94zM1253 1598q0 -94 30 -94h439q32 0 32 94t-32 94h-439q-30 0 -30 -94z" />
<glyph unicode="o" d="M0 345q0 -94 30 -94h439q32 0 32 94t-32 94h-439q-30 0 -30 -94zM0 595q0 -94 30 -94h439q32 0 32 94t-32 95h-439q-30 0 -30 -95zM0 846q0 -94 30 -94h439q32 0 32 94t-32 94h-439q-30 0 -30 -94zM0 1097q0 -95 30 -95h439q32 0 32 95q0 94 -32 94h-439q-30 0 -30 -94z M0 1347q0 -94 30 -94h439q32 0 32 94t-32 94h-439q-30 0 -30 -94zM251 94q0 -94 30 -94h1190q33 0 33 94t-33 94h-1190q-30 0 -30 -94zM251 1598q0 -94 30 -94h1190q33 0 33 94t-33 94h-1190q-30 0 -30 -94zM1253 345q0 -94 30 -94h439q32 0 32 94t-32 94h-439 q-30 0 -30 -94zM1253 595q0 -94 30 -94h439q32 0 32 94t-32 95h-439q-30 0 -30 -95zM1253 846q0 -94 30 -94h439q32 0 32 94t-32 94h-439q-30 0 -30 -94zM1253 1097q0 -95 30 -95h439q32 0 32 95q0 94 -32 94h-439q-30 0 -30 -94zM1253 1347q0 -94 30 -94h439q32 0 32 94 t-32 94h-439q-30 0 -30 -94z" />
<glyph unicode="p" d="M0 94q0 -94 30 -94h439q32 0 32 94t-32 94h-439q-30 0 -30 -94zM0 345q0 -94 30 -94h439q32 0 32 94t-32 94h-439q-30 0 -30 -94zM0 595q0 -94 30 -94h1441q33 0 33 94t-33 95h-1441q-30 0 -30 -95zM0 846q0 -94 30 -94h439q32 0 32 94t-32 94h-439q-30 0 -30 -94z M0 1097q0 -95 30 -95h439q32 0 32 95q0 94 -32 94h-439q-30 0 -30 -94zM0 1347q0 -94 30 -94h439q32 0 32 94t-32 94h-439q-30 0 -30 -94zM0 1598q0 -94 30 -94h1441q33 0 33 94t-33 94h-1441q-30 0 -30 -94zM1253 846q0 -94 30 -94h439q32 0 32 94t-32 94h-439 q-30 0 -30 -94zM1253 1097q0 -95 30 -95h439q32 0 32 95q0 94 -32 94h-439q-30 0 -30 -94zM1253 1347q0 -94 30 -94h439q32 0 32 94t-32 94h-439q-30 0 -30 -94z" />
<glyph unicode="q" d="M0 345q0 -94 30 -94h439q32 0 32 94t-32 94h-439q-30 0 -30 -94zM0 595q0 -94 30 -94h439q32 0 32 94t-32 95h-439q-30 0 -30 -95zM0 846q0 -94 30 -94h439q32 0 32 94t-32 94h-439q-30 0 -30 -94zM0 1097q0 -95 30 -95h439q32 0 32 95q0 94 -32 94h-439q-30 0 -30 -94z M0 1347q0 -94 30 -94h439q32 0 32 94t-32 94h-439q-30 0 -30 -94zM251 94q0 -94 30 -94h940q32 0 32 94t-32 94h-940q-30 0 -30 -94zM251 1598q0 -94 30 -94h1190q33 0 33 94t-33 94h-1190q-30 0 -30 -94zM752 595q0 -94 30 -94h940q32 0 32 94t-32 95h-940q-30 0 -30 -95z M1002 345q0 -94 30 -94h439q33 0 33 94t-33 94h-439q-30 0 -30 -94zM1253 846q0 -94 30 -94h439q32 0 32 94t-32 94h-439q-30 0 -30 -94zM1253 1097q0 -95 30 -95h439q32 0 32 95q0 94 -32 94h-439q-30 0 -30 -94zM1253 1347q0 -94 30 -94h439q32 0 32 94t-32 94h-439 q-30 0 -30 -94zM1504 94q0 -94 30 -94h188q32 0 32 94t-32 94h-188q-30 0 -30 -94z" />
<glyph unicode="r" d="M0 94q0 -94 30 -94h439q32 0 32 94t-32 94h-439q-30 0 -30 -94zM0 345q0 -94 30 -94h439q32 0 32 94t-32 94h-439q-30 0 -30 -94zM0 595q0 -94 30 -94h1191q32 0 32 94t-32 95h-1191q-30 0 -30 -95zM0 846q0 -94 30 -94h439q32 0 32 94t-32 94h-439q-30 0 -30 -94z M0 1097q0 -95 30 -95h439q32 0 32 95q0 94 -32 94h-439q-30 0 -30 -94zM0 1347q0 -94 30 -94h439q32 0 32 94t-32 94h-439q-30 0 -30 -94zM0 1598q0 -94 30 -94h1441q33 0 33 94t-33 94h-1441q-30 0 -30 -94zM752 345q0 -94 30 -94h689q33 0 33 94t-33 94h-689 q-30 0 -30 -94zM1002 94q0 -94 30 -94h690q32 0 32 94t-32 94h-690q-30 0 -30 -94zM1002 846q0 -94 30 -94h690q32 0 32 94t-32 94h-690q-30 0 -30 -94zM1253 1097q0 -95 30 -95h439q32 0 32 95q0 94 -32 94h-439q-30 0 -30 -94zM1253 1347q0 -94 30 -94h439q32 0 32 94 t-32 94h-439q-30 0 -30 -94z" />
<glyph unicode="s" d="M0 345q0 -94 30 -94h439q32 0 32 94t-32 94h-439q-30 0 -30 -94zM0 1097q0 -95 30 -95h439q32 0 32 95q0 94 -32 94h-439q-30 0 -30 -94zM0 1347q0 -94 30 -94h439q32 0 32 94t-32 94h-439q-30 0 -30 -94zM251 94q0 -94 30 -94h1190q33 0 33 94t-33 94h-1190 q-30 0 -30 -94zM251 846q0 -94 30 -94h1190q33 0 33 94t-33 94h-1190q-30 0 -30 -94zM251 1598q0 -94 30 -94h940q32 0 32 94t-32 94h-940q-30 0 -30 -94zM1002 1347q0 -94 30 -94h439q33 0 33 94t-33 94h-439q-30 0 -30 -94zM1253 345q0 -94 30 -94h439q32 0 32 94t-32 94 h-439q-30 0 -30 -94zM1253 595q0 -94 30 -94h439q32 0 32 94t-32 95h-439q-30 0 -30 -95z" />
<glyph unicode="t" d="M251 1598q0 -94 30 -94h1441q32 0 32 94t-32 94h-1441q-30 0 -30 -94zM752 94q0 -94 30 -94h439q32 0 32 94t-32 94h-439q-30 0 -30 -94zM752 345q0 -94 30 -94h439q32 0 32 94t-32 94h-439q-30 0 -30 -94zM752 595q0 -94 30 -94h439q32 0 32 94t-32 95h-439 q-30 0 -30 -95zM752 846q0 -94 30 -94h439q32 0 32 94t-32 94h-439q-30 0 -30 -94zM752 1097q0 -95 30 -95h439q32 0 32 95q0 94 -32 94h-439q-30 0 -30 -94zM752 1347q0 -94 30 -94h439q32 0 32 94t-32 94h-439q-30 0 -30 -94z" />
<glyph unicode="u" d="M0 345q0 -94 30 -94h439q32 0 32 94t-32 94h-439q-30 0 -30 -94zM0 595q0 -94 30 -94h439q32 0 32 94t-32 95h-439q-30 0 -30 -95zM0 846q0 -94 30 -94h439q32 0 32 94t-32 94h-439q-30 0 -30 -94zM0 1097q0 -95 30 -95h439q32 0 32 95q0 94 -32 94h-439q-30 0 -30 -94z M0 1347q0 -94 30 -94h439q32 0 32 94t-32 94h-439q-30 0 -30 -94zM0 1598q0 -94 30 -94h439q32 0 32 94t-32 94h-439q-30 0 -30 -94zM251 94q0 -94 30 -94h1190q33 0 33 94t-33 94h-1190q-30 0 -30 -94zM1253 345q0 -94 30 -94h439q32 0 32 94t-32 94h-439q-30 0 -30 -94z M1253 595q0 -94 30 -94h439q32 0 32 94t-32 95h-439q-30 0 -30 -95zM1253 846q0 -94 30 -94h439q32 0 32 94t-32 94h-439q-30 0 -30 -94zM1253 1097q0 -95 30 -95h439q32 0 32 95q0 94 -32 94h-439q-30 0 -30 -94zM1253 1347q0 -94 30 -94h439q32 0 32 94t-32 94h-439 q-30 0 -30 -94zM1253 1598q0 -94 30 -94h439q32 0 32 94t-32 94h-439q-30 0 -30 -94z" />
<glyph unicode="v" d="M0 846q0 -94 30 -94h690q32 0 32 94t-32 94h-690q-30 0 -30 -94zM0 1097q0 -95 30 -95h439q32 0 32 95q0 94 -32 94h-439q-30 0 -30 -94zM0 1347q0 -94 30 -94h439q32 0 32 94t-32 94h-439q-30 0 -30 -94zM0 1598q0 -94 30 -94h439q32 0 32 94t-32 94h-439q-30 0 -30 -94 zM251 595q0 -94 30 -94h1190q33 0 33 94t-33 95h-1190q-30 0 -30 -95zM501 345q0 -94 30 -94h690q32 0 32 94t-32 94h-690q-30 0 -30 -94zM752 94q0 -94 30 -94h188q32 0 32 94t-32 94h-188q-30 0 -30 -94zM1002 846q0 -94 30 -94h690q32 0 32 94t-32 94h-690q-30 0 -30 -94 zM1253 1097q0 -95 30 -95h439q32 0 32 95q0 94 -32 94h-439q-30 0 -30 -94zM1253 1347q0 -94 30 -94h439q32 0 32 94t-32 94h-439q-30 0 -30 -94zM1253 1598q0 -94 30 -94h439q32 0 32 94t-32 94h-439q-30 0 -30 -94z" />
<glyph unicode="w" d="M0 94q0 -94 30 -94h439q32 0 32 94t-32 94h-439q-30 0 -30 -94zM0 345q0 -94 30 -94h690q32 0 32 94t-32 94h-690q-30 0 -30 -94zM0 595q0 -94 30 -94h1692q32 0 32 94t-32 95h-1692q-30 0 -30 -95zM0 846q0 -94 30 -94h439q32 0 32 94t-32 94h-439q-30 0 -30 -94z M0 1097q0 -95 30 -95h439q32 0 32 95q0 94 -32 94h-439q-30 0 -30 -94zM0 1347q0 -94 30 -94h439q32 0 32 94t-32 94h-439q-30 0 -30 -94zM0 1598q0 -94 30 -94h439q32 0 32 94t-32 94h-439q-30 0 -30 -94zM752 846q0 -94 30 -94h188q32 0 32 94t-32 94h-188q-30 0 -30 -94z M1002 345q0 -94 30 -94h690q32 0 32 94t-32 94h-690q-30 0 -30 -94zM1253 94q0 -94 30 -94h439q32 0 32 94t-32 94h-439q-30 0 -30 -94zM1253 846q0 -94 30 -94h439q32 0 32 94t-32 94h-439q-30 0 -30 -94zM1253 1097q0 -95 30 -95h439q32 0 32 95q0 94 -32 94h-439 q-30 0 -30 -94zM1253 1347q0 -94 30 -94h439q32 0 32 94t-32 94h-439q-30 0 -30 -94zM1253 1598q0 -94 30 -94h439q32 0 32 94t-32 94h-439q-30 0 -30 -94z" />
<glyph unicode="x" d="M0 94q0 -94 30 -94h439q32 0 32 94t-32 94h-439q-30 0 -30 -94zM0 345q0 -94 30 -94h690q32 0 32 94t-32 94h-690q-30 0 -30 -94zM0 1347q0 -94 30 -94h690q32 0 32 94t-32 94h-690q-30 0 -30 -94zM0 1598q0 -94 30 -94h439q32 0 32 94t-32 94h-439q-30 0 -30 -94z M251 595q0 -94 30 -94h1190q33 0 33 94t-33 95h-1190q-30 0 -30 -95zM251 1097q0 -95 30 -95h1190q33 0 33 95q0 94 -33 94h-1190q-30 0 -30 -94zM501 846q0 -94 30 -94h690q32 0 32 94t-32 94h-690q-30 0 -30 -94zM1002 345q0 -94 30 -94h690q32 0 32 94t-32 94h-690 q-30 0 -30 -94zM1002 1347q0 -94 30 -94h690q32 0 32 94t-32 94h-690q-30 0 -30 -94zM1253 94q0 -94 30 -94h439q32 0 32 94t-32 94h-439q-30 0 -30 -94zM1253 1598q0 -94 30 -94h439q32 0 32 94t-32 94h-439q-30 0 -30 -94z" />
<glyph unicode="y" d="M251 1097q0 -95 30 -95h439q32 0 32 95q0 94 -32 94h-439q-30 0 -30 -94zM251 1347q0 -94 30 -94h439q32 0 32 94t-32 94h-439q-30 0 -30 -94zM251 1598q0 -94 30 -94h439q32 0 32 94t-32 94h-439q-30 0 -30 -94zM501 846q0 -94 30 -94h940q33 0 33 94t-33 94h-940 q-30 0 -30 -94zM752 94q0 -94 30 -94h439q32 0 32 94t-32 94h-439q-30 0 -30 -94zM752 345q0 -94 30 -94h439q32 0 32 94t-32 94h-439q-30 0 -30 -94zM752 595q0 -94 30 -94h439q32 0 32 94t-32 95h-439q-30 0 -30 -95zM1253 1097q0 -95 30 -95h439q32 0 32 95q0 94 -32 94 h-439q-30 0 -30 -94zM1253 1347q0 -94 30 -94h439q32 0 32 94t-32 94h-439q-30 0 -30 -94zM1253 1598q0 -94 30 -94h439q32 0 32 94t-32 94h-439q-30 0 -30 -94z" />
<glyph unicode="z" d="M0 94q0 -94 30 -94h1692q32 0 32 94t-32 94h-1692q-30 0 -30 -94zM0 345q0 -94 30 -94h690q32 0 32 94t-32 94h-690q-30 0 -30 -94zM0 1598q0 -94 30 -94h1692q32 0 32 94t-32 94h-1692q-30 0 -30 -94zM251 595q0 -94 30 -94h689q32 0 32 94t-32 95h-689q-30 0 -30 -95z M501 846q0 -94 30 -94h690q32 0 32 94t-32 94h-690q-30 0 -30 -94zM752 1097q0 -95 30 -95h689q33 0 33 95q0 94 -33 94h-689q-30 0 -30 -94zM1002 1347q0 -94 30 -94h690q32 0 32 94t-32 94h-690q-30 0 -30 -94z" />
<glyph unicode="{" d="M251 846q0 -94 30 -94h439q32 0 32 94t-32 94h-439q-30 0 -30 -94zM501 345q0 -94 30 -94h439q32 0 32 94t-32 94h-439q-30 0 -30 -94zM501 595q0 -94 30 -94h439q32 0 32 94t-32 95h-439q-30 0 -30 -95zM501 1097q0 -95 30 -95h439q32 0 32 95q0 94 -32 94h-439 q-30 0 -30 -94zM501 1347q0 -94 30 -94h439q32 0 32 94t-32 94h-439q-30 0 -30 -94zM752 94q0 -94 30 -94h439q32 0 32 94t-32 94h-439q-30 0 -30 -94zM752 1598q0 -94 30 -94h439q32 0 32 94t-32 94h-439q-30 0 -30 -94z" />
<glyph unicode="|" d="M752 94q0 94 30 94h188q32 0 32 -94t-32 -94h-188q-30 0 -30 94zM752 345q0 94 30 94h188q32 0 32 -94t-32 -94h-188q-30 0 -30 94zM752 595q0 94 30 95h188q32 0 32 -95q0 -94 -32 -94h-188q-30 0 -30 94zM752 846q0 94 30 94h188q32 0 32 -94t-32 -94h-188 q-30 0 -30 94zM752 1097q0 94 30 94h188q32 0 32 -94q0 -95 -32 -95h-188q-30 0 -30 95zM752 1347q0 94 30 94h188q32 0 32 -94t-32 -94h-188q-30 0 -30 94zM752 1598q0 94 30 94h188q32 0 32 -94t-32 -94h-188q-30 0 -30 94z" />
<glyph unicode="}" d="M501 94q0 -94 30 -94h439q32 0 32 94t-32 94h-439q-30 0 -30 -94zM501 1598q0 -94 30 -94h439q32 0 32 94t-32 94h-439q-30 0 -30 -94zM752 345q0 -94 30 -94h439q32 0 32 94t-32 94h-439q-30 0 -30 -94zM752 595q0 -94 30 -94h439q32 0 32 94t-32 95h-439q-30 0 -30 -95 zM752 1097q0 -95 30 -95h439q32 0 32 95q0 94 -32 94h-439q-30 0 -30 -94zM752 1347q0 -94 30 -94h439q32 0 32 94t-32 94h-439q-30 0 -30 -94zM1002 846q0 -94 30 -94h439q33 0 33 94t-33 94h-439q-30 0 -30 -94z" />
<glyph unicode="~" d="M251 1347q0 94 30 94h188q32 0 32 -94t-32 -94h-188q-30 0 -30 94zM501 1598q0 94 30 94h439q32 0 32 -94t-32 -94h-439q-30 0 -30 94zM752 1347q0 94 30 94h439q32 0 32 -94t-32 -94h-439q-30 0 -30 94zM1253 1598q0 94 30 94h188q33 0 33 -94t-33 -94h-188 q-30 0 -30 94z" />
<glyph unicode="&#xa0;" />
<glyph unicode="&#xa9;" d="M0 345q0 -94 30 -94h189q32 0 32 94t-32 94h-189q-30 0 -30 -94zM0 595q0 -94 30 -94h189q32 0 32 94t-32 95h-189q-30 0 -30 -95zM0 846q0 -94 30 -94h189q32 0 32 94t-32 94h-189q-30 0 -30 -94zM0 1097q0 -95 30 -95h189q32 0 32 95q0 94 -32 94h-189q-30 0 -30 -94z M0 1347q0 -94 30 -94h189q32 0 32 94t-32 94h-189q-30 0 -30 -94zM251 94q0 -94 30 -94h1190q33 0 33 94t-33 94h-1190q-30 0 -30 -94zM251 1598q0 -94 30 -94h1190q33 0 33 94t-33 94h-1190q-30 0 -30 -94zM501 595q0 -94 30 -94h690q32 0 32 94t-32 95h-690q-30 0 -30 -95 zM501 846q0 -94 30 -94h189q32 0 32 94t-32 94h-189q-30 0 -30 -94zM501 1097q0 -95 30 -95h690q32 0 32 95q0 94 -32 94h-690q-30 0 -30 -94zM1504 345q0 -94 30 -94h188q32 0 32 94t-32 94h-188q-30 0 -30 -94zM1504 595q0 -94 30 -94h188q32 0 32 94t-32 95h-188 q-30 0 -30 -95zM1504 846q0 -94 30 -94h188q32 0 32 94t-32 94h-188q-30 0 -30 -94zM1504 1097q0 -95 30 -95h188q32 0 32 95q0 94 -32 94h-188q-30 0 -30 -94zM1504 1347q0 -94 30 -94h188q32 0 32 94t-32 94h-188q-30 0 -30 -94z" />
<glyph unicode="&#xad;" d="M251 846q0 -94 30 -94h1190q33 0 33 94t-33 94h-1190q-30 0 -30 -94z" />
<glyph unicode="&#xae;" d="M0 345q0 -94 30 -94h189q32 0 32 94t-32 94h-189q-30 0 -30 -94zM0 595q0 -94 30 -94h189q32 0 32 94t-32 95h-189q-30 0 -30 -95zM0 846q0 -94 30 -94h189q32 0 32 94t-32 94h-189q-30 0 -30 -94zM0 1097q0 -95 30 -95h189q32 0 32 95q0 94 -32 94h-189q-30 0 -30 -94z M0 1347q0 -94 30 -94h189q32 0 32 94t-32 94h-189q-30 0 -30 -94zM251 94q0 -94 30 -94h1190q33 0 33 94t-33 94h-1190q-30 0 -30 -94zM251 1598q0 -94 30 -94h1190q33 0 33 94t-33 94h-1190q-30 0 -30 -94zM501 595q0 -94 30 -94h189q32 0 32 94t-32 95h-189q-30 0 -30 -95 zM501 846q0 -94 30 -94h189q32 0 32 94t-32 94h-189q-30 0 -30 -94zM501 1097q0 -95 30 -95h690q32 0 32 95q0 94 -32 94h-690q-30 0 -30 -94zM1504 345q0 -94 30 -94h188q32 0 32 94t-32 94h-188q-30 0 -30 -94zM1504 595q0 -94 30 -94h188q32 0 32 94t-32 95h-188 q-30 0 -30 -95zM1504 846q0 -94 30 -94h188q32 0 32 94t-32 94h-188q-30 0 -30 -94zM1504 1097q0 -95 30 -95h188q32 0 32 95q0 94 -32 94h-188q-30 0 -30 -94zM1504 1347q0 -94 30 -94h188q32 0 32 94t-32 94h-188q-30 0 -30 -94z" />
<glyph unicode="&#xdf;" d="M0 94q0 -94 30 -94h1692q32 0 32 94t-32 94h-1692q-30 0 -30 -94zM0 345q0 -94 30 -94h1692q32 0 32 94t-32 94h-1692q-30 0 -30 -94zM0 595q0 -94 30 -94h1692q32 0 32 94t-32 95h-1692q-30 0 -30 -95zM0 846q0 -94 30 -94h1692q32 0 32 94t-32 94h-1692q-30 0 -30 -94z M0 1097q0 -95 30 -95h1692q32 0 32 95q0 94 -32 94h-1692q-30 0 -30 -94zM0 1347q0 -94 30 -94h1692q32 0 32 94t-32 94h-1692q-30 0 -30 -94zM0 1598q0 -94 30 -94h1692q32 0 32 94t-32 94h-1692q-30 0 -30 -94z" />
<glyph unicode="&#xe5;" d="M0 94q0 -94 30 -94h1692q32 0 32 94t-32 94h-1692q-30 0 -30 -94zM0 345q0 -94 30 -94h1692q32 0 32 94t-32 94h-1692q-30 0 -30 -94zM0 595q0 -94 30 -94h1692q32 0 32 94t-32 95h-1692q-30 0 -30 -95zM501 846q0 -94 30 -94h690q32 0 32 94t-32 94h-690q-30 0 -30 -94z M501 1097q0 -95 30 -95h690q32 0 32 95q0 94 -32 94h-690q-30 0 -30 -94zM501 1347q0 -94 30 -94h690q32 0 32 94t-32 94h-690q-30 0 -30 -94zM752 1598q0 -94 30 -94h188q32 0 32 94t-32 94h-188q-30 0 -30 -94z" />
<glyph unicode="&#x2000;" horiz-adv-x="848" />
<glyph unicode="&#x2001;" horiz-adv-x="1696" />
<glyph unicode="&#x2002;" horiz-adv-x="848" />
<glyph unicode="&#x2003;" horiz-adv-x="1696" />
<glyph unicode="&#x2004;" horiz-adv-x="565" />
<glyph unicode="&#x2005;" horiz-adv-x="424" />
<glyph unicode="&#x2006;" horiz-adv-x="282" />
<glyph unicode="&#x2007;" horiz-adv-x="282" />
<glyph unicode="&#x2008;" horiz-adv-x="212" />
<glyph unicode="&#x2009;" horiz-adv-x="339" />
<glyph unicode="&#x200a;" horiz-adv-x="94" />
<glyph unicode="&#x2010;" d="M251 846q0 -94 30 -94h1190q33 0 33 94t-33 94h-1190q-30 0 -30 -94z" />
<glyph unicode="&#x2011;" d="M251 846q0 -94 30 -94h1190q33 0 33 94t-33 94h-1190q-30 0 -30 -94z" />
<glyph unicode="&#x2012;" d="M251 846q0 -94 30 -94h1190q33 0 33 94t-33 94h-1190q-30 0 -30 -94z" />
<glyph unicode="&#x2013;" horiz-adv-x="1775" d="M251 846q0 -94 25 -94h972q27 0 27 94t-27 94h-972q-25 0 -25 -94z" />
<glyph unicode="&#x2014;" horiz-adv-x="2799" d="M251 846q0 -94 49 -94h1945q54 0 54 94t-54 94h-1945q-49 0 -49 -94z" />
<glyph unicode="&#x2018;" d="M752 846q0 -94 30 -94h439q32 0 32 94t-32 94h-439q-30 0 -30 -94zM752 1097q0 -94 30 -95h439q32 0 32 95q0 94 -32 94h-439q-30 0 -30 -94zM752 1347q0 -94 30 -94h188q32 0 32 94t-32 94h-188q-30 0 -30 -94zM1002 1598q0 -94 30 -94h189q32 0 32 94t-32 94h-189 q-30 0 -30 -94z" />
<glyph unicode="&#x2019;" d="M501 846q0 -94 30 -94h189q32 0 32 94t-32 94h-189q-30 0 -30 -94zM501 1347q0 -94 30 -94h439q32 0 32 94t-32 94h-439q-30 0 -30 -94zM501 1598q0 -94 30 -94h439q32 0 32 94t-32 94h-439q-30 0 -30 -94zM752 1097q0 -95 30 -95h188q32 0 32 95q0 94 -32 94h-188 q-30 0 -30 -94z" />
<glyph unicode="&#x201c;" d="M251 846q0 -94 30 -94h439q32 0 32 94t-32 94h-439q-30 0 -30 -94zM251 1097q0 -94 30 -95h439q32 0 32 95q0 94 -32 94h-439q-30 0 -30 -94zM251 1347q0 -94 30 -94h188q32 0 32 94t-32 94h-188q-30 0 -30 -94zM501 1598q0 -94 30 -94h189q32 0 32 94t-32 94h-189 q-30 0 -30 -94zM1002 846q0 -94 30 -94h439q33 0 33 94t-33 94h-439q-30 0 -30 -94zM1002 1097q0 -94 30 -95h439q33 0 33 95q0 94 -33 94h-439q-30 0 -30 -94zM1002 1347q0 -94 30 -94h189q32 0 32 94t-32 94h-189q-30 0 -30 -94zM1253 1598q0 -94 30 -94h188q33 0 33 94 t-33 94h-188q-30 0 -30 -94z" />
<glyph unicode="&#x201d;" d="M251 846q0 -94 30 -94h188q32 0 32 94t-32 94h-188q-30 0 -30 -94zM251 1347q0 -94 30 -94h439q32 0 32 94t-32 94h-439q-30 0 -30 -94zM251 1598q0 -94 30 -94h439q32 0 32 94t-32 94h-439q-30 0 -30 -94zM501 1097q0 -95 30 -95h189q32 0 32 95q0 94 -32 94h-189 q-30 0 -30 -94zM1002 846q0 -94 30 -94h189q32 0 32 94t-32 94h-189q-30 0 -30 -94zM1002 1347q0 -94 30 -94h439q33 0 33 94t-33 94h-439q-30 0 -30 -94zM1002 1598q0 -94 30 -94h439q33 0 33 94t-33 94h-439q-30 0 -30 -94zM1253 1097q0 -95 30 -95h188q33 0 33 95 q0 94 -33 94h-188q-30 0 -30 -94z" />
<glyph unicode="&#x2022;" d="M501 595q0 -94 30 -94h439q32 0 32 94t-32 95h-439q-30 0 -30 -95zM501 846q0 -94 30 -94h439q32 0 32 94t-32 94h-439q-30 0 -30 -94z" />
<glyph unicode="&#x202f;" horiz-adv-x="339" />
<glyph unicode="&#x205f;" horiz-adv-x="424" />
<glyph unicode="&#x2122;" d="M0 1598q0 -94 30 -94h690q32 0 32 94t-32 94h-690q-30 0 -30 -94zM251 846q0 -94 30 -94h188q32 0 32 94t-32 94h-188q-30 0 -30 -94zM251 1097q0 -95 30 -95h188q32 0 32 95q0 94 -32 94h-188q-30 0 -30 -94zM251 1347q0 -94 30 -94h188q32 0 32 94t-32 94h-188 q-30 0 -30 -94zM1002 846q0 -94 30 -94h189q32 0 32 94t-32 94h-189q-30 0 -30 -94zM1002 1097q0 -95 30 -95h189q32 0 32 95q0 94 -32 94h-189q-30 0 -30 -94zM1002 1347q0 -94 30 -94h690q32 0 32 94t-32 94h-690q-30 0 -30 -94zM1002 1598q0 -94 30 -94h189q32 0 32 94 t-32 94h-189q-30 0 -30 -94zM1504 846q0 -94 30 -94h188q32 0 32 94t-32 94h-188q-30 0 -30 -94zM1504 1097q0 -95 30 -95h188q32 0 32 95q0 94 -32 94h-188q-30 0 -30 -94zM1504 1598q0 -94 30 -94h188q32 0 32 94t-32 94h-188q-30 0 -30 -94z" />
<glyph unicode="&#x25fc;" horiz-adv-x="1695" d="M0 0v1696h1696v-1696h-1696z" />
</font>
</defs>
</svg>
