<?xml version="1.0" standalone="no"?>
<!DOCTYPE svg PUBLIC "-//W3C//DTD SVG 1.1//EN" "http://www.w3.org/Graphics/SVG/1.1/DTD/svg11.dtd" >
<svg xmlns="http://www.w3.org/2000/svg">
<metadata></metadata>
<defs>
<font id="digital_dream_narrowregular" horiz-adv-x="640" >
<font-face units-per-em="1000" ascent="800" descent="-200" />
<missing-glyph horiz-adv-x="500" />
<glyph horiz-adv-x="1000" />
<glyph horiz-adv-x="1000" />
<glyph unicode="&#xd;" />
<glyph unicode=" " />
<glyph unicode="!" d="M324 360l-32 -44l-34 44v321l32 44l34 -44v-321zM349 -104q0 -27 -16 -50t-42 -23t-42 23t-16 50q0 28 15.5 49.5t42.5 21.5t42.5 -21.5t15.5 -49.5z" />
<glyph unicode="&#x22;" d="M324 560l-32 -44l-34 44v121l32 44l34 -44v-121zM82 560l-32 -44l-33 44v121l32 44l33 -44v-121z" />
<glyph unicode="#" d="M565 360l-32 -44l-34 44v323l32 44l34 -44v-323zM324 360l-32 -44l-34 44v321l32 44l34 -44v-321zM521 303l-35 -42h-148l-36 40l36 42h148zM565 -77l-32 -45l-34 45v320l32 44l34 -44v-320zM82 360l-32 -44l-33 44v321l32 44l33 -44v-321zM279 303l-35 -42h-148l-35 40 l35 42h148zM324 -77l-32 -45l-34 45v320l32 44l34 -44v-320zM82 -77l-32 -45l-33 45v320l32 44l33 -44v-320z" />
<glyph unicode="$" d="M521 741l-35 -42h-148l-36 40l36 42h148zM279 741l-35 -42h-148l-35 40l35 42h148zM521 303l-35 -42h-148l-36 40l36 42h148zM565 -77l-32 -45l-34 45v320l32 44l34 -44v-320zM82 360l-32 -44l-33 44v321l32 44l33 -44v-321zM279 303l-35 -42h-148l-35 40l35 42h148z M521 -135l-35 -42h-148l-36 40l36 42h148zM279 -135l-35 -42h-148l-35 40l35 42h148zM324 360l-32 -44l-34 44v321l32 44l34 -44v-321zM324 -77l-32 -45l-34 45v320l32 44l34 -44v-320z" />
<glyph unicode="%" d="M487 577l-122 -219h-30v86l135 240h17v-107zM246 160l-134 -240h-18v106l123 220h29v-86zM279 741l-35 -42h-148l-35 40l35 42h148zM324 360l-32 -44l-34 44v321l32 44l34 -44v-321zM521 303l-35 -42h-148l-36 40l36 42h148zM565 -77l-32 -45l-34 45v320l32 44l34 -44 v-320zM82 360l-32 -44l-33 44v321l32 44l33 -44v-321zM279 303l-35 -42h-148l-35 40l35 42h148zM324 -77l-32 -45l-34 45v320l32 44l34 -44v-320zM521 -135l-35 -42h-148l-36 40l36 42h148z" />
<glyph unicode="&#x26;" d="M279 741l-35 -42h-148l-35 40l35 42h148zM324 360l-32 -44l-34 44v321l32 44l34 -44v-321zM82 360l-32 -44l-33 44v321l32 44l33 -44v-321zM279 303l-35 -42h-148l-35 40l35 42h148zM324 -77l-32 -45l-34 45v320l32 44l34 -44v-320zM521 -135l-35 -42h-148l-36 40l36 42 h148zM82 -77l-32 -45l-33 45v320l32 44l33 -44v-320zM279 -135l-35 -42h-148l-35 40l35 42h148zM487 160l-134 -240h-18v106l123 220h29v-86z" />
<glyph unicode="'" d="M324 560l-32 -44l-34 44v121l32 44l34 -44v-121z" />
<glyph unicode="(" d="M521 741l-35 -42h-148l-36 40l36 42h148zM324 360l-32 -44l-34 44v321l32 44l34 -44v-321zM324 -77l-32 -45l-34 45v320l32 44l34 -44v-320zM521 -135l-35 -42h-148l-36 40l36 42h148z" />
<glyph unicode=")" d="M279 741l-35 -42h-148l-35 40l35 42h148zM324 360l-32 -44l-34 44v321l32 44l34 -44v-321zM324 -77l-32 -45l-34 45v320l32 44l34 -44v-320zM279 -135l-35 -42h-148l-35 40l35 42h148z" />
<glyph unicode="*" d="M487 577l-122 -219h-30v86l135 240h17v-107zM246 358h-29l-123 219v107h18l134 -240v-86zM487 -80h-17l-135 240v86h30l122 -220v-106zM246 160l-134 -240h-18v106l123 220h29v-86z" />
<glyph unicode="+" d="M324 360l-32 -44l-34 44v321l32 44l34 -44v-321zM521 303l-35 -42h-148l-36 40l36 42h148zM279 303l-35 -42h-148l-35 40l35 42h148zM324 -77l-32 -45l-34 45v320l32 44l34 -44v-320z" />
<glyph unicode="," d="M349 -104q0 -33 -16 -79q-19 -54 -42 -54t-42 53q-16 45 -16 80q0 28 15.5 49.5t42.5 21.5t42.5 -21.5t15.5 -49.5z" />
<glyph unicode="-" d="M521 303l-35 -42h-148l-36 40l36 42h148zM279 303l-35 -42h-148l-35 40l35 42h148z" />
<glyph unicode="." d="M349 -104q0 -27 -16 -50t-42 -23t-42 23t-16 50q0 28 15.5 49.5t42.5 21.5t42.5 -21.5t15.5 -49.5z" />
<glyph unicode="/" d="M487 577l-122 -219h-30v86l135 240h17v-107zM246 160l-134 -240h-18v106l123 220h29v-86z" />
<glyph unicode="0" d="M521 741l-35 -42h-148l-36 40l36 42h148zM565 360l-32 -44l-34 44v323l32 44l34 -44v-323zM487 577l-122 -219h-30v86l135 240h17v-107zM279 741l-35 -42h-148l-35 40l35 42h148zM565 -77l-32 -45l-34 45v320l32 44l34 -44v-320zM82 360l-32 -44l-33 44v321l32 44l33 -44 v-321zM521 -135l-35 -42h-148l-36 40l36 42h148zM246 160l-134 -240h-18v106l123 220h29v-86zM82 -77l-32 -45l-33 45v320l32 44l33 -44v-320zM279 -135l-35 -42h-148l-35 40l35 42h148z" />
<glyph unicode="1" d="M279 741l-35 -42h-148l-35 40l35 42h148zM324 360l-32 -44l-34 44v321l32 44l34 -44v-321zM324 -77l-32 -45l-34 45v320l32 44l34 -44v-320zM521 -135l-35 -42h-148l-36 40l36 42h148zM279 -135l-35 -42h-148l-35 40l35 42h148z" />
<glyph unicode="2" d="M521 741l-35 -42h-148l-36 40l36 42h148zM565 360l-32 -44l-34 44v323l32 44l34 -44v-323zM279 741l-35 -42h-148l-35 40l35 42h148zM521 303l-35 -42h-148l-36 40l36 42h148zM279 303l-35 -42h-148l-35 40l35 42h148zM521 -135l-35 -42h-148l-36 40l36 42h148zM82 -77 l-32 -45l-33 45v320l32 44l33 -44v-320zM279 -135l-35 -42h-148l-35 40l35 42h148z" />
<glyph unicode="3" d="M521 741l-35 -42h-148l-36 40l36 42h148zM565 360l-32 -44l-34 44v323l32 44l34 -44v-323zM279 741l-35 -42h-148l-35 40l35 42h148zM521 303l-35 -42h-148l-36 40l36 42h148zM565 -77l-32 -45l-34 45v320l32 44l34 -44v-320zM521 -135l-35 -42h-148l-36 40l36 42h148z M279 -135l-35 -42h-148l-35 40l35 42h148z" />
<glyph unicode="4" d="M565 360l-32 -44l-34 44v323l32 44l34 -44v-323zM521 303l-35 -42h-148l-36 40l36 42h148zM565 -77l-32 -45l-34 45v320l32 44l34 -44v-320zM82 360l-32 -44l-33 44v321l32 44l33 -44v-321zM279 303l-35 -42h-148l-35 40l35 42h148z" />
<glyph unicode="5" d="M521 741l-35 -42h-148l-36 40l36 42h148zM279 741l-35 -42h-148l-35 40l35 42h148zM521 303l-35 -42h-148l-36 40l36 42h148zM565 -77l-32 -45l-34 45v320l32 44l34 -44v-320zM82 360l-32 -44l-33 44v321l32 44l33 -44v-321zM279 303l-35 -42h-148l-35 40l35 42h148z M521 -135l-35 -42h-148l-36 40l36 42h148zM279 -135l-35 -42h-148l-35 40l35 42h148z" />
<glyph unicode="6" d="M521 741l-35 -42h-148l-36 40l36 42h148zM279 741l-35 -42h-148l-35 40l35 42h148zM521 303l-35 -42h-148l-36 40l36 42h148zM565 -77l-32 -45l-34 45v320l32 44l34 -44v-320zM82 360l-32 -44l-33 44v321l32 44l33 -44v-321zM279 303l-35 -42h-148l-35 40l35 42h148z M521 -135l-35 -42h-148l-36 40l36 42h148zM82 -77l-32 -45l-33 45v320l32 44l33 -44v-320zM279 -135l-35 -42h-148l-35 40l35 42h148z" />
<glyph unicode="7" d="M521 741l-35 -42h-148l-36 40l36 42h148zM487 577l-122 -219h-30v86l135 240h17v-107zM279 741l-35 -42h-148l-35 40l35 42h148zM246 160l-134 -240h-18v106l123 220h29v-86z" />
<glyph unicode="8" d="M521 741l-35 -42h-148l-36 40l36 42h148zM565 360l-32 -44l-34 44v323l32 44l34 -44v-323zM279 741l-35 -42h-148l-35 40l35 42h148zM521 303l-35 -42h-148l-36 40l36 42h148zM565 -77l-32 -45l-34 45v320l32 44l34 -44v-320zM82 360l-32 -44l-33 44v321l32 44l33 -44 v-321zM279 303l-35 -42h-148l-35 40l35 42h148zM521 -135l-35 -42h-148l-36 40l36 42h148zM82 -77l-32 -45l-33 45v320l32 44l33 -44v-320zM279 -135l-35 -42h-148l-35 40l35 42h148z" />
<glyph unicode="9" d="M521 741l-35 -42h-148l-36 40l36 42h148zM565 360l-32 -44l-34 44v323l32 44l34 -44v-323zM279 741l-35 -42h-148l-35 40l35 42h148zM521 303l-35 -42h-148l-36 40l36 42h148zM565 -77l-32 -45l-34 45v320l32 44l34 -44v-320zM82 360l-32 -44l-33 44v321l32 44l33 -44 v-321zM279 303l-35 -42h-148l-35 40l35 42h148zM521 -135l-35 -42h-148l-36 40l36 42h148zM279 -135l-35 -42h-148l-35 40l35 42h148z" />
<glyph unicode=":" d="M349 435q0 -28 -15 -48q-16 -23 -43 -23q-26 0 -42 22t-16 49t16 50t42 23t42 -23t16 -50zM349 169q0 -27 -15 -49q-17 -25 -43 -25t-43 25q-15 22 -15 49q0 28 15.5 49.5t42.5 21.5q26 0 42 -22t16 -49z" />
<glyph unicode=";" d="M349 435q0 -28 -15 -48q-16 -23 -43 -23q-26 0 -42 22t-16 49t16 50t42 23t42 -23t16 -50zM349 169q0 -31 -16 -78q-19 -56 -42 -56t-42 54q-16 46 -16 80q0 28 15.5 49.5t42.5 21.5q26 0 42 -22t16 -49z" />
<glyph unicode="&#x3c;" d="M487 577l-122 -219h-30v86l135 240h17v-107zM487 -80h-17l-135 240v86h30l122 -220v-106z" />
<glyph unicode="=" d="M521 403l-35 -42h-148l-36 40l36 42h148zM279 403l-35 -42h-148l-35 40l35 42h148zM521 203l-35 -42h-148l-36 40l36 42h148zM279 203l-35 -42h-148l-35 40l35 42h148z" />
<glyph unicode="&#x3e;" d="M246 358h-29l-123 219v107h18l134 -240v-86zM246 160l-134 -240h-18v106l123 220h29v-86z" />
<glyph unicode="?" d="M521 741l-35 -42h-148l-36 40l36 42h148zM565 360l-32 -44l-34 44v323l32 44l34 -44v-323zM279 741l-35 -42h-148l-35 40l35 42h148zM521 303l-35 -42h-148l-36 40l36 42h148zM324 -77l-32 -45l-34 45v320l32 44l34 -44v-320z" />
<glyph unicode="@" d="M521 741l-35 -42h-148l-36 40l36 42h148zM565 360l-32 -44l-34 44v323l32 44l34 -44v-323zM487 577l-122 -219h-30v86l135 240h17v-107zM279 741l-35 -42h-148l-35 40l35 42h148zM324 360l-32 -44l-34 44v321l32 44l34 -44v-321zM521 303l-35 -42h-148l-36 40l36 42h148z M565 -77l-32 -45l-34 45v320l32 44l34 -44v-320zM246 358h-29l-123 219v107h18l134 -240v-86zM487 -80h-17l-135 240v86h30l122 -220v-106zM82 360l-32 -44l-33 44v321l32 44l33 -44v-321zM279 303l-35 -42h-148l-35 40l35 42h148zM324 -77l-32 -45l-34 45v320l32 44l34 -44 v-320zM521 -135l-35 -42h-148l-36 40l36 42h148zM246 160l-134 -240h-18v106l123 220h29v-86zM82 -77l-32 -45l-33 45v320l32 44l33 -44v-320zM279 -135l-35 -42h-148l-35 40l35 42h148z" />
<glyph unicode="A" d="M487 358h-29l-123 219v107h18l134 -240v-86zM521 303l-35 -42h-148l-36 40l36 42h148zM565 -77l-32 -45l-34 45v320l32 44l34 -44v-320zM246 577l-123 -219h-29v86l135 240h17v-107zM279 303l-35 -42h-148l-35 40l35 42h148zM82 -77l-32 -45l-33 45v320l32 44l33 -44 v-320z" />
<glyph unicode="B" d="M521 741l-35 -42h-148l-36 40l36 42h148zM565 360l-32 -44l-34 44v323l32 44l34 -44v-323zM279 741l-35 -42h-148l-35 40l35 42h148zM521 303l-35 -42h-148l-36 40l36 42h148zM565 -77l-32 -45l-34 45v320l32 44l34 -44v-320zM82 360l-32 -44l-33 44v321l32 44l33 -44 v-321zM279 303l-35 -42h-148l-35 40l35 42h148zM521 -135l-35 -42h-148l-36 40l36 42h148zM82 -77l-32 -45l-33 45v320l32 44l33 -44v-320zM279 -135l-35 -42h-148l-35 40l35 42h148z" />
<glyph unicode="C" d="M521 741l-35 -42h-148l-36 40l36 42h148zM279 741l-35 -42h-148l-35 40l35 42h148zM82 360l-32 -44l-33 44v321l32 44l33 -44v-321zM521 -135l-35 -42h-148l-36 40l36 42h148zM82 -77l-32 -45l-33 45v320l32 44l33 -44v-320zM279 -135l-35 -42h-148l-35 40l35 42h148z " />
<glyph unicode="D" d="M487 358h-29l-123 219v107h18l134 -240v-86zM279 741l-35 -42h-148l-35 40l35 42h148zM487 160l-134 -240h-18v106l123 220h29v-86zM82 360l-32 -44l-33 44v321l32 44l33 -44v-321zM82 -77l-32 -45l-33 45v320l32 44l33 -44v-320zM279 -135l-35 -42h-148l-35 40l35 42 h148z" />
<glyph unicode="E" d="M521 741l-35 -42h-148l-36 40l36 42h148zM279 741l-35 -42h-148l-35 40l35 42h148zM521 303l-35 -42h-148l-36 40l36 42h148zM82 360l-32 -44l-33 44v321l32 44l33 -44v-321zM279 303l-35 -42h-148l-35 40l35 42h148zM521 -135l-35 -42h-148l-36 40l36 42h148zM82 -77 l-32 -45l-33 45v320l32 44l33 -44v-320zM279 -135l-35 -42h-148l-35 40l35 42h148z" />
<glyph unicode="F" d="M521 741l-35 -42h-148l-36 40l36 42h148zM279 741l-35 -42h-148l-35 40l35 42h148zM521 303l-35 -42h-148l-36 40l36 42h148zM82 360l-32 -44l-33 44v321l32 44l33 -44v-321zM279 303l-35 -42h-148l-35 40l35 42h148zM82 -77l-32 -45l-33 45v320l32 44l33 -44v-320z" />
<glyph unicode="G" d="M521 741l-35 -42h-148l-36 40l36 42h148zM279 741l-35 -42h-148l-35 40l35 42h148zM521 303l-35 -42h-148l-36 40l36 42h148zM565 -77l-32 -45l-34 45v320l32 44l34 -44v-320zM82 360l-32 -44l-33 44v321l32 44l33 -44v-321zM521 -135l-35 -42h-148l-36 40l36 42h148z M82 -77l-32 -45l-33 45v320l32 44l33 -44v-320zM279 -135l-35 -42h-148l-35 40l35 42h148z" />
<glyph unicode="H" d="M565 360l-32 -44l-34 44v323l32 44l34 -44v-323zM521 303l-35 -42h-148l-36 40l36 42h148zM565 -77l-32 -45l-34 45v320l32 44l34 -44v-320zM82 360l-32 -44l-33 44v321l32 44l33 -44v-321zM279 303l-35 -42h-148l-35 40l35 42h148zM82 -77l-32 -45l-33 45v320l32 44 l33 -44v-320z" />
<glyph unicode="I" d="M521 741l-35 -42h-148l-36 40l36 42h148zM279 741l-35 -42h-148l-35 40l35 42h148zM324 360l-32 -44l-34 44v321l32 44l34 -44v-321zM324 -77l-32 -45l-34 45v320l32 44l34 -44v-320zM521 -135l-35 -42h-148l-36 40l36 42h148zM279 -135l-35 -42h-148l-35 40l35 42h148z " />
<glyph unicode="J" d="M521 741l-35 -42h-148l-36 40l36 42h148zM565 360l-32 -44l-34 44v323l32 44l34 -44v-323zM565 -77l-32 -45l-34 45v320l32 44l34 -44v-320zM521 -135l-35 -42h-148l-36 40l36 42h148zM82 -77l-32 -45l-33 45v320l32 44l33 -44v-320zM279 -135l-35 -42h-148l-35 40l35 42 h148z" />
<glyph unicode="K" d="M487 577l-122 -219h-30v86l135 240h17v-107zM487 -80h-17l-135 240v86h30l122 -220v-106zM82 360l-32 -44l-33 44v321l32 44l33 -44v-321zM279 303l-35 -42h-148l-35 40l35 42h148zM82 -77l-32 -45l-33 45v320l32 44l33 -44v-320z" />
<glyph unicode="L" d="M82 360l-32 -44l-33 44v321l32 44l33 -44v-321zM521 -135l-35 -42h-148l-36 40l36 42h148zM82 -77l-32 -45l-33 45v320l32 44l33 -44v-320zM279 -135l-35 -42h-148l-35 40l35 42h148z" />
<glyph unicode="M" d="M565 360l-32 -44l-34 44v323l32 44l34 -44v-323zM487 577l-122 -219h-30v86l135 240h17v-107zM565 -77l-32 -45l-34 45v320l32 44l34 -44v-320zM246 358h-29l-123 219v107h18l134 -240v-86zM82 360l-32 -44l-33 44v321l32 44l33 -44v-321zM82 -77l-32 -45l-33 45v320 l32 44l33 -44v-320z" />
<glyph unicode="N" d="M565 360l-32 -44l-34 44v323l32 44l34 -44v-323zM565 -77l-32 -45l-34 45v320l32 44l34 -44v-320zM246 358h-29l-123 219v107h18l134 -240v-86zM487 -80h-17l-135 240v86h30l122 -220v-106zM82 360l-32 -44l-33 44v321l32 44l33 -44v-321zM82 -77l-32 -45l-33 45v320 l32 44l33 -44v-320z" />
<glyph unicode="O" d="M521 741l-35 -42h-148l-36 40l36 42h148zM565 360l-32 -44l-34 44v323l32 44l34 -44v-323zM279 741l-35 -42h-148l-35 40l35 42h148zM565 -77l-32 -45l-34 45v320l32 44l34 -44v-320zM82 360l-32 -44l-33 44v321l32 44l33 -44v-321zM521 -135l-35 -42h-148l-36 40l36 42 h148zM82 -77l-32 -45l-33 45v320l32 44l33 -44v-320zM279 -135l-35 -42h-148l-35 40l35 42h148z" />
<glyph unicode="P" d="M521 741l-35 -42h-148l-36 40l36 42h148zM565 360l-32 -44l-34 44v323l32 44l34 -44v-323zM279 741l-35 -42h-148l-35 40l35 42h148zM521 303l-35 -42h-148l-36 40l36 42h148zM82 360l-32 -44l-33 44v321l32 44l33 -44v-321zM279 303l-35 -42h-148l-35 40l35 42h148z M82 -77l-32 -45l-33 45v320l32 44l33 -44v-320z" />
<glyph unicode="Q" d="M521 741l-35 -42h-148l-36 40l36 42h148zM565 360l-32 -44l-34 44v323l32 44l34 -44v-323zM279 741l-35 -42h-148l-35 40l35 42h148zM565 -77l-32 -45l-34 45v320l32 44l34 -44v-320zM487 -80h-17l-135 240v86h30l122 -220v-106zM82 360l-32 -44l-33 44v321l32 44l33 -44 v-321zM521 -135l-35 -42h-148l-36 40l36 42h148zM82 -77l-32 -45l-33 45v320l32 44l33 -44v-320zM279 -135l-35 -42h-148l-35 40l35 42h148z" />
<glyph unicode="R" d="M521 741l-35 -42h-148l-36 40l36 42h148zM565 360l-32 -44l-34 44v323l32 44l34 -44v-323zM279 741l-35 -42h-148l-35 40l35 42h148zM521 303l-35 -42h-148l-36 40l36 42h148zM487 -80h-17l-135 240v86h30l122 -220v-106zM82 360l-32 -44l-33 44v321l32 44l33 -44v-321z M279 303l-35 -42h-148l-35 40l35 42h148zM82 -77l-32 -45l-33 45v320l32 44l33 -44v-320z" />
<glyph unicode="S" d="M521 741l-35 -42h-148l-36 40l36 42h148zM279 741l-35 -42h-148l-35 40l35 42h148zM521 303l-35 -42h-148l-36 40l36 42h148zM565 -77l-32 -45l-34 45v320l32 44l34 -44v-320zM82 360l-32 -44l-33 44v321l32 44l33 -44v-321zM279 303l-35 -42h-148l-35 40l35 42h148z M521 -135l-35 -42h-148l-36 40l36 42h148zM279 -135l-35 -42h-148l-35 40l35 42h148z" />
<glyph unicode="T" d="M521 741l-35 -42h-148l-36 40l36 42h148zM279 741l-35 -42h-148l-35 40l35 42h148zM324 360l-32 -44l-34 44v321l32 44l34 -44v-321zM324 -77l-32 -45l-34 45v320l32 44l34 -44v-320z" />
<glyph unicode="U" d="M565 360l-32 -44l-34 44v323l32 44l34 -44v-323zM565 -77l-32 -45l-34 45v320l32 44l34 -44v-320zM82 360l-32 -44l-33 44v321l32 44l33 -44v-321zM521 -135l-35 -42h-148l-36 40l36 42h148zM82 -77l-32 -45l-33 45v320l32 44l33 -44v-320zM279 -135l-35 -42h-148l-35 40 l35 42h148z" />
<glyph unicode="V" d="M565 360l-32 -44l-34 44v323l32 44l34 -44v-323zM487 160l-134 -240h-18v106l123 220h29v-86zM82 360l-32 -44l-33 44v321l32 44l33 -44v-321zM246 -80h-17l-135 240v86h29l123 -220v-106z" />
<glyph unicode="W" d="M565 360l-32 -44l-34 44v323l32 44l34 -44v-323zM565 -77l-32 -45l-34 45v320l32 44l34 -44v-320zM487 -80h-17l-135 240v86h30l122 -220v-106zM82 360l-32 -44l-33 44v321l32 44l33 -44v-321zM246 160l-134 -240h-18v106l123 220h29v-86zM82 -77l-32 -45l-33 45v320 l32 44l33 -44v-320z" />
<glyph unicode="X" d="M487 577l-122 -219h-30v86l135 240h17v-107zM246 358h-29l-123 219v107h18l134 -240v-86zM487 -80h-17l-135 240v86h30l122 -220v-106zM246 160l-134 -240h-18v106l123 220h29v-86z" />
<glyph unicode="Y" d="M487 577l-122 -219h-30v86l135 240h17v-107zM246 358h-29l-123 219v107h18l134 -240v-86zM324 -77l-32 -45l-34 45v320l32 44l34 -44v-320z" />
<glyph unicode="Z" d="M521 741l-35 -42h-148l-36 40l36 42h148zM487 577l-122 -219h-30v86l135 240h17v-107zM279 741l-35 -42h-148l-35 40l35 42h148zM521 -135l-35 -42h-148l-36 40l36 42h148zM246 160l-134 -240h-18v106l123 220h29v-86zM279 -135l-35 -42h-148l-35 40l35 42h148z" />
<glyph unicode="[" d="M521 741l-35 -42h-148l-36 40l36 42h148zM324 360l-32 -44l-34 44v321l32 44l34 -44v-321zM324 -77l-32 -45l-34 45v320l32 44l34 -44v-320zM521 -135l-35 -42h-148l-36 40l36 42h148z" />
<glyph unicode="\" d="M246 358h-29l-123 219v107h18l134 -240v-86zM487 -80h-17l-135 240v86h30l122 -220v-106z" />
<glyph unicode="]" d="M279 741l-35 -42h-148l-35 40l35 42h148zM324 360l-32 -44l-34 44v321l32 44l34 -44v-321zM324 -77l-32 -45l-34 45v320l32 44l34 -44v-320zM279 -135l-35 -42h-148l-35 40l35 42h148z" />
<glyph unicode="^" d="M487 358h-29l-123 219v107h18l134 -240v-86zM246 577l-123 -219h-29v86l135 240h17v-107z" />
<glyph unicode="_" d="M521 -135l-35 -42h-148l-36 40l36 42h148zM279 -135l-35 -42h-148l-35 40l35 42h148z" />
<glyph unicode="`" d="M246 358h-29l-123 219v107h18l134 -240v-86z" />
<glyph unicode="a" d="M487 358h-29l-123 219v107h18l134 -240v-86zM521 303l-35 -42h-148l-36 40l36 42h148zM565 -77l-32 -45l-34 45v320l32 44l34 -44v-320zM246 577l-123 -219h-29v86l135 240h17v-107zM279 303l-35 -42h-148l-35 40l35 42h148zM82 -77l-32 -45l-33 45v320l32 44l33 -44 v-320z" />
<glyph unicode="b" d="M521 741l-35 -42h-148l-36 40l36 42h148zM565 360l-32 -44l-34 44v323l32 44l34 -44v-323zM279 741l-35 -42h-148l-35 40l35 42h148zM521 303l-35 -42h-148l-36 40l36 42h148zM565 -77l-32 -45l-34 45v320l32 44l34 -44v-320zM82 360l-32 -44l-33 44v321l32 44l33 -44 v-321zM279 303l-35 -42h-148l-35 40l35 42h148zM521 -135l-35 -42h-148l-36 40l36 42h148zM82 -77l-32 -45l-33 45v320l32 44l33 -44v-320zM279 -135l-35 -42h-148l-35 40l35 42h148z" />
<glyph unicode="c" d="M521 741l-35 -42h-148l-36 40l36 42h148zM279 741l-35 -42h-148l-35 40l35 42h148zM82 360l-32 -44l-33 44v321l32 44l33 -44v-321zM521 -135l-35 -42h-148l-36 40l36 42h148zM82 -77l-32 -45l-33 45v320l32 44l33 -44v-320zM279 -135l-35 -42h-148l-35 40l35 42h148z " />
<glyph unicode="d" d="M487 358h-29l-123 219v107h18l134 -240v-86zM279 741l-35 -42h-148l-35 40l35 42h148zM487 160l-134 -240h-18v106l123 220h29v-86zM82 360l-32 -44l-33 44v321l32 44l33 -44v-321zM82 -77l-32 -45l-33 45v320l32 44l33 -44v-320zM279 -135l-35 -42h-148l-35 40l35 42 h148z" />
<glyph unicode="e" d="M521 741l-35 -42h-148l-36 40l36 42h148zM279 741l-35 -42h-148l-35 40l35 42h148zM521 303l-35 -42h-148l-36 40l36 42h148zM82 360l-32 -44l-33 44v321l32 44l33 -44v-321zM279 303l-35 -42h-148l-35 40l35 42h148zM521 -135l-35 -42h-148l-36 40l36 42h148zM82 -77 l-32 -45l-33 45v320l32 44l33 -44v-320zM279 -135l-35 -42h-148l-35 40l35 42h148z" />
<glyph unicode="f" d="M521 741l-35 -42h-148l-36 40l36 42h148zM279 741l-35 -42h-148l-35 40l35 42h148zM521 303l-35 -42h-148l-36 40l36 42h148zM82 360l-32 -44l-33 44v321l32 44l33 -44v-321zM279 303l-35 -42h-148l-35 40l35 42h148zM82 -77l-32 -45l-33 45v320l32 44l33 -44v-320z" />
<glyph unicode="g" d="M521 741l-35 -42h-148l-36 40l36 42h148zM279 741l-35 -42h-148l-35 40l35 42h148zM521 303l-35 -42h-148l-36 40l36 42h148zM565 -77l-32 -45l-34 45v320l32 44l34 -44v-320zM82 360l-32 -44l-33 44v321l32 44l33 -44v-321zM521 -135l-35 -42h-148l-36 40l36 42h148z M82 -77l-32 -45l-33 45v320l32 44l33 -44v-320zM279 -135l-35 -42h-148l-35 40l35 42h148z" />
<glyph unicode="h" d="M565 360l-32 -44l-34 44v323l32 44l34 -44v-323zM521 303l-35 -42h-148l-36 40l36 42h148zM565 -77l-32 -45l-34 45v320l32 44l34 -44v-320zM82 360l-32 -44l-33 44v321l32 44l33 -44v-321zM279 303l-35 -42h-148l-35 40l35 42h148zM82 -77l-32 -45l-33 45v320l32 44 l33 -44v-320z" />
<glyph unicode="i" d="M521 741l-35 -42h-148l-36 40l36 42h148zM279 741l-35 -42h-148l-35 40l35 42h148zM324 360l-32 -44l-34 44v321l32 44l34 -44v-321zM324 -77l-32 -45l-34 45v320l32 44l34 -44v-320zM521 -135l-35 -42h-148l-36 40l36 42h148zM279 -135l-35 -42h-148l-35 40l35 42h148z " />
<glyph unicode="j" d="M521 741l-35 -42h-148l-36 40l36 42h148zM565 360l-32 -44l-34 44v323l32 44l34 -44v-323zM565 -77l-32 -45l-34 45v320l32 44l34 -44v-320zM521 -135l-35 -42h-148l-36 40l36 42h148zM82 -77l-32 -45l-33 45v320l32 44l33 -44v-320zM279 -135l-35 -42h-148l-35 40l35 42 h148z" />
<glyph unicode="k" d="M487 577l-122 -219h-30v86l135 240h17v-107zM487 -80h-17l-135 240v86h30l122 -220v-106zM82 360l-32 -44l-33 44v321l32 44l33 -44v-321zM279 303l-35 -42h-148l-35 40l35 42h148zM82 -77l-32 -45l-33 45v320l32 44l33 -44v-320z" />
<glyph unicode="l" d="M82 360l-32 -44l-33 44v321l32 44l33 -44v-321zM521 -135l-35 -42h-148l-36 40l36 42h148zM82 -77l-32 -45l-33 45v320l32 44l33 -44v-320zM279 -135l-35 -42h-148l-35 40l35 42h148z" />
<glyph unicode="m" d="M565 360l-32 -44l-34 44v323l32 44l34 -44v-323zM487 577l-122 -219h-30v86l135 240h17v-107zM565 -77l-32 -45l-34 45v320l32 44l34 -44v-320zM246 358h-29l-123 219v107h18l134 -240v-86zM82 360l-32 -44l-33 44v321l32 44l33 -44v-321zM82 -77l-32 -45l-33 45v320 l32 44l33 -44v-320z" />
<glyph unicode="n" d="M565 360l-32 -44l-34 44v323l32 44l34 -44v-323zM565 -77l-32 -45l-34 45v320l32 44l34 -44v-320zM246 358h-29l-123 219v107h18l134 -240v-86zM487 -80h-17l-135 240v86h30l122 -220v-106zM82 360l-32 -44l-33 44v321l32 44l33 -44v-321zM82 -77l-32 -45l-33 45v320 l32 44l33 -44v-320z" />
<glyph unicode="o" d="M521 741l-35 -42h-148l-36 40l36 42h148zM565 360l-32 -44l-34 44v323l32 44l34 -44v-323zM279 741l-35 -42h-148l-35 40l35 42h148zM565 -77l-32 -45l-34 45v320l32 44l34 -44v-320zM82 360l-32 -44l-33 44v321l32 44l33 -44v-321zM521 -135l-35 -42h-148l-36 40l36 42 h148zM82 -77l-32 -45l-33 45v320l32 44l33 -44v-320zM279 -135l-35 -42h-148l-35 40l35 42h148z" />
<glyph unicode="p" d="M521 741l-35 -42h-148l-36 40l36 42h148zM565 360l-32 -44l-34 44v323l32 44l34 -44v-323zM279 741l-35 -42h-148l-35 40l35 42h148zM521 303l-35 -42h-148l-36 40l36 42h148zM82 360l-32 -44l-33 44v321l32 44l33 -44v-321zM279 303l-35 -42h-148l-35 40l35 42h148z M82 -77l-32 -45l-33 45v320l32 44l33 -44v-320z" />
<glyph unicode="q" d="M521 741l-35 -42h-148l-36 40l36 42h148zM565 360l-32 -44l-34 44v323l32 44l34 -44v-323zM279 741l-35 -42h-148l-35 40l35 42h148zM565 -77l-32 -45l-34 45v320l32 44l34 -44v-320zM487 -80h-17l-135 240v86h30l122 -220v-106zM82 360l-32 -44l-33 44v321l32 44l33 -44 v-321zM521 -135l-35 -42h-148l-36 40l36 42h148zM82 -77l-32 -45l-33 45v320l32 44l33 -44v-320zM279 -135l-35 -42h-148l-35 40l35 42h148z" />
<glyph unicode="r" d="M521 741l-35 -42h-148l-36 40l36 42h148zM565 360l-32 -44l-34 44v323l32 44l34 -44v-323zM279 741l-35 -42h-148l-35 40l35 42h148zM521 303l-35 -42h-148l-36 40l36 42h148zM487 -80h-17l-135 240v86h30l122 -220v-106zM82 360l-32 -44l-33 44v321l32 44l33 -44v-321z M279 303l-35 -42h-148l-35 40l35 42h148zM82 -77l-32 -45l-33 45v320l32 44l33 -44v-320z" />
<glyph unicode="s" d="M521 741l-35 -42h-148l-36 40l36 42h148zM279 741l-35 -42h-148l-35 40l35 42h148zM521 303l-35 -42h-148l-36 40l36 42h148zM565 -77l-32 -45l-34 45v320l32 44l34 -44v-320zM82 360l-32 -44l-33 44v321l32 44l33 -44v-321zM279 303l-35 -42h-148l-35 40l35 42h148z M521 -135l-35 -42h-148l-36 40l36 42h148zM279 -135l-35 -42h-148l-35 40l35 42h148z" />
<glyph unicode="t" d="M521 741l-35 -42h-148l-36 40l36 42h148zM279 741l-35 -42h-148l-35 40l35 42h148zM324 360l-32 -44l-34 44v321l32 44l34 -44v-321zM324 -77l-32 -45l-34 45v320l32 44l34 -44v-320z" />
<glyph unicode="u" d="M565 360l-32 -44l-34 44v323l32 44l34 -44v-323zM565 -77l-32 -45l-34 45v320l32 44l34 -44v-320zM82 360l-32 -44l-33 44v321l32 44l33 -44v-321zM521 -135l-35 -42h-148l-36 40l36 42h148zM82 -77l-32 -45l-33 45v320l32 44l33 -44v-320zM279 -135l-35 -42h-148l-35 40 l35 42h148z" />
<glyph unicode="v" d="M565 360l-32 -44l-34 44v323l32 44l34 -44v-323zM487 160l-134 -240h-18v106l123 220h29v-86zM82 360l-32 -44l-33 44v321l32 44l33 -44v-321zM246 -80h-17l-135 240v86h29l123 -220v-106z" />
<glyph unicode="w" d="M565 360l-32 -44l-34 44v323l32 44l34 -44v-323zM565 -77l-32 -45l-34 45v320l32 44l34 -44v-320zM487 -80h-17l-135 240v86h30l122 -220v-106zM82 360l-32 -44l-33 44v321l32 44l33 -44v-321zM246 160l-134 -240h-18v106l123 220h29v-86zM82 -77l-32 -45l-33 45v320 l32 44l33 -44v-320z" />
<glyph unicode="x" d="M487 577l-122 -219h-30v86l135 240h17v-107zM246 358h-29l-123 219v107h18l134 -240v-86zM487 -80h-17l-135 240v86h30l122 -220v-106zM246 160l-134 -240h-18v106l123 220h29v-86z" />
<glyph unicode="y" d="M487 577l-122 -219h-30v86l135 240h17v-107zM246 358h-29l-123 219v107h18l134 -240v-86zM324 -77l-32 -45l-34 45v320l32 44l34 -44v-320z" />
<glyph unicode="z" d="M521 741l-35 -42h-148l-36 40l36 42h148zM487 577l-122 -219h-30v86l135 240h17v-107zM279 741l-35 -42h-148l-35 40l35 42h148zM521 -135l-35 -42h-148l-36 40l36 42h148zM246 160l-134 -240h-18v106l123 220h29v-86zM279 -135l-35 -42h-148l-35 40l35 42h148z" />
<glyph unicode="{" d="M521 741l-35 -42h-148l-36 40l36 42h148zM324 360l-32 -44l-34 44v321l32 44l34 -44v-321zM324 -77l-32 -45l-34 45v320l32 44l34 -44v-320zM521 -135l-35 -42h-148l-36 40l36 42h148zM279 303l-35 -42h-148l-35 40l35 42h148z" />
<glyph unicode="|" d="M324 360l-32 -44l-34 44v321l32 44l34 -44v-321zM324 -77l-32 -45l-34 45v320l32 44l34 -44v-320z" />
<glyph unicode="}" d="M279 741l-35 -42h-148l-35 40l35 42h148zM324 360l-32 -44l-34 44v321l32 44l34 -44v-321zM324 -77l-32 -45l-34 45v320l32 44l34 -44v-320zM279 -135l-35 -42h-148l-35 40l35 42h148zM521 303l-35 -42h-148l-36 40l36 42h148z" />
<glyph unicode="&#xa0;" />
<glyph unicode="&#xad;" d="M521 303l-35 -42h-148l-36 40l36 42h148zM279 303l-35 -42h-148l-35 40l35 42h148z" />
<glyph unicode="&#xc6;" d="M521 741l-35 -42h-148l-36 40l36 42h148zM324 360l-32 -44l-34 44v321l32 44l34 -44v-321zM521 303l-35 -42h-148l-36 40l36 42h148zM246 577l-123 -219h-29v86l135 240h17v-107zM279 303l-35 -42h-148l-35 40l35 42h148zM324 -77l-32 -45l-34 45v320l32 44l34 -44v-320z M521 -135l-35 -42h-148l-36 40l36 42h148zM82 -77l-32 -45l-33 45v320l32 44l33 -44v-320z" />
<glyph unicode="&#xd8;" d="M521 741l-35 -42h-148l-36 40l36 42h148zM565 360l-32 -44l-34 44v323l32 44l34 -44v-323zM487 577l-122 -219h-30v86l135 240h17v-107zM279 741l-35 -42h-148l-35 40l35 42h148zM565 -77l-32 -45l-34 45v320l32 44l34 -44v-320zM82 360l-32 -44l-33 44v321l32 44l33 -44 v-321zM521 -135l-35 -42h-148l-36 40l36 42h148zM246 160l-134 -240h-18v106l123 220h29v-86zM82 -77l-32 -45l-33 45v320l32 44l33 -44v-320zM279 -135l-35 -42h-148l-35 40l35 42h148z" />
<glyph unicode="&#xe6;" d="M521 741l-35 -42h-148l-36 40l36 42h148zM324 360l-32 -44l-34 44v321l32 44l34 -44v-321zM521 303l-35 -42h-148l-36 40l36 42h148zM246 577l-123 -219h-29v86l135 240h17v-107zM279 303l-35 -42h-148l-35 40l35 42h148zM324 -77l-32 -45l-34 45v320l32 44l34 -44v-320z M521 -135l-35 -42h-148l-36 40l36 42h148zM82 -77l-32 -45l-33 45v320l32 44l33 -44v-320z" />
<glyph unicode="&#xf8;" d="M521 741l-35 -42h-148l-36 40l36 42h148zM565 360l-32 -44l-34 44v323l32 44l34 -44v-323zM487 577l-122 -219h-30v86l135 240h17v-107zM279 741l-35 -42h-148l-35 40l35 42h148zM565 -77l-32 -45l-34 45v320l32 44l34 -44v-320zM82 360l-32 -44l-33 44v321l32 44l33 -44 v-321zM521 -135l-35 -42h-148l-36 40l36 42h148zM246 160l-134 -240h-18v106l123 220h29v-86zM82 -77l-32 -45l-33 45v320l32 44l33 -44v-320zM279 -135l-35 -42h-148l-35 40l35 42h148z" />
<glyph unicode="&#x2000;" horiz-adv-x="390" />
<glyph unicode="&#x2001;" horiz-adv-x="781" />
<glyph unicode="&#x2002;" horiz-adv-x="390" />
<glyph unicode="&#x2003;" horiz-adv-x="781" />
<glyph unicode="&#x2004;" horiz-adv-x="260" />
<glyph unicode="&#x2005;" horiz-adv-x="195" />
<glyph unicode="&#x2006;" horiz-adv-x="130" />
<glyph unicode="&#x2007;" horiz-adv-x="130" />
<glyph unicode="&#x2008;" horiz-adv-x="97" />
<glyph unicode="&#x2009;" horiz-adv-x="156" />
<glyph unicode="&#x200a;" horiz-adv-x="43" />
<glyph unicode="&#x2010;" d="M521 303l-35 -42h-148l-36 40l36 42h148zM279 303l-35 -42h-148l-35 40l35 42h148z" />
<glyph unicode="&#x2011;" d="M521 303l-35 -42h-148l-36 40l36 42h148zM279 303l-35 -42h-148l-35 40l35 42h148z" />
<glyph unicode="&#x2012;" d="M521 303l-35 -42h-148l-36 40l36 42h148zM279 303l-35 -42h-148l-35 40l35 42h148z" />
<glyph unicode="&#x2013;" horiz-adv-x="680" d="M561 303l-38 -42h-161l-39 40l39 42h161zM298 303l-38 -42h-161l-38 40l38 42h161z" />
<glyph unicode="&#x2014;" horiz-adv-x="1180" d="M1061 303l-76 -42h-322l-78 40l78 42h322zM535 303l-76 -42h-322l-76 40l76 42h322z" />
<glyph unicode="&#x202f;" horiz-adv-x="156" />
<glyph unicode="&#x205f;" horiz-adv-x="195" />
<glyph unicode="&#xe000;" horiz-adv-x="685" d="M0 685h685v-685h-685v685z" />
</font>
</defs>
</svg>
