<?xml version="1.0" standalone="no"?>
<!DOCTYPE svg PUBLIC "-//W3C//DTD SVG 1.1//EN" "http://www.w3.org/Graphics/SVG/1.1/DTD/svg11.dtd" >
<svg xmlns="http://www.w3.org/2000/svg">
<metadata></metadata>
<defs>
<font id="twobitregular" horiz-adv-x="1200" >
<font-face units-per-em="2048" ascent="1638" descent="-410" />
<missing-glyph horiz-adv-x="652" />
<glyph unicode="&#xd;" horiz-adv-x="508" />
<glyph horiz-adv-x="0" />
<glyph horiz-adv-x="0" />
<glyph unicode=" "  horiz-adv-x="652" />
<glyph unicode="&#x09;" horiz-adv-x="652" />
<glyph unicode="&#xa0;" horiz-adv-x="652" />
<glyph unicode="!" horiz-adv-x="500" d="M0 100v100q0 100 100 100h200q100 0 100 -100v-100q0 -100 -100 -100h-200q-100 0 -100 100zM0 500v800q0 100 100 100t100 -100v-250q0 -50 50 -50q150 0 150 -150v-350q0 -100 -100 -100h-200q-100 0 -100 100z" />
<glyph unicode="&#x22;" horiz-adv-x="1000" d="M0 1200v100q0 100 100 100h200q100 0 100 -100v-300q0 -100 -100 -100q-50 0 -75 25l-200 200q-25 25 -25 75zM500 1200v100q0 100 100 100h200q100 0 100 -100v-300q0 -100 -100 -100q-50 0 -75 25l-200 200q-25 25 -25 75z" />
<glyph unicode="#" horiz-adv-x="1000" d="M0 950q0 100 100 100q43 0 49 38v62q0 100 100 100h200q100 0 100 -100v-50h1q0 -50 50 -50t50 50v50q0 100 100 100t100 -100v-55q3 -45 50 -45q100 0 100 -100t-100 -100q-43 0 -49 -38v-112q0 -50 50 -50q100 0 101 -100q0 -99 -101 -100q-50 0 -50 -50l-1 -50 q0 -100 -100 -100t-100 100l1 50q0 50 -50 50h-1q-50 0 -50 -50l-1 -50q0 -100 -100 -100h-200q-100 0 -100 100l1 50q0 50 -48 50q-101 0 -101 99q0 101 99 101q50 0 50 50v105q-3 45 -50 45q-100 0 -100 100zM550 700q0 -50 50 -50h1q50 0 50 50v100h-1q0 50 -50 50 t-50 -50v-100z" />
<glyph unicode="$" d="M-1 1049q1 150 150 150h251v1q50 0 50 50v50q0 100 100 100t100 -100v-50q0 -50 50 -50v-1h299q100 -1 100 -100q0 -100 -100 -100h-700q-98 0 -99 -99q0 -100 100 -100h650q150 0 150 -150v-300q0 -150 -149 -151h-264q-37 -6 -37 -49v-50q0 -100 -100 -100t-100 100v50 q0 50 -50 50h-300q-100 0 -100 100t100 100h500q99 0 100 100q-6 100 -100 101l-450 -1q-150 0 -150 150z" />
<glyph unicode="%" d="M0 100v450q0 100 150 150l650 250q100 50 100 100v250q0 100 100 100q99 0 100 -100v-400q0 -100 -150 -150l-500 -200q-50 -25 -50 -49v-401q0 -100 -100 -100h-200q-100 0 -100 100zM100 1050v100q0 100 100 100h200q100 0 100 -100v-100q0 -100 -100 -100h-200 q-100 0 -100 100zM600 300v100q0 100 100 100h200q100 0 100 -100v-100q0 -100 -100 -100h-200q-100 0 -100 100z" />
<glyph unicode="&#x26;" d="M0 150v550q0 150 150 150q50 0 50 50v350q0 150 150 150h400q100 0 100 -100t-100 -100h-250q-100 0 -100 -100v-200q0 -50 50 -50h250q50 0 50 50q0 100 100 100t100 -100q0 -50 50 -50q100 0 100 -100t-100 -100q-50 0 -50 -50v-450q0 -150 -150 -150h-650 q-150 0 -150 150zM400 250q0 -50 50 -50h200q100 0 100 100v300q0 50 -50 50h-250q-49 -1 -50 -50v-350z" />
<glyph unicode="'" horiz-adv-x="500" d="M0 1200v100q0 100 100 100h200q100 0 100 -100v-300q0 -100 -100 -100q-50 0 -75 25l-200 200q-25 25 -25 75z" />
<glyph unicode="(" horiz-adv-x="700" d="M0 -50v1501q0 149 150 150l350 -1q100 0 100 -100t-100 -100l-200 1q-100 0 -100 -100v-401q0 -50 50 -50q150 0 150 -150v-650q0 -50 50 -50h50q100 0 100 -100t-100 -100l-351 -1q-149 1 -149 151z" />
<glyph unicode=")" horiz-adv-x="700" d="M0 -100q0 100 100 100h50q50 0 50 50v650q0 150 150 150q50 0 50 50v401q0 100 -100 100l-200 -1q-100 0 -100 100t100 100l350 1q150 -1 150 -150v-1501q0 -150 -149 -151l-351 1q-100 0 -100 100z" />
<glyph unicode="*" horiz-adv-x="1100" d="M0 900v150q0 100 100 150q-100 50 -100 150v150q0 100 100 100t100 -99v-151q0 -50 50 -50t50 50v250q0 100 100 100h200q100 0 100 -100v-250q0 -50 50 -50t50 50v150q0 100 100 100t100 -100v-150q0 -100 -100 -150q100 -50 100 -150v-150q0 -100 -100 -100t-100 100 v150q-1 49 -50 50q-50 0 -50 -50v-250q0 -100 -100 -100h-200q-100 0 -100 100v250q0 50 -49 50h-1q-50 0 -50 -50v-150q0 -100 -100 -100t-100 100z" />
<glyph unicode="+" horiz-adv-x="1000" d="M0 749q0 101 100 101h100q50 0 50 50v250q0 100 100 100h200q100 0 100 -100v-250q0 -50 50 -50h100q100 0 101 -100q0 -99 -101 -100h-100q-50 0 -50 -50v-250q0 -100 -100 -100h-200q-100 0 -100 100v250q0 50 -49 50h-100q-101 0 -101 99z" />
<glyph unicode="," horiz-adv-x="500" d="M0 100v100q0 100 100 100h200q100 0 100 -100v-300q0 -100 -100 -100q-50 0 -75 25l-200 200q-25 25 -25 75z" />
<glyph unicode="-" horiz-adv-x="1000" d="M0 749q0 101 100 101h700q100 0 101 -100q0 -99 -101 -100h-699q-101 0 -101 99z" />
<glyph unicode="." horiz-adv-x="500" d="M0 100v100q0 100 100 100h200q100 0 100 -100v-100q0 -100 -100 -100h-200q-100 0 -100 100z" />
<glyph unicode="/" d="M0 100v450q0 100 150 150l650 250q100 50 100 100v250q0 100 100 100q99 0 100 -100v-400q0 -100 -150 -150l-500 -200q-50 -25 -50 -49v-401q0 -100 -100 -100h-200q-100 0 -100 100z" />
<glyph unicode="0" d="M0 150v1100q1 150 150 150h800q150 -1 150 -149v-1101q0 -150 -149 -151l-801 1q-150 0 -150 150zM201 300q0 -100 100 -100l349 -1q49 1 50 51l-1 450q0 149 150 149q51 0 51 51v200q0 100 -100 100h-500q-98 0 -99 -100v-800z" />
<glyph unicode="1" horiz-adv-x="500" d="M0 100v600q0 150 150 150q50 0 50 50v400q0 100 100 100t100 -100v-1200q0 -100 -100 -100h-201q-99 0 -99 100z" />
<glyph unicode="2" d="M0 150v550q0 150 150 150h650q100 0 100 100l-1 150q-1 100 -99 100h-500q-100 0 -100 -100v-50q0 -100 -100 -100t-100 100v200q0 149 150 150h800q149 0 150 -150v-450q0 -150 -150 -150h-500q-44 0 -50 -49v-351q1 -50 50 -51l550 1q100 0 100 -100t-100 -100l-851 -1 q-149 1 -149 151z" />
<glyph unicode="3" d="M0 150v200q0 100 100 100t100 -100v-50q0 -100 100 -100h350q50 0 50 50v350q-1 49 -50 50h-350q-100 0 -100 100t100 100h350q50 0 50 50v200q0 100 -100 100h-300q-100 0 -100 -100v-50q0 -100 -100 -100t-100 100v200q0 150 150 150h600q150 0 150 -150v-350 q0 -50 50 -50q150 0 150 -150v-550q0 -150 -150 -150h-800q-150 0 -150 150z" />
<glyph unicode="4" d="M0 350v900q0 150 150 150h650q151 0 151 -151v-812q6 -37 49 -37q100 0 100 -100t-100 -100q-43 0 -49 -37v-65q0 -99 -101 -99l-199 2q-99 0 -100 99v48q0 51 -50 51l-351 1q-150 2 -150 150zM200 500q0 -100 100 -100l400 -1q50 0 51 50v650q0 99 -101 100l-350 1 q-100 0 -100 -100v-600z" />
<glyph unicode="5" d="M0 150v200q0 100 101 100q99 0 99 -100l1 -50q0 -100 100 -100l349 -1q49 1 50 51v351q-6 49 -50 49h-500q-150 0 -150 150v450q1 150 150 150h750q100 0 100 -100t-100 -100h-600q-98 0 -99 -100l-1 -150q0 -100 100 -100h650q150 0 150 -150v-550q0 -150 -149 -151 l-801 1q-150 0 -150 150z" />
<glyph unicode="6" d="M0 150v1100q1 150 150 150h750q100 0 100 -100t-100 -100h-600q-98 0 -99 -100l-1 -150q0 -100 100 -100h650q150 0 150 -150v-550q0 -150 -149 -151l-801 1q-150 0 -150 150zM200 350l1 -50q0 -100 100 -100l349 -1q49 1 50 51v351q-6 49 -50 49h-350q-100 0 -100 -100 v-200z" />
<glyph unicode="7" d="M0 1300q0 100 100 100h900q100 0 100 -100v-1200q0 -100 -100 -100h-200q-100 0 -100 100v600q0 150 150 150q50 0 50 50v250q0 50 -50 50h-750q-100 0 -100 100z" />
<glyph unicode="8" d="M0 150v550q0 150 150 150q50 0 50 50v350q0 150 150 150h400q150 0 150 -150v-350q0 -50 50 -50q150 0 150 -150v-550q0 -150 -150 -150h-800q-150 0 -150 150zM200 300q0 -100 100 -100h350q50 0 50 50v350q-1 49 -50 50h-350q-100 0 -100 -100v-250zM400 900 q0 -50 50 -50h200q50 0 50 50v200q0 100 -100 100h-100q-100 0 -100 -100v-200z" />
<glyph unicode="9" d="M0 800v450q0 150 150 150l799 1q151 0 151 -151v-1151q0 -99 -101 -99l-199 2q-99 0 -100 99v498q0 51 -50 51h-500q-150 2 -150 150zM200 950q0 -100 100 -100h549q50 0 51 50v200q0 99 -101 100h-499q-100 0 -100 -100v-150z" />
<glyph unicode=":" horiz-adv-x="500" d="M0 100v100q0 100 100 100h200q100 0 100 -100v-100q0 -100 -100 -100h-200q-100 0 -100 100zM0 700v100q0 100 100 100h200q100 0 100 -100v-100q0 -100 -100 -100h-200q-100 0 -100 100z" />
<glyph unicode=";" horiz-adv-x="500" d="M0 100v100q0 100 100 100h200q100 0 100 -100v-300q0 -100 -100 -100q-50 0 -75 25l-200 200q-25 25 -25 75zM0 700v100q0 100 100 100h200q100 0 100 -100v-100q0 -100 -100 -100h-200q-100 0 -100 100z" />
<glyph unicode="&#x3c;" d="M0 600v200q0 100 150 150l500 200q250 100 300 100h50q100 0 100 -100t-150 -150l-487 -187q-88 -38 -113 -113q25 -75 113 -113l487 -187q150 -50 150 -150t-100 -100h-50q-50 0 -300 100l-500 200q-150 50 -150 150z" />
<glyph unicode="=" horiz-adv-x="1000" d="M-1 549q0 101 100 101h700q100 0 101 -100q0 -99 -101 -100h-699q-101 0 -101 99zM0 949q0 101 100 101h700q100 0 101 -100q0 -99 -101 -100h-699q-101 0 -101 99z" />
<glyph unicode="&#x3e;" d="M0 250q0 100 150 150l487 187q88 38 113 113q-25 75 -113 113l-487 187q-150 50 -150 150t100 100h50q50 0 300 -100l500 -200q150 -50 150 -150v-200q0 -100 -150 -150l-500 -200q-250 -100 -300 -100h-50q-100 0 -100 100z" />
<glyph unicode="?" horiz-adv-x="1100" d="M0 100v100q0 100 100 100h200q100 0 100 -100v-100q0 -100 -100 -100h-200q-100 0 -100 100zM0 499v201q0 150 150 150l550 2q100 0 100 100v150q0 100 -100 100h-399q-101 -1 -101 -100v-52q0 -100 -100 -100t-100 100v202q0 151 151 151l699 -1q150 0 150 -150v-450 q0 -148 -150 -150l-350 -2q-100 0 -100 -100v-51q-1 -99 -100 -99h-199q-101 0 -101 99z" />
<glyph unicode="@" d="M0 150v1100q0 149 150 150h800q149 0 150 -150v-850q0 -100 -100 -100h-350q-150 0 -150 150v450q0 150 150 150h200q44 0 49 50q-1 100 -99 100h-500q-100 0 -100 -100v-200q0 -50 51 -50q150 -1 150 -149l-1 -451q1 -50 50 -51l551 1q99 0 99 -100t-100 -100l-851 -1 q-149 1 -149 151zM700 600q0 -100 100 -100h50q50 0 50 50v200q0 100 -100 100t-100 -100v-150z" />
<glyph unicode="A" d="M0 100v600q0 150 150 150v400q0 150 150 150h500q150 0 150 -150v-400q150 0 150 -150v-600q0 -100 -100 -100t-100 100v450q-1 99 -100 100h-300q-81 -6 -100 -100v-450q0 -100 -104 -100h-196q-100 0 -100 100zM350 901q0 -50 50 -50l300 -1q50 0 50 50v200 q0 100 -100 100h-200q-100 0 -100 -100v-199z" />
<glyph unicode="B" d="M0 100v1200q0 100 100 100h650q150 0 150 -150v-350q0 -50 50 -50q150 0 150 -150v-550q0 -150 -150 -150h-850q-100 0 -100 100zM200 900q0 -50 50 -50h400q50 0 50 50v200q0 100 -100 100h-350q-50 0 -50 -50v-250zM400 250q0 -50 50 -50h350q100 0 100 100v250 q-1 99 -100 100h-350q-50 0 -50 -50v-350z" />
<glyph unicode="C" d="M0 150v1100q0 149 150 150h800q149 0 150 -150v-200q0 -100 -100 -100t-100 101l-1 49q-1 100 -99 100h-500q-100 0 -100 -100v-200q0 -50 51 -50q150 -1 150 -149l-1 -451q1 -50 50 -51l349 1q100 0 100 100l1 50q0 100 100 100t100 -100v-200q0 -150 -150 -150l-801 -1 q-149 1 -149 151z" />
<glyph unicode="D" d="M0 99v1201q0 100 100 100h850q150 0 150 -150v-1100q0 -150 -150 -150h-849q-101 0 -101 99zM200 900q1 -50 51 -50q149 0 149 -150v-450q0 -50 50 -50h350q100 0 100 100v800q0 100 -100 100h-550q-50 -1 -50 -50v-250z" />
<glyph unicode="E" horiz-adv-x="1000" d="M0 99v1151q0 151 151 151l649 -1q100 0 101 -100q0 -100 -100 -100h-500q-101 -1 -101 -100v-200q1 -50 51 -50h549q100 0 101 -100q0 -99 -101 -99l-350 -1q-48 0 -49 -51v-349q0 -49 49 -50h350q100 0 101 -100q0 -100 -101 -100h-699q-101 0 -101 99z" />
<glyph unicode="F" horiz-adv-x="1000" d="M0 99v1151q0 151 151 151l649 -1q100 0 101 -100q0 -100 -100 -100h-500q-101 -1 -101 -100v-200q1 -50 51 -50h549q100 0 101 -100q0 -99 -101 -100l-350 1q-50 0 -50 -51v-499q-1 -99 -100 -99l-199 -2q-101 0 -101 99z" />
<glyph unicode="G" d="M0 150v1100q0 149 150 150h800q149 0 150 -150v-200q0 -100 -100 -100t-100 101l-1 49q-1 100 -99 100h-500q-100 0 -100 -100v-200q0 -50 51 -50q150 -1 150 -149l-1 -451q1 -50 50 -51l349 1q100 0 100 100l1 50v200q0 100 -100 100t-100 100t100 100h150 q150 0 150 -150v-550q0 -150 -150 -150l-801 -1q-149 1 -149 151z" />
<glyph unicode="H" d="M0 100v1200q0 100 100 100t100 -99v-401q0 -50 50 -50h600q50 0 50 50v400q0 100 100 100t100 -100v-1200q0 -100 -100 -100t-100 100v500q-1 49 -50 50h-450q-50 0 -50 -50v-500q0 -100 -104 -100h-146q-100 0 -100 100z" />
<glyph unicode="I" horiz-adv-x="500" d="M0 100v1200q0 100 100 100t100 -100v-400q0 -50 50 -50q150 0 150 -150v-600q0 -100 -100 -100h-200q-100 0 -100 100z" />
<glyph unicode="J" d="M0 150v200q0 100 100 100t100 -100v-50q0 -100 100 -100h300q100 0 100 100v1001q0 99 100 99t100 -100l1 -400q0 -50 50 -50q150 0 150 -150l-1 -550q0 -150 -150 -150h-800q-150 0 -150 150z" />
<glyph unicode="K" d="M0 100v1200q0 100 100 100t100 -99v-401q0 -50 50 -50h400q50 0 50 50v400q0 100 100 100t100 -100v-400q0 -50 50 -50q150 0 150 -150v-600q0 -100 -100 -100t-100 100v450q-1 99 -100 100h-400q-50 0 -50 -50v-500q0 -100 -104 -100h-146q-100 0 -100 100z" />
<glyph unicode="L" horiz-adv-x="1000" d="M0 99v1201q0 100 100 100q99 0 100 -100v-400q1 -50 51 -50q149 0 149 -150l1 -450q0 -49 49 -50h350q100 0 101 -100q0 -100 -101 -100h-699q-101 0 -101 99z" />
<glyph unicode="M" horiz-adv-x="1500" d="M0 99v1151q0 151 151 151l1099 -1q150 0 150 -150v-1150q0 -100 -100 -100t-100 100v1000q0 100 -100 100h-250q-50 0 -50 -50v-1050q0 -100 -100 -100t-100 100v1050q0 50 -50 50h-249q-101 -1 -101 -100v-200q1 -50 51 -50q149 0 149 -150v-600q0 -100 -101 -100h-198 q-101 0 -101 99z" />
<glyph unicode="N" d="M0 99v1151q0 151 151 151l799 -1q150 0 150 -150v-1150q0 -100 -100 -100t-100 100v1000q0 100 -100 100h-499q-101 -1 -101 -100v-200q1 -50 51 -50q149 0 149 -150v-600q0 -100 -101 -100h-198q-101 0 -101 99z" />
<glyph unicode="O" d="M0 149v1100q0 150 150 150l801 1q149 -1 149 -151v-1100q0 -149 -150 -150h-800q-149 0 -150 150zM201 299q1 -100 99 -100h500q100 0 100 100v501q0 50 -50 50q-150 1 -150 149v150q-1 50 -50 51l-349 -1q-100 0 -100 -100v-800z" />
<glyph unicode="P" horiz-adv-x="1100" d="M0 99v1151q0 151 151 151l699 -1q150 0 150 -150v-450q0 -148 -150 -150h-400q-50 0 -50 -51v-498q-1 -99 -100 -99l-199 -2q-101 0 -101 99zM200 900q1 -50 51 -50h449q100 0 100 100v150q0 100 -100 100h-399q-101 -1 -101 -100v-200z" />
<glyph unicode="Q" d="M0 149v1100q0 150 150 150l801 1q149 -1 149 -151v-1100q0 -149 -150 -150h-163q-37 -6 -37 -49v-250q0 -100 -100 -100t-100 100v250q0 43 -37 49h-363q-149 0 -150 150zM201 299q1 -100 99 -100l200 1q50 0 50 50v50q0 100 100 100t100 -100v-50q0 -50 50 -50v-1 q100 0 100 100v501q0 50 -50 50q-150 1 -150 149v150q-1 50 -50 51l-349 -1q-100 0 -100 -100v-800z" />
<glyph unicode="R" d="M0 100v1200q0 100 100 100h650q150 0 150 -150v-350q0 -50 50 -50q150 0 150 -150v-600q0 -100 -100 -100t-100 100v450q-1 99 -100 100h-400q-50 0 -50 -50v-500q0 -100 -104 -100h-146q-100 0 -100 100zM200 900q0 -50 50 -50h400q50 0 50 50v150q0 150 -150 150h-300 q-50 0 -50 -50v-250z" />
<glyph unicode="S" d="M0 150v200q0 100 101 100q99 0 99 -100l1 -50q0 -100 100 -100l349 -1q49 1 50 51v351q-6 49 -50 49h-500q-150 0 -150 150v450q1 150 150 150h800q150 -1 150 -150v-200q0 -100 -100 -100t-100 100v50q0 100 -100 100h-500q-98 0 -99 -100l-1 -150q0 -100 100 -100h650 q150 0 150 -150v-550q0 -150 -149 -151l-801 1q-150 0 -150 150z" />
<glyph unicode="T" d="M0 1300q0 100 100 100h900q100 0 100 -100t-100 -100h-300q-50 0 -50 -50v-250q0 -50 50 -50q150 0 150 -150v-600q0 -100 -100 -100h-200q-100 0 -100 100v1050q0 50 -50 50h-300q-100 0 -100 100z" />
<glyph unicode="U" d="M0 150v1151q0 99 100 99t100 -100v-400q1 -50 51 -50q150 0 150 -150v-450q0 -50 49 -50h351q98 0 98 100l1 1000q0 100 101 101q99 -1 99 -101v-1150q0 -150 -149 -150h-801q-150 0 -150 150z" />
<glyph unicode="V" d="M0 150v1151q0 99 100 99t100 -100v-400q1 -50 51 -50q150 0 150 -150v-450q0 -50 49 -50q15 1 75 50l325 250q50 35 50 75v725q0 100 101 101q99 -1 99 -101v-825q0 -40 -75 -100l-426 -325q-58 -50 -99 -50h-350q-150 0 -150 150z" />
<glyph unicode="W" horiz-adv-x="1500" d="M0 151v1151q0 98 100 98t100 -100v-400q0 -50 50 -50q150 0 150 -150v-450q0 -48 50 -50l100 1q50 0 50 50v1050q0 100 100 100t100 -100v-1050q0 -50 50 -50h250q100 0 100 100v1000q0 100 100 100t100 -100v-1150q0 -150 -150 -150l-1099 -1q-151 0 -151 151z" />
<glyph unicode="X" d="M0 100v500q0 100 100 150q-100 50 -100 150v400q0 100 100 100t100 -99v-401q0 -50 50 -50h600q50 0 50 50v400q0 100 100 100t100 -100v-400q0 -100 -100 -150q100 -50 100 -150v-500q0 -100 -100 -100t-100 100v500q-1 49 -50 50h-450q-50 0 -50 -50v-500 q0 -100 -104 -100h-146q-100 0 -100 100z" />
<glyph unicode="Y" d="M0 800v500q0 100 100 100t100 -99v-351q0 -100 100 -100h500q100 0 100 100v350q0 100 100 100t100 -100v-500q0 -150 -150 -150h-175q-50 0 -50 -50v-500q0 -100 -104 -100h-146q-100 0 -104 100v500q0 50 -50 50h-171q-150 0 -150 150z" />
<glyph unicode="Z" d="M0 150v400q0 100 150 150l650 250q100 50 100 100v100q-2 50 -50 50h-550q-100 0 -100 -100v-50q0 -100 -100 -100t-100 100v200q0 149 150 150h850q99 0 100 -100v-400q0 -100 -150 -150l-500 -200q-50 -25 -50 -49v-251q1 -50 50 -50h350q99 0 99 100l1 50 q0 100 99 100q101 0 101 -100v-200q0 -150 -150 -150l-801 -1q-149 1 -149 151z" />
<glyph unicode="[" horiz-adv-x="700" d="M0 -100v1600q0 100 100 100h400q100 0 100 -100t-100 -100h-250q-49 0 -50 -50v-450q0 -50 50 -50q150 0 150 -150v-650q0 -50 50 -50h50q100 0 100 -100t-100 -100h-400q-100 0 -100 100z" />
<glyph unicode="\" d="M0 900v400q1 100 100 100q100 0 100 -100v-250q0 -50 100 -100l650 -250q150 -50 150 -150v-450q0 -100 -100 -100h-200q-100 0 -100 100v401q0 24 -50 49l-500 200q-150 50 -150 150z" />
<glyph unicode="]" horiz-adv-x="700" d="M0 -100q0 100 100 100h50q50 0 50 50v650q0 150 150 150q50 0 50 50v450q-1 50 -50 50h-250q-100 0 -100 100t100 100h400q100 0 100 -100v-1600q0 -100 -100 -100h-400q-100 0 -100 100z" />
<glyph unicode="^" horiz-adv-x="800" d="M0 1550v50q1 35 25 50l150 125q50 25 75 25h200q25 0 75 -25l150 -125q25 -15 25 -50v-50q0 -50 -50 -50h-125q-25 0 -50 25q-75 75 -100 75h-50q-25 0 -100 -75q-25 -25 -50 -25h-125q-50 0 -50 50z" />
<glyph unicode="_" horiz-adv-x="1000" d="M0 -201q0 101 100 101h700q100 0 101 -100q0 -99 -101 -100h-699q-101 0 -101 99z" />
<glyph unicode="`" horiz-adv-x="500" d="M0 1800q0 100 100 100h200q25 0 51 -25l24 -24q25 -26 25 -51v-200q0 -100 -100 -100q-50 0 -75 25l-200 200q-25 25 -25 75z" />
<glyph unicode="a" horiz-adv-x="900" d="M-1 449q0 149 150 149l401 1q49 0 50 50v50q0 98 -100 98h-250q-50 0 -50 -49q0 -101 -100 -101t-100 101v99q0 150 150 150h499q151 0 151 -149l1 -698q0 -150 -152 -150h-499q-150 0 -150 149zM351 300q0 -100 99 -100l101 -1q49 0 49 50v102q-1 48 -51 48h-100 q-98 0 -98 -99z" />
<glyph unicode="b" horiz-adv-x="900" d="M0 100v1200q0 100 100 100t100 -100v-250q0 -50 50 -50h400q150 0 150 -150v-700q0 -150 -150 -150h-550q-100 0 -100 100zM200 650q0 -50 50 -50q150 0 150 -150v-250q0 -50 50 -50h50q100 0 100 100v450q0 100 -100 100h-250q-50 0 -50 -50v-100z" />
<glyph unicode="c" horiz-adv-x="900" d="M-1 850q0 150 151 150h500q150 0 150 -149v-101q0 -100 -100 -100q-99 0 -100 100q-1 48 -50 50h-250q-100 0 -100 -100l1 -49q0 -50 50 -50q149 -1 149 -151v-150q0 -100 101 -101l50 1q49 0 49 50q0 100 100 100t100 -100v-100q0 -150 -151 -150h-499q-150 0 -150 149z " />
<glyph unicode="d" horiz-adv-x="900" d="M-1 850q0 150 151 150h400q50 0 50 50v250q0 100 100 100t100 -100v-1150q0 -150 -151 -150h-499q-150 0 -150 149zM200 700l2 -49q0 -50 50 -50q149 -1 149 -151l-1 -150q0 -100 101 -101q99 1 99 99l-1 400q0 100 -99 102h-200q-100 0 -100 -100z" />
<glyph unicode="e" horiz-adv-x="900" d="M0 149v701q0 150 151 150h500q150 0 150 -149v-303q0 -149 -150 -149l-200 -1q-49 0 -49 -50l-1 -97q0 -50 49 -51l99 1q50 0 50 49q0 100 101 100q100 0 100 -100v-100q0 -150 -151 -150h-499q-150 0 -150 149zM200 751l1 -102q0 -50 50 -50l250 -2q99 1 99 101t-99 102 h-250q-51 0 -51 -49z" />
<glyph unicode="f" horiz-adv-x="700" d="M0 100v400q0 100 100 100h50q50 0 50 50v100q0 50 -50 50h-50q-100 0 -100 100t100 100h50q50 0 50 50v200q0 151 151 151l249 -1q100 0 101 -100q0 -100 -100 -100h-100q-101 -1 -101 -100v-50q1 -50 51 -50h49q100 0 101 -100q0 -99 -101 -100h-50q-50 0 -50 -51v-649 q0 -100 -100 -100h-200q-100 0 -100 100z" />
<glyph unicode="g" horiz-adv-x="900" d="M-1 850q0 150 151 150h500q150 0 150 -149v-1101q0 -150 -150 -150h-450q-100 0 -100 100t100 100h300q100 0 100 100v50q0 50 -50 50h-400q-150 0 -150 149zM200 700l1 -49q0 -50 50 -50q149 -1 149 -151v-150q0 -100 101 -101q99 1 99 99l-1 400q0 100 -99 102h-200 q-100 0 -100 -100z" />
<glyph unicode="h" horiz-adv-x="900" d="M0 100v1200q0 100 100 100t100 -100v-300h450q150 0 150 -150v-750q0 -100 -100 -100t-100 100v600q0 100 -100 100h-250q-50 0 -50 -50v-100q0 -50 50 -50q150 0 150 -150v-350q0 -100 -100 -100h-200q-100 0 -100 100z" />
<glyph unicode="i" horiz-adv-x="500" d="M0 100v800q0 100 100 100t100 -100v-250q0 -50 50 -50q150 0 150 -150v-350q0 -100 -100 -100h-200q-100 0 -100 100zM0 1200v100q0 100 100 100h200q100 0 100 -100v-100q0 -100 -100 -100h-200q-100 0 -100 100z" />
<glyph unicode="j" horiz-adv-x="500" d="M-100 -300q0 100 100 100h100q100 0 100 100v50q0 50 -50 50h-50q-100 0 -100 100v800q0 100 100 100t100 -100v-250q0 -50 50 -50q150 0 150 -150v-700q0 -150 -150 -150h-250q-100 0 -100 100zM0 1200v100q0 100 100 100h200q100 0 100 -100v-100q0 -100 -100 -100 h-200q-100 0 -100 100z" />
<glyph unicode="k" horiz-adv-x="900" d="M0 100v1200q0 100 100 100t100 -100v-650q0 -50 50 -50h100q50 0 50 50v250q0 100 100 100t100 -100v-250q0 -50 50 -50q150 0 150 -150v-350q0 -100 -100 -100t-100 100v200q0 100 -100 100h-50q-50 0 -50 -50v-250q0 -100 -100 -100h-200q-100 0 -100 100z" />
<glyph unicode="l" horiz-adv-x="500" d="M0 100v1200q0 100 100 100t100 -100v-250q0 -50 50 -50q150 0 150 -150v-750q0 -100 -100 -100h-200q-100 0 -100 100z" />
<glyph unicode="m" horiz-adv-x="1300" d="M-1 850q0 150 151 150h900q150 0 150 -149v-751q0 -100 -100 -100t-100 100l-1 598q0 100 -99 102h-150q-50 0 -50 -50v-650q0 -100 -100 -100t-100 100v650q0 50 -50 50h-150q-100 0 -100 -100l1 -49q0 -50 50 -50q149 -1 149 -151v-350q0 -100 -100 -100h-200 q-100 0 -100 100z" />
<glyph unicode="n" horiz-adv-x="900" d="M-1 850q0 150 151 150h500q150 0 150 -149v-751q0 -100 -100 -100t-100 100l-1 598q0 100 -99 102h-200q-100 0 -100 -100l1 -49q0 -50 50 -50q149 -1 149 -151v-350q0 -100 -100 -100h-200q-100 0 -100 100z" />
<glyph unicode="o" horiz-adv-x="900" d="M-1 850q0 150 151 150h500q150 0 150 -149v-701q0 -150 -151 -150h-499q-150 0 -150 149zM200 700l1 -49q0 -50 50 -50q149 -1 149 -151v-150q0 -100 101 -101q99 1 99 99l-1 400q0 100 -99 102h-200q-100 0 -100 -100z" />
<glyph unicode="p" horiz-adv-x="900" d="M-1 850q0 150 151 150h500q150 0 150 -149v-701q0 -150 -151 -150h-399q-50 0 -50 -50v-250q0 -100 -100 -100t-100 100zM200 700l1 -49q0 -50 50 -50q149 -1 149 -151v-150q0 -100 101 -101q99 1 99 99l-1 400q0 100 -99 102h-200q-100 0 -100 -100z" />
<glyph unicode="q" horiz-adv-x="900" d="M-1 850q0 150 151 150h500q150 0 150 -149v-1151q0 -100 -100 -100t-100 100v250q0 50 -50 50h-400q-150 0 -150 149zM200 700l1 -49q0 -50 50 -50q149 -1 149 -151v-150q0 -100 101 -101q99 1 99 99l-1 400q0 100 -99 102h-200q-100 0 -100 -100z" />
<glyph unicode="r" horiz-adv-x="800" d="M-1 850q0 150 151 150h450q100 0 100 -100t-100 -100h-300q-100 0 -100 -100l1 -49q0 -50 50 -50q149 -1 149 -151v-350q0 -100 -100 -100h-200q-100 0 -100 100z" />
<glyph unicode="s" horiz-adv-x="900" d="M-1 150l1 100q1 100 100 100t99 -101q1 -50 50 -50l101 1q99 0 99 100q0 99 -98 99l-201 1q-150 0 -150 150v298q0 149 150 149h499q151 0 151 -150v-99q0 -101 -100 -101t-100 101q0 49 -50 49h-250q-100 0 -100 -98q1 -99 100 -99l351 -1q150 0 150 -150l-1 -300 q0 -149 -150 -149h-500q-151 0 -151 150z" />
<glyph unicode="t" horiz-adv-x="700" d="M0 900q0 100 100 100h50q50 0 50 50v250q0 100 100 100t100 -100v-250q1 -50 51 -50h49q100 0 101 -100q0 -99 -101 -100h-50q-50 0 -50 -51v-99q0 -50 50 -50h50q100 0 100 -100v-400q0 -100 -100 -100h-200q-100 0 -100 100v650q0 50 -50 50h-50q-100 0 -100 100z" />
<glyph unicode="u" horiz-adv-x="900" d="M0 149v751q0 99 100 100q100 0 100 -100l1 -249q0 -50 50 -50q149 -1 149 -151v-150q0 -100 101 -101q99 1 99 99v602q0 100 100 100t100 -100v-750q0 -150 -151 -150h-499q-150 0 -150 149z" />
<glyph unicode="v" horiz-adv-x="900" d="M0 150v751q0 99 100 99t100 -100l-1 -250q1 -50 51 -50q150 0 150 -150l1 -200q0 -50 49 -50q25 1 75 50l50 50q25 25 25 75v525q0 100 101 101q99 -1 99 -101v-600q0 -50 -50 -100l-150 -150q-49 -50 -100 -50h-350q-150 0 -150 150z" />
<glyph unicode="w" horiz-adv-x="1300" d="M-1 150l1 750q0 100 100 100t100 -100v-250q0 -50 50 -50q150 0 150 -150v-200q0 -50 50 -50t50 50v650q0 100 100 100t100 -100v-650q0 -50 50 -50h150q99 2 99 102l1 598q0 100 100 100t100 -100v-751q0 -149 -150 -149h-900q-151 0 -151 150z" />
<glyph unicode="x" horiz-adv-x="900" d="M0 100v250q0 100 100 150q-100 50 -100 150v250q0 100 100 100t100 -99v-251q0 -50 50 -50h300q50 0 50 50v250q0 100 100 100t100 -100v-250q0 -100 -100 -150q100 -50 100 -150v-250q0 -100 -100 -100t-100 100v250q-1 49 -50 50h-150q-50 0 -50 -50v-250 q0 -100 -104 -100h-146q-100 0 -100 100z" />
<glyph unicode="y" horiz-adv-x="900" d="M0 149v751q0 100 100 100t100 -100l1 -249q0 -50 50 -50q149 -1 149 -151v-150q0 -100 101 -101q99 1 99 99v601q0 101 100 101t100 -100v-1150q0 -150 -150 -150h-450q-100 0 -100 100t100 100h300q100 0 100 100v50q0 50 -50 50h-400q-150 0 -150 149z" />
<glyph unicode="z" horiz-adv-x="900" d="M0 149v201q1 101 150 150l350 151q100 49 100 99q0 47 -50 50h-300q-50 -3 -50 -52q0 -101 -100 -101t-100 101v99q0 150 151 150h499q150 0 150 -149v-247q0 -76 -150 -150l-201 -102q-98 -50 -98 -99t49 -49h51l100 -2q49 0 50 50q0 101 99 101t100 -100l1 -100 q0 -150 -151 -150h-500q-150 0 -150 149z" />
<glyph unicode="{" horiz-adv-x="800" d="M0 750q0 100 100 100q50 0 50 50v550q0 149 150 150h300q100 0 100 -100t-100 -100h-150q-100 0 -100 -100v-400q0 -50 50 -50q150 0 150 -150v-650q0 -50 50 -50q100 0 100 -100t-100 -100l-301 -2q-149 1 -149 151v651q-1 49 -50 50q-100 0 -100 100z" />
<glyph unicode="|" horiz-adv-x="300" d="M0 -100v1600q0 100 100 100t100 -100v-1600q0 -100 -100 -100t-100 100z" />
<glyph unicode="}" horiz-adv-x="800" d="M0 -100q0 100 100 100q50 0 50 50v650q0 150 150 150q50 0 50 50v400q0 100 -100 100h-150q-100 0 -100 100t100 100h300q150 -1 150 -150v-550q0 -50 50 -50q100 0 100 -100t-100 -100q-49 -1 -50 -50v-651q0 -150 -149 -151l-301 2q-100 0 -100 100z" />
<glyph unicode="~" horiz-adv-x="900" d="M0 1600v100q0 100 100 100h250q50 0 100 -50t100 -50t50 50t50 50h50q99 0 99 -98v-102q0 -100 -94 -100h-255q-50 0 -100 50t-100 50t-50 -50t-50 -50h-50q-100 0 -100 100z" />
<glyph unicode="&#xa1;" horiz-adv-x="500" d="M0 550v350q0 100 100 100h200q100 0 100 -100v-800q0 -100 -100 -100t-100 100v250q0 50 -50 50q-150 0 -150 150zM0 1200v100q0 100 100 100h200q100 0 100 -100v-100q0 -100 -100 -100h-200q-100 0 -100 100z" />
<glyph unicode="&#xa2;" horiz-adv-x="900" d="M0 1050q0 150 151 150h99q50 0 50 50v50q0 100 100 100t100 -100v-50q0 -50 50 -50h101q150 0 150 -149v-101q0 -100 -100 -100q-99 0 -100 100q-1 48 -50 50h-250q-100 0 -100 -100l1 -49q0 -50 50 -50q149 -1 149 -151v-150q0 -100 101 -101l50 1q49 0 49 50 q0 100 100 100t100 -100v-100q0 -150 -151 -150h-100q-50 0 -50 -50v-50q0 -100 -100 -100t-100 100v50q0 50 -50 50h-99q-150 0 -150 149z" />
<glyph unicode="&#xa3;" horiz-adv-x="1000" d="M0 100v400q0 100 100 100h50q50 0 50 50v100q0 50 -50 50h-50q-100 0 -100 100t100 100h50q50 0 50 50v200q0 151 151 151l249 -1q100 0 101 -100q0 -100 -100 -100h-100q-101 -1 -101 -100v-50q1 -50 51 -50h49q100 0 101 -100q0 -99 -101 -100h-50q-50 0 -50 -51v-499 q0 -50 50 -50h350q100 0 100 -100t-100 -100h-700q-100 0 -100 100z" />
<glyph unicode="&#xa4;" d="M0 100v500q0 100 100 150q-100 50 -100 150v400q0 100 100 100t100 -99v-401q0 -50 50 -50v99q0 150 150 150l300 1q149 -1 150 -150v-100q50 0 50 50v400q0 100 100 100t100 -100v-400q0 -100 -100 -150q100 -50 100 -150v-500q0 -100 -100 -100t-100 100v500 q-1 49 -50 50v-100q0 -149 -150 -150l-300 -1q-28 0 -50 5v-304q0 -100 -104 -100h-146q-100 0 -100 100zM451 699q1 -99 99 -99q100 0 100 100v100q0 99 -99 99q-100 0 -100 -100v-100z" />
<glyph unicode="&#xa5;" d="M0 900v400q0 100 100 100t100 -99v-251q0 -100 100 -100h500q100 0 100 100v250q0 100 100 100t100 -100v-400q0 -150 -150 -150h-175q-50 0 -50 -50t51 -50h124q100 0 101 -100q0 -99 -101 -100h-125q-50 0 -50 -50t51 -50h124q100 0 101 -100q0 -99 -101 -100h-125 q-50 0 -50 -50q0 -100 -104 -100h-146q-100 0 -104 100q0 50 -46 50h-124q-101 0 -101 99q0 101 100 101h125q46 0 46 43v7q0 50 -46 50h-124q-101 0 -101 99q0 101 100 101h125q46 0 46 50t-50 50h-171q-150 0 -150 150z" />
<glyph unicode="&#xa6;" horiz-adv-x="300" d="M0 -100v600q0 100 100 100t100 -100v-600q0 -100 -100 -100t-100 100zM0 900v600q0 100 100 100t100 -100v-600q0 -100 -100 -100t-100 100z" />
<glyph unicode="&#xa7;" d="M-1 1450q1 150 150 150h800q150 -1 150 -150v-200q0 -100 -100 -100t-100 100v50q0 100 -100 100h-500q-98 0 -99 -100v-350q0 -71 50 -91v90q0 150 150 150l300 1q149 -1 150 -150v-100h100q150 0 150 -150v-750q0 -150 -149 -151l-801 1q-150 0 -150 150v200 q0 100 101 100q99 0 99 -100l1 -50q0 -100 100 -100l349 -1q49 1 50 51v350l-300 -1q-149 0 -150 150v101h-100q-150 0 -150 150zM451 699q1 -99 99 -99q100 0 100 100v100q0 99 -99 99q-100 0 -100 -100v-100z" />
<glyph unicode="&#xa8;" horiz-adv-x="1000" d="M0 1600v100q0 100 100 100h200q100 0 100 -100v-100q0 -100 -100 -100h-200q-100 0 -100 100zM500 1600v100q0 100 100 100h200q100 0 100 -100v-100q0 -100 -100 -100h-200q-100 0 -100 100z" />
<glyph unicode="&#xa9;" horiz-adv-x="1250" d="M0 550l1 1000q0 150 150 150h851q149 -1 149 -151l-1 -1000q0 -149 -150 -150l-850 1q-149 0 -150 150zM201 700q1 -100 99 -100h550q100 0 100 99l1 700q0 100 -101 101h-548q-100 0 -100 -100zM300 775v550q0 75 75 75h400q75 0 75 -75v-100q0 -50 -50 -50t-50 50v25 q-1 50 -50 50h-250q-50 0 -50 -50v-100q0 -25 26 -25q75 0 75 -74l-1 -226q1 -25 25 -25h175q50 0 50 50v25q0 50 50 50t50 -50v-100q0 -75 -75 -75h-400q-75 0 -75 75z" />
<glyph unicode="&#xaa;" horiz-adv-x="1650" d="M0 200v1100q0 200 200 200h1100q200 0 200 -200v-1100q0 -200 -200 -200h-1100q-200 0 -200 200zM25 200q1 -175 175 -175h1101q174 0 174 176v1099q0 175 -175 175h-1100q-174 0 -175 -175v-1100z" />
<glyph unicode="&#xab;" horiz-adv-x="2100" d="M0 550v300q0 100 150 150l500 200q250 100 300 100h50q100 0 100 -100t-150 -150l-487 -187q-88 -38 -113 -113v-100q25 -75 113 -113l487 -187q150 -50 150 -150t-100 -100h-50q-50 0 -300 100l-500 200q-150 50 -150 150zM900 550v300q0 100 150 150l500 200 q250 100 300 100h50q100 0 100 -100t-150 -150l-487 -187q-88 -38 -113 -113v-100q25 -75 113 -113l487 -187q150 -50 150 -150t-100 -100h-50q-50 0 -300 100l-500 200q-150 50 -150 150z" />
<glyph unicode="&#xac;" horiz-adv-x="1650" d="M0 200v1100q0 200 200 200h1100q200 0 200 -200v-1100q0 -200 -200 -200h-1100q-200 0 -200 200zM25 200q1 -175 175 -175h1101q174 0 174 176v1099q0 175 -175 175h-1100q-174 0 -175 -175v-1100z" />
<glyph unicode="&#xad;" horiz-adv-x="1000" d="M0 749q0 101 100 101h700q100 0 101 -100q0 -99 -101 -100h-699q-101 0 -101 99z" />
<glyph unicode="&#xae;" horiz-adv-x="1250" d="M0 550l1 1000q0 150 150 150h851q149 -1 149 -151l-1 -1000q0 -149 -150 -150l-850 1q-149 0 -150 150zM201 700q1 -100 99 -100h550q100 0 100 99l1 700q0 100 -101 101h-548q-100 0 -100 -100zM300 750v600q0 50 50 50h325q75 0 75 -75v-175q0 -25 25 -25q75 0 75 -75 v-300q0 -50 -50 -50t-50 50v225q0 50 -50 50h-200q-25 0 -25 -25v-250q0 -50 -52 -50h-73q-50 0 -50 50zM400 1150q0 -25 25 -25h200q25 0 25 25v75q0 75 -75 75h-150q-25 0 -25 -25v-125z" />
<glyph unicode="&#xaf;" horiz-adv-x="1650" d="M0 200v1100q0 200 200 200h1100q200 0 200 -200v-1100q0 -200 -200 -200h-1100q-200 0 -200 200zM25 200q1 -175 175 -175h1101q174 0 174 176v1099q0 175 -175 175h-1100q-174 0 -175 -175v-1100z" />
<glyph unicode="&#xb0;" horiz-adv-x="600" d="M0 1750q0 104 73 177t177 73t177 -73t73 -177t-73 -177t-177 -73t-177 73t-73 177zM200 1750q0 -21 14.5 -35.5t35.5 -14.5t35.5 14.5t14.5 35.5t-14.5 35.5t-35.5 14.5t-35.5 -14.5t-14.5 -35.5z" />
<glyph unicode="&#xb1;" horiz-adv-x="1000" d="M0 149q0 101 100 101h700q100 0 101 -100q0 -99 -101 -100h-699q-101 0 -101 99zM0 849q0 101 100 101h100q50 0 50 50v250q0 100 100 100h200q100 0 100 -100v-250q0 -50 50 -50h100q100 0 101 -100q0 -99 -101 -100h-100q-50 0 -50 -50v-250q0 -100 -100 -100h-200 q-100 0 -100 100v250q0 50 -49 50h-100q-101 0 -101 99z" />
<glyph unicode="&#xb2;" horiz-adv-x="1650" d="M0 200v1100q0 200 200 200h1100q200 0 200 -200v-1100q0 -200 -200 -200h-1100q-200 0 -200 200zM25 200q1 -175 175 -175h1101q174 0 174 176v1099q0 175 -175 175h-1100q-174 0 -175 -175v-1100z" />
<glyph unicode="&#xb3;" horiz-adv-x="1650" d="M0 200v1100q0 200 200 200h1100q200 0 200 -200v-1100q0 -200 -200 -200h-1100q-200 0 -200 200zM25 200q1 -175 175 -175h1101q174 0 174 176v1099q0 175 -175 175h-1100q-174 0 -175 -175v-1100z" />
<glyph unicode="&#xb4;" horiz-adv-x="500" d="M0 1600v200q0 25 25 51l25 24q25 25 50 25h200q100 0 100 -100q0 -50 -25 -75l-200 -200q-25 -25 -75 -25q-100 0 -100 100z" />
<glyph unicode="&#xb5;" horiz-adv-x="900" d="M0 -300v1200q0 99 100 100q100 0 100 -100l1 -249q0 -50 50 -50q149 -1 149 -151v-150q0 -100 101 -101q99 1 99 99v602q0 100 100 100t100 -100v-750q0 -150 -151 -150h-399q-50 0 -50 -50v-250q0 -100 -100 -100t-100 100z" />
<glyph unicode="&#xb6;" horiz-adv-x="1100" d="M0 800v450q0 150 150 150h700q151 0 151 -151l-1 -1150q0 -99 -101 -99l-199 2q-99 0 -100 99v998q0 51 -50 51t-50 -50v-1000q0 -100 -100 -100t-100 100v500q0 50 -50 50h-100q-150 2 -150 150z" />
<glyph unicode="&#xb7;" horiz-adv-x="500" d="M0 700v100q0 100 100 100h200q100 0 100 -100v-100q0 -100 -100 -100h-200q-100 0 -100 100z" />
<glyph unicode="&#xb8;" horiz-adv-x="600" d="M0 -300q0 100 100 100h100q100 0 100 100t-100 100t-100 100t100 100h150q150 0 150 -150v-300q0 -150 -150 -150h-250q-100 0 -100 100z" />
<glyph unicode="&#xb9;" horiz-adv-x="1650" d="M0 200v1100q0 200 200 200h1100q200 0 200 -200v-1100q0 -200 -200 -200h-1100q-200 0 -200 200zM25 200q1 -175 175 -175h1101q174 0 174 176v1099q0 175 -175 175h-1100q-174 0 -175 -175v-1100z" />
<glyph unicode="&#xba;" horiz-adv-x="1650" d="M0 200v1100q0 200 200 200h1100q200 0 200 -200v-1100q0 -200 -200 -200h-1100q-200 0 -200 200zM25 200q1 -175 175 -175h1101q174 0 174 176v1099q0 175 -175 175h-1100q-174 0 -175 -175v-1100z" />
<glyph unicode="&#xbb;" horiz-adv-x="2100" d="M0 200q0 100 150 150l487 187q88 38 113 113v100q-25 75 -113 113l-487 187q-150 50 -150 150t100 100h50q50 0 300 -100l500 -200q150 -50 150 -150v-300q0 -100 -150 -150l-500 -200q-250 -100 -300 -100h-50q-100 0 -100 100zM900 200q0 100 150 150l487 187 q88 38 113 113v100q-25 75 -113 113l-487 187q-150 50 -150 150t100 100h50q50 0 300 -100l500 -200q150 -50 150 -150v-300q0 -100 -150 -150l-500 -200q-250 -100 -300 -100h-50q-100 0 -100 100z" />
<glyph unicode="&#xbc;" horiz-adv-x="1650" d="M0 200v1100q0 200 200 200h1100q200 0 200 -200v-1100q0 -200 -200 -200h-1100q-200 0 -200 200zM25 200q1 -175 175 -175h1101q174 0 174 176v1099q0 175 -175 175h-1100q-174 0 -175 -175v-1100z" />
<glyph unicode="&#xbd;" horiz-adv-x="1650" d="M0 200v1100q0 200 200 200h1100q200 0 200 -200v-1100q0 -200 -200 -200h-1100q-200 0 -200 200zM25 200q1 -175 175 -175h1101q174 0 174 176v1099q0 175 -175 175h-1100q-174 0 -175 -175v-1100z" />
<glyph unicode="&#xbe;" horiz-adv-x="1650" d="M0 200v1100q0 200 200 200h1100q200 0 200 -200v-1100q0 -200 -200 -200h-1100q-200 0 -200 200zM25 200q1 -175 175 -175h1101q174 0 174 176v1099q0 175 -175 175h-1100q-174 0 -175 -175v-1100z" />
<glyph unicode="&#xbf;" horiz-adv-x="1100" d="M0 151v450q0 148 150 150l350 2q100 0 100 100v51q1 99 100 99h199q101 0 101 -99v-201q0 -150 -150 -150l-550 -2q-100 0 -100 -100v-150q0 -100 100 -100h399q101 1 101 100v52q0 100 100 100t100 -100v-202q0 -151 -151 -151l-699 1q-150 0 -150 150zM600 1203v100 q0 100 100 100h200q100 0 100 -100v-100q0 -100 -100 -100h-200q-100 0 -100 100z" />
<glyph unicode="&#xc0;" d="M0 100v600q0 150 150 150v400q0 150 150 150h500q150 0 150 -150v-400q150 0 150 -150v-600q0 -100 -100 -100t-100 100v450q-1 99 -100 100h-300q-81 -6 -100 -100v-450q0 -100 -104 -100h-196q-100 0 -100 100zM350 901q0 -50 50 -50l300 -1q50 0 50 50v200 q0 100 -100 100h-200q-100 0 -100 -100v-199zM350 1800q0 100 100 100h200q25 0 51 -25l24 -24q25 -26 25 -51v-200q0 -100 -100 -100q-50 0 -75 25l-200 200q-25 25 -25 75z" />
<glyph unicode="&#xc1;" d="M0 100v600q0 150 150 150v400q0 150 150 150h500q150 0 150 -150v-400q150 0 150 -150v-600q0 -100 -100 -100t-100 100v450q-1 99 -100 100h-300q-81 -6 -100 -100v-450q0 -100 -104 -100h-196q-100 0 -100 100zM350 901q0 -50 50 -50l300 -1q50 0 50 50v200 q0 100 -100 100h-200q-100 0 -100 -100v-199zM350 1600v200q0 25 25 51l25 24q25 25 50 25h200q100 0 100 -100q0 -50 -25 -75l-200 -200q-25 -25 -75 -25q-100 0 -100 100z" />
<glyph unicode="&#xc2;" d="M0 100v600q0 150 150 150v400q0 150 150 150h500q150 0 150 -150v-400q150 0 150 -150v-600q0 -100 -100 -100t-100 100v450q-1 99 -100 100h-300q-81 -6 -100 -100v-450q0 -100 -104 -100h-196q-100 0 -100 100zM200 1550v50q1 35 25 50l150 125q50 25 75 25h200 q25 0 75 -25l150 -125q25 -15 25 -50v-50q0 -50 -50 -50h-125q-25 0 -50 25q-75 75 -100 75h-50q-25 0 -100 -75q-25 -25 -50 -25h-125q-50 0 -50 50zM350 901q0 -50 50 -50l300 -1q50 0 50 50v200q0 100 -100 100h-200q-100 0 -100 -100v-199z" />
<glyph unicode="&#xc3;" d="M0 100v600q0 150 150 150v400q0 150 150 150h500q150 0 150 -150v-400q150 0 150 -150v-600q0 -100 -100 -100t-100 100v450q-1 99 -100 100h-300q-81 -6 -100 -100v-450q0 -100 -104 -100h-196q-100 0 -100 100zM150 1600v100q0 100 100 100h250q50 0 100 -50t100 -50 t50 50t50 50h50q100 0 100 -100v-100q0 -100 -95 -100h-255q-50 0 -100 50t-100 50t-50 -50t-50 -50h-50q-100 0 -100 100zM350 901q0 -50 50 -50l300 -1q50 0 50 50v200q0 100 -100 100h-200q-100 0 -100 -100v-199z" />
<glyph unicode="&#xc4;" d="M0 100v600q0 150 150 150v400q0 150 150 150h500q150 0 150 -150v-400q150 0 150 -150v-600q0 -100 -100 -100t-100 100v450q-1 99 -100 100h-300q-81 -6 -100 -100v-450q0 -100 -104 -100h-196q-100 0 -100 100zM100 1600v100q0 100 100 100h200q100 0 100 -100v-100 q0 -100 -100 -100h-200q-100 0 -100 100zM350 901q0 -50 50 -50l300 -1q50 0 50 50v200q0 100 -100 100h-200q-100 0 -100 -100v-199zM600 1600v100q0 100 100 100h200q100 0 100 -100v-100q0 -100 -100 -100h-200q-100 0 -100 100z" />
<glyph unicode="&#xc5;" d="M0 100v600q0 150 150 150v400q0 150 150 150h500q150 0 150 -150v-400q150 0 150 -150v-600q0 -100 -100 -100t-100 100v450q-1 99 -100 100h-300q-81 -6 -100 -100v-450q0 -100 -104 -100h-196q-100 0 -100 100zM300 1750q0 104 73 177t177 73t177 -73t73 -177t-73 -177 t-177 -73t-177 73t-73 177zM350 901q0 -50 50 -50l300 -1q50 0 50 50v200q0 100 -100 100h-200q-100 0 -100 -100v-199zM500 1750q0 -21 14.5 -35.5t35.5 -14.5t35.5 14.5t14.5 35.5t-14.5 35.5t-35.5 14.5t-35.5 -14.5t-14.5 -35.5z" />
<glyph unicode="&#xc6;" horiz-adv-x="1750" d="M0 100v600q0 150 150 150v400q0 150 150 150l1249 -1q100 0 101 -100q0 -100 -100 -100h-500q-91 -1 -100 -81v-231q6 -38 50 -38h549q100 0 101 -100q0 -99 -101 -99l-350 -1q-48 0 -49 -51v-349q0 -49 49 -50h350q100 0 101 -100q0 -100 -101 -100h-699q-101 0 -101 99 v552h-249q-81 -6 -100 -100v-450q0 -100 -104 -100h-196q-100 0 -100 100zM350 901q0 -50 50 -50l300 -1q50 0 50 50v200q0 100 -100 100h-200q-100 0 -100 -100v-199z" />
<glyph unicode="&#xc7;" d="M0 150v1100q0 149 150 150h800q149 0 150 -150v-200q0 -100 -100 -100t-100 101l-1 49q-1 100 -99 100h-500q-100 0 -100 -100v-200q0 -50 51 -50q150 -1 150 -149l-1 -451q1 -50 50 -51h135q7 1 15 1h199q100 0 100 100l1 50q0 100 100 100t100 -100v-200 q0 -150 -150 -150q-50 0 -50 -50v-200q0 -150 -150 -150h-250q-100 0 -100 100t100 100h100q100 0 100 100q0 94 -87 100l-464 -1q-149 1 -149 151z" />
<glyph unicode="&#xc8;" horiz-adv-x="1000" d="M0 99v1151q0 151 151 151l649 -1q100 0 101 -100q0 -100 -100 -100h-500q-101 -1 -101 -100v-200q1 -50 51 -50h549q100 0 101 -100q0 -99 -101 -99l-350 -1q-48 0 -49 -51v-349q0 -49 49 -50h350q100 0 101 -100q0 -100 -101 -100h-699q-101 0 -101 99zM250 1800 q0 100 100 100h200q25 0 51 -25l24 -24q25 -26 25 -51v-200q0 -100 -100 -100q-50 0 -75 25l-200 200q-25 25 -25 75z" />
<glyph unicode="&#xc9;" horiz-adv-x="1000" d="M0 99v1151q0 151 151 151l649 -1q100 0 101 -100q0 -100 -100 -100h-500q-101 -1 -101 -100v-200q1 -50 51 -50h549q100 0 101 -100q0 -99 -101 -99l-350 -1q-48 0 -49 -51v-349q0 -49 49 -50h350q100 0 101 -100q0 -100 -101 -100h-699q-101 0 -101 99zM250 1600v200 q0 25 25 51l25 24q25 25 50 25h200q100 0 100 -100q0 -50 -25 -75l-200 -200q-25 -25 -75 -25q-100 0 -100 100z" />
<glyph unicode="&#xca;" horiz-adv-x="1000" d="M0 99v1151q0 151 151 151l649 -1q100 0 101 -100q0 -100 -100 -100h-500q-101 -1 -101 -100v-200q1 -50 51 -50h549q100 0 101 -100q0 -99 -101 -99l-350 -1q-48 0 -49 -51v-349q0 -49 49 -50h350q100 0 101 -100q0 -100 -101 -100h-699q-101 0 -101 99zM100 1550v50 q1 35 25 50l150 125q50 25 75 25h200q25 0 75 -25l150 -125q25 -15 25 -50v-50q0 -50 -50 -50h-125q-25 0 -50 25q-75 75 -100 75h-50q-25 0 -100 -75q-25 -25 -50 -25h-125q-50 0 -50 50z" />
<glyph unicode="&#xcb;" horiz-adv-x="1000" d="M0 99v1151q0 151 151 151l649 -1q100 0 101 -100q0 -100 -100 -100h-500q-101 -1 -101 -100v-200q1 -50 51 -50h549q100 0 101 -100q0 -99 -101 -99l-350 -1q-48 0 -49 -51v-349q0 -49 49 -50h350q100 0 101 -100q0 -100 -101 -100h-699q-101 0 -101 99zM0 1600v100 q0 100 100 100h200q100 0 100 -100v-100q0 -100 -100 -100h-200q-100 0 -100 100zM500 1600v100q0 100 100 100h200q100 0 100 -100v-100q0 -100 -100 -100h-200q-100 0 -100 100z" />
<glyph unicode="&#xcc;" horiz-adv-x="500" d="M0 100v1200q0 100 100 100t100 -100v-400q0 -50 50 -50q150 0 150 -150v-600q0 -100 -100 -100h-200q-100 0 -100 100zM0 1800q0 100 100 100h200q25 0 51 -25l24 -24q25 -26 25 -51v-200q0 -100 -100 -100q-50 0 -75 25l-200 200q-25 25 -25 75z" />
<glyph unicode="&#xcd;" horiz-adv-x="500" d="M0 100v1200q0 100 100 100t100 -100v-400q0 -50 50 -50q150 0 150 -150v-600q0 -100 -100 -100h-200q-100 0 -100 100zM0 1600v200q0 25 25 51l25 24q25 25 50 25h200q100 0 100 -100q0 -50 -25 -75l-200 -200q-25 -25 -75 -25q-100 0 -100 100z" />
<glyph unicode="&#xce;" horiz-adv-x="500" d="M-150 1550v50q1 35 25 50l150 125q50 25 75 25h200q25 0 75 -25l150 -125q25 -15 25 -50v-50q0 -50 -50 -50h-125q-25 0 -50 25q-75 75 -100 75h-50q-25 0 -100 -75q-25 -25 -50 -25h-125q-50 0 -50 50zM0 100v1200q0 100 100 100t100 -100v-400q0 -50 50 -50 q150 0 150 -150v-600q0 -100 -100 -100h-200q-100 0 -100 100z" />
<glyph unicode="&#xcf;" horiz-adv-x="500" d="M-250 1600v100q0 100 100 100h200q100 0 100 -100v-100q0 -100 -100 -100h-200q-100 0 -100 100zM0 100v1200q0 100 100 100t100 -100v-400q0 -50 50 -50q150 0 150 -150v-600q0 -100 -100 -100h-200q-100 0 -100 100zM250 1600v100q0 100 100 100h200q100 0 100 -100 v-100q0 -100 -100 -100h-200q-100 0 -100 100z" />
<glyph unicode="&#xd0;" horiz-adv-x="1400" d="M0 750q0 100 100 100h50q50 0 50 50v400q0 100 100 100h850q150 0 150 -150v-1100q0 -150 -150 -150h-849q-101 0 -101 99v501q0 50 -50 50h-50q-100 0 -100 100zM400 900q1 -50 51 -50h199q100 0 100 -100t-100 -100q-50 0 -50 -50v-350q0 -50 50 -50h350q100 0 100 100 v800q0 100 -100 100h-550q-50 -1 -50 -50v-250z" />
<glyph unicode="&#xd1;" d="M0 99v1151q0 151 151 151l799 -1q150 0 150 -150v-1150q0 -100 -100 -100t-100 100v1000q0 100 -100 100h-499q-101 -1 -101 -100v-200q1 -50 51 -50q149 0 149 -150v-600q0 -100 -101 -100h-198q-101 0 -101 99zM150 1600v100q0 100 100 100h250q50 0 100 -50t100 -50 t50 50t50 50h50q100 0 100 -100v-100q0 -100 -95 -100h-255q-50 0 -100 50t-100 50t-50 -50t-50 -50h-50q-100 0 -100 100z" />
<glyph unicode="&#xd2;" d="M0 149v1100q0 150 150 150l801 1q149 -1 149 -151v-1100q0 -149 -150 -150h-800q-149 0 -150 150zM201 299q1 -100 99 -100h500q100 0 100 100v501q0 50 -50 50q-150 1 -150 149v150q-1 50 -50 51l-349 -1q-100 0 -100 -100v-800zM350 1800q0 100 100 100h200 q25 0 51 -25l24 -24q25 -26 25 -51v-200q0 -100 -100 -100q-50 0 -75 25l-200 200q-25 25 -25 75z" />
<glyph unicode="&#xd3;" d="M0 149v1100q0 150 150 150l801 1q149 -1 149 -151v-1100q0 -149 -150 -150h-800q-149 0 -150 150zM201 299q1 -100 99 -100h500q100 0 100 100v501q0 50 -50 50q-150 1 -150 149v150q-1 50 -50 51l-349 -1q-100 0 -100 -100v-800zM350 1600v200q0 25 25 51l25 24 q25 25 50 25h200q100 0 100 -100q0 -50 -25 -75l-200 -200q-25 -25 -75 -25q-100 0 -100 100z" />
<glyph unicode="&#xd4;" d="M0 149v1100q0 150 150 150l801 1q149 -1 149 -151v-1100q0 -149 -150 -150h-800q-149 0 -150 150zM200 1550v50q1 35 25 50l150 125q50 25 75 25h200q25 0 75 -25l150 -125q25 -15 25 -50v-50q0 -50 -50 -50h-125q-25 0 -50 25q-75 75 -100 75h-50q-25 0 -100 -75 q-25 -25 -50 -25h-125q-50 0 -50 50zM201 299q1 -100 99 -100h500q100 0 100 100v501q0 50 -50 50q-150 1 -150 149v150q-1 50 -50 51l-349 -1q-100 0 -100 -100v-800z" />
<glyph unicode="&#xd5;" d="M0 149v1100q0 150 150 150l801 1q149 -1 149 -151v-1100q0 -149 -150 -150h-800q-149 0 -150 150zM150 1600v100q0 100 100 100h250q50 0 100 -50t100 -50t50 50t50 50h50q100 0 100 -100v-100q0 -100 -95 -100h-255q-50 0 -100 50t-100 50t-50 -50t-50 -50h-50 q-100 0 -100 100zM201 299q1 -100 99 -100h500q100 0 100 100v501q0 50 -50 50q-150 1 -150 149v150q-1 50 -50 51l-349 -1q-100 0 -100 -100v-800z" />
<glyph unicode="&#xd6;" d="M0 149v1100q0 150 150 150l801 1q149 -1 149 -151v-1100q0 -149 -150 -150h-800q-149 0 -150 150zM100 1600v100q0 100 100 100h200q100 0 100 -100v-100q0 -100 -100 -100h-200q-100 0 -100 100zM201 299q1 -100 99 -100h500q100 0 100 100v501q0 50 -50 50 q-150 1 -150 149v150q-1 50 -50 51l-349 -1q-100 0 -100 -100v-800zM600 1600v100q0 100 100 100h200q100 0 100 -100v-100q0 -100 -100 -100h-200q-100 0 -100 100z" />
<glyph unicode="&#xd7;" horiz-adv-x="900" d="M0 300v250q0 100 100 150q-100 50 -100 150v250q0 100 100 100t100 -99v-251q0 -50 50 -50h300q50 0 50 50v250q0 100 100 100t100 -100v-250q0 -100 -100 -150q100 -50 100 -150v-250q0 -100 -100 -100t-100 100v250q-1 49 -50 50h-150q-50 0 -50 -50v-250 q0 -100 -104 -100h-146q-100 0 -100 100z" />
<glyph unicode="&#xd8;" d="M0 149v1100q0 150 150 150l801 1q149 -1 149 -150v-1101q0 -149 -150 -150h-800q-149 0 -150 150zM201 410l499 646v93q-1 50 -50 51l-349 -1q-100 0 -100 -100v-689zM288 199h512q100 0 100 100v501q0 50 -50 50q-30 0 -54 6z" />
<glyph unicode="&#xd9;" d="M0 150v1151q0 99 100 99t100 -100v-400q1 -50 51 -50q150 0 150 -150v-450q0 -50 49 -50h351q98 0 98 100l1 1000q0 100 101 101q99 -1 99 -101v-1150q0 -150 -149 -150h-801q-150 0 -150 150zM350 1800q0 100 100 100h200q25 0 51 -25l24 -24q25 -26 25 -51v-200 q0 -100 -100 -100q-50 0 -75 25l-200 200q-25 25 -25 75z" />
<glyph unicode="&#xda;" d="M0 150v1151q0 99 100 99t100 -100v-400q1 -50 51 -50q150 0 150 -150v-450q0 -50 49 -50h351q98 0 98 100l1 1000q0 100 101 101q99 -1 99 -101v-1150q0 -150 -149 -150h-801q-150 0 -150 150zM350 1600v200q0 25 25 51l25 24q25 25 50 25h200q100 0 100 -100 q0 -50 -25 -75l-200 -200q-25 -25 -75 -25q-100 0 -100 100z" />
<glyph unicode="&#xdb;" d="M0 150v1151q0 99 100 99t100 -100v-400q1 -50 51 -50q150 0 150 -150v-450q0 -50 49 -50h351q98 0 98 100l1 1000q0 100 101 101q99 -1 99 -101v-1150q0 -150 -149 -150h-801q-150 0 -150 150zM200 1550v50q1 35 25 50l150 125q50 25 75 25h200q25 0 75 -25l150 -125 q25 -15 25 -50v-50q0 -50 -50 -50h-125q-25 0 -50 25q-75 75 -100 75h-50q-25 0 -100 -75q-25 -25 -50 -25h-125q-50 0 -50 50z" />
<glyph unicode="&#xdc;" d="M0 150v1151q0 99 100 99t100 -100v-400q1 -50 51 -50q150 0 150 -150v-450q0 -50 49 -50h351q98 0 98 100l1 1000q0 100 101 101q99 -1 99 -101v-1150q0 -150 -149 -150h-801q-150 0 -150 150zM100 1600v100q0 100 100 100h200q100 0 100 -100v-100q0 -100 -100 -100 h-200q-100 0 -100 100zM600 1600v100q0 100 100 100h200q100 0 100 -100v-100q0 -100 -100 -100h-200q-100 0 -100 100z" />
<glyph unicode="&#xdd;" d="M0 800v500q0 100 100 100t100 -99v-351q0 -100 100 -100h500q100 0 100 100v350q0 100 100 100t100 -100v-500q0 -150 -150 -150h-175q-50 0 -50 -50v-500q0 -100 -104 -100h-146q-100 0 -104 100v500q0 50 -50 50h-171q-150 0 -150 150zM350 1600v200q0 25 25 51l25 24 q25 25 50 25h200q100 0 100 -100q0 -50 -25 -75l-200 -200q-25 -25 -75 -25q-100 0 -100 100z" />
<glyph unicode="&#xde;" horiz-adv-x="1100" d="M0 99v1201q0 100 100 100t100 -100v-150q0 -50 50 -50l599 -1q150 0 150 -150v-450q0 -148 -150 -150h-400q-50 0 -50 -51l1 -197q-1 -99 -100 -99l-199 -2q-101 0 -101 99zM199 599q1 -50 51 -50h449q100 0 100 100v150q0 100 -100 100h-399q-101 -1 -101 -100v-200z " />
<glyph unicode="&#xdf;" d="M0 100v1150q0 150 150 150h600q150 0 150 -150v-350q0 -50 50 -50q150 0 150 -150v-550q0 -150 -150 -150h-400q-100 0 -100 100t100 100h250q100 0 100 100v250q-1 99 -100 100h-250q-100 0 -100 100t100 100h100q50 0 50 50v200q0 100 -100 100h-300q-100 0 -100 -100 v-200q0 -50 50 -50q100 0 100 -100v-650q0 -100 -100 -100h-150q-100 0 -100 100z" />
<glyph unicode="&#xe0;" horiz-adv-x="900" d="M-1 449q0 149 150 149l401 1q49 0 50 50v50q0 98 -100 98h-250q-50 0 -50 -49q0 -101 -100 -101t-100 101v99q0 150 150 150h499q151 0 151 -149l1 -698q0 -150 -152 -150h-499q-150 0 -150 149zM200 1400q0 100 100 100h200q25 0 51 -25l24 -24q25 -26 25 -51v-200 q0 -100 -100 -100q-50 0 -75 25l-200 200q-25 25 -25 75zM351 300q0 -100 99 -100l101 -1q49 0 49 50v102q-1 48 -51 48h-100q-98 0 -98 -99z" />
<glyph unicode="&#xe1;" horiz-adv-x="900" d="M-1 449q0 149 150 149l401 1q49 0 50 50v50q0 98 -100 98h-250q-50 0 -50 -49q0 -101 -100 -101t-100 101v99q0 150 150 150h499q151 0 151 -149l1 -698q0 -150 -152 -150h-499q-150 0 -150 149zM200 1200v200q0 25 25 51l25 24q25 25 50 25h200q100 0 100 -100 q0 -50 -25 -75l-200 -200q-25 -25 -75 -25q-100 0 -100 100zM351 300q0 -100 99 -100l101 -1q49 0 49 50v102q-1 48 -51 48h-100q-98 0 -98 -99z" />
<glyph unicode="&#xe2;" horiz-adv-x="900" d="M-1 449q0 149 150 149l401 1q49 0 50 50v50q0 98 -100 98h-250q-50 0 -50 -49q0 -101 -100 -101t-100 101v99q0 150 150 150h499q151 0 151 -149l1 -698q0 -150 -152 -150h-499q-150 0 -150 149zM50 1150v50q1 35 25 50l150 125q50 25 75 25h200q25 0 75 -25l150 -125 q25 -15 25 -50v-50q0 -50 -50 -50h-125q-25 0 -50 25q-75 75 -100 75h-50q-25 0 -100 -75q-25 -25 -50 -25h-125q-50 0 -50 50zM351 300q0 -100 99 -100l101 -1q49 0 49 50v102q-1 48 -51 48h-100q-98 0 -98 -99z" />
<glyph unicode="&#xe3;" horiz-adv-x="900" d="M-1 449q0 149 150 149l401 1q49 0 50 50v50q0 98 -100 98h-250q-50 0 -50 -49q0 -101 -100 -101t-100 101v99q0 150 150 150h499q151 0 151 -149l1 -698q0 -150 -152 -150h-499q-150 0 -150 149zM0 1200v100q0 100 100 100h250q50 0 100 -50t100 -50t50 50t50 50h50 q100 0 100 -100v-100q0 -100 -95 -100h-255q-50 0 -100 50t-100 50t-50 -50t-50 -50h-50q-100 0 -100 100zM351 300q0 -100 99 -100l101 -1q49 0 49 50v102q-1 48 -51 48h-100q-98 0 -98 -99z" />
<glyph unicode="&#xe4;" horiz-adv-x="900" d="M-50 1200v100q0 100 100 100h200q100 0 100 -100v-100q0 -100 -100 -100h-200q-100 0 -100 100zM-1 449q0 149 150 149l401 1q49 0 50 50v50q0 98 -100 98h-250q-50 0 -50 -49q0 -101 -100 -101t-100 101v99q0 150 150 150h499q151 0 151 -149l1 -698q0 -150 -152 -150 h-499q-150 0 -150 149zM351 300q0 -100 99 -100l101 -1q49 0 49 50v102q-1 48 -51 48h-100q-98 0 -98 -99zM450 1200v100q0 100 100 100h200q100 0 100 -100v-100q0 -100 -100 -100h-200q-100 0 -100 100z" />
<glyph unicode="&#xe5;" horiz-adv-x="900" d="M-1 449q0 149 150 149l401 1q49 0 50 50v50q0 98 -100 98h-250q-50 0 -50 -49q0 -101 -100 -101t-100 101v99q0 150 150 150h499q151 0 151 -149l1 -698q0 -150 -152 -150h-499q-150 0 -150 149zM150 1350q0 104 73 177t177 73t177 -73t73 -177t-73 -177t-177 -73 t-177 73t-73 177zM350 1350q0 -21 14.5 -35.5t35.5 -14.5t35.5 14.5t14.5 35.5t-14.5 35.5t-35.5 14.5t-35.5 -14.5t-14.5 -35.5zM351 300q0 -100 99 -100l101 -1q49 0 49 50v102q-1 48 -51 48h-100q-98 0 -98 -99z" />
<glyph unicode="&#xe6;" horiz-adv-x="1500" d="M-1 449q0 149 150 149l401 1q49 0 50 50v50q0 98 -100 98h-250q-50 0 -50 -49q0 -101 -100 -101t-100 101v99q0 150 150 150l1101 3q150 0 150 -149v-303q0 -149 -150 -149l-200 -1q-49 0 -49 -50l-1 -97q0 -50 49 -51l99 1q50 0 50 49q0 100 101 100q100 0 100 -100 v-100q0 -150 -151 -150h-1099q-150 0 -150 149zM351 300q0 -100 99 -100l101 -1q49 0 49 50v102q-1 48 -51 48h-100q-98 0 -98 -99zM800 751l1 -102q0 -50 50 -50l250 -2q99 1 99 101t-99 102h-250q-51 0 -51 -49z" />
<glyph unicode="&#xe7;" horiz-adv-x="900" d="M-1 850q0 150 151 150h500q150 0 150 -149v-101q0 -100 -100 -100q-99 0 -100 100q-1 48 -50 50h-250q-100 0 -100 -100l1 -49q0 -50 50 -50q149 -1 149 -151v-150q0 -100 101 -101l50 1q49 0 49 50q0 100 100 100t100 -100v-100q0 -150 -151 -150q-49 0 -49 -50v-200 q0 -150 -150 -150h-250q-100 0 -100 100t100 100h100q100 0 100 100t-100 100h-150q-150 0 -150 149z" />
<glyph unicode="&#xe8;" horiz-adv-x="900" d="M0 149v701q0 150 151 150h500q150 0 150 -149v-303q0 -149 -150 -149l-200 -1q-49 0 -49 -50l-1 -97q0 -50 49 -51l99 1q50 0 50 49q0 100 101 100q100 0 100 -100v-100q0 -150 -151 -150h-499q-150 0 -150 149zM200 751l1 -102q0 -50 50 -50l250 -2q99 1 99 101t-99 102 h-250q-51 0 -51 -49zM200 1400q0 100 100 100h200q25 0 51 -25l24 -24q25 -26 25 -51v-200q0 -100 -100 -100q-50 0 -75 25l-200 200q-25 25 -25 75z" />
<glyph unicode="&#xe9;" horiz-adv-x="900" d="M0 149v701q0 150 151 150h500q150 0 150 -149v-303q0 -149 -150 -149l-200 -1q-49 0 -49 -50l-1 -97q0 -50 49 -51l99 1q50 0 50 49q0 100 101 100q100 0 100 -100v-100q0 -150 -151 -150h-499q-150 0 -150 149zM200 751l1 -102q0 -50 50 -50l250 -2q99 1 99 101t-99 102 h-250q-51 0 -51 -49zM200 1200v200q0 25 25 51l25 24q25 25 50 25h200q100 0 100 -100q0 -50 -25 -75l-200 -200q-25 -25 -75 -25q-100 0 -100 100z" />
<glyph unicode="&#xea;" horiz-adv-x="900" d="M0 149v701q0 150 151 150h500q150 0 150 -149v-303q0 -149 -150 -149l-200 -1q-49 0 -49 -50l-1 -97q0 -50 49 -51l99 1q50 0 50 49q0 100 101 100q100 0 100 -100v-100q0 -150 -151 -150h-499q-150 0 -150 149zM50 1150v50q1 35 25 50l150 125q50 25 75 25h200 q25 0 75 -25l150 -125q25 -15 25 -50v-50q0 -50 -50 -50h-125q-25 0 -50 25q-75 75 -100 75h-50q-25 0 -100 -75q-25 -25 -50 -25h-125q-50 0 -50 50zM200 751l1 -102q0 -50 50 -50l250 -2q99 1 99 101t-99 102h-250q-51 0 -51 -49z" />
<glyph unicode="&#xeb;" horiz-adv-x="900" d="M-50 1200v100q0 100 100 100h200q100 0 100 -100v-100q0 -100 -100 -100h-200q-100 0 -100 100zM0 149v701q0 150 151 150h500q150 0 150 -149v-303q0 -149 -150 -149l-200 -1q-49 0 -49 -50l-1 -97q0 -50 49 -51l99 1q50 0 50 49q0 100 101 100q100 0 100 -100v-100 q0 -150 -151 -150h-499q-150 0 -150 149zM200 751l1 -102q0 -50 50 -50l250 -2q99 1 99 101t-99 102h-250q-51 0 -51 -49zM450 1200v100q0 100 100 100h200q100 0 100 -100v-100q0 -100 -100 -100h-200q-100 0 -100 100z" />
<glyph unicode="&#xec;" horiz-adv-x="500" d="M0 100v800q0 100 100 100t100 -100v-250q0 -50 50 -50q150 0 150 -150v-350q0 -100 -100 -100h-200q-100 0 -100 100zM0 1400q0 100 100 100h200q25 0 51 -25l24 -24q25 -26 25 -51v-200q0 -100 -100 -100q-50 0 -75 25l-200 200q-25 25 -25 75z" />
<glyph unicode="&#xed;" horiz-adv-x="500" d="M0 100v800q0 100 100 100t100 -100v-250q0 -50 50 -50q150 0 150 -150v-350q0 -100 -100 -100h-200q-100 0 -100 100zM0 1200v200q0 25 25 51l25 24q25 25 50 25h200q100 0 100 -100q0 -50 -25 -75l-200 -200q-25 -25 -75 -25q-100 0 -100 100z" />
<glyph unicode="&#xee;" horiz-adv-x="500" d="M-150 1150v50q1 35 25 50l150 125q50 25 75 25h200q25 0 75 -25l150 -125q25 -15 25 -50v-50q0 -50 -50 -50h-125q-25 0 -50 25q-75 75 -100 75h-50q-25 0 -100 -75q-25 -25 -50 -25h-125q-50 0 -50 50zM0 100v800q0 100 100 100t100 -100v-250q0 -50 50 -50 q150 0 150 -150v-350q0 -100 -100 -100h-200q-100 0 -100 100z" />
<glyph unicode="&#xef;" horiz-adv-x="500" d="M-250 1200v100q0 100 100 100h200q100 0 100 -100v-100q0 -100 -100 -100h-200q-100 0 -100 100zM0 100v800q0 100 100 100t100 -100v-250q0 -50 50 -50q150 0 150 -150v-350q0 -100 -100 -100h-200q-100 0 -100 100zM250 1200v100q0 100 100 100h200q100 0 100 -100 v-100q0 -100 -100 -100h-200q-100 0 -100 100z" />
<glyph unicode="&#xf0;" horiz-adv-x="1050" d="M-1 850q0 150 151 150h400q50 0 50 50v50q0 100 -100 100h-200q-100 0 -100 100t100 100h350q150 0 150 -150v-200q0 -50 50 -50q100 0 100 -100t-100 -100q-50 0 -50 -50v-600q0 -150 -151 -150h-499q-150 0 -150 149zM200 700l2 -49q0 -50 50 -50q149 -1 149 -151 l-1 -150q0 -100 101 -101q99 1 99 99l-1 400q0 100 -99 102h-200q-100 0 -100 -100z" />
<glyph unicode="&#xf1;" horiz-adv-x="900" d="M-1 850q0 150 151 150h500q150 0 150 -149v-751q0 -100 -100 -100t-100 100l-1 598q0 100 -99 102h-200q-100 0 -100 -100l1 -49q0 -50 50 -50q149 -1 149 -151v-350q0 -100 -100 -100h-200q-100 0 -100 100zM0 1200v100q0 100 100 100h250q50 0 100 -50t100 -50t50 50 t50 50h50q100 0 100 -100v-100q0 -100 -95 -100h-255q-50 0 -100 50t-100 50t-50 -50t-50 -50h-50q-100 0 -100 100z" />
<glyph unicode="&#xf2;" horiz-adv-x="900" d="M-1 850q0 150 151 150h500q150 0 150 -149v-701q0 -150 -151 -150h-499q-150 0 -150 149zM200 700l1 -49q0 -50 50 -50q149 -1 149 -151v-150q0 -100 101 -101q99 1 99 99l-1 400q0 100 -99 102h-200q-100 0 -100 -100zM200 1400q0 100 100 100h200q25 0 51 -25l24 -24 q25 -26 25 -51v-200q0 -100 -100 -100q-50 0 -75 25l-200 200q-25 25 -25 75z" />
<glyph unicode="&#xf3;" horiz-adv-x="900" d="M-1 850q0 150 151 150h500q150 0 150 -149v-701q0 -150 -151 -150h-499q-150 0 -150 149zM200 700l1 -49q0 -50 50 -50q149 -1 149 -151v-150q0 -100 101 -101q99 1 99 99l-1 400q0 100 -99 102h-200q-100 0 -100 -100zM200 1200v200q0 25 25 51l25 24q25 25 50 25h200 q100 0 100 -100q0 -50 -25 -75l-200 -200q-25 -25 -75 -25q-100 0 -100 100z" />
<glyph unicode="&#xf4;" horiz-adv-x="900" d="M-1 850q0 150 151 150h500q150 0 150 -149v-701q0 -150 -151 -150h-499q-150 0 -150 149zM50 1150v50q1 35 25 50l150 125q50 25 75 25h200q25 0 75 -25l150 -125q25 -15 25 -50v-50q0 -50 -50 -50h-125q-25 0 -50 25q-75 75 -100 75h-50q-25 0 -100 -75q-25 -25 -50 -25 h-125q-50 0 -50 50zM200 700l1 -49q0 -50 50 -50q149 -1 149 -151v-150q0 -100 101 -101q99 1 99 99l-1 400q0 100 -99 102h-200q-100 0 -100 -100z" />
<glyph unicode="&#xf5;" horiz-adv-x="900" d="M-1 850q0 150 151 150h500q150 0 150 -149v-701q0 -150 -151 -150h-499q-150 0 -150 149zM0 1200v100q0 100 100 100h250q50 0 100 -50t100 -50t50 50t50 50h50q100 0 100 -100v-100q0 -100 -95 -100h-255q-50 0 -100 50t-100 50t-50 -50t-50 -50h-50q-100 0 -100 100z M200 700l1 -49q0 -50 50 -50q149 -1 149 -151v-150q0 -100 101 -101q99 1 99 99l-1 400q0 100 -99 102h-200q-100 0 -100 -100z" />
<glyph unicode="&#xf6;" horiz-adv-x="900" d="M-50 1200v100q0 100 100 100h200q100 0 100 -100v-100q0 -100 -100 -100h-200q-100 0 -100 100zM-1 850q0 150 151 150h500q150 0 150 -149v-701q0 -150 -151 -150h-499q-150 0 -150 149zM200 700l1 -49q0 -50 50 -50q149 -1 149 -151v-150q0 -100 101 -101q99 1 99 99 l-1 400q0 100 -99 102h-200q-100 0 -100 -100zM450 1200v100q0 100 100 100h200q100 0 100 -100v-100q0 -100 -100 -100h-200q-100 0 -100 100z" />
<glyph unicode="&#xf7;" horiz-adv-x="1000" d="M0 749q0 101 100 101h700q100 0 101 -100q0 -99 -101 -100h-699q-101 0 -101 99zM250 350v100q0 100 100 100h200q100 0 100 -100v-100q0 -100 -100 -100h-200q-100 0 -100 100zM250 1050v100q0 100 100 100h200q100 0 100 -100v-100q0 -100 -100 -100h-200 q-100 0 -100 100z" />
<glyph unicode="&#xf8;" horiz-adv-x="900" d="M-1 850q0 150 151 150h500q150 0 150 -149v-701q0 -150 -151 -150h-499q-150 0 -150 149zM200 700l1 -49q0 -50 50 -50q53 0 88 -20l171 219h-210q-100 0 -100 -100zM400 300q0 -100 101 -101q99 1 99 99l-1 297l-199 -254v-41z" />
<glyph unicode="&#xf9;" horiz-adv-x="900" d="M0 149v751q0 99 100 100q100 0 100 -100l1 -249q0 -50 50 -50q149 -1 149 -151v-150q0 -100 101 -101q99 1 99 99v602q0 100 100 100t100 -100v-750q0 -150 -151 -150h-499q-150 0 -150 149zM200 1400q0 100 100 100h200q25 0 51 -25l24 -24q25 -26 25 -51v-200 q0 -100 -100 -100q-50 0 -75 25l-200 200q-25 25 -25 75z" />
<glyph unicode="&#xfa;" horiz-adv-x="900" d="M0 149v751q0 99 100 100q100 0 100 -100l1 -249q0 -50 50 -50q149 -1 149 -151v-150q0 -100 101 -101q99 1 99 99v602q0 100 100 100t100 -100v-750q0 -150 -151 -150h-499q-150 0 -150 149zM200 1200v200q0 25 25 51l25 24q25 25 50 25h200q100 0 100 -100 q0 -50 -25 -75l-200 -200q-25 -25 -75 -25q-100 0 -100 100z" />
<glyph unicode="&#xfb;" horiz-adv-x="900" d="M0 149v751q0 99 100 100q100 0 100 -100l1 -249q0 -50 50 -50q149 -1 149 -151v-150q0 -100 101 -101q99 1 99 99v602q0 100 100 100t100 -100v-750q0 -150 -151 -150h-499q-150 0 -150 149zM50 1150v50q1 35 25 50l150 125q50 25 75 25h200q25 0 75 -25l150 -125 q25 -15 25 -50v-50q0 -50 -50 -50h-125q-25 0 -50 25q-75 75 -100 75h-50q-25 0 -100 -75q-25 -25 -50 -25h-125q-50 0 -50 50z" />
<glyph unicode="&#xfc;" horiz-adv-x="900" d="M-50 1200v100q0 100 100 100h200q100 0 100 -100v-100q0 -100 -100 -100h-200q-100 0 -100 100zM0 149v751q0 99 100 100q100 0 100 -100l1 -249q0 -50 50 -50q149 -1 149 -151v-150q0 -100 101 -101q99 1 99 99v602q0 100 100 100t100 -100v-750q0 -150 -151 -150h-499 q-150 0 -150 149zM450 1200v100q0 100 100 100h200q100 0 100 -100v-100q0 -100 -100 -100h-200q-100 0 -100 100z" />
<glyph unicode="&#xfd;" horiz-adv-x="900" d="M0 149v751q0 100 100 100t100 -100l1 -249q0 -50 50 -50q149 -1 149 -151v-150q0 -100 101 -101q99 1 99 99v601q0 101 100 101t100 -100v-1150q0 -150 -150 -150h-450q-100 0 -100 100t100 100h300q100 0 100 100v50q0 50 -50 50h-400q-150 0 -150 149zM200 1200v200 q0 25 25 51l25 24q25 25 50 25h200q100 0 100 -100q0 -50 -25 -75l-200 -200q-25 -25 -75 -25q-100 0 -100 100z" />
<glyph unicode="&#xfe;" horiz-adv-x="900" d="M-1 850q0 12 1 23v427q0 100 100 100t100 -100v-250q0 -50 50 -50h400q150 0 150 -149v-701q0 -150 -151 -150h-399q-50 0 -50 -50v-250q0 -100 -100 -100t-100 100zM200 700l1 -49q0 -50 50 -50q149 -1 149 -151v-150q0 -100 101 -101q99 1 99 99l-1 400q0 100 -99 102 h-200q-100 0 -100 -100z" />
<glyph unicode="&#xff;" horiz-adv-x="900" d="M-50 1200v100q0 100 100 100h200q100 0 100 -100v-100q0 -100 -100 -100h-200q-100 0 -100 100zM0 149v751q0 100 100 100t100 -100l1 -249q0 -50 50 -50q149 -1 149 -151v-150q0 -100 101 -101q99 1 99 99v601q0 101 100 101t100 -100v-1150q0 -150 -150 -150h-450 q-100 0 -100 100t100 100h300q100 0 100 100v50q0 50 -50 50h-400q-150 0 -150 149zM450 1200v100q0 100 100 100h200q100 0 100 -100v-100q0 -100 -100 -100h-200q-100 0 -100 100z" />
<glyph unicode="&#x152;" horiz-adv-x="1900" d="M0 149v1100q0 150 150 150l801 1q26 0 47 -25q24 26 53 26l649 -1q100 0 101 -100q0 -100 -100 -100h-500q-101 -1 -101 -100v-200q1 -50 51 -50h549q100 0 101 -100q0 -99 -101 -99l-350 -1q-48 0 -49 -51v-349q0 -49 49 -50h350q100 0 101 -100q0 -100 -101 -100h-699 q-10 0 -20 21q-14 -22 -31 -22h-800q-149 0 -150 150zM201 299q1 -100 99 -100h500q100 0 100 100v501q0 50 -50 50q-150 1 -150 149v150q-1 50 -50 51l-349 -1q-100 0 -100 -100v-800z" />
<glyph unicode="&#x153;" horiz-adv-x="1500" d="M-1 850q0 150 151 150h500q28 0 50 -25q23 25 51 25h500q150 0 150 -149v-303q0 -149 -150 -149l-200 -1q-49 0 -49 -50l-1 -97q0 -50 49 -51l99 1q50 0 50 49q0 100 101 100q100 0 100 -100v-100q0 -150 -151 -150h-499q-28 0 -50 25q-23 -25 -51 -25h-499 q-150 0 -150 149zM200 700l1 -49q0 -50 50 -50q149 -1 149 -151v-150q0 -100 101 -101q99 1 99 99l-1 400q0 100 -99 102h-200q-100 0 -100 -100zM800 751l1 -102q0 -50 50 -50l250 -2q99 1 99 101t-99 102h-250q-51 0 -51 -49z" />
<glyph unicode="&#x2c6;" horiz-adv-x="800" d="M0 1550v50q1 35 25 50l150 125q50 25 75 25h200q25 0 75 -25l150 -125q25 -15 25 -50v-50q0 -50 -50 -50h-125q-25 0 -50 25q-75 75 -100 75h-50q-25 0 -100 -75q-25 -25 -50 -25h-125q-50 0 -50 50z" />
<glyph unicode="&#x2dc;" horiz-adv-x="900" d="M0 1600v100q0 100 100 100h250q50 0 100 -50t100 -50t50 50t50 50h50q99 0 99 -98v-102q0 -100 -94 -100h-255q-50 0 -100 50t-100 50t-50 -50t-50 -50h-50q-100 0 -100 100z" />
<glyph unicode="&#x2000;" horiz-adv-x="1000" />
<glyph unicode="&#x2001;" horiz-adv-x="2000" />
<glyph unicode="&#x2002;" horiz-adv-x="1000" />
<glyph unicode="&#x2003;" horiz-adv-x="2000" />
<glyph unicode="&#x2004;" horiz-adv-x="666" />
<glyph unicode="&#x2005;" horiz-adv-x="500" />
<glyph unicode="&#x2006;" horiz-adv-x="333" />
<glyph unicode="&#x2007;" horiz-adv-x="333" />
<glyph unicode="&#x2008;" horiz-adv-x="250" />
<glyph unicode="&#x2009;" horiz-adv-x="400" />
<glyph unicode="&#x200a;" horiz-adv-x="111" />
<glyph unicode="&#x2010;" horiz-adv-x="1000" d="M0 749q0 101 100 101h700q100 0 101 -100q0 -99 -101 -100h-699q-101 0 -101 99z" />
<glyph unicode="&#x2011;" horiz-adv-x="1000" d="M0 749q0 101 100 101h700q100 0 101 -100q0 -99 -101 -100h-699q-101 0 -101 99z" />
<glyph unicode="&#x2012;" horiz-adv-x="1000" d="M0 749q0 101 100 101h700q100 0 101 -100q0 -99 -101 -100h-699q-101 0 -101 99z" />
<glyph unicode="&#x2013;" horiz-adv-x="1000" d="M0 749q0 101 100 101h700q100 0 101 -100q0 -99 -101 -100h-699q-101 0 -101 99z" />
<glyph unicode="&#x2014;" horiz-adv-x="1100" d="M0 749q0 101 100 101h799q100 0 101 -100q0 -99 -101 -100h-798q-101 0 -101 99z" />
<glyph unicode="&#x2018;" horiz-adv-x="500" d="M0 1000v300q0 100 100 100h200q100 0 100 -100v-100q0 -50 -25 -75l-200 -200q-25 -25 -75 -25q-100 0 -100 100z" />
<glyph unicode="&#x2019;" horiz-adv-x="500" d="M0 1200v100q0 100 100 100h200q100 0 100 -100v-300q0 -100 -100 -100q-50 0 -75 25l-200 200q-25 25 -25 75z" />
<glyph unicode="&#x201a;" horiz-adv-x="500" d="M0 100v100q0 100 100 100h200q100 0 100 -100v-300q0 -100 -100 -100q-50 0 -75 25l-200 200q-25 25 -25 75z" />
<glyph unicode="&#x201c;" horiz-adv-x="1000" d="M0 1000v300q0 100 100 100h200q100 0 100 -100v-100q0 -50 -25 -75l-200 -200q-25 -25 -75 -25q-100 0 -100 100zM500 1000v300q0 100 100 100h200q100 0 100 -100v-100q0 -50 -25 -75l-200 -200q-25 -25 -75 -25q-100 0 -100 100z" />
<glyph unicode="&#x201d;" horiz-adv-x="1000" d="M0 1200v100q0 100 100 100h200q100 0 100 -100v-300q0 -100 -100 -100q-50 0 -75 25l-200 200q-25 25 -25 75zM500 1200v100q0 100 100 100h200q100 0 100 -100v-300q0 -100 -100 -100q-50 0 -75 25l-200 200q-25 25 -25 75z" />
<glyph unicode="&#x201e;" horiz-adv-x="1000" d="M0 100v100q0 100 100 100h200q100 0 100 -100v-300q0 -100 -100 -100q-50 0 -75 25l-200 200q-25 25 -25 75zM500 100v100q0 100 100 100h200q100 0 100 -100v-300q0 -100 -100 -100q-50 0 -75 25l-200 200q-25 25 -25 75z" />
<glyph unicode="&#x2022;" horiz-adv-x="1024" d="M-13 806q0 67 38 121q61 86 184 86q122 0 234.5 -86.5t149.5 -208.5q14 -46 14 -87q0 -68 -38 -122q-62 -88 -184 -88q-123 0 -235 87t-149 210q-14 46 -14 88z" />
<glyph unicode="&#x2026;" horiz-adv-x="1500" d="M0 100v100q0 100 100 100h200q100 0 100 -100v-100q0 -100 -100 -100h-200q-100 0 -100 100zM500 100v100q0 100 100 100h200q100 0 100 -100v-100q0 -100 -100 -100h-200q-100 0 -100 100zM1000 100v100q0 100 100 100h200q100 0 100 -100v-100q0 -100 -100 -100h-200 q-100 0 -100 100z" />
<glyph unicode="&#x202f;" horiz-adv-x="400" />
<glyph unicode="&#x2039;" d="M0 600v200q0 100 150 150l500 200q250 100 300 100h50q100 0 100 -100t-150 -150l-487 -187q-88 -38 -113 -113q25 -75 113 -113l487 -187q150 -50 150 -150t-100 -100h-50q-50 0 -300 100l-500 200q-150 50 -150 150z" />
<glyph unicode="&#x203a;" d="M0 250q0 100 150 150l487 187q88 38 113 113q-25 75 -113 113l-487 187q-150 50 -150 150t100 100h50q50 0 300 -100l500 -200q150 -50 150 -150v-200q0 -100 -150 -150l-500 -200q-250 -100 -300 -100h-50q-100 0 -100 100z" />
<glyph unicode="&#x205f;" horiz-adv-x="500" />
<glyph unicode="&#x20ac;" d="M0 500q0 100 100 100q50 0 50 50v100q0 50 -50 50q-100 0 -100 100t100 100q50 0 50 50v200q0 149 150 150h700q99 0 100 -100q0 -100 -100 -100h-550q-100 0 -100 -100v-50q0 -50 50 -50h250q100 0 100 -100t-100 -100h-50q-50 0 -50 -50l-1 -100q2 -50 51 -50h50 q100 0 100 -100t-100 -100h-50q-50 0 -50 -50v-100q1 -50 50 -51l401 1q99 0 99 -100t-100 -100l-701 -1q-149 1 -149 151v200q0 50 -50 50q-100 0 -100 100z" />
<glyph unicode="&#x2122;" horiz-adv-x="1400" d="M0 1351q0 50 50 50h450q50 0 50 -50t-50 -50h-150q-25 0 -25 -25v-125q0 -25 25 -25q75 0 75 -75v-300q0 -50 -50 -50h-100q-50 0 -50 50v525q0 25 -25 25h-150q-50 0 -50 50zM600 750v576q0 75 76 75h549q75 0 75 -75v-575q0 -50 -50 -50t-50 50v500q0 50 -50 50h-125 q-25 0 -25 -25v-525q0 -50 -50 -50t-50 50v525q0 25 -25 25h-124q-51 -1 -51 -50v-100q1 -25 26 -25q74 0 74 -75v-300q0 -50 -50 -50h-99q-51 0 -51 49z" />
<glyph unicode="&#x25fc;" horiz-adv-x="1000" d="M0 0v1000h1000v-1000h-1000z" />
</font>
</defs>
</svg>
