<?xml version="1.0" standalone="no"?>
<!DOCTYPE svg PUBLIC "-//W3C//DTD SVG 1.1//EN" "http://www.w3.org/Graphics/SVG/1.1/DTD/svg11.dtd" >
<svg xmlns="http://www.w3.org/2000/svg">
<metadata></metadata>
<defs>
<font id="twobititalic" horiz-adv-x="1200" >
<font-face units-per-em="2048" ascent="1638" descent="-410" />
<missing-glyph horiz-adv-x="652" />
<glyph unicode="&#xd;" horiz-adv-x="508" />
<glyph horiz-adv-x="0" />
<glyph horiz-adv-x="0" />
<glyph unicode=" "  horiz-adv-x="652" />
<glyph unicode="&#x09;" horiz-adv-x="652" />
<glyph unicode="&#xa0;" horiz-adv-x="652" />
<glyph unicode="!" horiz-adv-x="500" d="M21 62q0 17 6 38l27 100q26 100 126 100h200q79 0 79 -63q0 -16 -5 -37l-27 -100q-27 -100 -127 -100h-200q-79 0 -79 62zM128 462q0 17 6 38l214 800q27 100 127 100q79 0 79 -62q0 -17 -6 -38l-67 -250q-3 -10 -3 -19q0 -31 40 -31q118 0 118 -93q0 -25 -8 -57 l-94 -350q-27 -100 -127 -100h-200q-79 0 -79 62z" />
<glyph unicode="&#x22;" horiz-adv-x="1000" d="M316 1161q0 17 6 39l26 100q27 100 127 100h200q79 0 79 -62q0 -17 -6 -38l-80 -300q-27 -100 -127 -100q-50 0 -68 25l-147 200q-10 14 -10 36zM816 1161q0 17 6 39l26 100q27 100 127 100h200q79 0 79 -62q0 -17 -6 -38l-80 -300q-27 -100 -127 -100q-50 0 -68 25 l-147 200q-10 14 -10 36z" />
<glyph unicode="#" horiz-adv-x="1000" d="M143 513q0 16 5 36q27 101 126 101q50 0 64 50l28 105q1 7 1 13q0 32 -39 32q-79 0 -79 62q0 17 6 38q26 100 126 100q43 0 60 38l16 62q27 100 127 100h200q79 0 79 -62q0 -17 -6 -38l-13 -50h1q-3 -11 -3 -19q0 -31 39 -31q50 0 64 50l13 50q27 100 127 100 q79 0 79 -62q0 -17 -6 -38l-15 -55q-1 -7 -1 -13q0 -32 39 -32q79 0 79 -63q0 -16 -5 -37q-27 -100 -127 -100q-43 0 -59 -38l-30 -112q-3 -11 -3 -19q0 -31 39 -31q79 0 79 -63q0 -16 -5 -37q-26 -99 -127 -100q-50 0 -64 -50l-14 -50q-27 -100 -127 -100q-79 0 -79 62 q0 17 6 38l14 50q3 11 3 19q0 31 -39 31h-1q-50 0 -64 -50l-14 -50q-27 -100 -127 -100h-200q-79 0 -79 62q0 17 6 38l14 50q3 11 3 20q0 30 -37 30q-80 0 -80 63zM735 681q0 -31 39 -31h1q50 0 64 50l26 100h-1q3 11 3 19q0 31 -39 31q-50 0 -64 -50l-26 -100 q-3 -11 -3 -19z" />
<glyph unicode="$" d="M75 263q0 16 5 37q27 100 127 100h500q99 0 127 100q4 18 4 33q0 67 -77 68l-450 -1q-118 0 -118 93q0 25 8 57l79 299q41 150 190 150h251l1 1q50 0 63 50l13 50q27 100 127 100q79 0 79 -62q0 -17 -6 -38l-13 -50q-3 -10 -3 -19q0 -31 40 -31l-1 -1h299q79 -1 79 -62 q0 -17 -6 -38q-26 -100 -126 -100h-700q-98 0 -126 -99q-6 -21 -6 -38q0 -62 79 -62h650q118 0 118 -93q0 -25 -8 -57l-80 -300q-40 -150 -190 -151h-264q-38 -6 -50 -49l-13 -50q-27 -100 -127 -100q-79 0 -79 62q0 17 6 38l13 50q3 11 3 19q0 31 -39 31h-300q-79 0 -79 63 z" />
<glyph unicode="%" d="M21 62q0 17 6 38l120 450q27 100 191 150l717 250q113 50 126 100l67 250q27 100 127 100q78 0 78 -63q0 -16 -5 -37l-107 -400q-27 -100 -190 -150l-554 -200q-56 -25 -63 -49l-107 -401q-27 -100 -127 -100h-200q-79 0 -79 62zM376 1013q0 16 5 37l27 100 q27 100 127 100h200q79 0 79 -62q0 -17 -6 -38l-27 -100q-26 -100 -126 -100h-200q-79 0 -79 63zM675 263q0 16 5 37l27 100q27 100 127 100h200q79 0 79 -62q0 -17 -6 -38l-27 -100q-26 -100 -126 -100h-200q-79 0 -79 63z" />
<glyph unicode="&#x26;" d="M32 93q0 25 8 57l148 550q40 150 190 150q50 0 63 50l94 350q40 150 190 150h400q79 0 79 -62q0 -17 -6 -38q-26 -100 -126 -100h-250q-100 0 -127 -100l-54 -200q-3 -10 -3 -19q0 -31 40 -31h250q50 0 63 50q27 100 127 100q79 0 79 -62q0 -17 -6 -38q-3 -10 -3 -19 q0 -31 40 -31q79 0 79 -62q0 -17 -6 -38q-27 -100 -127 -100q-50 0 -63 -50l-121 -450q-40 -150 -190 -150h-650q-118 0 -118 93zM464 231q0 -31 40 -31h200q100 0 126 100l81 300q3 10 3 19q0 31 -40 31h-250q-49 -1 -63 -50l-94 -350q-3 -10 -3 -19z" />
<glyph unicode="'" horiz-adv-x="500" d="M316 1161q0 17 6 39l26 100q27 100 127 100h200q79 0 79 -62q0 -17 -6 -38l-80 -300q-27 -100 -127 -100q-50 0 -68 25l-147 200q-10 14 -10 36z" />
<glyph unicode="(" horiz-adv-x="700" d="M-22 -108q0 26 9 58l402 1501q40 149 190 150l350 -1q79 0 79 -62q0 -17 -6 -38q-27 -100 -127 -100l-200 1q-100 0 -126 -100l-108 -401q-3 -10 -3 -19q0 -31 40 -31q118 0 118 -93q0 -25 -8 -57l-175 -650q-3 -10 -3 -19q0 -31 40 -31h50q79 0 79 -62q0 -17 -6 -38 q-27 -100 -127 -100l-351 -1q-117 1 -117 93z" />
<glyph unicode=")" horiz-adv-x="700" d="M-33 -138q0 17 6 38q27 100 127 100h50q50 0 63 50l175 650q40 150 190 150q50 0 63 50l108 401q5 21 5 37q0 63 -79 63l-200 -1q-79 0 -79 62q0 17 6 38q27 100 127 100l350 1q118 -1 118 -94q0 -25 -8 -56l-402 -1501q-41 -150 -190 -151l-351 1q-79 0 -79 62z" />
<glyph unicode="*" horiz-adv-x="1100" d="M235 862q0 17 6 38l40 150q27 100 141 150q-66 38 -66 105q0 21 6 45l40 150q27 100 127 100q79 0 79 -61q0 -17 -6 -38l-40 -151q-3 -11 -3 -19q0 -31 39 -31q50 0 64 50l67 250q27 100 127 100h200q79 0 79 -62q0 -17 -6 -38l-67 -250q-3 -11 -3 -19q0 -31 39 -31 q50 0 64 50l40 150q27 100 127 100q79 0 79 -62q0 -17 -6 -38l-40 -150q-27 -100 -140 -150q65 -38 65 -105q0 -21 -6 -45l-40 -150q-27 -100 -127 -100q-79 0 -79 62q0 17 6 38l40 150q2 10 2 18q0 31 -38 32q-50 0 -64 -50l-67 -250q-26 -100 -126 -100h-200q-79 0 -79 63 q0 16 5 37l67 250q3 11 3 20q0 30 -38 30h-1q-50 0 -64 -50l-40 -150q-27 -100 -127 -100q-79 0 -79 62z" />
<glyph unicode="+" horiz-adv-x="1000" d="M195 712q0 16 6 37q27 101 127 101h100q50 0 63 50l67 250q27 100 127 100h200q79 0 79 -62q0 -17 -6 -38l-67 -250q-3 -10 -3 -19q0 -31 40 -31h100q79 0 79 -63q0 -16 -5 -37q-27 -99 -128 -100h-100q-50 0 -63 -50l-67 -250q-27 -100 -127 -100h-200q-79 0 -79 62 q0 17 6 38l67 250q3 10 3 19q0 31 -39 31h-100q-80 0 -80 62z" />
<glyph unicode="," horiz-adv-x="500" d="M21 62q0 17 6 38l27 100q26 100 126 100h200q79 0 79 -63q0 -16 -5 -37l-81 -300q-27 -100 -127 -100q-50 0 -68 25l-146 200q-11 14 -11 37z" />
<glyph unicode="-" horiz-adv-x="1000" d="M195 712q0 16 6 37q27 101 127 101h700q79 0 79 -63q0 -16 -5 -37q-27 -99 -128 -100h-699q-80 0 -80 62z" />
<glyph unicode="." horiz-adv-x="500" d="M21 62q0 17 6 38l27 100q26 100 126 100h200q79 0 79 -63q0 -16 -5 -37l-27 -100q-27 -100 -127 -100h-200q-79 0 -79 62z" />
<glyph unicode="/" d="M21 62q0 17 6 38l120 450q27 100 191 150l717 250q113 50 126 100l67 250q27 100 127 100q78 0 78 -63q0 -16 -5 -37l-107 -400q-27 -100 -190 -150l-554 -200q-56 -25 -63 -49l-107 -401q-27 -100 -127 -100h-200q-79 0 -79 62z" />
<glyph unicode="0" d="M32 93q0 25 8 57l295 1100q41 150 190 150h800q118 -1 118 -93q0 -25 -8 -56l-295 -1101q-40 -150 -189 -151l-801 1q-118 0 -118 93zM276 263q0 -63 79 -63l348 -1q50 1 64 51l120 450q39 149 189 149q51 0 65 51l54 200q6 21 6 38q0 62 -79 62h-500q-98 0 -126 -100 l-215 -800q-5 -21 -5 -37z" />
<glyph unicode="1" horiz-adv-x="500" d="M21 62q0 17 6 38l161 600q40 150 190 150q50 0 63 50l107 400q27 100 127 100q79 0 79 -62q0 -17 -6 -38l-321 -1200q-27 -100 -127 -100h-201q-78 0 -78 62z" />
<glyph unicode="2" d="M32 93q0 25 8 57l148 550q40 150 190 150h650q100 0 127 100l39 150q5 21 5 38q0 62 -77 62h-500q-100 0 -127 -100l-14 -50q-26 -100 -126 -100q-79 0 -79 63q0 16 5 37l54 200q40 149 190 150h800q118 0 118 -94q0 -25 -8 -56l-121 -450q-40 -150 -190 -150h-500 q-44 0 -63 -49l-94 -351q-2 -10 -2 -18q0 -32 38 -33l551 1q79 0 79 -62q0 -17 -6 -38q-27 -100 -127 -100l-851 -1q-117 1 -117 94z" />
<glyph unicode="3" d="M32 93q0 25 8 57l54 200q27 100 127 100q79 0 79 -62q0 -17 -6 -38l-14 -50q-5 -21 -5 -37q0 -63 79 -63h350q50 0 63 50l94 350q2 10 2 17q0 32 -39 33h-350q-79 0 -79 62q0 17 6 38q27 100 127 100h350q50 0 63 50l54 200q6 21 6 38q0 62 -79 62h-300q-100 0 -127 -100 l-14 -50q-26 -100 -126 -100q-79 0 -79 63q0 16 5 37l54 200q40 150 190 150h600q118 0 118 -93q0 -25 -8 -57l-94 -350q-3 -10 -3 -19q0 -31 40 -31q118 0 118 -93q0 -25 -8 -57l-148 -550q-40 -150 -190 -150h-800q-118 0 -118 93z" />
<glyph unicode="4" d="M86 294q0 25 8 56l241 900q40 150 190 150h650q119 0 119 -94q0 -25 -8 -57l-218 -812v-6q0 -31 39 -31q79 0 79 -62q0 -17 -6 -38q-26 -100 -126 -100q-43 0 -59 -37l-18 -65q-26 -99 -127 -99l-199 2q-78 0 -78 62q0 16 5 37l13 48q3 11 3 19q0 32 -40 32l-350 1 q-118 2 -118 94zM328 462q0 -62 79 -62l400 -1q50 0 64 50l174 650q6 21 6 37q0 62 -80 63l-349 1q-100 0 -127 -100l-161 -600q-6 -21 -6 -38z" />
<glyph unicode="5" d="M32 93q0 25 8 57l54 200q27 100 128 100q78 0 78 -62q0 -17 -6 -38l-13 -50q-5 -21 -5 -37q0 -63 79 -63l348 -1q50 1 64 51l94 351q1 7 1 12q0 37 -38 37h-500q-118 0 -118 93q0 25 8 57l121 450q41 150 190 150h750q79 0 79 -62q0 -17 -6 -38q-26 -100 -126 -100h-600 q-98 0 -126 -100l-41 -150q-6 -21 -6 -38q0 -62 79 -62h650q118 0 118 -93q0 -25 -8 -57l-148 -550q-40 -150 -189 -151l-801 1q-118 0 -118 93z" />
<glyph unicode="6" d="M32 93q0 25 8 57l295 1100q41 150 190 150h750q79 0 79 -62q0 -17 -6 -38q-26 -100 -126 -100h-600q-98 0 -126 -100l-41 -150q-6 -21 -6 -38q0 -62 79 -62h650q118 0 118 -93q0 -25 -8 -57l-148 -550q-40 -150 -189 -151l-801 1q-118 0 -118 93zM276 263q0 -63 79 -63 l348 -1q50 1 64 51l94 351q1 7 1 12q0 37 -38 37h-350q-100 0 -127 -100l-53 -200l-13 -50q-5 -21 -5 -37z" />
<glyph unicode="7" d="M343 1263q0 16 5 37q27 100 127 100h900q79 0 79 -62q0 -17 -6 -38l-321 -1200q-27 -100 -127 -100h-200q-79 0 -79 62q0 17 6 38l161 600q40 150 190 150q50 0 63 50l67 250q3 11 3 19q0 31 -39 31h-750q-79 0 -79 63z" />
<glyph unicode="8" d="M32 93q0 25 8 57l148 550q40 150 190 150q50 0 63 50l94 350q40 150 190 150h400q118 0 118 -93q0 -25 -8 -57l-94 -350q-3 -10 -3 -19q0 -31 40 -31q118 0 118 -93q0 -25 -8 -57l-148 -550q-40 -150 -190 -150h-800q-118 0 -118 93zM275 263q0 -63 79 -63h350 q50 0 63 50l94 350q2 10 2 17q0 32 -39 33h-350q-100 0 -127 -100l-67 -250q-5 -21 -5 -37zM638 881q0 -31 40 -31h200q50 0 63 50l54 200q6 21 6 38q0 62 -79 62h-100q-100 0 -127 -100l-54 -200q-3 -10 -3 -19z" />
<glyph unicode="9" d="M206 745q0 24 8 55l121 450q40 150 190 150l799 1q119 0 119 -94q0 -25 -8 -57l-308 -1151q-27 -99 -128 -99l-198 2q-79 0 -79 63q0 16 5 36l134 498q3 11 3 19q0 32 -40 32h-500q-118 2 -118 95zM449 912q0 -62 79 -62h549q50 0 64 50l54 200q5 20 5 37q0 62 -79 63 h-499q-100 0 -127 -100l-40 -150q-6 -21 -6 -38z" />
<glyph unicode=":" horiz-adv-x="500" d="M21 62q0 17 6 38l27 100q26 100 126 100h200q79 0 79 -63q0 -16 -5 -37l-27 -100q-27 -100 -127 -100h-200q-79 0 -79 62zM182 662q0 17 6 38l26 100q27 100 127 100h200q79 0 79 -62q0 -17 -6 -38l-26 -100q-27 -100 -127 -100h-200q-79 0 -79 62z" />
<glyph unicode=";" horiz-adv-x="500" d="M21 62q0 17 6 38l27 100q26 100 126 100h200q79 0 79 -63q0 -16 -5 -37l-81 -300q-27 -100 -127 -100q-50 0 -68 25l-146 200q-11 14 -11 37zM182 662q0 17 6 38l26 100q27 100 127 100h200q79 0 79 -62q0 -17 -6 -38l-26 -100q-27 -100 -127 -100h-200q-79 0 -79 62z " />
<glyph unicode="&#x3c;" d="M157 568q0 16 4 32l53 200q27 100 191 150l553 200q277 100 327 100h50q79 0 79 -62q0 -17 -6 -38q-27 -100 -190 -150l-537 -187q-98 -38 -143 -113q4 -75 82 -113l437 -187q114 -42 114 -118q0 -16 -4 -32q-27 -100 -127 -100h-50q-50 0 -273 100l-446 200 q-114 42 -114 118z" />
<glyph unicode="=" horiz-adv-x="1000" d="M141 513q0 16 5 36q27 101 127 101h700q79 0 79 -63q0 -16 -5 -37q-26 -99 -127 -100h-699q-80 0 -80 63zM249 913q0 16 5 36q27 101 127 101h700q80 0 80 -64q0 -16 -5 -36q-27 -99 -128 -100h-699q-80 0 -80 63z" />
<glyph unicode="&#x3e;" d="M61 212q0 17 6 38q27 100 190 150l537 187q98 38 144 113q-5 75 -83 113l-437 187q-114 42 -114 118q0 16 4 32q27 100 127 100h50q50 0 273 -100l447 -200q113 -42 113 -118q0 -15 -4 -32l-53 -200q-27 -100 -190 -150l-554 -200q-277 -100 -327 -100h-50q-79 0 -79 62z " />
<glyph unicode="?" horiz-adv-x="1100" d="M21 62q0 17 6 38l27 100q26 100 126 100h200q79 0 79 -63q0 -16 -5 -37l-27 -100q-27 -100 -127 -100h-200q-79 0 -79 62zM128 462q0 16 6 37l54 201q40 150 190 150l550 2q100 0 127 100l40 150q6 21 6 38q0 62 -79 62h-399q-101 -1 -128 -100l-14 -52 q-26 -100 -126 -100q-79 0 -79 63q0 16 5 37l54 202q41 151 192 151l699 -1q118 0 118 -92q0 -26 -9 -58l-120 -450q-40 -148 -190 -150l-351 -2q-100 0 -127 -100l-13 -51q-28 -99 -127 -99h-199q-80 0 -80 62z" />
<glyph unicode="@" d="M32 93q0 25 8 57l295 1100q40 149 190 150h800q118 0 118 -94q0 -25 -8 -56l-228 -850q-27 -100 -127 -100h-350q-118 0 -118 92q0 26 9 58l120 450q40 150 190 150h200q44 0 63 50q5 21 5 38q0 62 -77 62h-500q-100 0 -127 -100l-54 -200q-3 -10 -3 -18q0 -32 41 -32 q118 -1 118 -94q0 -24 -8 -55l-122 -451q-2 -10 -2 -18q0 -32 38 -33l552 1q78 0 78 -62q0 -17 -6 -38q-27 -100 -127 -100l-851 -1q-117 1 -117 94zM855 562q0 -62 79 -62h50q50 0 63 50l54 200q6 21 6 38q0 62 -79 62q-100 0 -127 -100l-40 -150q-6 -21 -6 -38z" />
<glyph unicode="A" d="M21 62q0 17 6 38l161 600q40 150 190 150l107 400q40 150 190 150h500q118 0 118 -93q0 -25 -8 -57l-107 -400q118 0 118 -93q0 -25 -8 -57l-161 -600q-27 -100 -127 -100q-79 0 -79 62q0 17 6 38l120 450q5 21 5 37q0 62 -78 63h-300q-82 -6 -127 -100l-120 -450 q-27 -100 -131 -100h-196q-79 0 -79 62zM588 882q0 -31 40 -31l300 -1q50 0 63 50l54 200q6 21 6 38q0 62 -79 62h-200q-100 0 -127 -100l-54 -199q-3 -10 -3 -19z" />
<glyph unicode="B" d="M21 62q0 17 6 38l321 1200q27 100 127 100h650q118 0 118 -93q0 -25 -8 -57l-94 -350q-3 -10 -3 -19q0 -31 40 -31q118 0 118 -93q0 -25 -8 -57l-148 -550q-40 -150 -190 -150h-850q-79 0 -79 62zM438 881q0 -31 40 -31h400q50 0 63 50l54 200q6 21 6 38q0 62 -79 62 h-350q-50 0 -64 -50l-67 -250q-3 -10 -3 -19zM464 231q0 -31 40 -31h350q100 0 126 100l67 250q5 21 5 37q0 62 -78 63h-350q-50 0 -63 -50l-94 -350q-3 -10 -3 -19z" />
<glyph unicode="C" d="M32 93q0 25 8 57l295 1100q40 149 190 150h800q118 0 118 -94q0 -25 -8 -56l-54 -200q-26 -100 -126 -100q-79 0 -79 63q0 17 6 38l12 49q5 21 5 38q0 62 -77 62h-500q-100 0 -127 -100l-54 -200q-3 -10 -3 -18q0 -32 41 -32q118 -1 118 -94q0 -24 -8 -55l-122 -451 q-2 -10 -2 -18q0 -32 38 -33l350 1q100 0 126 100l15 50q27 100 127 100q79 0 79 -62q0 -17 -6 -38l-54 -200q-40 -150 -190 -150l-801 -1q-117 1 -117 94z" />
<glyph unicode="D" d="M21 62q0 16 6 37l321 1201q27 100 127 100h850q118 0 118 -93q0 -25 -8 -57l-295 -1100q-40 -150 -190 -150h-849q-80 0 -80 62zM439 883q0 -33 40 -33q117 0 117 -93q0 -25 -8 -57l-121 -450q-3 -10 -3 -19q0 -31 40 -31h350q100 0 126 100l215 800q6 21 6 38 q0 62 -79 62h-550q-51 -1 -64 -50l-67 -250q-2 -10 -2 -17z" />
<glyph unicode="E" horiz-adv-x="1000" d="M21 62q0 16 6 37l308 1151q40 151 191 151l649 -1q79 0 79 -63q0 -16 -5 -37q-26 -100 -126 -100h-500q-102 -1 -128 -100l-54 -200q-2 -10 -2 -17q0 -33 40 -33h549q79 0 79 -63q0 -16 -5 -37q-27 -99 -128 -99l-350 -1q-48 0 -62 -51l-94 -349q-3 -10 -3 -18 q0 -31 39 -32h350q79 0 79 -63q0 -16 -5 -37q-27 -100 -128 -100h-699q-80 0 -80 62z" />
<glyph unicode="F" horiz-adv-x="1000" d="M21 62q0 16 6 37l308 1151q40 151 191 151l649 -1q79 0 79 -63q0 -16 -5 -37q-26 -100 -126 -100h-500q-102 -1 -128 -100l-54 -200q-2 -10 -2 -17q0 -33 40 -33h549q79 0 79 -63q0 -16 -5 -37q-27 -99 -128 -100l-350 1q-50 0 -63 -51l-134 -499q-27 -99 -126 -99 l-200 -2q-80 0 -80 62z" />
<glyph unicode="G" d="M32 93q0 25 8 57l295 1100q40 149 190 150h800q118 0 118 -94q0 -25 -8 -56l-54 -200q-26 -100 -126 -100q-79 0 -79 63q0 17 6 38l12 49q5 21 5 38q0 62 -77 62h-500q-100 0 -127 -100l-54 -200q-3 -10 -3 -18q0 -32 41 -32q118 -1 118 -94q0 -24 -8 -55l-122 -451 q-2 -10 -2 -18q0 -32 38 -33l350 1q100 0 126 100l15 50l53 200q6 21 6 38q0 62 -79 62t-79 62q0 17 6 38q27 100 127 100h150q118 0 118 -93q0 -25 -8 -57l-148 -550q-40 -150 -190 -150l-801 -1q-117 1 -117 94z" />
<glyph unicode="H" d="M21 62q0 17 6 38l321 1200q27 100 127 100q79 0 79 -62q0 -17 -5 -37l-108 -401q-3 -10 -3 -19q0 -31 40 -31h600q50 0 63 50l107 400q27 100 127 100q79 0 79 -62q0 -17 -6 -38l-321 -1200q-27 -100 -127 -100q-79 0 -79 62q0 17 6 38l134 500q2 10 2 17q0 32 -39 33 h-450q-50 0 -63 -50l-134 -500q-27 -100 -131 -100h-146q-79 0 -79 62z" />
<glyph unicode="I" horiz-adv-x="500" d="M21 62q0 17 6 38l321 1200q27 100 127 100q79 0 79 -62q0 -17 -6 -38l-107 -400q-3 -10 -3 -19q0 -31 40 -31q118 0 118 -93q0 -25 -8 -57l-161 -600q-27 -100 -127 -100h-200q-79 0 -79 62z" />
<glyph unicode="J" d="M32 93q0 25 8 57l54 200q27 100 127 100q79 0 79 -62q0 -17 -6 -38l-14 -50q-5 -21 -5 -37q0 -63 79 -63h300q100 0 126 100l269 1001q26 99 126 99q79 0 79 -62q0 -17 -6 -38l-106 -400q-3 -10 -3 -19q0 -31 40 -31q118 0 118 -93q0 -25 -8 -57l-149 -550 q-40 -150 -190 -150h-800q-118 0 -118 93z" />
<glyph unicode="K" d="M21 62q0 17 6 38l321 1200q27 100 127 100q79 0 79 -62q0 -17 -5 -37l-108 -401q-3 -10 -3 -19q0 -31 40 -31h400q50 0 63 50l107 400q27 100 127 100q79 0 79 -62q0 -17 -6 -38l-107 -400q-3 -10 -3 -19q0 -31 40 -31q118 0 118 -93q0 -25 -8 -57l-161 -600 q-27 -100 -127 -100q-79 0 -79 62q0 17 6 38l120 450q5 21 5 37q0 62 -78 63h-400q-50 0 -63 -50l-134 -500q-27 -100 -131 -100h-146q-79 0 -79 62z" />
<glyph unicode="L" horiz-adv-x="1000" d="M21 62q0 16 6 37l321 1201q27 100 127 100q78 0 78 -63q0 -16 -5 -37l-107 -400q-2 -10 -2 -17q0 -33 40 -33q117 0 117 -93q0 -25 -8 -57l-120 -450q-3 -10 -3 -18q0 -31 39 -32h350q79 0 79 -63q0 -16 -5 -37q-27 -100 -128 -100h-699q-80 0 -80 62z" />
<glyph unicode="M" horiz-adv-x="1500" d="M21 62q0 16 6 37l308 1151q40 151 191 151l1099 -1q118 0 118 -93q0 -25 -8 -57l-308 -1150q-27 -100 -127 -100q-79 0 -79 62q0 17 6 38l268 1000q6 21 6 38q0 62 -79 62h-250q-50 0 -64 -50l-281 -1050q-27 -100 -127 -100q-79 0 -79 62q0 17 6 38l281 1050q3 11 3 19 q0 31 -39 31h-249q-102 -1 -128 -100l-54 -200q-2 -10 -2 -17q0 -33 40 -33q117 0 117 -93q0 -25 -8 -57l-161 -600q-27 -100 -128 -100h-198q-80 0 -80 62z" />
<glyph unicode="N" d="M21 62q0 16 6 37l308 1151q40 151 191 151l799 -1q118 0 118 -93q0 -25 -8 -57l-308 -1150q-27 -100 -127 -100q-79 0 -79 62q0 17 6 38l268 1000q6 21 6 38q0 62 -79 62h-499q-102 -1 -128 -100l-54 -200q-2 -10 -2 -17q0 -33 40 -33q117 0 117 -93q0 -25 -8 -57 l-161 -600q-27 -100 -128 -100h-198q-80 0 -80 62z" />
<glyph unicode="O" d="M32 93q0 25 8 56l295 1100q40 150 190 150l801 1q117 -1 117 -94q0 -25 -8 -57l-295 -1100q-40 -149 -190 -150h-800q-118 0 -118 94zM276 261q0 -62 77 -62h500q100 0 127 100l134 501q3 11 3 19q0 31 -39 31q-118 1 -118 93q0 25 8 56l40 150q2 10 2 18q0 32 -38 33 l-350 -1q-100 0 -127 -100l-214 -800q-5 -21 -5 -38z" />
<glyph unicode="P" horiz-adv-x="1100" d="M21 62q0 16 6 37l308 1151q40 151 191 151l699 -1q118 0 118 -93q0 -25 -8 -57l-121 -450q-39 -148 -190 -150h-400q-50 0 -63 -51l-134 -498q-27 -99 -126 -99l-200 -2q-80 0 -80 62zM439 883q0 -33 40 -33h449q100 0 127 100l40 150q6 21 6 38q0 62 -79 62h-399 q-102 -1 -128 -100l-54 -200q-2 -10 -2 -17z" />
<glyph unicode="Q" d="M32 93q0 25 8 56l295 1100q40 150 190 150l801 1q117 -1 117 -94q0 -25 -8 -57l-295 -1100q-40 -149 -190 -150h-163q-39 -6 -50 -49l-67 -250q-27 -100 -127 -100q-79 0 -79 62q0 17 6 38l67 250q3 10 3 18q0 26 -27 31h-363q-118 0 -118 94zM276 261q0 -62 77 -62 l201 1q50 0 63 50l13 50q27 100 127 100q79 0 79 -62q0 -17 -6 -38l-13 -50q-3 -10 -3 -19q0 -31 40 -31l-1 -1q100 0 127 100l134 501q3 11 3 19q0 31 -39 31q-118 1 -118 93q0 25 8 56l40 150q2 10 2 18q0 32 -38 33l-350 -1q-100 0 -127 -100l-214 -800q-5 -21 -5 -38z " />
<glyph unicode="R" d="M21 62q0 17 6 38l321 1200q27 100 127 100h650q118 0 118 -93q0 -25 -8 -57l-94 -350q-3 -10 -3 -19q0 -31 40 -31q118 0 118 -93q0 -25 -8 -57l-161 -600q-27 -100 -127 -100q-79 0 -79 62q0 17 6 38l120 450q5 21 5 37q0 62 -78 63h-400q-50 0 -63 -50l-134 -500 q-27 -100 -131 -100h-146q-79 0 -79 62zM438 881q0 -31 40 -31h400q50 0 63 50l40 150q9 32 9 58q0 92 -118 92h-300q-50 0 -64 -50l-67 -250q-3 -10 -3 -19z" />
<glyph unicode="S" d="M32 93q0 25 8 57l54 200q27 100 128 100q78 0 78 -62q0 -17 -6 -38l-13 -50q-5 -21 -5 -37q0 -63 79 -63l348 -1q50 1 64 51l94 351q1 7 1 12q0 37 -38 37h-500q-118 0 -118 93q0 25 8 57l121 450q41 150 190 150h800q118 -1 118 -94q0 -25 -8 -56l-54 -200 q-26 -100 -126 -100q-79 0 -79 63q0 16 5 37l14 50q6 21 6 38q0 62 -79 62h-500q-98 0 -126 -100l-41 -150q-6 -21 -6 -38q0 -62 79 -62h650q118 0 118 -93q0 -25 -8 -57l-148 -550q-40 -150 -189 -151l-801 1q-118 0 -118 93z" />
<glyph unicode="T" d="M343 1263q0 16 5 37q27 100 127 100h900q79 0 79 -62q0 -17 -6 -38q-26 -100 -126 -100h-300q-50 0 -64 -50l-67 -250q-3 -10 -3 -19q0 -31 40 -31q118 0 118 -93q0 -25 -8 -57l-161 -600q-27 -100 -127 -100h-200q-79 0 -79 62q0 17 6 38l281 1050q3 11 3 19 q0 31 -39 31h-300q-79 0 -79 63z" />
<glyph unicode="U" d="M32 93q0 25 8 57l309 1151q26 99 126 99q79 0 79 -62q0 -17 -6 -38l-107 -400q-2 -10 -2 -17q0 -33 40 -33q118 0 118 -93q0 -25 -8 -57l-121 -450q-3 -10 -3 -19q0 -31 39 -31h351q98 0 124 100l269 1000q27 100 128 101q78 -1 78 -63q0 -17 -6 -38l-308 -1150 q-40 -150 -189 -150h-801q-118 0 -118 93z" />
<glyph unicode="V" d="M32 93q0 25 8 57l309 1151q26 99 126 99q79 0 79 -62q0 -17 -6 -38l-107 -400q-2 -10 -2 -17q0 -33 40 -33q118 0 118 -93q0 -25 -8 -57l-121 -450q-3 -10 -3 -19q0 -31 39 -31q15 1 88 50l392 250q59 35 70 75l194 725q27 100 128 101q78 -1 78 -63q0 -17 -6 -38 l-221 -825q-10 -40 -102 -100l-513 -325q-71 -50 -112 -50h-350q-118 0 -118 93z" />
<glyph unicode="W" horiz-adv-x="1500" d="M32 94q0 25 8 57l309 1151q26 98 126 98q79 0 79 -62q0 -17 -6 -38l-107 -400q-3 -10 -3 -19q0 -31 40 -31q118 0 118 -93q0 -25 -8 -57l-121 -450q-3 -10 -3 -18q0 -30 40 -32l100 1q50 0 63 50l282 1050q26 100 126 100q79 0 79 -63q0 -16 -5 -37l-282 -1050 q-3 -10 -3 -19q0 -31 40 -31h250q100 0 127 100l268 1000q26 100 126 100q79 0 79 -63q0 -16 -5 -37l-309 -1150q-40 -150 -190 -150l-1099 -1q-119 0 -119 94z" />
<glyph unicode="X" d="M21 62q0 17 6 38l134 500q27 100 140 150q-66 38 -66 105q0 21 6 45l107 400q27 100 127 100q79 0 79 -62q0 -17 -5 -37l-108 -401q-3 -10 -3 -19q0 -31 40 -31h600q50 0 63 50l107 400q27 100 127 100q79 0 79 -62q0 -17 -6 -38l-107 -400q-27 -100 -140 -150 q66 -38 66 -105q0 -21 -6 -45l-134 -500q-27 -100 -127 -100q-79 0 -79 62q0 17 6 38l134 500q2 10 2 17q0 32 -39 33h-450q-50 0 -63 -50l-134 -500q-27 -100 -131 -100h-146q-79 0 -79 62z" />
<glyph unicode="Y" d="M206 743q0 25 8 57l134 500q27 100 127 100q79 0 79 -62q0 -17 -5 -37l-94 -351q-6 -21 -6 -38q0 -62 79 -62h500q100 0 127 100l93 350q27 100 127 100q79 0 79 -62q0 -17 -6 -38l-134 -500q-40 -150 -190 -150h-175q-50 0 -63 -50l-134 -500q-27 -100 -131 -100h-146 q-81 0 -81 66q0 15 4 34l134 500q3 10 3 19q0 31 -40 31h-171q-118 0 -118 93z" />
<glyph unicode="Z" d="M32 93q0 25 8 57l107 400q27 100 191 150l717 250q113 50 126 100l27 100q2 10 2 18q0 32 -38 32h-550q-100 0 -127 -100l-14 -50q-26 -100 -126 -100q-79 0 -79 63q0 16 5 37l54 200q40 149 190 150h850q78 0 78 -63q0 -16 -5 -37l-107 -400q-27 -100 -190 -150 l-554 -200q-56 -25 -63 -49l-67 -251q-2 -10 -2 -18q0 -32 39 -32h350q99 0 125 100l15 50q27 100 126 100q80 0 80 -62q0 -17 -6 -38l-54 -200q-40 -150 -190 -150l-801 -1q-117 1 -117 94z" />
<glyph unicode="[" horiz-adv-x="700" d="M-33 -138q0 17 6 38l429 1600q27 100 127 100h400q79 0 79 -62q0 -17 -6 -38q-27 -100 -127 -100h-250q-49 0 -63 -50l-121 -450q-3 -10 -3 -19q0 -31 40 -31q118 0 118 -93q0 -25 -8 -57l-175 -650q-3 -10 -3 -19q0 -31 40 -31h50q79 0 79 -62q0 -17 -6 -38 q-27 -100 -127 -100h-400q-79 0 -79 62z" />
<glyph unicode="\" d="M237 868q0 16 4 32l107 400q28 100 127 100q79 0 79 -62q0 -17 -6 -38l-67 -250q-2 -6 -2 -13q0 -43 76 -87l583 -250q113 -42 113 -118q0 -15 -4 -32l-120 -450q-27 -100 -127 -100h-200q-79 0 -79 62q0 17 6 38l107 401q1 3 1 7q0 20 -38 42l-446 200q-114 42 -114 118 z" />
<glyph unicode="]" horiz-adv-x="700" d="M-33 -138q0 17 6 38q27 100 127 100h50q50 0 63 50l175 650q40 150 190 150q50 0 63 50l121 450q2 10 2 18q0 32 -39 32h-250q-79 0 -79 62q0 17 6 38q27 100 127 100h400q79 0 79 -62q0 -17 -6 -38l-429 -1600q-27 -100 -127 -100h-400q-79 0 -79 62z" />
<glyph unicode="^" horiz-adv-x="800" d="M412 1531q0 9 3 19l14 50q10 35 38 50l184 125q56 25 81 25h200q25 0 69 -25l116 -125q15 -10 15 -31q0 -9 -3 -19l-14 -50q-13 -50 -63 -50h-125q-25 0 -43 25q-55 75 -80 75h-50q-25 0 -120 -75q-32 -25 -57 -25h-125q-40 0 -40 31z" />
<glyph unicode="_" horiz-adv-x="1000" d="M-59 -237q0 16 5 36q27 101 127 101h700q79 0 79 -63q0 -16 -5 -37q-26 -99 -127 -100h-699q-80 0 -80 63z" />
<glyph unicode="`" horiz-adv-x="500" d="M477 1762q0 17 5 38q27 100 127 100h200q25 0 44 -25l18 -24q13 -19 13 -37q0 -7 -2 -14l-53 -200q-27 -100 -127 -100q-50 0 -68 25l-147 200q-10 15 -10 37z" />
<glyph unicode="a" horiz-adv-x="900" d="M32 93q0 25 8 56l79 300q40 149 190 149l402 1q49 0 63 50l13 50q6 21 6 37q0 61 -79 61h-250q-50 0 -64 -49q-27 -101 -127 -101q-79 0 -79 63q0 17 6 38l27 99q40 150 190 150h499q119 0 119 -93q0 -25 -8 -56l-186 -698q-40 -150 -192 -150h-499q-118 0 -118 93z M426 263q0 -63 78 -63l100 -1q49 0 63 50l27 102q2 9 2 17q0 31 -40 31h-100q-98 0 -125 -99q-5 -21 -5 -37z" />
<glyph unicode="b" horiz-adv-x="900" d="M21 62q0 17 6 38l321 1200q27 100 127 100q79 0 79 -62q0 -17 -6 -38l-67 -250q-3 -10 -3 -19q0 -31 40 -31h400q118 0 118 -93q0 -25 -8 -57l-188 -700q-40 -150 -190 -150h-550q-79 0 -79 62zM371 631q0 -31 40 -31q118 0 118 -93q0 -25 -8 -57l-67 -250q-3 -11 -3 -19 q0 -31 39 -31h50q100 0 127 100l121 450q5 21 5 37q0 63 -79 63h-250q-50 0 -63 -50l-27 -100q-3 -10 -3 -19z" />
<glyph unicode="c" horiz-adv-x="900" d="M32 93q0 25 8 56l187 701q40 150 191 150h500q118 0 118 -93q0 -25 -8 -56l-27 -101q-27 -100 -127 -100q-78 0 -78 63q0 16 5 37q2 9 2 17q0 31 -39 33h-250q-100 0 -126 -100l-13 -49q-3 -10 -3 -19q0 -31 40 -31q117 -1 117 -94q0 -25 -8 -57l-41 -150q-5 -21 -5 -37 q0 -63 79 -64l51 1q49 0 62 50q27 100 127 100q79 0 79 -62q0 -17 -6 -38l-27 -100q-40 -150 -191 -150h-499q-118 0 -118 93z" />
<glyph unicode="d" horiz-adv-x="900" d="M32 93q0 25 8 56l187 701q40 150 191 150h400q50 0 63 50l67 250q27 100 127 100q79 0 79 -62q0 -17 -6 -38l-308 -1150q-40 -150 -191 -150h-499q-118 0 -118 93zM373 632q0 -31 40 -31q117 -1 117 -94q0 -25 -8 -57l-42 -150q-5 -21 -5 -37q0 -63 79 -64q100 1 126 99 l106 400q6 21 6 38q0 62 -78 64h-200q-100 0 -126 -100l-12 -49q-3 -10 -3 -19z" />
<glyph unicode="e" horiz-adv-x="900" d="M32 93q0 25 8 56l188 701q40 150 191 150h500q118 0 118 -93q0 -25 -8 -56l-81 -303q-40 -149 -190 -149l-200 -1q-49 0 -63 -50l-27 -97q-3 -10 -3 -19q0 -31 39 -32l99 1q50 0 63 49q27 100 128 100q79 0 79 -62q0 -17 -6 -38l-27 -100q-40 -150 -191 -150h-499 q-118 0 -118 93zM372 630q0 -31 40 -31l249 -2q99 1 126 101q6 21 6 38q0 62 -78 64h-250q-51 0 -64 -49l-26 -102q-3 -10 -3 -19z" />
<glyph unicode="f" horiz-adv-x="700" d="M21 62q0 17 6 38l107 400q27 100 127 100h50q50 0 63 50l27 100q3 10 3 19q0 31 -40 31h-50q-79 0 -79 62q0 17 6 38q27 100 127 100h50q50 0 63 50l54 200q40 151 191 151l249 -1q79 0 79 -63q0 -16 -5 -37q-26 -100 -126 -100h-100q-102 -1 -128 -100l-14 -50 q-2 -10 -2 -17q0 -33 40 -33h49q79 0 79 -63q0 -16 -5 -37q-26 -99 -128 -100h-50q-50 0 -63 -51l-174 -649q-27 -100 -127 -100h-200q-79 0 -79 62z" />
<glyph unicode="g" horiz-adv-x="900" d="M14 -338q0 17 6 38q26 100 126 100h300q100 0 127 100l14 50q3 10 3 19q0 31 -40 31h-400q-118 0 -118 93q0 25 8 56l187 701q40 150 191 150h500q118 0 118 -93q0 -25 -8 -56l-295 -1101q-40 -150 -190 -150h-450q-79 0 -79 62zM372 632q0 -31 40 -31q117 -1 117 -94 q0 -25 -8 -57l-41 -150q-5 -21 -5 -37q0 -63 79 -64q100 1 126 99l106 400q6 21 6 38q0 62 -78 64h-200q-100 0 -126 -100l-13 -49q-3 -10 -3 -19z" />
<glyph unicode="h" horiz-adv-x="900" d="M21 62q0 17 6 38l321 1200q27 100 127 100q79 0 79 -62q0 -17 -6 -38l-80 -300h450q118 0 118 -93q0 -25 -8 -57l-201 -750q-27 -100 -127 -100q-79 0 -79 62q0 17 6 38l161 600q5 21 5 37q0 63 -79 63h-250q-50 0 -63 -50l-27 -100q-3 -10 -3 -19q0 -31 40 -31 q118 0 118 -93q0 -25 -8 -57l-94 -350q-27 -100 -127 -100h-200q-79 0 -79 62z" />
<glyph unicode="i" horiz-adv-x="500" d="M21 62q0 17 6 38l214 800q27 100 127 100q79 0 79 -62q0 -17 -6 -38l-67 -250q-3 -10 -3 -19q0 -31 40 -31q118 0 118 -93q0 -25 -8 -57l-94 -350q-27 -100 -127 -100h-200q-79 0 -79 62zM316 1162q0 17 6 38l26 100q27 100 127 100h200q79 0 79 -62q0 -17 -6 -38 l-26 -100q-27 -100 -127 -100h-200q-79 0 -79 62z" />
<glyph unicode="j" horiz-adv-x="500" d="M-186 -338q0 17 6 38q26 100 126 100h100q100 0 127 100l14 50q3 10 3 19q0 31 -40 31h-50q-79 0 -79 62q0 17 6 38l214 800q27 100 127 100q79 0 79 -62q0 -17 -6 -38l-67 -250q-3 -10 -3 -19q0 -31 40 -31q118 0 118 -93q0 -25 -8 -57l-188 -700q-40 -150 -190 -150 h-250q-79 0 -79 62zM316 1162q0 17 6 38l26 100q27 100 127 100h200q79 0 79 -62q0 -17 -6 -38l-26 -100q-27 -100 -127 -100h-200q-79 0 -79 62z" />
<glyph unicode="k" horiz-adv-x="900" d="M21 62q0 17 6 38l321 1200q27 100 127 100q79 0 79 -62q0 -17 -6 -38l-174 -650q-3 -10 -3 -19q0 -31 40 -31h100q50 0 63 50l67 250q27 100 127 100q79 0 79 -62q0 -17 -6 -38l-67 -250q-3 -10 -3 -19q0 -31 40 -31q118 0 118 -93q0 -25 -8 -57l-94 -350 q-27 -100 -127 -100q-79 0 -79 62q0 17 6 38l53 200q6 21 6 38q0 62 -79 62h-50q-50 0 -63 -50l-67 -250q-27 -100 -127 -100h-200q-79 0 -79 62z" />
<glyph unicode="l" horiz-adv-x="500" d="M21 62q0 17 6 38l321 1200q27 100 127 100q79 0 79 -62q0 -17 -6 -38l-67 -250q-3 -10 -3 -19q0 -31 40 -31q118 0 118 -93q0 -25 -8 -57l-201 -750q-27 -100 -127 -100h-200q-79 0 -79 62z" />
<glyph unicode="m" horiz-adv-x="1300" d="M21 62q0 17 6 38l200 750q40 150 191 150h900q118 0 118 -93q0 -25 -8 -56l-201 -751q-27 -100 -127 -100q-79 0 -79 62q0 17 6 38l159 598q6 21 6 38q0 62 -78 64h-150q-50 0 -63 -50l-174 -650q-27 -100 -127 -100q-79 0 -79 62q0 17 6 38l174 650q3 10 3 19 q0 31 -40 31h-150q-100 0 -126 -100l-13 -49q-3 -10 -3 -19q0 -31 40 -31q117 -1 117 -94q0 -25 -8 -57l-94 -350q-27 -100 -127 -100h-200q-79 0 -79 62z" />
<glyph unicode="n" horiz-adv-x="900" d="M21 62q0 17 6 38l200 750q40 150 191 150h500q118 0 118 -93q0 -25 -8 -56l-201 -751q-27 -100 -127 -100q-79 0 -79 62q0 17 6 38l159 598q6 21 6 38q0 62 -78 64h-200q-100 0 -126 -100l-13 -49q-3 -10 -3 -19q0 -31 40 -31q117 -1 117 -94q0 -25 -8 -57l-94 -350 q-27 -100 -127 -100h-200q-79 0 -79 62z" />
<glyph unicode="o" horiz-adv-x="900" d="M32 93q0 25 8 56l187 701q40 150 191 150h500q118 0 118 -93q0 -25 -8 -56l-188 -701q-40 -150 -191 -150h-499q-118 0 -118 93zM372 632q0 -31 40 -31q117 -1 117 -94q0 -25 -8 -57l-41 -150q-5 -21 -5 -37q0 -63 79 -64q100 1 126 99l106 400q6 21 6 38q0 62 -78 64 h-200q-100 0 -126 -100l-13 -49q-3 -10 -3 -19z" />
<glyph unicode="p" horiz-adv-x="900" d="M-86 -338q0 17 6 38l307 1150q40 150 191 150h500q118 0 118 -93q0 -25 -8 -56l-188 -701q-40 -150 -191 -150h-399q-50 0 -63 -50l-67 -250q-27 -100 -127 -100q-79 0 -79 62zM372 632q0 -31 40 -31q117 -1 117 -94q0 -25 -8 -57l-41 -150q-5 -21 -5 -37q0 -63 79 -64 q100 1 126 99l106 400q6 21 6 38q0 62 -78 64h-200q-100 0 -126 -100l-13 -49q-3 -10 -3 -19z" />
<glyph unicode="q" horiz-adv-x="900" d="M32 93q0 25 8 56l187 701q40 150 191 150h500q118 0 118 -93q0 -25 -8 -56l-308 -1151q-27 -100 -127 -100q-79 0 -79 62q0 17 6 38l67 250q3 10 3 19q0 31 -40 31h-400q-118 0 -118 93zM372 632q0 -31 40 -31q117 -1 117 -94q0 -25 -8 -57l-41 -150q-5 -21 -5 -37 q0 -63 79 -64q100 1 126 99l106 400q6 21 6 38q0 62 -78 64h-200q-100 0 -126 -100l-13 -49q-3 -10 -3 -19z" />
<glyph unicode="r" horiz-adv-x="800" d="M21 62q0 17 6 38l200 750q40 150 191 150h450q79 0 79 -62q0 -17 -6 -38q-27 -100 -127 -100h-300q-100 0 -126 -100l-13 -49q-3 -10 -3 -19q0 -31 40 -31q117 -1 117 -94q0 -25 -8 -57l-94 -350q-27 -100 -127 -100h-200q-79 0 -79 62z" />
<glyph unicode="s" horiz-adv-x="900" d="M31 94q0 25 8 56l28 100q28 100 127 100q78 0 78 -62q0 -17 -6 -39q-3 -10 -3 -19q0 -31 39 -31l102 1q99 0 125 100q6 21 6 38q0 61 -77 61l-201 1q-118 0 -118 93q0 25 8 57l80 298q40 149 190 149h499q119 0 119 -94q0 -25 -8 -56l-27 -99q-27 -101 -127 -101 q-79 0 -79 63q0 17 6 38q3 11 3 19q0 30 -39 30h-250q-100 0 -127 -98q-5 -20 -5 -36q0 -63 79 -63l351 -1q118 0 118 -92q0 -26 -9 -58l-81 -300q-40 -149 -190 -149h-500q-119 0 -119 94z" />
<glyph unicode="t" horiz-adv-x="700" d="M221 62q0 17 6 38l174 650q3 10 3 19q0 31 -40 31h-50q-79 0 -79 62q0 17 6 38q27 100 127 100h50q50 0 63 50l67 250q27 100 127 100q79 0 79 -62q0 -17 -6 -38l-67 -250q-2 -10 -2 -17q0 -33 40 -33h49q79 0 79 -63q0 -16 -5 -37q-26 -99 -128 -100h-50q-50 0 -63 -51 l-27 -99q-3 -10 -3 -19q0 -31 40 -31h50q79 0 79 -62q0 -17 -6 -38l-107 -400q-27 -100 -127 -100h-200q-79 0 -79 62z" />
<glyph unicode="u" horiz-adv-x="900" d="M32 93q0 25 8 56l201 751q27 99 127 100q79 0 79 -62q0 -17 -6 -38l-66 -249q-3 -10 -3 -19q0 -31 40 -31q117 -1 117 -94q0 -25 -8 -57l-41 -150q-5 -21 -5 -37q0 -63 79 -64q100 1 126 99l161 602q27 100 127 100q79 0 79 -62q0 -17 -6 -38l-201 -750 q-40 -150 -191 -150h-499q-118 0 -118 93z" />
<glyph unicode="v" horiz-adv-x="900" d="M32 93q0 25 8 57l201 751q27 99 127 99q79 0 79 -62q0 -17 -6 -38l-68 -250q-2 -10 -2 -17q0 -33 40 -33q118 0 118 -93q0 -25 -8 -57l-53 -200q-3 -10 -3 -19q0 -31 39 -31q25 1 88 50l63 50q32 25 45 75l141 525q27 100 128 101q78 -1 78 -63q0 -17 -6 -38l-161 -600 q-13 -50 -76 -100l-191 -150q-62 -50 -113 -50h-350q-118 0 -118 93z" />
<glyph unicode="w" horiz-adv-x="1300" d="M31 94q0 25 8 56l202 750q27 100 127 100q79 0 79 -62q0 -17 -6 -38l-67 -250q-3 -10 -3 -19q0 -31 40 -31q118 0 118 -93q0 -25 -8 -57l-54 -200q-3 -10 -3 -19q0 -31 40 -31q50 0 63 50l174 650q27 100 127 100q79 0 79 -62q0 -17 -6 -38l-174 -650q-3 -10 -3 -19 q0 -31 40 -31h150q99 2 126 102l161 598q27 100 127 100q79 0 79 -62q0 -17 -6 -38l-201 -751q-40 -149 -190 -149h-900q-119 0 -119 94z" />
<glyph unicode="x" horiz-adv-x="900" d="M21 62q0 17 6 38l67 250q27 100 140 150q-66 38 -66 105q0 21 6 45l67 250q27 100 127 100q79 0 79 -61q0 -17 -6 -38l-67 -251q-3 -10 -3 -19q0 -31 40 -31h300q50 0 63 50l67 250q27 100 127 100q79 0 79 -62q0 -17 -6 -38l-67 -250q-27 -100 -140 -150q66 -38 66 -105 q0 -21 -6 -45l-67 -250q-27 -100 -127 -100q-79 0 -79 62q0 17 6 38l67 250q2 10 2 17q0 32 -39 33h-150q-50 0 -63 -50l-67 -250q-27 -100 -131 -100h-146q-79 0 -79 62z" />
<glyph unicode="y" horiz-adv-x="900" d="M14 -338q0 17 6 38q26 100 126 100h300q100 0 127 100l14 50q3 10 3 19q0 31 -40 31h-400q-118 0 -118 93q0 25 8 56l201 751q27 100 127 100q79 0 79 -62q0 -17 -6 -38l-66 -249q-3 -10 -3 -19q0 -31 40 -31q117 -1 117 -94q0 -25 -8 -57l-41 -150q-5 -21 -5 -37 q0 -63 79 -64q100 1 126 99l161 601q27 101 127 101q79 0 79 -62q0 -17 -6 -38l-308 -1150q-40 -150 -190 -150h-450q-79 0 -79 62z" />
<glyph unicode="z" horiz-adv-x="900" d="M32 93q0 25 8 56l54 201q28 101 190 150l390 151q114 49 127 99q3 10 3 18q0 30 -40 32h-300q-50 -3 -64 -52q-27 -101 -127 -101q-79 0 -79 63q0 17 6 38l27 99q40 150 191 150h499q118 0 118 -93q0 -25 -8 -56l-66 -247q-20 -76 -190 -150l-228 -102q-112 -50 -125 -99 q-3 -10 -3 -18q0 -31 39 -31h51l99 -2q49 0 64 50q27 101 126 101q78 0 78 -63q0 -16 -5 -37l-26 -100q-40 -150 -191 -150h-500q-118 0 -118 93z" />
<glyph unicode="{" horiz-adv-x="800" d="M128 -108q0 25 8 57l175 651q2 10 2 17q0 32 -39 33q-79 0 -79 62q0 17 6 38q27 100 127 100q50 0 63 50l148 550q39 149 190 150h300q79 0 79 -62q0 -17 -6 -38q-27 -100 -127 -100h-150q-100 0 -127 -100l-107 -400q-3 -10 -3 -19q0 -31 40 -31q118 0 118 -93 q0 -25 -8 -57l-175 -650q-3 -10 -3 -19q0 -31 40 -31q79 0 79 -62q0 -17 -6 -38q-27 -100 -127 -100l-301 -2q-117 1 -117 94z" />
<glyph unicode="|" horiz-adv-x="300" d="M-33 -138q0 17 6 38l429 1600q27 100 127 100q79 0 79 -62q0 -17 -6 -38l-429 -1600q-27 -100 -127 -100q-79 0 -79 62z" />
<glyph unicode="}" horiz-adv-x="800" d="M-33 -138q0 17 6 38q27 100 127 100q50 0 63 50l175 650q40 150 190 150q50 0 63 50l107 400q6 21 6 38q0 62 -79 62h-150q-79 0 -79 62q0 17 6 38q27 100 127 100h300q118 -1 118 -95q0 -24 -8 -55l-148 -550q-3 -10 -3 -19q0 -31 40 -31q79 0 79 -62q0 -17 -6 -38 q-27 -100 -127 -100q-49 -1 -63 -50l-175 -651q-40 -150 -189 -151l-301 2q-79 0 -79 62z" />
<glyph unicode="~" horiz-adv-x="900" d="M423 1562q0 17 6 38l27 100q26 100 126 100h250q50 0 87 -50t87 -50t63 50t63 50h50q78 0 78 -61q0 -17 -5 -37l-27 -102q-27 -100 -121 -100h-255q-50 0 -87 50q-36 50 -86 50t-64 -50q-13 -50 -63 -50h-50q-79 0 -79 62z" />
<glyph unicode="&#xa1;" horiz-adv-x="500" d="M139 493q0 25 8 57l94 350q27 100 127 100h200q79 0 79 -62q0 -17 -6 -38l-214 -800q-27 -100 -127 -100q-79 0 -79 62q0 17 6 38l67 250q3 10 3 19q0 31 -40 31q-118 0 -118 93zM316 1162q0 17 6 38l26 100q27 100 127 100h200q79 0 79 -62q0 -17 -6 -38l-26 -100 q-27 -100 -127 -100h-200q-79 0 -79 62z" />
<glyph unicode="&#xa2;" horiz-adv-x="900" d="M87 293q0 25 8 56l186 701q41 150 192 150h99q50 0 63 50l13 50q27 100 127 100q79 0 79 -62q0 -17 -6 -38l-13 -50q-3 -10 -3 -19q0 -31 40 -31h101q118 0 118 -93q0 -25 -8 -56l-27 -101q-27 -100 -127 -100q-78 0 -78 63q0 16 5 37q2 9 2 16q0 32 -39 34h-250 q-100 0 -127 -100l-12 -49q-3 -10 -3 -19q0 -31 40 -31q117 -1 117 -94q0 -25 -9 -57l-40 -150q-6 -21 -6 -38q0 -62 80 -63l50 1q49 0 63 50q26 100 126 100q79 0 79 -63q0 -16 -5 -37l-27 -100q-40 -150 -191 -150h-100q-50 0 -64 -50l-13 -50q-27 -100 -127 -100 q-79 0 -79 62q0 17 6 38l13 50q3 11 3 19q0 31 -39 31h-99q-118 0 -118 93z" />
<glyph unicode="&#xa3;" horiz-adv-x="1000" d="M21 62q0 17 6 38l107 400q27 100 127 100h50q50 0 63 50l27 100q3 10 3 19q0 31 -40 31h-50q-79 0 -79 62q0 17 6 38q27 100 127 100h50q50 0 63 50l54 200q40 151 191 151l249 -1q79 0 79 -63q0 -16 -5 -37q-26 -100 -126 -100h-100q-102 -1 -128 -100l-14 -50 q-2 -10 -2 -17q0 -33 40 -33h49q79 0 79 -63q0 -16 -5 -37q-26 -99 -128 -100h-50q-50 0 -63 -51l-134 -499q-3 -10 -3 -19q0 -31 40 -31h350q79 0 79 -62q0 -17 -6 -38q-27 -100 -127 -100h-700q-79 0 -79 62z" />
<glyph unicode="&#xa4;" d="M21 62q0 17 6 38l134 500q27 100 140 150q-66 38 -66 105q0 21 6 45l107 400q27 100 127 100q79 0 79 -62q0 -17 -5 -37l-108 -401q-3 -10 -3 -19q0 -31 40 -31l26 99q40 150 190 150l301 1q118 -1 118 -95q0 -25 -8 -55l-27 -100q50 0 63 50l107 400q27 100 127 100 q79 0 79 -62q0 -17 -6 -38l-107 -400q-27 -100 -140 -150q66 -38 66 -105q0 -21 -6 -45l-134 -500q-27 -100 -127 -100q-79 0 -79 62q0 17 6 38l134 500q2 10 2 17q0 32 -39 33l-27 -100q-40 -149 -190 -150l-300 -1q-28 0 -49 5l-81 -304q-27 -100 -131 -100h-146 q-79 0 -79 62zM633 663q0 -63 78 -63q100 0 127 100l26 100q6 21 6 38q0 61 -78 61q-100 0 -127 -100l-27 -100q-5 -20 -5 -36z" />
<glyph unicode="&#xa5;" d="M161 212q0 16 6 37q27 101 127 101h125q46 0 57 43l2 7q3 12 3 21q0 29 -35 29h-124q-80 0 -80 63q0 16 5 36q27 101 127 101h125q46 0 60 50q3 10 3 19q0 31 -40 31h-171q-118 0 -118 93q0 25 8 57l107 400q27 100 127 100q79 0 79 -62q0 -17 -5 -37l-68 -251 q-5 -21 -5 -37q0 -63 79 -63h500q100 0 126 100l67 250q27 100 127 100q79 0 79 -62q0 -17 -6 -38l-107 -400q-40 -150 -190 -150h-175q-50 0 -63 -50q-3 -11 -3 -19q0 -31 40 -31h124q79 0 79 -63q0 -16 -5 -37q-26 -99 -127 -100h-125q-50 0 -64 -50q-3 -10 -3 -18 q0 -32 41 -32h124q79 0 79 -63q0 -16 -5 -37q-27 -99 -128 -100h-125q-50 0 -63 -50q-27 -100 -131 -100h-146q-81 0 -81 66q0 15 4 34q3 11 3 20q0 30 -36 30h-124q-80 0 -80 62z" />
<glyph unicode="&#xa6;" horiz-adv-x="300" d="M-33 -138q0 17 6 38l161 600q27 100 127 100q79 0 79 -62q0 -17 -6 -38l-161 -600q-27 -100 -127 -100q-79 0 -79 62zM235 862q0 17 6 38l161 600q27 100 127 100q79 0 79 -62q0 -17 -6 -38l-161 -600q-27 -100 -127 -100q-79 0 -79 62z" />
<glyph unicode="&#xa7;" d="M-22 -108q0 26 9 58l53 200q27 100 128 100q78 0 78 -62q0 -17 -6 -38l-12 -50q-6 -21 -6 -38q0 -62 79 -62l349 -1q49 1 63 51l94 350l-300 -1q-118 0 -118 94q0 25 8 56l27 101h-100q-118 0 -118 93q0 25 8 57l174 650q41 150 190 150h800q118 -1 118 -95q0 -24 -8 -55 l-54 -200q-27 -100 -127 -100q-79 0 -79 62q0 17 6 38l13 50q6 21 6 38q0 62 -79 62h-500q-98 0 -126 -100l-93 -350q-6 -21 -6 -38q0 -39 31 -53l24 90q40 150 190 150l301 1q118 -1 118 -95q0 -25 -8 -55l-27 -100h100q118 0 118 -93q0 -25 -8 -57l-201 -750 q-41 -150 -190 -151l-801 1q-118 0 -118 92zM633 663q0 -63 78 -63q100 0 127 100l26 100q6 21 6 38q0 61 -78 61q-100 0 -127 -100l-27 -100q-5 -20 -5 -36z" />
<glyph unicode="&#xa8;" horiz-adv-x="1000" d="M423 1562q0 17 6 38l27 100q26 100 126 100h200q79 0 79 -63q0 -16 -5 -37l-27 -100q-27 -100 -127 -100h-200q-79 0 -79 62zM923 1562q0 17 6 38l27 100q26 100 126 100h200q79 0 79 -63q0 -16 -5 -37l-27 -100q-27 -100 -127 -100h-200q-79 0 -79 62z" />
<glyph unicode="&#xa9;" horiz-adv-x="1250" d="M139 494q0 25 8 56l269 1000q41 150 191 150h851q117 -1 117 -94q0 -25 -9 -57l-269 -1000q-40 -149 -190 -150l-850 1q-118 0 -118 94zM384 662q0 -62 77 -62h550q100 0 126 99l189 700q6 21 6 38q0 62 -80 63h-548q-100 0 -127 -100l-188 -700q-5 -21 -5 -38zM504 747 q0 12 4 28l147 550q20 75 95 75h400q59 0 59 -47q0 -12 -4 -28l-27 -100q-13 -50 -63 -50q-40 0 -40 31q0 9 3 19l7 25q2 10 2 18q0 32 -39 32h-250q-50 0 -63 -50l-27 -100q-1 -5 -1 -9q0 -16 20 -16q60 0 60 -47q0 -12 -4 -27l-62 -226q-1 -5 -1 -9q0 -16 19 -16h175 q50 0 64 50l6 25q14 50 64 50q39 0 39 -31q0 -8 -3 -19l-26 -100q-20 -75 -95 -75h-400q-59 0 -59 47z" />
<glyph unicode="&#xaa;" horiz-adv-x="1650" d="M0 200v1100q0 200 200 200h1100q200 0 200 -200v-1100q0 -200 -200 -200h-1100q-200 0 -200 200zM25 200q1 -175 175 -175h1101q174 0 174 176v1099q0 175 -175 175h-1100q-174 0 -175 -175v-1100z" />
<glyph unicode="&#xab;" horiz-adv-x="2100" d="M143 519q0 15 4 31l81 300q27 100 190 150l554 200q276 100 326 100h50q79 0 79 -63q0 -16 -5 -37q-27 -100 -191 -150l-537 -187q-98 -38 -143 -113l-27 -100q5 -75 83 -113l437 -187q114 -42 114 -119q0 -15 -4 -31q-27 -100 -127 -100h-50q-50 0 -273 100l-447 200 q-114 42 -114 119zM1043 519q0 15 4 31l81 300q27 100 190 150l554 200q276 100 326 100h50q79 0 79 -63q0 -16 -5 -37q-27 -100 -191 -150l-537 -187q-98 -38 -143 -113l-27 -100q5 -75 83 -113l437 -187q114 -42 114 -119q0 -15 -4 -31q-27 -100 -127 -100h-50 q-50 0 -273 100l-447 200q-114 42 -114 119z" />
<glyph unicode="&#xac;" horiz-adv-x="1650" d="M0 200v1100q0 200 200 200h1100q200 0 200 -200v-1100q0 -200 -200 -200h-1100q-200 0 -200 200zM25 200q1 -175 175 -175h1101q174 0 174 176v1099q0 175 -175 175h-1100q-174 0 -175 -175v-1100z" />
<glyph unicode="&#xad;" horiz-adv-x="1000" d="M195 712q0 16 6 37q27 101 127 101h700q79 0 79 -63q0 -16 -5 -37q-27 -99 -128 -100h-699q-80 0 -80 62z" />
<glyph unicode="&#xae;" horiz-adv-x="1250" d="M139 494q0 25 8 56l269 1000q41 150 191 150h851q117 -1 117 -94q0 -25 -9 -57l-269 -1000q-40 -149 -190 -150l-850 1q-118 0 -118 94zM384 662q0 -62 77 -62h550q100 0 126 99l189 700q6 21 6 38q0 62 -80 63h-548q-100 0 -127 -100l-188 -700q-5 -21 -5 -38zM498 731 q0 9 3 19l161 600q13 50 63 50h325q59 0 59 -47q0 -12 -4 -28l-47 -175q-2 -5 -2 -10q0 -15 20 -15q59 0 59 -47q0 -12 -4 -28l-80 -300q-13 -50 -63 -50q-40 0 -40 31q0 9 3 19l60 225q3 11 3 19q0 31 -39 31h-200q-25 0 -32 -25l-67 -250q-13 -50 -65 -50h-73 q-40 0 -40 31zM706 1140q0 -15 20 -15h200q25 0 32 25l20 75q4 16 4 28q0 47 -59 47h-150q-25 0 -31 -25l-34 -125q-2 -5 -2 -10z" />
<glyph unicode="&#xaf;" horiz-adv-x="1650" d="M0 200v1100q0 200 200 200h1100q200 0 200 -200v-1100q0 -200 -200 -200h-1100q-200 0 -200 200zM25 200q1 -175 175 -175h1101q174 0 174 176v1099q0 175 -175 175h-1100q-174 0 -175 -175v-1100z" />
<glyph unicode="&#xb0;" horiz-adv-x="600" d="M459 1682q0 32 10 68q28 104 120.5 177t196.5 73t158 -73q35 -48 35 -109q0 -32 -10 -68q-28 -104 -120.5 -177t-196.5 -73t-157 73q-36 48 -36 109zM667 1736q0 -12 7 -21q11 -15 32 -15t39 14.5t24 35.5q2 7 2 14q0 12 -7 22q-11 14 -32 14t-39 -14.5t-24 -35.5 q-2 -7 -2 -14z" />
<glyph unicode="&#xb1;" horiz-adv-x="1000" d="M34 112q0 16 6 37q27 101 127 101h700q79 0 79 -63q0 -16 -5 -37q-26 -99 -128 -100h-699q-80 0 -80 62zM222 813q0 16 5 36q28 101 128 101h100q50 0 63 50l67 250q27 100 127 100h200q79 0 79 -62q0 -17 -6 -38l-67 -250q-3 -10 -3 -19q0 -31 40 -31h100q79 0 79 -63 q0 -16 -5 -37q-27 -99 -128 -100h-100q-50 0 -63 -50l-67 -250q-27 -100 -127 -100h-200q-79 0 -79 62q0 17 6 38l67 250q3 10 3 19q0 31 -39 31h-100q-80 0 -80 63z" />
<glyph unicode="&#xb2;" horiz-adv-x="1650" d="M0 200v1100q0 200 200 200h1100q200 0 200 -200v-1100q0 -200 -200 -200h-1100q-200 0 -200 200zM25 200q1 -175 175 -175h1101q174 0 174 176v1099q0 175 -175 175h-1100q-174 0 -175 -175v-1100z" />
<glyph unicode="&#xb3;" horiz-adv-x="1650" d="M0 200v1100q0 200 200 200h1100q200 0 200 -200v-1100q0 -200 -200 -200h-1100q-200 0 -200 200zM25 200q1 -175 175 -175h1101q174 0 174 176v1099q0 175 -175 175h-1100q-174 0 -175 -175v-1100z" />
<glyph unicode="&#xb4;" horiz-adv-x="500" d="M423 1562q0 17 6 38l53 200q7 25 39 51l31 24q32 25 57 25h200q79 0 79 -62q0 -17 -6 -38q-13 -50 -45 -75l-253 -200q-32 -25 -82 -25q-79 0 -79 62z" />
<glyph unicode="&#xb5;" horiz-adv-x="900" d="M-86 -338q0 17 6 38l321 1200q27 99 127 100q79 0 79 -62q0 -17 -6 -38l-66 -249q-3 -10 -3 -19q0 -31 40 -31q117 -1 117 -94q0 -25 -8 -57l-41 -150q-5 -21 -5 -37q0 -63 79 -64q100 1 126 99l161 602q27 100 127 100q79 0 79 -62q0 -17 -6 -38l-201 -750 q-40 -150 -191 -150h-399q-50 0 -63 -50l-67 -250q-27 -100 -127 -100q-79 0 -79 62z" />
<glyph unicode="&#xb6;" horiz-adv-x="1100" d="M206 745q0 24 8 55l121 450q40 150 190 150h700q119 0 119 -94q0 -25 -8 -57l-309 -1150q-27 -99 -128 -99l-198 2q-79 0 -79 63q0 16 5 36l267 998q3 11 3 20q0 31 -39 31q-50 0 -63 -50l-268 -1000q-27 -100 -127 -100q-79 0 -79 62q0 17 6 38l134 500q3 10 3 19 q0 31 -40 31h-100q-118 2 -118 95z" />
<glyph unicode="&#xb7;" horiz-adv-x="500" d="M182 662q0 17 6 38l26 100q27 100 127 100h200q79 0 79 -62q0 -17 -6 -38l-26 -100q-27 -100 -127 -100h-200q-79 0 -79 62z" />
<glyph unicode="&#xb8;" horiz-adv-x="600" d="M-86 -338q0 17 6 38q26 100 126 100h100q100 0 127 100q6 21 6 38q0 62 -79 62t-79 62q0 17 6 38q27 100 127 100h150q118 0 118 -92q0 -26 -9 -58l-80 -300q-40 -150 -190 -150h-250q-79 0 -79 62z" />
<glyph unicode="&#xb9;" horiz-adv-x="1650" d="M0 200v1100q0 200 200 200h1100q200 0 200 -200v-1100q0 -200 -200 -200h-1100q-200 0 -200 200zM25 200q1 -175 175 -175h1101q174 0 174 176v1099q0 175 -175 175h-1100q-174 0 -175 -175v-1100z" />
<glyph unicode="&#xba;" horiz-adv-x="1650" d="M0 200v1100q0 200 200 200h1100q200 0 200 -200v-1100q0 -200 -200 -200h-1100q-200 0 -200 200zM25 200q1 -175 175 -175h1101q174 0 174 176v1099q0 175 -175 175h-1100q-174 0 -175 -175v-1100z" />
<glyph unicode="&#xbb;" horiz-adv-x="2100" d="M48 162q0 17 6 38q26 100 190 150l537 187q98 38 143 113l27 100q-5 75 -83 113l-437 187q-113 42 -113 118q0 15 4 32q26 100 126 100h50q50 0 274 -100l446 -200q114 -42 114 -118q0 -16 -4 -32l-81 -300q-26 -100 -190 -150l-553 -200q-277 -100 -327 -100h-50 q-79 0 -79 62zM948 162q0 17 6 38q26 100 190 150l537 187q98 38 143 113l27 100q-5 75 -83 113l-437 187q-113 42 -113 118q0 15 4 32q26 100 126 100h50q50 0 274 -100l446 -200q114 -42 114 -118q0 -16 -4 -32l-81 -300q-26 -100 -190 -150l-553 -200 q-277 -100 -327 -100h-50q-79 0 -79 62z" />
<glyph unicode="&#xbc;" horiz-adv-x="1650" d="M0 200v1100q0 200 200 200h1100q200 0 200 -200v-1100q0 -200 -200 -200h-1100q-200 0 -200 200zM25 200q1 -175 175 -175h1101q174 0 174 176v1099q0 175 -175 175h-1100q-174 0 -175 -175v-1100z" />
<glyph unicode="&#xbd;" horiz-adv-x="1650" d="M0 200v1100q0 200 200 200h1100q200 0 200 -200v-1100q0 -200 -200 -200h-1100q-200 0 -200 200zM25 200q1 -175 175 -175h1101q174 0 174 176v1099q0 175 -175 175h-1100q-174 0 -175 -175v-1100z" />
<glyph unicode="&#xbe;" horiz-adv-x="1650" d="M0 200v1100q0 200 200 200h1100q200 0 200 -200v-1100q0 -200 -200 -200h-1100q-200 0 -200 200zM25 200q1 -175 175 -175h1101q174 0 174 176v1099q0 175 -175 175h-1100q-174 0 -175 -175v-1100z" />
<glyph unicode="&#xbf;" horiz-adv-x="1100" d="M32 94q0 25 8 57l121 450q40 148 190 150l351 2q100 0 127 100l13 51q28 99 127 99h199q80 0 80 -62q0 -16 -6 -37l-54 -201q-40 -150 -190 -150l-550 -2q-100 0 -127 -100l-40 -150q-6 -21 -6 -38q0 -62 79 -62h399q101 1 128 100l14 52q26 100 126 100q79 0 79 -63 q0 -16 -5 -37l-55 -202q-40 -151 -191 -151l-699 1q-118 0 -118 93zM917 1166q0 16 5 37l27 100q27 100 127 100h200q79 0 79 -62q0 -17 -6 -38l-27 -100q-26 -100 -126 -100h-200q-79 0 -79 63z" />
<glyph unicode="&#xc0;" d="M21 62q0 17 6 38l161 600q40 150 190 150l107 400q40 150 190 150h500q118 0 118 -93q0 -25 -8 -57l-107 -400q118 0 118 -93q0 -25 -8 -57l-161 -600q-27 -100 -127 -100q-79 0 -79 62q0 17 6 38l120 450q5 21 5 37q0 62 -78 63h-300q-82 -6 -127 -100l-120 -450 q-27 -100 -131 -100h-196q-79 0 -79 62zM588 882q0 -31 40 -31l300 -1q50 0 63 50l54 200q6 21 6 38q0 62 -79 62h-200q-100 0 -127 -100l-54 -199q-3 -10 -3 -19zM827 1762q0 17 5 38q27 100 127 100h200q25 0 44 -25l18 -24q13 -19 13 -37q0 -7 -2 -14l-53 -200 q-27 -100 -127 -100q-50 0 -68 25l-147 200q-10 15 -10 37z" />
<glyph unicode="&#xc1;" d="M21 62q0 17 6 38l161 600q40 150 190 150l107 400q40 150 190 150h500q118 0 118 -93q0 -25 -8 -57l-107 -400q118 0 118 -93q0 -25 -8 -57l-161 -600q-27 -100 -127 -100q-79 0 -79 62q0 17 6 38l120 450q5 21 5 37q0 62 -78 63h-300q-82 -6 -127 -100l-120 -450 q-27 -100 -131 -100h-196q-79 0 -79 62zM588 882q0 -31 40 -31l300 -1q50 0 63 50l54 200q6 21 6 38q0 62 -79 62h-200q-100 0 -127 -100l-54 -199q-3 -10 -3 -19zM773 1562q0 17 6 38l53 200q7 25 39 51l31 24q32 25 57 25h200q79 0 79 -62q0 -17 -6 -38q-13 -50 -45 -75 l-253 -200q-32 -25 -82 -25q-79 0 -79 62z" />
<glyph unicode="&#xc2;" d="M21 62q0 17 6 38l161 600q40 150 190 150l107 400q40 150 190 150h500q118 0 118 -93q0 -25 -8 -57l-107 -400q118 0 118 -93q0 -25 -8 -57l-161 -600q-27 -100 -127 -100q-79 0 -79 62q0 17 6 38l120 450q5 21 5 37q0 62 -78 63h-300q-82 -6 -127 -100l-120 -450 q-27 -100 -131 -100h-196q-79 0 -79 62zM588 882q0 -31 40 -31l300 -1q50 0 63 50l54 200q6 21 6 38q0 62 -79 62h-200q-100 0 -127 -100l-54 -199q-3 -10 -3 -19zM612 1531q0 9 3 19l14 50q10 35 38 50l184 125q56 25 81 25h200q25 0 69 -25l116 -125q15 -10 15 -31 q0 -9 -3 -19l-14 -50q-13 -50 -63 -50h-125q-25 0 -43 25q-55 75 -80 75h-50q-25 0 -120 -75q-32 -25 -57 -25h-125q-40 0 -40 31z" />
<glyph unicode="&#xc3;" d="M21 62q0 17 6 38l161 600q40 150 190 150l107 400q40 150 190 150h500q118 0 118 -93q0 -25 -8 -57l-107 -400q118 0 118 -93q0 -25 -8 -57l-161 -600q-27 -100 -127 -100q-79 0 -79 62q0 17 6 38l120 450q5 21 5 37q0 62 -78 63h-300q-82 -6 -127 -100l-120 -450 q-27 -100 -131 -100h-196q-79 0 -79 62zM573 1562q0 17 6 38l27 100q26 100 126 100h250q50 0 87 -50t87 -50t63 50t63 50h50q79 0 79 -63q0 -16 -5 -37l-27 -100q-27 -100 -122 -100h-255q-50 0 -87 50q-36 50 -86 50t-64 -50q-13 -50 -63 -50h-50q-79 0 -79 62zM588 882 q0 -31 40 -31l300 -1q50 0 63 50l54 200q6 21 6 38q0 62 -79 62h-200q-100 0 -127 -100l-54 -199q-3 -10 -3 -19z" />
<glyph unicode="&#xc4;" d="M21 62q0 17 6 38l161 600q40 150 190 150l107 400q40 150 190 150h500q118 0 118 -93q0 -25 -8 -57l-107 -400q118 0 118 -93q0 -25 -8 -57l-161 -600q-27 -100 -127 -100q-79 0 -79 62q0 17 6 38l120 450q5 21 5 37q0 62 -78 63h-300q-82 -6 -127 -100l-120 -450 q-27 -100 -131 -100h-196q-79 0 -79 62zM523 1562q0 17 6 38l27 100q26 100 126 100h200q79 0 79 -63q0 -16 -5 -37l-27 -100q-27 -100 -127 -100h-200q-79 0 -79 62zM588 882q0 -31 40 -31l300 -1q50 0 63 50l54 200q6 21 6 38q0 62 -79 62h-200q-100 0 -127 -100l-54 -199 q-3 -10 -3 -19zM1023 1562q0 17 6 38l27 100q26 100 126 100h200q79 0 79 -63q0 -16 -5 -37l-27 -100q-27 -100 -127 -100h-200q-79 0 -79 62z" />
<glyph unicode="&#xc5;" d="M21 62q0 17 6 38l161 600q40 150 190 150l107 400q40 150 190 150h500q118 0 118 -93q0 -25 -8 -57l-107 -400q118 0 118 -93q0 -25 -8 -57l-161 -600q-27 -100 -127 -100q-79 0 -79 62q0 17 6 38l120 450q5 21 5 37q0 62 -78 63h-300q-82 -6 -127 -100l-120 -450 q-27 -100 -131 -100h-196q-79 0 -79 62zM588 882q0 -31 40 -31l300 -1q50 0 63 50l54 200q6 21 6 38q0 62 -79 62h-200q-100 0 -127 -100l-54 -199q-3 -10 -3 -19zM759 1682q0 32 10 68q28 104 120.5 177t196.5 73t158 -73q35 -48 35 -109q0 -32 -10 -68 q-28 -104 -120.5 -177t-196.5 -73t-157 73q-36 48 -36 109zM967 1736q0 -12 7 -21q11 -15 32 -15t39 14.5t24 35.5q2 7 2 14q0 12 -7 22q-11 14 -32 14t-39 -14.5t-24 -35.5q-2 -7 -2 -14z" />
<glyph unicode="&#xc6;" horiz-adv-x="1750" d="M21 62q0 17 6 38l161 600q40 150 190 150l107 400q40 150 190 150l1249 -1q79 0 79 -63q0 -16 -5 -37q-27 -100 -127 -100h-500q-91 -1 -121 -81l-62 -231q-1 -4 -1 -7q0 -31 40 -31h549q80 0 80 -64q0 -16 -5 -36q-27 -99 -128 -99l-350 -1q-48 0 -63 -51l-93 -349 q-3 -10 -3 -19q0 -30 38 -31h350q80 0 80 -64q0 -16 -5 -36q-27 -100 -128 -100h-699q-80 0 -80 63q0 16 5 36l148 552h-249q-82 -6 -127 -100l-120 -450q-27 -100 -131 -100h-196q-79 0 -79 62zM588 882q0 -31 40 -31l300 -1q50 0 63 50l54 200q6 21 6 38q0 62 -79 62h-200 q-100 0 -127 -100l-54 -199q-3 -10 -3 -19z" />
<glyph unicode="&#xc7;" d="M32 93q0 25 8 57l295 1100q40 149 190 150h800q118 0 118 -94q0 -25 -8 -56l-54 -200q-26 -100 -126 -100q-79 0 -79 63q0 17 6 38l12 49q5 21 5 38q0 62 -77 62h-500q-100 0 -127 -100l-54 -200q-3 -10 -3 -18q0 -32 41 -32q118 -1 118 -94q0 -24 -8 -55l-122 -451 q-2 -10 -2 -18q0 -32 38 -33h135q8 1 16 1h199q100 0 126 100l15 50q27 100 127 100q79 0 79 -62q0 -17 -6 -38l-54 -200q-40 -150 -190 -150q-50 0 -63 -50l-54 -200q-40 -150 -190 -150h-250q-79 0 -79 62q0 17 6 38q26 100 126 100h100q100 0 127 100q6 21 6 38 q0 57 -66 62l-464 -1q-117 1 -117 94z" />
<glyph unicode="&#xc8;" horiz-adv-x="1000" d="M21 62q0 16 6 37l308 1151q40 151 191 151l649 -1q79 0 79 -63q0 -16 -5 -37q-26 -100 -126 -100h-500q-102 -1 -128 -100l-54 -200q-2 -10 -2 -17q0 -33 40 -33h549q79 0 79 -63q0 -16 -5 -37q-27 -99 -128 -99l-350 -1q-48 0 -62 -51l-94 -349q-3 -10 -3 -18 q0 -31 39 -32h350q79 0 79 -63q0 -16 -5 -37q-27 -100 -128 -100h-699q-80 0 -80 62zM727 1762q0 17 5 38q27 100 127 100h200q25 0 44 -25l18 -24q13 -19 13 -37q0 -7 -2 -14l-53 -200q-27 -100 -127 -100q-50 0 -68 25l-147 200q-10 15 -10 37z" />
<glyph unicode="&#xc9;" horiz-adv-x="1000" d="M21 62q0 16 6 37l308 1151q40 151 191 151l649 -1q79 0 79 -63q0 -16 -5 -37q-26 -100 -126 -100h-500q-102 -1 -128 -100l-54 -200q-2 -10 -2 -17q0 -33 40 -33h549q79 0 79 -63q0 -16 -5 -37q-27 -99 -128 -99l-350 -1q-48 0 -62 -51l-94 -349q-3 -10 -3 -18 q0 -31 39 -32h350q79 0 79 -63q0 -16 -5 -37q-27 -100 -128 -100h-699q-80 0 -80 62zM673 1562q0 17 6 38l53 200q7 25 39 51l31 24q32 25 57 25h200q79 0 79 -62q0 -17 -6 -38q-13 -50 -45 -75l-253 -200q-32 -25 -82 -25q-79 0 -79 62z" />
<glyph unicode="&#xca;" horiz-adv-x="1000" d="M21 62q0 16 6 37l308 1151q40 151 191 151l649 -1q79 0 79 -63q0 -16 -5 -37q-26 -100 -126 -100h-500q-102 -1 -128 -100l-54 -200q-2 -10 -2 -17q0 -33 40 -33h549q79 0 79 -63q0 -16 -5 -37q-27 -99 -128 -99l-350 -1q-48 0 -62 -51l-94 -349q-3 -10 -3 -18 q0 -31 39 -32h350q79 0 79 -63q0 -16 -5 -37q-27 -100 -128 -100h-699q-80 0 -80 62zM512 1531q0 9 3 19l14 50q10 35 38 50l184 125q56 25 81 25h200q25 0 69 -25l116 -125q15 -10 15 -31q0 -9 -3 -19l-14 -50q-13 -50 -63 -50h-125q-25 0 -43 25q-55 75 -80 75h-50 q-25 0 -120 -75q-32 -25 -57 -25h-125q-40 0 -40 31z" />
<glyph unicode="&#xcb;" horiz-adv-x="1000" d="M21 62q0 16 6 37l308 1151q40 151 191 151l649 -1q79 0 79 -63q0 -16 -5 -37q-26 -100 -126 -100h-500q-102 -1 -128 -100l-54 -200q-2 -10 -2 -17q0 -33 40 -33h549q79 0 79 -63q0 -16 -5 -37q-27 -99 -128 -99l-350 -1q-48 0 -62 -51l-94 -349q-3 -10 -3 -18 q0 -31 39 -32h350q79 0 79 -63q0 -16 -5 -37q-27 -100 -128 -100h-699q-80 0 -80 62zM423 1562q0 17 6 38l27 100q26 100 126 100h200q79 0 79 -63q0 -16 -5 -37l-27 -100q-27 -100 -127 -100h-200q-79 0 -79 62zM923 1562q0 17 6 38l27 100q26 100 126 100h200q79 0 79 -63 q0 -16 -5 -37l-27 -100q-27 -100 -127 -100h-200q-79 0 -79 62z" />
<glyph unicode="&#xcc;" horiz-adv-x="500" d="M21 62q0 17 6 38l321 1200q27 100 127 100q79 0 79 -62q0 -17 -6 -38l-107 -400q-3 -10 -3 -19q0 -31 40 -31q118 0 118 -93q0 -25 -8 -57l-161 -600q-27 -100 -127 -100h-200q-79 0 -79 62zM477 1762q0 17 5 38q27 100 127 100h200q25 0 44 -25l18 -24q13 -19 13 -37 q0 -7 -2 -14l-53 -200q-27 -100 -127 -100q-50 0 -68 25l-147 200q-10 15 -10 37z" />
<glyph unicode="&#xcd;" horiz-adv-x="500" d="M21 62q0 17 6 38l321 1200q27 100 127 100q79 0 79 -62q0 -17 -6 -38l-107 -400q-3 -10 -3 -19q0 -31 40 -31q118 0 118 -93q0 -25 -8 -57l-161 -600q-27 -100 -127 -100h-200q-79 0 -79 62zM423 1562q0 17 6 38l53 200q7 25 39 51l31 24q32 25 57 25h200q79 0 79 -62 q0 -17 -6 -38q-13 -50 -45 -75l-253 -200q-32 -25 -82 -25q-79 0 -79 62z" />
<glyph unicode="&#xce;" horiz-adv-x="500" d="M21 62q0 17 6 38l321 1200q27 100 127 100q79 0 79 -62q0 -17 -6 -38l-107 -400q-3 -10 -3 -19q0 -31 40 -31q118 0 118 -93q0 -25 -8 -57l-161 -600q-27 -100 -127 -100h-200q-79 0 -79 62zM262 1531q0 9 3 19l14 50q10 35 38 50l184 125q56 25 81 25h200q25 0 69 -25 l116 -125q15 -10 15 -31q0 -9 -3 -19l-14 -50q-13 -50 -63 -50h-125q-25 0 -43 25q-55 75 -80 75h-50q-25 0 -120 -75q-32 -25 -57 -25h-125q-40 0 -40 31z" />
<glyph unicode="&#xcf;" horiz-adv-x="500" d="M21 62q0 17 6 38l321 1200q27 100 127 100q79 0 79 -62q0 -17 -6 -38l-107 -400q-3 -10 -3 -19q0 -31 40 -31q118 0 118 -93q0 -25 -8 -57l-161 -600q-27 -100 -127 -100h-200q-79 0 -79 62zM173 1562q0 17 6 38l27 100q26 100 126 100h200q79 0 79 -63q0 -16 -5 -37 l-27 -100q-27 -100 -127 -100h-200q-79 0 -79 62zM673 1562q0 17 6 38l27 100q26 100 126 100h200q79 0 79 -63q0 -16 -5 -37l-27 -100q-27 -100 -127 -100h-200q-79 0 -79 62z" />
<glyph unicode="&#xd0;" horiz-adv-x="1400" d="M195 712q0 17 6 38q27 100 127 100h50q50 0 63 50l107 400q27 100 127 100h850q118 0 118 -93q0 -25 -8 -57l-295 -1100q-40 -150 -190 -150h-849q-80 0 -80 62q0 16 6 37l134 501q3 10 3 19q0 31 -40 31h-50q-79 0 -79 62zM639 883q0 -33 40 -33h199q79 0 79 -62 q0 -17 -6 -38q-27 -100 -127 -100q-50 0 -63 -50l-94 -350q-3 -10 -3 -19q0 -31 40 -31h350q100 0 126 100l215 800q6 21 6 38q0 62 -79 62h-550q-51 -1 -64 -50l-67 -250q-2 -10 -2 -17z" />
<glyph unicode="&#xd1;" d="M21 62q0 16 6 37l308 1151q40 151 191 151l799 -1q118 0 118 -93q0 -25 -8 -57l-308 -1150q-27 -100 -127 -100q-79 0 -79 62q0 17 6 38l268 1000q6 21 6 38q0 62 -79 62h-499q-102 -1 -128 -100l-54 -200q-2 -10 -2 -17q0 -33 40 -33q117 0 117 -93q0 -25 -8 -57 l-161 -600q-27 -100 -128 -100h-198q-80 0 -80 62zM573 1562q0 17 6 38l27 100q26 100 126 100h250q50 0 87 -50t87 -50t63 50t63 50h50q79 0 79 -63q0 -16 -5 -37l-27 -100q-27 -100 -122 -100h-255q-50 0 -87 50q-36 50 -86 50t-64 -50q-13 -50 -63 -50h-50q-79 0 -79 62z " />
<glyph unicode="&#xd2;" d="M32 93q0 25 8 56l295 1100q40 150 190 150l801 1q117 -1 117 -94q0 -25 -8 -57l-295 -1100q-40 -149 -190 -150h-800q-118 0 -118 94zM276 261q0 -62 77 -62h500q100 0 127 100l134 501q3 11 3 19q0 31 -39 31q-118 1 -118 93q0 25 8 56l40 150q2 10 2 18q0 32 -38 33 l-350 -1q-100 0 -127 -100l-214 -800q-5 -21 -5 -38zM827 1762q0 17 5 38q27 100 127 100h200q25 0 44 -25l18 -24q13 -19 13 -37q0 -7 -2 -14l-53 -200q-27 -100 -127 -100q-50 0 -68 25l-147 200q-10 15 -10 37z" />
<glyph unicode="&#xd3;" d="M32 93q0 25 8 56l295 1100q40 150 190 150l801 1q117 -1 117 -94q0 -25 -8 -57l-295 -1100q-40 -149 -190 -150h-800q-118 0 -118 94zM276 261q0 -62 77 -62h500q100 0 127 100l134 501q3 11 3 19q0 31 -39 31q-118 1 -118 93q0 25 8 56l40 150q2 10 2 18q0 32 -38 33 l-350 -1q-100 0 -127 -100l-214 -800q-5 -21 -5 -38zM773 1562q0 17 6 38l53 200q7 25 39 51l31 24q32 25 57 25h200q79 0 79 -62q0 -17 -6 -38q-13 -50 -45 -75l-253 -200q-32 -25 -82 -25q-79 0 -79 62z" />
<glyph unicode="&#xd4;" d="M32 93q0 25 8 56l295 1100q40 150 190 150l801 1q117 -1 117 -94q0 -25 -8 -57l-295 -1100q-40 -149 -190 -150h-800q-118 0 -118 94zM276 261q0 -62 77 -62h500q100 0 127 100l134 501q3 11 3 19q0 31 -39 31q-118 1 -118 93q0 25 8 56l40 150q2 10 2 18q0 32 -38 33 l-350 -1q-100 0 -127 -100l-214 -800q-5 -21 -5 -38zM612 1531q0 9 3 19l14 50q10 35 38 50l184 125q56 25 81 25h200q25 0 69 -25l116 -125q15 -10 15 -31q0 -9 -3 -19l-14 -50q-13 -50 -63 -50h-125q-25 0 -43 25q-55 75 -80 75h-50q-25 0 -120 -75q-32 -25 -57 -25h-125 q-40 0 -40 31z" />
<glyph unicode="&#xd5;" d="M32 93q0 25 8 56l295 1100q40 150 190 150l801 1q117 -1 117 -94q0 -25 -8 -57l-295 -1100q-40 -149 -190 -150h-800q-118 0 -118 94zM276 261q0 -62 77 -62h500q100 0 127 100l134 501q3 11 3 19q0 31 -39 31q-118 1 -118 93q0 25 8 56l40 150q2 10 2 18q0 32 -38 33 l-350 -1q-100 0 -127 -100l-214 -800q-5 -21 -5 -38zM573 1562q0 17 6 38l27 100q26 100 126 100h250q50 0 87 -50t87 -50t63 50t63 50h50q79 0 79 -63q0 -16 -5 -37l-27 -100q-27 -100 -122 -100h-255q-50 0 -87 50q-36 50 -86 50t-64 -50q-13 -50 -63 -50h-50 q-79 0 -79 62z" />
<glyph unicode="&#xd6;" d="M32 93q0 25 8 56l295 1100q40 150 190 150l801 1q117 -1 117 -94q0 -25 -8 -57l-295 -1100q-40 -149 -190 -150h-800q-118 0 -118 94zM276 261q0 -62 77 -62h500q100 0 127 100l134 501q3 11 3 19q0 31 -39 31q-118 1 -118 93q0 25 8 56l40 150q2 10 2 18q0 32 -38 33 l-350 -1q-100 0 -127 -100l-214 -800q-5 -21 -5 -38zM523 1562q0 17 6 38l27 100q26 100 126 100h200q79 0 79 -63q0 -16 -5 -37l-27 -100q-27 -100 -127 -100h-200q-79 0 -79 62zM1023 1562q0 17 6 38l27 100q26 100 126 100h200q79 0 79 -63q0 -16 -5 -37l-27 -100 q-27 -100 -127 -100h-200q-79 0 -79 62z" />
<glyph unicode="&#xd7;" horiz-adv-x="900" d="M75 263q0 16 5 37l67 250q27 100 141 150q-66 38 -66 105q0 21 6 45l67 250q27 100 127 100q79 0 79 -61q0 -17 -6 -38l-67 -251q-3 -11 -3 -19q0 -31 39 -31h300q50 0 64 50l67 250q27 100 127 100q79 0 79 -62q0 -17 -6 -38l-67 -250q-27 -100 -140 -150 q65 -38 65 -105q0 -21 -6 -45l-67 -250q-26 -100 -126 -100q-79 0 -79 63q0 16 5 37l67 250q3 10 3 18q0 31 -39 32h-150q-50 0 -64 -50l-67 -250q-26 -100 -130 -100h-146q-79 0 -79 63z" />
<glyph unicode="&#xd8;" d="M32 93q0 25 8 56l295 1100q40 150 190 150l801 1q117 -1 117 -93q0 -25 -8 -57l-295 -1101q-40 -149 -190 -150h-800q-118 0 -118 94zM311 410l672 646l25 93q2 10 2 18q0 32 -38 33l-350 -1q-100 0 -127 -100zM341 199h512q100 0 127 100l134 501q3 11 3 19q0 31 -39 31 q-30 0 -53 6z" />
<glyph unicode="&#xd9;" d="M32 93q0 25 8 57l309 1151q26 99 126 99q79 0 79 -62q0 -17 -6 -38l-107 -400q-2 -10 -2 -17q0 -33 40 -33q118 0 118 -93q0 -25 -8 -57l-121 -450q-3 -10 -3 -19q0 -31 39 -31h351q98 0 124 100l269 1000q27 100 128 101q78 -1 78 -63q0 -17 -6 -38l-308 -1150 q-40 -150 -189 -150h-801q-118 0 -118 93zM827 1762q0 17 5 38q27 100 127 100h200q25 0 44 -25l18 -24q13 -19 13 -37q0 -7 -2 -14l-53 -200q-27 -100 -127 -100q-50 0 -68 25l-147 200q-10 15 -10 37z" />
<glyph unicode="&#xda;" d="M32 93q0 25 8 57l309 1151q26 99 126 99q79 0 79 -62q0 -17 -6 -38l-107 -400q-2 -10 -2 -17q0 -33 40 -33q118 0 118 -93q0 -25 -8 -57l-121 -450q-3 -10 -3 -19q0 -31 39 -31h351q98 0 124 100l269 1000q27 100 128 101q78 -1 78 -63q0 -17 -6 -38l-308 -1150 q-40 -150 -189 -150h-801q-118 0 -118 93zM773 1562q0 17 6 38l53 200q7 25 39 51l31 24q32 25 57 25h200q79 0 79 -62q0 -17 -6 -38q-13 -50 -45 -75l-253 -200q-32 -25 -82 -25q-79 0 -79 62z" />
<glyph unicode="&#xdb;" d="M32 93q0 25 8 57l309 1151q26 99 126 99q79 0 79 -62q0 -17 -6 -38l-107 -400q-2 -10 -2 -17q0 -33 40 -33q118 0 118 -93q0 -25 -8 -57l-121 -450q-3 -10 -3 -19q0 -31 39 -31h351q98 0 124 100l269 1000q27 100 128 101q78 -1 78 -63q0 -17 -6 -38l-308 -1150 q-40 -150 -189 -150h-801q-118 0 -118 93zM612 1531q0 9 3 19l14 50q10 35 38 50l184 125q56 25 81 25h200q25 0 69 -25l116 -125q15 -10 15 -31q0 -9 -3 -19l-14 -50q-13 -50 -63 -50h-125q-25 0 -43 25q-55 75 -80 75h-50q-25 0 -120 -75q-32 -25 -57 -25h-125 q-40 0 -40 31z" />
<glyph unicode="&#xdc;" d="M32 93q0 25 8 57l309 1151q26 99 126 99q79 0 79 -62q0 -17 -6 -38l-107 -400q-2 -10 -2 -17q0 -33 40 -33q118 0 118 -93q0 -25 -8 -57l-121 -450q-3 -10 -3 -19q0 -31 39 -31h351q98 0 124 100l269 1000q27 100 128 101q78 -1 78 -63q0 -17 -6 -38l-308 -1150 q-40 -150 -189 -150h-801q-118 0 -118 93zM523 1562q0 17 6 38l27 100q26 100 126 100h200q79 0 79 -63q0 -16 -5 -37l-27 -100q-27 -100 -127 -100h-200q-79 0 -79 62zM1023 1562q0 17 6 38l27 100q26 100 126 100h200q79 0 79 -63q0 -16 -5 -37l-27 -100 q-27 -100 -127 -100h-200q-79 0 -79 62z" />
<glyph unicode="&#xdd;" d="M206 743q0 25 8 57l134 500q27 100 127 100q79 0 79 -62q0 -17 -5 -37l-94 -351q-6 -21 -6 -38q0 -62 79 -62h500q100 0 127 100l93 350q27 100 127 100q79 0 79 -62q0 -17 -6 -38l-134 -500q-40 -150 -190 -150h-175q-50 0 -63 -50l-134 -500q-27 -100 -131 -100h-146 q-81 0 -81 66q0 15 4 34l134 500q3 10 3 19q0 31 -40 31h-171q-118 0 -118 93zM773 1562q0 17 6 38l53 200q7 25 39 51l31 24q32 25 57 25h200q79 0 79 -62q0 -17 -6 -38q-13 -50 -45 -75l-253 -200q-32 -25 -82 -25q-79 0 -79 62z" />
<glyph unicode="&#xde;" horiz-adv-x="1100" d="M21 62q0 16 6 37l321 1201q27 100 127 100q79 0 79 -62q0 -17 -6 -38l-40 -150q-3 -10 -3 -19q0 -31 40 -31l598 -1q118 0 118 -93q0 -25 -8 -57l-120 -450q-40 -148 -190 -150h-400q-50 0 -64 -51l-52 -197q-27 -99 -126 -99l-200 -2q-80 0 -80 62zM357 580 q0 -31 40 -31h449q100 0 127 100l40 150q6 21 6 38q0 62 -79 62h-399q-101 -1 -128 -100l-53 -200q-3 -10 -3 -19z" />
<glyph unicode="&#xdf;" d="M21 62q0 17 6 38l308 1150q40 150 190 150h600q118 0 118 -93q0 -25 -8 -57l-94 -350q-3 -10 -3 -19q0 -31 40 -31q118 0 118 -93q0 -25 -8 -57l-148 -550q-40 -150 -190 -150h-400q-79 0 -79 62q0 17 6 38q27 100 127 100h250q100 0 126 100l67 250q5 21 5 37 q0 62 -78 63h-250q-79 0 -79 62q0 17 6 38q27 100 127 100h100q50 0 63 50l54 200q6 21 6 38q0 62 -79 62h-300q-100 0 -127 -100l-54 -200q-3 -10 -3 -19q0 -31 40 -31q79 0 79 -62q0 -17 -6 -38l-174 -650q-27 -100 -127 -100h-150q-79 0 -79 62z" />
<glyph unicode="&#xe0;" horiz-adv-x="900" d="M32 93q0 25 8 56l79 300q40 149 190 149l402 1q49 0 63 50l13 50q6 21 6 37q0 61 -79 61h-250q-50 0 -64 -49q-27 -101 -127 -101q-79 0 -79 63q0 17 6 38l27 99q40 150 190 150h499q119 0 119 -93q0 -25 -8 -56l-186 -698q-40 -150 -192 -150h-499q-118 0 -118 93z M426 263q0 -63 78 -63l100 -1q49 0 63 50l27 102q2 9 2 17q0 31 -40 31h-100q-98 0 -125 -99q-5 -21 -5 -37zM570 1362q0 17 5 38q27 100 127 100h200q25 0 44 -25l18 -24q13 -19 13 -37q0 -7 -2 -14l-53 -200q-27 -100 -127 -100q-50 0 -69 25l-146 200q-10 15 -10 37z" />
<glyph unicode="&#xe1;" horiz-adv-x="900" d="M32 93q0 25 8 56l79 300q40 149 190 149l402 1q49 0 63 50l13 50q6 21 6 37q0 61 -79 61h-250q-50 0 -64 -49q-27 -101 -127 -101q-79 0 -79 63q0 17 6 38l27 99q40 150 190 150h499q119 0 119 -93q0 -25 -8 -56l-186 -698q-40 -150 -192 -150h-499q-118 0 -118 93z M426 263q0 -63 78 -63l100 -1q49 0 63 50l27 102q2 9 2 17q0 31 -40 31h-100q-98 0 -125 -99q-5 -21 -5 -37zM516 1162q0 17 6 38l53 200q7 25 39 51l31 24q32 25 57 25h200q79 0 79 -62q0 -17 -6 -38q-13 -50 -45 -75l-254 -200q-31 -25 -81 -25q-79 0 -79 62z" />
<glyph unicode="&#xe2;" horiz-adv-x="900" d="M32 93q0 25 8 56l79 300q40 149 190 149l402 1q49 0 63 50l13 50q6 21 6 37q0 61 -79 61h-250q-50 0 -64 -49q-27 -101 -127 -101q-79 0 -79 63q0 17 6 38l27 99q40 150 190 150h499q119 0 119 -93q0 -25 -8 -56l-186 -698q-40 -150 -192 -150h-499q-118 0 -118 93z M355 1131q0 9 3 19l14 50q10 35 38 50l183 125q57 25 82 25h200q25 0 68 -25l117 -125q15 -10 15 -31q0 -9 -3 -19l-14 -50q-13 -50 -63 -50h-125q-25 0 -44 25q-54 75 -79 75h-50q-25 0 -121 -75q-31 -25 -56 -25h-125q-40 0 -40 31zM426 263q0 -63 78 -63l100 -1 q49 0 63 50l27 102q2 9 2 17q0 31 -40 31h-100q-98 0 -125 -99q-5 -21 -5 -37z" />
<glyph unicode="&#xe3;" horiz-adv-x="900" d="M32 93q0 25 8 56l79 300q40 149 190 149l402 1q49 0 63 50l13 50q6 21 6 37q0 61 -79 61h-250q-50 0 -64 -49q-27 -101 -127 -101q-79 0 -79 63q0 17 6 38l27 99q40 150 190 150h499q119 0 119 -93q0 -25 -8 -56l-186 -698q-40 -150 -192 -150h-499q-118 0 -118 93z M316 1162q0 17 6 38l26 100q27 100 127 100h250q50 0 87 -50q36 -50 86 -50t64 50q13 50 63 50h50q79 0 79 -62q0 -17 -6 -38l-26 -100q-27 -100 -122 -100h-255q-50 0 -87 50q-36 50 -86 50t-64 -50q-13 -50 -63 -50h-50q-79 0 -79 62zM426 263q0 -63 78 -63l100 -1 q49 0 63 50l27 102q2 9 2 17q0 31 -40 31h-100q-98 0 -125 -99q-5 -21 -5 -37z" />
<glyph unicode="&#xe4;" horiz-adv-x="900" d="M32 93q0 25 8 56l79 300q40 149 190 149l402 1q49 0 63 50l13 50q6 21 6 37q0 61 -79 61h-250q-50 0 -64 -49q-27 -101 -127 -101q-79 0 -79 63q0 17 6 38l27 99q40 150 190 150h499q119 0 119 -93q0 -25 -8 -56l-186 -698q-40 -150 -192 -150h-499q-118 0 -118 93z M266 1162q0 17 6 38l26 100q27 100 127 100h200q79 0 79 -62q0 -17 -6 -38l-26 -100q-27 -100 -127 -100h-200q-79 0 -79 62zM426 263q0 -63 78 -63l100 -1q49 0 63 50l27 102q2 9 2 17q0 31 -40 31h-100q-98 0 -125 -99q-5 -21 -5 -37zM766 1162q0 17 6 38l26 100 q27 100 127 100h200q79 0 79 -62q0 -17 -6 -38l-26 -100q-27 -100 -127 -100h-200q-79 0 -79 62z" />
<glyph unicode="&#xe5;" horiz-adv-x="900" d="M32 93q0 25 8 56l79 300q40 149 190 149l402 1q49 0 63 50l13 50q6 21 6 37q0 61 -79 61h-250q-50 0 -64 -49q-27 -101 -127 -101q-79 0 -79 63q0 17 6 38l27 99q40 150 190 150h499q119 0 119 -93q0 -25 -8 -56l-186 -698q-40 -150 -192 -150h-499q-118 0 -118 93z M426 263q0 -63 78 -63l100 -1q49 0 63 50l27 102q2 9 2 17q0 31 -40 31h-100q-98 0 -125 -99q-5 -21 -5 -37zM502 1282q0 32 10 68q28 104 120.5 177t196.5 73t158 -73q35 -48 35 -109q0 -32 -10 -68q-28 -104 -120.5 -177t-196.5 -73t-157 73q-36 48 -36 109zM710 1336 q0 -12 7 -21q10 -15 31 -15t39.5 14.5t24.5 35.5q2 7 2 13q0 13 -7 23q-11 14 -32 14t-39.5 -14.5t-23.5 -35.5q-2 -8 -2 -14z" />
<glyph unicode="&#xe6;" horiz-adv-x="1500" d="M32 93q0 25 8 56l79 300q40 149 190 149l402 1q49 0 63 50l13 50q6 21 6 37q0 61 -79 61h-250q-50 0 -64 -49q-27 -101 -127 -101q-79 0 -79 63q0 17 6 38l27 99q40 150 190 150l1102 3q118 0 118 -93q0 -25 -8 -56l-81 -303q-40 -149 -190 -149l-200 -1q-49 0 -63 -50 l-27 -97q-3 -10 -3 -19q0 -31 39 -32l99 1q50 0 63 49q27 100 128 100q79 0 79 -62q0 -17 -6 -38l-27 -100q-40 -150 -191 -150h-1099q-118 0 -118 93zM426 263q0 -63 78 -63l100 -1q49 0 63 50l27 102q2 9 2 17q0 31 -40 31h-100q-98 0 -125 -99q-5 -21 -5 -37zM972 630 q0 -31 40 -31l249 -2q99 1 126 101q6 21 6 38q0 62 -78 64h-250q-51 0 -64 -49l-26 -102q-3 -10 -3 -19z" />
<glyph unicode="&#xe7;" horiz-adv-x="900" d="M14 -338q0 17 6 38q26 100 126 100h100q100 0 127 100q6 21 6 38q0 62 -79 62h-150q-118 0 -118 93q0 25 8 56l187 701q40 150 191 150h500q118 0 118 -93q0 -25 -8 -56l-27 -101q-27 -100 -127 -100q-78 0 -78 63q0 16 5 37q2 9 2 17q0 31 -39 33h-250q-100 0 -126 -100 l-13 -49q-3 -10 -3 -19q0 -31 40 -31q117 -1 117 -94q0 -25 -8 -57l-41 -150q-5 -21 -5 -37q0 -63 79 -64l51 1q49 0 62 50q27 100 127 100q79 0 79 -62q0 -17 -6 -38l-27 -100q-40 -150 -191 -150q-49 0 -62 -50l-54 -200q-40 -150 -190 -150h-250q-79 0 -79 62z" />
<glyph unicode="&#xe8;" horiz-adv-x="900" d="M32 93q0 25 8 56l188 701q40 150 191 150h500q118 0 118 -93q0 -25 -8 -56l-81 -303q-40 -149 -190 -149l-200 -1q-49 0 -63 -50l-27 -97q-3 -10 -3 -19q0 -31 39 -32l99 1q50 0 63 49q27 100 128 100q79 0 79 -62q0 -17 -6 -38l-27 -100q-40 -150 -191 -150h-499 q-118 0 -118 93zM372 630q0 -31 40 -31l249 -2q99 1 126 101q6 21 6 38q0 62 -78 64h-250q-51 0 -64 -49l-26 -102q-3 -10 -3 -19zM570 1362q0 17 5 38q27 100 127 100h200q25 0 44 -25l18 -24q13 -19 13 -37q0 -7 -2 -14l-53 -200q-27 -100 -127 -100q-50 0 -69 25 l-146 200q-10 15 -10 37z" />
<glyph unicode="&#xe9;" horiz-adv-x="900" d="M32 93q0 25 8 56l188 701q40 150 191 150h500q118 0 118 -93q0 -25 -8 -56l-81 -303q-40 -149 -190 -149l-200 -1q-49 0 -63 -50l-27 -97q-3 -10 -3 -19q0 -31 39 -32l99 1q50 0 63 49q27 100 128 100q79 0 79 -62q0 -17 -6 -38l-27 -100q-40 -150 -191 -150h-499 q-118 0 -118 93zM372 630q0 -31 40 -31l249 -2q99 1 126 101q6 21 6 38q0 62 -78 64h-250q-51 0 -64 -49l-26 -102q-3 -10 -3 -19zM516 1162q0 17 6 38l53 200q7 25 39 51l31 24q32 25 57 25h200q79 0 79 -62q0 -17 -6 -38q-13 -50 -45 -75l-254 -200q-31 -25 -81 -25 q-79 0 -79 62z" />
<glyph unicode="&#xea;" horiz-adv-x="900" d="M32 93q0 25 8 56l188 701q40 150 191 150h500q118 0 118 -93q0 -25 -8 -56l-81 -303q-40 -149 -190 -149l-200 -1q-49 0 -63 -50l-27 -97q-3 -10 -3 -19q0 -31 39 -32l99 1q50 0 63 49q27 100 128 100q79 0 79 -62q0 -17 -6 -38l-27 -100q-40 -150 -191 -150h-499 q-118 0 -118 93zM355 1131q0 9 3 19l14 50q10 35 38 50l183 125q57 25 82 25h200q25 0 68 -25l117 -125q15 -10 15 -31q0 -9 -3 -19l-14 -50q-13 -50 -63 -50h-125q-25 0 -44 25q-54 75 -79 75h-50q-25 0 -121 -75q-31 -25 -56 -25h-125q-40 0 -40 31zM372 630q0 -31 40 -31 l249 -2q99 1 126 101q6 21 6 38q0 62 -78 64h-250q-51 0 -64 -49l-26 -102q-3 -10 -3 -19z" />
<glyph unicode="&#xeb;" horiz-adv-x="900" d="M32 93q0 25 8 56l188 701q40 150 191 150h500q118 0 118 -93q0 -25 -8 -56l-81 -303q-40 -149 -190 -149l-200 -1q-49 0 -63 -50l-27 -97q-3 -10 -3 -19q0 -31 39 -32l99 1q50 0 63 49q27 100 128 100q79 0 79 -62q0 -17 -6 -38l-27 -100q-40 -150 -191 -150h-499 q-118 0 -118 93zM266 1162q0 17 6 38l26 100q27 100 127 100h200q79 0 79 -62q0 -17 -6 -38l-26 -100q-27 -100 -127 -100h-200q-79 0 -79 62zM372 630q0 -31 40 -31l249 -2q99 1 126 101q6 21 6 38q0 62 -78 64h-250q-51 0 -64 -49l-26 -102q-3 -10 -3 -19zM766 1162 q0 17 6 38l26 100q27 100 127 100h200q79 0 79 -62q0 -17 -6 -38l-26 -100q-27 -100 -127 -100h-200q-79 0 -79 62z" />
<glyph unicode="&#xec;" horiz-adv-x="500" d="M21 62q0 17 6 38l214 800q27 100 127 100q79 0 79 -62q0 -17 -6 -38l-67 -250q-3 -10 -3 -19q0 -31 40 -31q118 0 118 -93q0 -25 -8 -57l-94 -350q-27 -100 -127 -100h-200q-79 0 -79 62zM370 1362q0 17 5 38q27 100 127 100h200q25 0 44 -25l18 -24q13 -19 13 -37 q0 -7 -2 -14l-53 -200q-27 -100 -127 -100q-50 0 -69 25l-146 200q-10 15 -10 37z" />
<glyph unicode="&#xed;" horiz-adv-x="500" d="M21 62q0 17 6 38l214 800q27 100 127 100q79 0 79 -62q0 -17 -6 -38l-67 -250q-3 -10 -3 -19q0 -31 40 -31q118 0 118 -93q0 -25 -8 -57l-94 -350q-27 -100 -127 -100h-200q-79 0 -79 62zM316 1162q0 17 6 38l53 200q7 25 39 51l31 24q32 25 57 25h200q79 0 79 -62 q0 -17 -6 -38q-13 -50 -45 -75l-254 -200q-31 -25 -81 -25q-79 0 -79 62z" />
<glyph unicode="&#xee;" horiz-adv-x="500" d="M21 62q0 17 6 38l214 800q27 100 127 100q79 0 79 -62q0 -17 -6 -38l-67 -250q-3 -10 -3 -19q0 -31 40 -31q118 0 118 -93q0 -25 -8 -57l-94 -350q-27 -100 -127 -100h-200q-79 0 -79 62zM155 1131q0 9 3 19l14 50q10 35 38 50l183 125q57 25 82 25h200q25 0 68 -25 l117 -125q15 -10 15 -31q0 -9 -3 -19l-14 -50q-13 -50 -63 -50h-125q-25 0 -44 25q-54 75 -79 75h-50q-25 0 -121 -75q-31 -25 -56 -25h-125q-40 0 -40 31z" />
<glyph unicode="&#xef;" horiz-adv-x="500" d="M21 62q0 17 6 38l214 800q27 100 127 100q79 0 79 -62q0 -17 -6 -38l-67 -250q-3 -10 -3 -19q0 -31 40 -31q118 0 118 -93q0 -25 -8 -57l-94 -350q-27 -100 -127 -100h-200q-79 0 -79 62zM66 1162q0 17 6 38l26 100q27 100 127 100h200q79 0 79 -62q0 -17 -6 -38 l-26 -100q-27 -100 -127 -100h-200q-79 0 -79 62zM566 1162q0 17 6 38l26 100q27 100 127 100h200q79 0 79 -62q0 -17 -6 -38l-26 -100q-27 -100 -127 -100h-200q-79 0 -79 62z" />
<glyph unicode="&#xf0;" horiz-adv-x="1050" d="M32 93q0 25 8 56l187 701q40 150 191 150h400q50 0 63 50l14 50q6 21 6 38q0 62 -79 62h-200q-79 0 -79 63q0 16 5 37q27 100 127 100h350q118 0 118 -93q0 -25 -8 -57l-54 -200q-3 -10 -3 -19q0 -31 40 -31q79 0 79 -62q0 -17 -6 -38q-27 -100 -127 -100q-50 0 -63 -50 l-161 -600q-40 -150 -191 -150h-499q-118 0 -118 93zM373 632q0 -31 40 -31q117 -1 117 -94q0 -25 -8 -57l-42 -150q-5 -21 -5 -37q0 -63 79 -64q100 1 126 99l106 400q6 21 6 38q0 62 -78 64h-200q-100 0 -126 -100l-12 -49q-3 -10 -3 -19z" />
<glyph unicode="&#xf1;" horiz-adv-x="900" d="M21 62q0 17 6 38l200 750q40 150 191 150h500q118 0 118 -93q0 -25 -8 -56l-201 -751q-27 -100 -127 -100q-79 0 -79 62q0 17 6 38l159 598q6 21 6 38q0 62 -78 64h-200q-100 0 -126 -100l-13 -49q-3 -10 -3 -19q0 -31 40 -31q117 -1 117 -94q0 -25 -8 -57l-94 -350 q-27 -100 -127 -100h-200q-79 0 -79 62zM316 1162q0 17 6 38l26 100q27 100 127 100h250q50 0 87 -50q36 -50 86 -50t64 50q13 50 63 50h50q79 0 79 -62q0 -17 -6 -38l-26 -100q-27 -100 -122 -100h-255q-50 0 -87 50q-36 50 -86 50t-64 -50q-13 -50 -63 -50h-50 q-79 0 -79 62z" />
<glyph unicode="&#xf2;" horiz-adv-x="900" d="M32 93q0 25 8 56l187 701q40 150 191 150h500q118 0 118 -93q0 -25 -8 -56l-188 -701q-40 -150 -191 -150h-499q-118 0 -118 93zM372 632q0 -31 40 -31q117 -1 117 -94q0 -25 -8 -57l-41 -150q-5 -21 -5 -37q0 -63 79 -64q100 1 126 99l106 400q6 21 6 38q0 62 -78 64 h-200q-100 0 -126 -100l-13 -49q-3 -10 -3 -19zM570 1362q0 17 5 38q27 100 127 100h200q25 0 44 -25l18 -24q13 -19 13 -37q0 -7 -2 -14l-53 -200q-27 -100 -127 -100q-50 0 -69 25l-146 200q-10 15 -10 37z" />
<glyph unicode="&#xf3;" horiz-adv-x="900" d="M32 93q0 25 8 56l187 701q40 150 191 150h500q118 0 118 -93q0 -25 -8 -56l-188 -701q-40 -150 -191 -150h-499q-118 0 -118 93zM372 632q0 -31 40 -31q117 -1 117 -94q0 -25 -8 -57l-41 -150q-5 -21 -5 -37q0 -63 79 -64q100 1 126 99l106 400q6 21 6 38q0 62 -78 64 h-200q-100 0 -126 -100l-13 -49q-3 -10 -3 -19zM516 1162q0 17 6 38l53 200q7 25 39 51l31 24q32 25 57 25h200q79 0 79 -62q0 -17 -6 -38q-13 -50 -45 -75l-254 -200q-31 -25 -81 -25q-79 0 -79 62z" />
<glyph unicode="&#xf4;" horiz-adv-x="900" d="M32 93q0 25 8 56l187 701q40 150 191 150h500q118 0 118 -93q0 -25 -8 -56l-188 -701q-40 -150 -191 -150h-499q-118 0 -118 93zM355 1131q0 9 3 19l14 50q10 35 38 50l183 125q57 25 82 25h200q25 0 68 -25l117 -125q15 -10 15 -31q0 -9 -3 -19l-14 -50q-13 -50 -63 -50 h-125q-25 0 -44 25q-54 75 -79 75h-50q-25 0 -121 -75q-31 -25 -56 -25h-125q-40 0 -40 31zM372 632q0 -31 40 -31q117 -1 117 -94q0 -25 -8 -57l-41 -150q-5 -21 -5 -37q0 -63 79 -64q100 1 126 99l106 400q6 21 6 38q0 62 -78 64h-200q-100 0 -126 -100l-13 -49 q-3 -10 -3 -19z" />
<glyph unicode="&#xf5;" horiz-adv-x="900" d="M32 93q0 25 8 56l187 701q40 150 191 150h500q118 0 118 -93q0 -25 -8 -56l-188 -701q-40 -150 -191 -150h-499q-118 0 -118 93zM316 1162q0 17 6 38l26 100q27 100 127 100h250q50 0 87 -50q36 -50 86 -50t64 50q13 50 63 50h50q79 0 79 -62q0 -17 -6 -38l-26 -100 q-27 -100 -122 -100h-255q-50 0 -87 50q-36 50 -86 50t-64 -50q-13 -50 -63 -50h-50q-79 0 -79 62zM372 632q0 -31 40 -31q117 -1 117 -94q0 -25 -8 -57l-41 -150q-5 -21 -5 -37q0 -63 79 -64q100 1 126 99l106 400q6 21 6 38q0 62 -78 64h-200q-100 0 -126 -100l-13 -49 q-3 -10 -3 -19z" />
<glyph unicode="&#xf6;" horiz-adv-x="900" d="M32 93q0 25 8 56l187 701q40 150 191 150h500q118 0 118 -93q0 -25 -8 -56l-188 -701q-40 -150 -191 -150h-499q-118 0 -118 93zM266 1162q0 17 6 38l26 100q27 100 127 100h200q79 0 79 -62q0 -17 -6 -38l-26 -100q-27 -100 -127 -100h-200q-79 0 -79 62zM372 632 q0 -31 40 -31q117 -1 117 -94q0 -25 -8 -57l-41 -150q-5 -21 -5 -37q0 -63 79 -64q100 1 126 99l106 400q6 21 6 38q0 62 -78 64h-200q-100 0 -126 -100l-13 -49q-3 -10 -3 -19zM766 1162q0 17 6 38l26 100q27 100 127 100h200q79 0 79 -62q0 -17 -6 -38l-26 -100 q-27 -100 -127 -100h-200q-79 0 -79 62z" />
<glyph unicode="&#xf7;" horiz-adv-x="1000" d="M195 712q0 16 6 37q27 101 127 101h700q79 0 79 -63q0 -16 -5 -37q-27 -99 -128 -100h-699q-80 0 -80 62zM338 312q0 17 6 38l27 100q26 100 126 100h200q79 0 79 -63q0 -16 -5 -37l-27 -100q-27 -100 -127 -100h-200q-79 0 -79 62zM526 1013q0 16 5 37l27 100 q27 100 127 100h200q79 0 79 -62q0 -17 -6 -38l-27 -100q-26 -100 -126 -100h-200q-79 0 -79 63z" />
<glyph unicode="&#xf8;" horiz-adv-x="900" d="M32 93q0 25 8 56l187 701q40 150 191 150h500q118 0 118 -93q0 -25 -8 -56l-188 -701q-40 -150 -191 -150h-499q-118 0 -118 93zM372 632q0 -31 40 -31q53 0 83 -20l229 219h-210q-100 0 -126 -100l-13 -49q-3 -10 -3 -19zM475 263q0 -63 79 -64q100 1 126 99l78 297 l-267 -254l-11 -41q-5 -21 -5 -37z" />
<glyph unicode="&#xf9;" horiz-adv-x="900" d="M32 93q0 25 8 56l201 751q27 99 127 100q79 0 79 -62q0 -17 -6 -38l-66 -249q-3 -10 -3 -19q0 -31 40 -31q117 -1 117 -94q0 -25 -8 -57l-41 -150q-5 -21 -5 -37q0 -63 79 -64q100 1 126 99l161 602q27 100 127 100q79 0 79 -62q0 -17 -6 -38l-201 -750 q-40 -150 -191 -150h-499q-118 0 -118 93zM570 1362q0 17 5 38q27 100 127 100h200q25 0 44 -25l18 -24q13 -19 13 -37q0 -7 -2 -14l-53 -200q-27 -100 -127 -100q-50 0 -69 25l-146 200q-10 15 -10 37z" />
<glyph unicode="&#xfa;" horiz-adv-x="900" d="M32 93q0 25 8 56l201 751q27 99 127 100q79 0 79 -62q0 -17 -6 -38l-66 -249q-3 -10 -3 -19q0 -31 40 -31q117 -1 117 -94q0 -25 -8 -57l-41 -150q-5 -21 -5 -37q0 -63 79 -64q100 1 126 99l161 602q27 100 127 100q79 0 79 -62q0 -17 -6 -38l-201 -750 q-40 -150 -191 -150h-499q-118 0 -118 93zM516 1162q0 17 6 38l53 200q7 25 39 51l31 24q32 25 57 25h200q79 0 79 -62q0 -17 -6 -38q-13 -50 -45 -75l-254 -200q-31 -25 -81 -25q-79 0 -79 62z" />
<glyph unicode="&#xfb;" horiz-adv-x="900" d="M32 93q0 25 8 56l201 751q27 99 127 100q79 0 79 -62q0 -17 -6 -38l-66 -249q-3 -10 -3 -19q0 -31 40 -31q117 -1 117 -94q0 -25 -8 -57l-41 -150q-5 -21 -5 -37q0 -63 79 -64q100 1 126 99l161 602q27 100 127 100q79 0 79 -62q0 -17 -6 -38l-201 -750 q-40 -150 -191 -150h-499q-118 0 -118 93zM355 1131q0 9 3 19l14 50q10 35 38 50l183 125q57 25 82 25h200q25 0 68 -25l117 -125q15 -10 15 -31q0 -9 -3 -19l-14 -50q-13 -50 -63 -50h-125q-25 0 -44 25q-54 75 -79 75h-50q-25 0 -121 -75q-31 -25 -56 -25h-125 q-40 0 -40 31z" />
<glyph unicode="&#xfc;" horiz-adv-x="900" d="M32 93q0 25 8 56l201 751q27 99 127 100q79 0 79 -62q0 -17 -6 -38l-66 -249q-3 -10 -3 -19q0 -31 40 -31q117 -1 117 -94q0 -25 -8 -57l-41 -150q-5 -21 -5 -37q0 -63 79 -64q100 1 126 99l161 602q27 100 127 100q79 0 79 -62q0 -17 -6 -38l-201 -750 q-40 -150 -191 -150h-499q-118 0 -118 93zM266 1162q0 17 6 38l26 100q27 100 127 100h200q79 0 79 -62q0 -17 -6 -38l-26 -100q-27 -100 -127 -100h-200q-79 0 -79 62zM766 1162q0 17 6 38l26 100q27 100 127 100h200q79 0 79 -62q0 -17 -6 -38l-26 -100 q-27 -100 -127 -100h-200q-79 0 -79 62z" />
<glyph unicode="&#xfd;" horiz-adv-x="900" d="M14 -338q0 17 6 38q26 100 126 100h300q100 0 127 100l14 50q3 10 3 19q0 31 -40 31h-400q-118 0 -118 93q0 25 8 56l201 751q27 100 127 100q79 0 79 -62q0 -17 -6 -38l-66 -249q-3 -10 -3 -19q0 -31 40 -31q117 -1 117 -94q0 -25 -8 -57l-41 -150q-5 -21 -5 -37 q0 -63 79 -64q100 1 126 99l161 601q27 101 127 101q79 0 79 -62q0 -17 -6 -38l-308 -1150q-40 -150 -190 -150h-450q-79 0 -79 62zM516 1162q0 17 6 38l53 200q7 25 39 51l31 24q32 25 57 25h200q79 0 79 -62q0 -17 -6 -38q-13 -50 -45 -75l-254 -200q-31 -25 -81 -25 q-79 0 -79 62z" />
<glyph unicode="&#xfe;" horiz-adv-x="900" d="M-86 -338q0 17 6 38l307 1150q3 12 7 23l114 427q27 100 127 100q79 0 79 -62q0 -17 -6 -38l-67 -250q-3 -10 -3 -19q0 -31 40 -31h400q118 0 118 -93q0 -25 -8 -56l-188 -701q-40 -150 -191 -150h-399q-50 0 -63 -50l-67 -250q-27 -100 -127 -100q-79 0 -79 62zM372 632 q0 -31 40 -31q117 -1 117 -94q0 -25 -8 -57l-41 -150q-5 -21 -5 -37q0 -63 79 -64q100 1 126 99l106 400q6 21 6 38q0 62 -78 64h-200q-100 0 -126 -100l-13 -49q-3 -10 -3 -19z" />
<glyph unicode="&#xff;" horiz-adv-x="900" d="M14 -338q0 17 6 38q26 100 126 100h300q100 0 127 100l14 50q3 10 3 19q0 31 -40 31h-400q-118 0 -118 93q0 25 8 56l201 751q27 100 127 100q79 0 79 -62q0 -17 -6 -38l-66 -249q-3 -10 -3 -19q0 -31 40 -31q117 -1 117 -94q0 -25 -8 -57l-41 -150q-5 -21 -5 -37 q0 -63 79 -64q100 1 126 99l161 601q27 101 127 101q79 0 79 -62q0 -17 -6 -38l-308 -1150q-40 -150 -190 -150h-450q-79 0 -79 62zM266 1162q0 17 6 38l26 100q27 100 127 100h200q79 0 79 -62q0 -17 -6 -38l-26 -100q-27 -100 -127 -100h-200q-79 0 -79 62zM766 1162 q0 17 6 38l26 100q27 100 127 100h200q79 0 79 -62q0 -17 -6 -38l-26 -100q-27 -100 -127 -100h-200q-79 0 -79 62z" />
<glyph unicode="&#x152;" horiz-adv-x="1900" d="M32 93q0 25 8 56l295 1100q40 150 190 150l801 1q26 0 40 -25q31 26 60 26l649 -1q79 0 79 -63q0 -16 -5 -37q-26 -100 -126 -100h-500q-102 -1 -128 -100l-54 -200q-2 -10 -2 -17q0 -33 40 -33h549q79 0 79 -63q0 -16 -5 -37q-27 -99 -128 -99l-350 -1q-48 0 -62 -51 l-94 -349q-3 -10 -3 -18q0 -31 39 -32h350q79 0 79 -63q0 -16 -5 -37q-27 -100 -128 -100h-699q-10 0 -14 21q-20 -22 -37 -22h-800q-118 0 -118 94zM276 261q0 -62 77 -62h500q100 0 127 100l134 501q3 11 3 19q0 31 -39 31q-118 1 -118 93q0 25 8 56l40 150q2 10 2 18 q0 32 -38 33l-350 -1q-100 0 -127 -100l-214 -800q-5 -21 -5 -38z" />
<glyph unicode="&#x153;" horiz-adv-x="1500" d="M32 93q0 25 8 56l187 701q40 150 191 150h500q28 0 43 -25q30 25 58 25h500q118 0 118 -93q0 -25 -8 -56l-81 -303q-40 -149 -190 -149l-200 -1q-49 0 -63 -50l-27 -97q-3 -10 -3 -19q0 -31 39 -32l99 1q50 0 63 49q27 100 128 100q79 0 79 -62q0 -17 -6 -38l-27 -100 q-40 -150 -191 -150h-499q-28 0 -43 25q-30 -25 -58 -25h-499q-118 0 -118 93zM372 632q0 -31 40 -31q117 -1 117 -94q0 -25 -8 -57l-41 -150q-5 -21 -5 -37q0 -63 79 -64q100 1 126 99l106 400q6 21 6 38q0 62 -78 64h-200q-100 0 -126 -100l-13 -49q-3 -10 -3 -19z M972 630q0 -31 40 -31l249 -2q99 1 126 101q6 21 6 38q0 62 -78 64h-250q-51 0 -64 -49l-26 -102q-3 -10 -3 -19z" />
<glyph unicode="&#x2c6;" horiz-adv-x="800" d="M412 1531q0 9 3 19l14 50q10 35 38 50l184 125q56 25 81 25h200q25 0 69 -25l116 -125q15 -10 15 -31q0 -9 -3 -19l-14 -50q-13 -50 -63 -50h-125q-25 0 -43 25q-55 75 -80 75h-50q-25 0 -120 -75q-32 -25 -57 -25h-125q-40 0 -40 31z" />
<glyph unicode="&#x2dc;" horiz-adv-x="900" d="M423 1562q0 17 6 38l27 100q26 100 126 100h250q50 0 87 -50t87 -50t63 50t63 50h50q78 0 78 -61q0 -17 -5 -37l-27 -102q-27 -100 -121 -100h-255q-50 0 -87 50q-36 50 -86 50t-64 -50q-13 -50 -63 -50h-50q-79 0 -79 62z" />
<glyph unicode="&#x2000;" horiz-adv-x="1000" />
<glyph unicode="&#x2001;" horiz-adv-x="2000" />
<glyph unicode="&#x2002;" horiz-adv-x="1000" />
<glyph unicode="&#x2003;" horiz-adv-x="2000" />
<glyph unicode="&#x2004;" horiz-adv-x="666" />
<glyph unicode="&#x2005;" horiz-adv-x="500" />
<glyph unicode="&#x2006;" horiz-adv-x="333" />
<glyph unicode="&#x2007;" horiz-adv-x="333" />
<glyph unicode="&#x2008;" horiz-adv-x="250" />
<glyph unicode="&#x2009;" horiz-adv-x="400" />
<glyph unicode="&#x200a;" horiz-adv-x="111" />
<glyph unicode="&#x2010;" horiz-adv-x="1000" d="M195 712q0 16 6 37q27 101 127 101h700q79 0 79 -63q0 -16 -5 -37q-27 -99 -128 -100h-699q-80 0 -80 62z" />
<glyph unicode="&#x2011;" horiz-adv-x="1000" d="M195 712q0 16 6 37q27 101 127 101h700q79 0 79 -63q0 -16 -5 -37q-27 -99 -128 -100h-699q-80 0 -80 62z" />
<glyph unicode="&#x2012;" horiz-adv-x="1000" d="M195 712q0 16 6 37q27 101 127 101h700q79 0 79 -63q0 -16 -5 -37q-27 -99 -128 -100h-699q-80 0 -80 62z" />
<glyph unicode="&#x2013;" horiz-adv-x="1000" d="M195 712q0 16 6 37q27 101 127 101h700q79 0 79 -63q0 -16 -5 -37q-27 -99 -128 -100h-699q-80 0 -80 62z" />
<glyph unicode="&#x2014;" horiz-adv-x="1100" d="M195 712q0 16 6 37q27 101 127 101h799q79 0 79 -63q0 -16 -5 -37q-27 -99 -128 -100h-798q-80 0 -80 62z" />
<glyph unicode="&#x2018;" horiz-adv-x="500" d="M262 962q0 17 6 38l80 300q27 100 127 100h200q79 0 79 -62q0 -17 -6 -38l-26 -100q-14 -50 -46 -75l-253 -200q-32 -25 -82 -25q-79 0 -79 62z" />
<glyph unicode="&#x2019;" horiz-adv-x="500" d="M316 1161q0 17 6 39l26 100q27 100 127 100h200q79 0 79 -62q0 -17 -6 -38l-80 -300q-27 -100 -127 -100q-50 0 -68 25l-147 200q-10 14 -10 36z" />
<glyph unicode="&#x201a;" horiz-adv-x="500" d="M21 62q0 17 6 38l27 100q26 100 126 100h200q79 0 79 -63q0 -16 -5 -37l-81 -300q-27 -100 -127 -100q-50 0 -68 25l-146 200q-11 14 -11 37z" />
<glyph unicode="&#x201c;" horiz-adv-x="1000" d="M262 962q0 17 6 38l80 300q27 100 127 100h200q79 0 79 -62q0 -17 -6 -38l-26 -100q-14 -50 -46 -75l-253 -200q-32 -25 -82 -25q-79 0 -79 62zM762 962q0 17 6 38l80 300q27 100 127 100h200q79 0 79 -62q0 -17 -6 -38l-26 -100q-14 -50 -46 -75l-253 -200 q-32 -25 -82 -25q-79 0 -79 62z" />
<glyph unicode="&#x201d;" horiz-adv-x="1000" d="M316 1161q0 17 6 39l26 100q27 100 127 100h200q79 0 79 -62q0 -17 -6 -38l-80 -300q-27 -100 -127 -100q-50 0 -68 25l-147 200q-10 14 -10 36zM816 1161q0 17 6 39l26 100q27 100 127 100h200q79 0 79 -62q0 -17 -6 -38l-80 -300q-27 -100 -127 -100q-50 0 -68 25 l-147 200q-10 14 -10 36z" />
<glyph unicode="&#x201e;" horiz-adv-x="1000" d="M21 62q0 17 6 38l27 100q26 100 126 100h200q79 0 79 -63q0 -16 -5 -37l-81 -300q-27 -100 -127 -100q-50 0 -68 25l-146 200q-11 14 -11 37zM521 62q0 17 6 38l27 100q26 100 126 100h200q79 0 79 -63q0 -16 -5 -37l-81 -300q-27 -100 -127 -100q-50 0 -68 25l-146 200 q-11 14 -11 37z" />
<glyph unicode="&#x2022;" horiz-adv-x="1024" d="M193 718v8q0 42 10 80q18 67 70 121q84 86 207 86q122 0 211.5 -86.5t93.5 -208.5v-14q0 -38 -9 -73q-18 -68 -71 -122q-85 -88 -207 -88q-123 0 -212 87t-93 210z" />
<glyph unicode="&#x2026;" horiz-adv-x="1500" d="M21 62q0 17 6 38l27 100q26 100 126 100h200q79 0 79 -63q0 -16 -5 -37l-27 -100q-27 -100 -127 -100h-200q-79 0 -79 62zM521 62q0 17 6 38l27 100q26 100 126 100h200q79 0 79 -63q0 -16 -5 -37l-27 -100q-27 -100 -127 -100h-200q-79 0 -79 62zM1021 62q0 17 6 38 l27 100q26 100 126 100h200q79 0 79 -63q0 -16 -5 -37l-27 -100q-27 -100 -127 -100h-200q-79 0 -79 62z" />
<glyph unicode="&#x202f;" horiz-adv-x="400" />
<glyph unicode="&#x2039;" d="M157 568q0 16 4 32l53 200q27 100 191 150l553 200q277 100 327 100h50q79 0 79 -62q0 -17 -6 -38q-27 -100 -190 -150l-537 -187q-98 -38 -143 -113q4 -75 82 -113l437 -187q114 -42 114 -118q0 -16 -4 -32q-27 -100 -127 -100h-50q-50 0 -273 100l-446 200 q-114 42 -114 118z" />
<glyph unicode="&#x203a;" d="M61 212q0 17 6 38q27 100 190 150l537 187q98 38 144 113q-5 75 -83 113l-437 187q-114 42 -114 118q0 16 4 32q27 100 127 100h50q50 0 273 -100l447 -200q113 -42 113 -118q0 -15 -4 -32l-53 -200q-27 -100 -190 -150l-554 -200q-277 -100 -327 -100h-50q-79 0 -79 62z " />
<glyph unicode="&#x205f;" horiz-adv-x="500" />
<glyph unicode="&#x20ac;" d="M128 462q0 17 6 38q27 100 127 100q50 0 63 50l27 100q3 10 3 19q0 31 -40 31q-79 0 -79 62q0 17 6 38q27 100 127 100q50 0 63 50l54 200q40 149 190 150h700q78 0 78 -63q0 -16 -5 -37q-26 -100 -126 -100h-550q-100 0 -127 -100l-14 -50q-3 -10 -3 -19q0 -31 40 -31 h250q79 0 79 -62q0 -17 -6 -38q-27 -100 -127 -100h-50q-50 0 -63 -50l-28 -100q-2 -9 -2 -17q0 -33 40 -33h50q79 0 79 -62q0 -17 -6 -38q-27 -100 -127 -100h-50q-50 0 -63 -50l-27 -100q-2 -10 -2 -18q0 -32 38 -33l402 1q78 0 78 -62q0 -17 -6 -38q-27 -100 -127 -100 l-701 -1q-117 1 -117 94q0 25 8 57l54 200q3 10 3 19q0 31 -40 31q-79 0 -79 62z" />
<glyph unicode="&#x2122;" horiz-adv-x="1400" d="M359 1332q0 9 3 19q13 50 63 50h450q40 0 40 -31q0 -9 -3 -19q-13 -50 -63 -50h-150q-25 0 -32 -25l-34 -125q-1 -5 -1 -9q0 -16 20 -16q59 0 59 -47q0 -12 -4 -28l-81 -300q-13 -50 -63 -50h-100q-40 0 -40 31q0 9 3 19l141 525q2 5 2 10q0 15 -20 15h-150q-40 0 -40 31 zM798 732q0 8 3 18l154 576q20 75 96 75h549q59 0 59 -47q0 -12 -4 -28l-154 -575q-13 -50 -63 -50q-40 0 -40 31q0 9 3 19l134 500q3 11 3 19q0 31 -39 31h-125q-25 0 -32 -25l-141 -525q-13 -50 -63 -50q-40 0 -40 31q0 9 3 19l141 525q2 5 2 10q0 15 -20 15h-124 q-52 -1 -65 -50l-27 -100q-1 -4 -1 -8q0 -17 21 -17q58 0 58 -46q0 -13 -4 -29l-81 -300q-13 -50 -63 -50h-99q-41 0 -41 31z" />
<glyph unicode="&#x25fc;" horiz-adv-x="1000" d="M0 0v1000h1000v-1000h-1000z" />
</font>
</defs>
</svg>
