<?xml version="1.0" standalone="no"?>
<!DOCTYPE svg PUBLIC "-//W3C//DTD SVG 1.1//EN" "http://www.w3.org/Graphics/SVG/1.1/DTD/svg11.dtd" >
<svg xmlns="http://www.w3.org/2000/svg">
<metadata></metadata>
<defs>
<font id="twobitbold" horiz-adv-x="1200" >
<font-face units-per-em="2048" ascent="1638" descent="-410" />
<missing-glyph horiz-adv-x="652" />
<glyph unicode="&#xd;" horiz-adv-x="508" />
<glyph horiz-adv-x="0" />
<glyph horiz-adv-x="0" />
<glyph unicode=" "  horiz-adv-x="652" />
<glyph unicode="&#x09;" horiz-adv-x="652" />
<glyph unicode="&#xa0;" horiz-adv-x="652" />
<glyph unicode="!" horiz-adv-x="500" d="M-25 100v100q0 120 125 120h200q125 0 125 -120v-100q0 -120 -125 -120h-200q-125 0 -125 120zM-25 500v800q0 120 125 120t125 -120v-250q0 -30 25 -30q175 0 175 -170v-350q0 -120 -125 -120h-200q-125 0 -125 120z" />
<glyph unicode="&#x22;" horiz-adv-x="1000" d="M-25 1200v100q0 120 125 120h200q125 0 125 -120v-300q0 -120 -125 -120q-62 0 -93 31l-200 200q-32 32 -32 89zM475 1200v100q0 120 125 120h200q125 0 125 -120v-300q0 -120 -125 -120q-62 0 -93 31l-200 200q-32 32 -32 89z" />
<glyph unicode="#" horiz-adv-x="1000" d="M-25 950q0 120 125 120q21 0 24 19v61q0 120 125 120h200q125 0 125 -120v-30h1q0 -50 25 -50t25 30v50q0 120 125 120t125 -120v-55q2 -25 25 -25q125 0 125 -120t-125 -120q-21 0 -24 -19v-111q0 -30 25 -30q125 0 126 -120q0 -119 -126 -120q-25 0 -25 -30l-1 -50 q0 -120 -125 -120t-125 120l1 50q0 30 -25 30h-1q-25 0 -25 -30l-1 -50q0 -120 -125 -120h-200q-125 0 -125 120l1 50q0 30 -23 30q-126 0 -126 119q0 121 124 121q25 0 25 30v105q-2 25 -25 25q-125 0 -125 120zM575 700q0 -30 25 -30h1q25 0 25 30v80h-1q0 50 -25 50 t-25 -30v-100z" />
<glyph unicode="$" d="M-26 1049q1 170 175 170h226v1q50 0 50 30v50q0 120 125 120t125 -120v-50q0 -30 50 -30v-1h274q125 -1 125 -120q0 -120 -125 -120h-700q-73 0 -74 -79q0 -80 75 -80h650q175 0 175 -170v-300q0 -170 -174 -171h-262q-14 -2 -14 -29v-50q0 -120 -125 -120t-125 120v50 q0 30 -25 30h-300q-125 0 -125 120t125 120h500q74 0 75 80q-5 80 -75 81l-450 -1q-175 0 -175 170z" />
<glyph unicode="%" d="M-25 100v450q0 113 165 168l648 250q87 43 87 82v250q0 120 125 120q124 0 125 -120v-400q0 -113 -165 -168l-498 -200q-37 -18 -37 -31v-401q0 -120 -125 -120h-200q-125 0 -125 120zM75 1050v100q0 120 125 120h200q125 0 125 -120v-100q0 -120 -125 -120h-200 q-125 0 -125 120zM575 300v100q0 120 125 120h200q125 0 125 -120v-100q0 -120 -125 -120h-200q-125 0 -125 120z" />
<glyph unicode="&#x26;" d="M-25 150v550q0 170 175 170q25 0 25 30v350q0 170 175 170h400q125 0 125 -120t-125 -120h-250q-75 0 -75 -80v-200q0 -30 25 -30h250q25 0 25 30q0 120 125 120t125 -120q0 -30 25 -30q125 0 125 -120t-125 -120q-25 0 -25 -30v-450q0 -170 -175 -170h-650 q-175 0 -175 170zM425 250q0 -30 25 -30h200q75 0 75 80v300q0 30 -25 30h-250q-24 -1 -25 -30v-350z" />
<glyph unicode="'" horiz-adv-x="500" d="M-25 1200v100q0 120 125 120h200q125 0 125 -120v-300q0 -120 -125 -120q-62 0 -93 31l-200 200q-32 32 -32 89z" />
<glyph unicode="(" horiz-adv-x="700" d="M-25 -50v1501q0 169 175 170l350 -1q125 0 125 -120t-125 -120l-200 1q-75 0 -75 -80v-401q0 -30 25 -30q175 0 175 -170v-650q0 -30 25 -30h50q125 0 125 -120t-125 -120l-351 -1q-174 1 -174 171z" />
<glyph unicode=")" horiz-adv-x="700" d="M-25 -100q0 120 125 120h50q25 0 25 30v650q0 170 175 170q25 0 25 30v401q0 80 -75 80l-200 -1q-125 0 -125 120t125 120l350 1q175 -1 175 -170v-1501q0 -170 -174 -171l-351 1q-125 0 -125 120z" />
<glyph unicode="*" horiz-adv-x="1100" d="M-25 900v150q0 111 78 150q-78 39 -78 150v150q0 120 125 120t125 -119v-151q0 -30 25 -30t25 30v250q0 120 125 120h200q125 0 125 -120v-250q0 -30 25 -30t25 30v150q0 120 125 120t125 -120v-150q0 -111 -78 -150q78 -39 78 -150v-150q0 -120 -125 -120t-125 120v150 q-1 29 -25 30q-25 0 -25 -30v-250q0 -120 -125 -120h-200q-125 0 -125 120v250q0 30 -24 30h-1q-25 0 -25 -30v-150q0 -120 -125 -120t-125 120z" />
<glyph unicode="+" horiz-adv-x="1000" d="M-25 749q0 121 125 121h100q25 0 25 30v250q0 120 125 120h200q125 0 125 -120v-250q0 -30 25 -30h100q125 0 126 -120q0 -119 -126 -120h-100q-25 0 -25 -30v-250q0 -120 -125 -120h-200q-125 0 -125 120v250q0 30 -24 30h-100q-126 0 -126 119z" />
<glyph unicode="," horiz-adv-x="500" d="M-25 100v100q0 120 125 120h200q125 0 125 -120v-300q0 -120 -125 -120q-62 0 -93 31l-200 200q-32 32 -32 89z" />
<glyph unicode="-" horiz-adv-x="1000" d="M-25 749q0 121 125 121h700q125 0 126 -120q0 -119 -126 -120h-699q-126 0 -126 119z" />
<glyph unicode="." horiz-adv-x="500" d="M-25 100v100q0 120 125 120h200q125 0 125 -120v-100q0 -120 -125 -120h-200q-125 0 -125 120z" />
<glyph unicode="/" d="M-25 100v450q0 113 165 168l648 250q87 43 87 82v250q0 120 125 120q124 0 125 -120v-400q0 -113 -165 -168l-498 -200q-37 -18 -37 -31v-401q0 -120 -125 -120h-200q-125 0 -125 120z" />
<glyph unicode="0" d="M-25 150v1100q1 170 175 170h800q175 -1 175 -169v-1101q0 -170 -174 -171l-801 1q-175 0 -175 170zM226 300q0 -80 75 -80l349 -1q24 1 25 31l-1 450q0 169 175 169q26 0 26 31v200q0 80 -75 80h-500q-73 0 -74 -80v-800z" />
<glyph unicode="1" horiz-adv-x="500" d="M-25 100v600q0 170 175 170q25 0 25 30v400q0 120 125 120t125 -120v-1200q0 -120 -125 -120h-201q-124 0 -124 120z" />
<glyph unicode="2" d="M-25 150v550q0 170 175 170h650q75 0 75 80l-1 150q-1 80 -74 80h-500q-75 0 -75 -80v-50q0 -120 -125 -120t-125 120v200q0 169 175 170h800q174 0 175 -170v-450q0 -170 -175 -170h-500q-21 0 -25 -30v-350q1 -30 25 -31l550 1q125 0 125 -120t-125 -120l-851 -1 q-174 1 -174 171z" />
<glyph unicode="3" d="M-25 150v200q0 120 125 120t125 -120v-50q0 -80 75 -80h350q25 0 25 30v350q-1 29 -25 30h-350q-125 0 -125 120t125 120h350q25 0 25 30v200q0 80 -75 80h-300q-75 0 -75 -80v-50q0 -120 -125 -120t-125 120v200q0 170 175 170h600q175 0 175 -170v-350q0 -30 25 -30 q175 0 175 -170v-550q0 -170 -175 -170h-800q-175 0 -175 170z" />
<glyph unicode="4" d="M-25 350v900q0 170 175 170h650q176 0 176 -171v-811q3 -18 24 -18q125 0 125 -120t-125 -120q-21 0 -24 -18v-64q0 -119 -126 -119l-199 2q-124 0 -125 119v48q0 31 -25 31l-351 1q-175 2 -175 170zM225 500q0 -80 75 -80l400 -1q25 0 26 30v650q0 79 -76 80l-350 1 q-75 0 -75 -80v-600z" />
<glyph unicode="5" d="M-25 150v200q0 120 126 120q124 0 124 -120l1 -50q0 -80 75 -80l349 -1q24 1 25 31v350q-4 30 -25 30h-500q-175 0 -175 170v450q1 170 175 170h750q125 0 125 -120t-125 -120h-600q-73 0 -74 -80l-1 -150q0 -80 75 -80h650q175 0 175 -170v-550q0 -170 -174 -171l-801 1 q-175 0 -175 170z" />
<glyph unicode="6" d="M-25 150v1100q1 170 175 170h750q125 0 125 -120t-125 -120h-600q-73 0 -74 -80l-1 -150q0 -80 75 -80h650q175 0 175 -170v-550q0 -170 -174 -171l-801 1q-175 0 -175 170zM225 350l1 -50q0 -80 75 -80l349 -1q24 1 25 31v350q-4 30 -25 30h-350q-75 0 -75 -80v-200z " />
<glyph unicode="7" d="M-25 1300q0 120 125 120h900q125 0 125 -120v-1200q0 -120 -125 -120h-200q-125 0 -125 120v600q0 170 175 170q25 0 25 30v250q0 30 -25 30h-750q-125 0 -125 120z" />
<glyph unicode="8" d="M-25 150v550q0 170 175 170q25 0 25 30v350q0 170 175 170h400q175 0 175 -170v-350q0 -30 25 -30q175 0 175 -170v-550q0 -170 -175 -170h-800q-175 0 -175 170zM225 300q0 -80 75 -80h350q25 0 25 30v350q-1 29 -25 30h-350q-75 0 -75 -80v-250zM425 900q0 -30 25 -30 h200q25 0 25 30v200q0 80 -75 80h-100q-75 0 -75 -80v-200z" />
<glyph unicode="9" d="M-25 800v450q0 170 175 170l799 1q176 0 176 -171v-1151q0 -119 -126 -119l-199 2q-124 0 -125 119v498q0 31 -25 31h-500q-175 2 -175 170zM225 950q0 -80 75 -80h549q25 0 26 30v200q0 79 -76 80h-499q-75 0 -75 -80v-150z" />
<glyph unicode=":" horiz-adv-x="500" d="M-25 100v100q0 120 125 120h200q125 0 125 -120v-100q0 -120 -125 -120h-200q-125 0 -125 120zM-25 700v100q0 120 125 120h200q125 0 125 -120v-100q0 -120 -125 -120h-200q-125 0 -125 120z" />
<glyph unicode=";" horiz-adv-x="500" d="M-25 100v100q0 120 125 120h200q125 0 125 -120v-300q0 -120 -125 -120q-62 0 -93 31l-200 200q-32 32 -32 89zM-25 700v100q0 120 125 120h200q125 0 125 -120v-100q0 -120 -125 -120h-200q-125 0 -125 120z" />
<glyph unicode="&#x3c;" d="M-25 600v200q0 113 165 168l501 201q253 101 309 101h50q125 0 125 -120q0 -113 -165 -168l-486 -187q-78 -33 -98 -95q20 -62 98 -95l486 -187q165 -55 165 -168q0 -120 -125 -120h-50q-56 0 -309 101l-501 201q-165 55 -165 168z" />
<glyph unicode="=" horiz-adv-x="1000" d="M-26 549q0 121 125 121h700q125 0 126 -120q0 -119 -126 -120h-699q-126 0 -126 119zM-25 949q0 121 125 121h700q125 0 126 -120q0 -119 -126 -120h-699q-126 0 -126 119z" />
<glyph unicode="&#x3e;" d="M-25 250q0 113 165 168l486 187q78 33 98 95q-20 62 -98 95l-486 187q-165 55 -165 168q0 120 125 120h50q56 0 309 -101l501 -201q165 -55 165 -168v-200q0 -113 -165 -168l-501 -201q-253 -101 -309 -101h-50q-125 0 -125 120z" />
<glyph unicode="?" horiz-adv-x="1100" d="M-25 100v100q0 120 125 120h200q125 0 125 -120v-100q0 -120 -125 -120h-200q-125 0 -125 120zM-25 499v201q0 170 175 170l550 2q75 0 75 80v150q0 80 -75 80h-399q-76 -1 -76 -80v-52q0 -120 -125 -120t-125 120v202q0 171 176 171l699 -1q175 0 175 -170v-450 q0 -168 -175 -170l-350 -2q-75 0 -75 -80v-51q-1 -119 -125 -119h-199q-126 0 -126 119z" />
<glyph unicode="@" d="M-25 150v1100q0 169 175 170h800q174 0 175 -170v-850q0 -120 -125 -120h-350q-175 0 -175 170v450q0 170 175 170h200q21 0 24 31q-1 79 -74 79h-500q-75 0 -75 -80v-200q0 -30 26 -30q175 -1 175 -169l-1 -451q1 -30 25 -31l551 1q124 0 124 -120t-125 -120l-851 -1 q-174 1 -174 171zM725 600q0 -80 75 -80h50q25 0 25 30v200q0 80 -75 80t-75 -80v-150z" />
<glyph unicode="A" d="M-25 100v600q0 170 150 170v380q0 170 175 170h500q175 0 175 -170v-380q150 0 150 -170v-600q0 -120 -125 -120t-125 120v450q-1 79 -75 80h-299q-60 -4 -76 -82v-448q0 -120 -129 -120h-196q-125 0 -125 120zM375 901q0 -30 25 -30l300 -1q25 0 25 30v200q0 80 -75 80 h-200q-75 0 -75 -80v-199z" />
<glyph unicode="B" d="M-25 100v1200q0 120 125 120h650q175 0 175 -170v-350q0 -30 25 -30q175 0 175 -170v-550q0 -170 -175 -170h-850q-125 0 -125 120zM225 900q0 -30 25 -30h400q25 0 25 30v200q0 80 -75 80h-350q-25 0 -25 -30v-250zM425 250q0 -30 25 -30h350q75 0 75 80v250 q-1 79 -75 80h-350q-25 0 -25 -30v-350z" />
<glyph unicode="C" d="M-25 150v1100q0 169 175 170h800q174 0 175 -170v-200q0 -120 -125 -120t-125 121l-1 49q-1 80 -74 80h-500q-75 0 -75 -80v-200q0 -30 26 -30q175 -1 175 -169l-1 -451q1 -30 25 -31l349 1q75 0 75 80l1 50q0 120 125 120t125 -120v-200q0 -170 -175 -170l-801 -1 q-174 1 -174 171z" />
<glyph unicode="D" d="M-25 99v1201q0 120 125 120h850q175 0 175 -170v-1100q0 -170 -175 -170h-849q-126 0 -126 119zM225 900q1 -30 26 -30q174 0 174 -170v-450q0 -30 25 -30h350q75 0 75 80v800q0 80 -75 80h-550q-25 -1 -25 -30v-250z" />
<glyph unicode="E" horiz-adv-x="1000" d="M-25 99v1151q0 171 176 171l649 -1q125 0 126 -120q0 -120 -125 -120h-500q-76 -1 -76 -80v-200q1 -30 26 -30h549q125 0 126 -120q0 -119 -126 -119l-350 -1q-23 0 -24 -31v-349q0 -30 24 -30h350q125 0 126 -120q0 -120 -126 -120h-699q-126 0 -126 119z" />
<glyph unicode="F" horiz-adv-x="1000" d="M-25 99v1151q0 171 176 171l649 -1q125 0 126 -120q0 -120 -125 -120h-500q-76 -1 -76 -80v-200q1 -30 26 -30h549q125 0 126 -120q0 -119 -126 -120l-350 1q-25 0 -25 -31v-499q-1 -119 -125 -119l-199 -2q-126 0 -126 119z" />
<glyph unicode="G" d="M-25 150v1100q0 169 175 170h800q174 0 175 -170v-200q0 -120 -125 -120t-125 121l-1 49q-1 80 -74 80h-500q-75 0 -75 -80v-200q0 -30 26 -30q175 -1 175 -169l-1 -451q1 -30 25 -31l349 1q75 0 75 80l1 50v200q0 80 -75 80q-125 0 -125 120t125 120h150q175 0 175 -170 v-550q0 -170 -175 -170l-801 -1q-174 1 -174 171z" />
<glyph unicode="H" d="M-25 100v1200q0 120 125 120t125 -119v-401q0 -30 25 -30h600q25 0 25 30v400q0 120 125 120t125 -120v-1200q0 -120 -125 -120t-125 120v500q-1 29 -25 30h-450q-25 0 -25 -30v-500q0 -120 -129 -120h-146q-125 0 -125 120z" />
<glyph unicode="I" horiz-adv-x="500" d="M-25 100v1200q0 120 125 120t125 -120v-400q0 -30 25 -30q175 0 175 -170v-600q0 -120 -125 -120h-200q-125 0 -125 120z" />
<glyph unicode="J" d="M-25 150v200q0 120 125 120t125 -120v-50q0 -80 75 -80h300q75 0 75 80v1001q0 119 125 119t125 -120l1 -400q0 -30 25 -30q175 0 175 -170l-1 -550q0 -170 -175 -170h-800q-175 0 -175 170z" />
<glyph unicode="K" d="M-25 100v1200q0 120 125 120t125 -119v-401q0 -30 25 -30h400q25 0 25 30v400q0 120 125 120t125 -120v-400q0 -30 25 -30q175 0 175 -170v-600q0 -120 -125 -120t-125 120v450q-1 79 -75 80h-400q-25 0 -25 -30v-500q0 -120 -129 -120h-146q-125 0 -125 120z" />
<glyph unicode="L" horiz-adv-x="1000" d="M-25 99v1201q0 120 125 120q124 0 125 -120v-400q1 -30 26 -30q174 0 174 -170l1 -450q0 -30 24 -30h350q125 0 126 -120q0 -120 -126 -120h-699q-126 0 -126 119z" />
<glyph unicode="M" horiz-adv-x="1500" d="M-25 99v1151q0 171 176 171l1099 -1q175 0 175 -170v-1150q0 -120 -125 -120t-125 120v1000q0 80 -75 80h-250q-25 0 -25 -30v-1050q0 -120 -125 -120t-125 120v1050q0 30 -25 30h-249q-76 -1 -76 -80v-200q1 -30 26 -30q174 0 174 -170v-600q0 -120 -126 -120h-198 q-126 0 -126 119z" />
<glyph unicode="N" d="M-25 99v1151q0 171 176 171l799 -1q175 0 175 -170v-1150q0 -120 -125 -120t-125 120v1000q0 80 -75 80h-499q-76 -1 -76 -80v-200q1 -30 26 -30q174 0 174 -170v-600q0 -120 -126 -120h-198q-126 0 -126 119z" />
<glyph unicode="O" d="M-25 149v1100q0 170 175 170l801 1q174 -1 174 -171v-1100q0 -169 -175 -170h-800q-174 0 -175 170zM226 299q1 -80 74 -80h500q75 0 75 80v501q0 30 -25 30q-175 1 -175 169v150q-1 30 -25 31l-349 -1q-75 0 -75 -80v-800z" />
<glyph unicode="P" horiz-adv-x="1100" d="M-25 99v1151q0 171 176 171l699 -1q175 0 175 -170v-450q0 -168 -175 -170h-400q-25 0 -25 -31v-498q-1 -119 -125 -119l-199 -2q-126 0 -126 119zM225 900q1 -30 26 -30h449q75 0 75 80v150q0 80 -75 80h-399q-76 -1 -76 -80v-200z" />
<glyph unicode="Q" d="M-25 149v1100q0 170 175 170l801 1q174 -1 174 -171v-1100q0 -169 -175 -170h-161q-14 -2 -14 -29v-250q0 -120 -125 -120t-125 120v250q0 27 -14 29h-361q-174 0 -175 170zM226 299q1 -80 74 -80l200 1q25 0 25 30v50q0 120 125 120t125 -120v-50q0 -30 50 -30v-1 q50 0 50 80v501q0 30 -25 30q-175 1 -175 169v150q-1 30 -25 31l-349 -1q-75 0 -75 -80v-800z" />
<glyph unicode="R" d="M-25 100v1200q0 120 125 120h650q175 0 175 -170v-350q0 -30 25 -30q175 0 175 -170v-600q0 -120 -125 -120t-125 120v450q-1 79 -75 80h-400q-25 0 -25 -30v-500q0 -120 -129 -120h-146q-125 0 -125 120zM225 900q0 -30 25 -30h400q25 0 25 30v150q0 130 -125 130h-300 q-25 0 -25 -30v-250z" />
<glyph unicode="S" d="M-25 150v200q0 120 126 120q124 0 124 -120l1 -50q0 -80 75 -80l349 -1q24 1 25 31v350q-4 30 -25 30h-500q-175 0 -175 170v450q1 170 175 170h800q175 -1 175 -170v-200q0 -120 -125 -120t-125 120v50q0 80 -75 80h-500q-73 0 -74 -80l-1 -150q0 -80 75 -80h650 q175 0 175 -170v-550q0 -170 -174 -171l-801 1q-175 0 -175 170z" />
<glyph unicode="T" d="M-25 1300q0 120 125 120h900q125 0 125 -120t-125 -120h-300q-25 0 -25 -30v-250q0 -30 25 -30q175 0 175 -170v-600q0 -120 -125 -120h-200q-125 0 -125 120v1050q0 30 -25 30h-300q-125 0 -125 120z" />
<glyph unicode="U" d="M-25 150v1151q0 119 125 119t125 -120v-400q1 -30 26 -30q175 0 175 -170v-450q0 -30 24 -30h351q73 0 73 80l1 1000q0 120 126 121q124 -1 124 -121v-1150q0 -170 -174 -170h-801q-175 0 -175 170z" />
<glyph unicode="V" d="M-25 150v1151q0 119 125 119t125 -120v-400q1 -30 26 -30q175 0 175 -170v-450q0 -30 23 -30q5 0 59 44l325 251q42 29 42 60v725q0 120 126 121q124 -1 124 -121v-825q0 -48 -83 -114l-425 -325q-65 -56 -117 -56h-350q-175 0 -175 170z" />
<glyph unicode="W" horiz-adv-x="1500" d="M-25 151v1151q0 118 125 118t125 -120v-400q0 -30 25 -30q175 0 175 -170v-450q0 -29 25 -30l100 1q25 0 25 30v1050q0 120 125 120t125 -120v-1050q0 -30 25 -30h250q75 0 75 80v1000q0 120 125 120t125 -120v-1150q0 -170 -175 -170l-1099 -1q-176 0 -176 171z" />
<glyph unicode="X" d="M-25 100v500q0 111 78 150q-78 39 -78 150v400q0 120 125 120t125 -119v-401q0 -30 25 -30h600q25 0 25 30v400q0 120 125 120t125 -120v-400q0 -111 -78 -150q78 -39 78 -150v-500q0 -120 -125 -120t-125 120v500q-1 29 -25 30h-450q-25 0 -25 -30v-500 q0 -120 -129 -120h-146q-125 0 -125 120z" />
<glyph unicode="Y" d="M-25 800v500q0 120 125 120t125 -119v-351q0 -80 75 -80h500q75 0 75 80v350q0 120 125 120t125 -120v-500q0 -170 -175 -170h-175q-25 0 -25 -30v-500q0 -120 -129 -120h-146q-124 0 -129 120v500q0 30 -25 30h-171q-175 0 -175 170z" />
<glyph unicode="Z" d="M-25 150v400q0 113 165 168l648 250q87 43 87 82v100q-1 30 -25 30h-550q-75 0 -75 -80v-50q0 -120 -125 -120t-125 120v200q0 169 175 170h850q124 0 125 -120v-400q0 -113 -165 -168l-498 -200q-37 -18 -37 -31v-251q1 -30 25 -30h350q74 0 74 80l1 50q0 120 124 120 q126 0 126 -120v-200q0 -170 -175 -170l-801 -1q-174 1 -174 171z" />
<glyph unicode="[" horiz-adv-x="700" d="M-25 -100v1600q0 120 125 120h400q125 0 125 -120t-125 -120h-250q-24 0 -25 -30v-450q0 -30 25 -30q175 0 175 -170v-650q0 -30 25 -30h50q125 0 125 -120t-125 -120h-400q-125 0 -125 120z" />
<glyph unicode="\" d="M-25 900v400q1 120 125 120q125 0 125 -120v-250q0 -39 87 -82l648 -250q165 -55 165 -168v-450q0 -120 -125 -120h-200q-125 0 -125 120v401q0 13 -37 31l-498 200q-165 55 -165 168z" />
<glyph unicode="]" horiz-adv-x="700" d="M-25 -100q0 120 125 120h50q25 0 25 30v650q0 170 175 170q25 0 25 30v450q-1 30 -25 30h-250q-125 0 -125 120t125 120h400q125 0 125 -120v-1600q0 -120 -125 -120h-400q-125 0 -125 120z" />
<glyph unicode="^" horiz-adv-x="800" d="M-25 1550v50q1 45 33 65l151 126q59 29 91 29h200q32 0 91 -29l150 -126q34 -20 34 -65v-50q0 -70 -75 -70h-125q-37 0 -68 31q-69 69 -82 69h-50q-13 0 -82 -69q-31 -31 -68 -31h-125q-75 0 -75 70z" />
<glyph unicode="_" horiz-adv-x="1000" d="M-25 -201q0 121 125 121h700q125 0 126 -120q0 -119 -126 -120h-699q-126 0 -126 119z" />
<glyph unicode="`" horiz-adv-x="500" d="M-25 1800q0 120 125 120h200q37 0 70 -32l25 -25q30 -31 30 -63v-200q0 -120 -125 -120q-62 0 -93 31l-200 200q-32 32 -32 89z" />
<glyph unicode="a" horiz-adv-x="900" d="M-26 449q0 169 175 169l401 1q24 0 25 30v50q0 78 -75 78h-250q-25 0 -25 -29q0 -121 -125 -121t-125 121v99q0 170 175 170h499q176 0 176 -169l1 -698q0 -170 -177 -170h-499q-175 0 -175 169zM376 300q0 -80 74 -80l101 -1q24 0 24 30v102q-1 28 -26 28h-100 q-73 0 -73 -79z" />
<glyph unicode="b" horiz-adv-x="900" d="M-25 100v1200q0 120 125 120t125 -120v-250q0 -30 25 -30h400q175 0 175 -170v-700q0 -170 -175 -170h-550q-125 0 -125 120zM225 650q0 -30 25 -30q175 0 175 -170v-250q0 -30 25 -30h50q75 0 75 80v450q0 80 -75 80h-250q-25 0 -25 -30v-100z" />
<glyph unicode="c" horiz-adv-x="900" d="M-26 850q0 170 176 170h500q175 0 175 -169v-101q0 -120 -125 -120q-124 0 -125 120q-1 29 -26 30h-249q-75 0 -75 -80l1 -49q0 -30 25 -30q174 -1 174 -171v-150q0 -80 76 -81l50 1q24 0 24 30q0 120 125 120t125 -120v-100q0 -170 -176 -170h-499q-175 0 -175 169z" />
<glyph unicode="d" horiz-adv-x="900" d="M-26 850q0 170 176 170h400q25 0 25 30v250q0 120 125 120t125 -120v-1150q0 -170 -176 -170h-499q-175 0 -175 169zM225 700l2 -49q0 -30 25 -30q174 -1 174 -171l-1 -150q0 -80 76 -81q74 1 74 79l-1 400q0 80 -74 82h-200q-75 0 -75 -80z" />
<glyph unicode="e" horiz-adv-x="900" d="M-25 149v701q0 170 176 170h500q175 0 175 -169v-303q0 -169 -175 -169l-200 -1q-24 0 -24 -30l-1 -97q0 -31 24 -31l99 1q25 0 25 29q0 120 126 120q125 0 125 -120v-100q0 -170 -176 -170h-499q-175 0 -175 169zM225 751l1 -102q0 -30 25 -30l250 -2q74 1 74 81t-74 82 h-250q-26 0 -26 -29z" />
<glyph unicode="f" horiz-adv-x="700" d="M-25 100v400q0 120 125 120h50q25 0 25 30v100q0 30 -25 30h-50q-125 0 -125 120t125 120h50q25 0 25 30v200q0 171 176 171l249 -1q125 0 126 -120q0 -120 -125 -120h-100q-76 -1 -76 -80v-50q1 -30 26 -30h49q125 0 126 -120q0 -119 -126 -120h-50q-25 0 -25 -31v-649 q0 -120 -125 -120h-200q-125 0 -125 120z" />
<glyph unicode="g" horiz-adv-x="900" d="M-26 850q0 170 176 170h500q175 0 175 -169v-1101q0 -170 -175 -170h-450q-125 0 -125 120t125 120h300q75 0 75 80v50q0 30 -25 30h-400q-175 0 -175 169zM225 700l1 -49q0 -30 25 -30q174 -1 174 -171v-150q0 -80 76 -81q74 1 74 79l-1 400q0 80 -74 82h-200 q-75 0 -75 -80z" />
<glyph unicode="h" horiz-adv-x="900" d="M-25 100v1200q0 120 125 120t125 -120v-280h425q175 0 175 -170v-750q0 -120 -125 -120t-125 120v600q0 80 -75 80h-250q-25 0 -25 -30v-100q0 -30 25 -30q175 0 175 -170v-350q0 -120 -125 -120h-200q-125 0 -125 120z" />
<glyph unicode="i" horiz-adv-x="500" d="M-25 100v800q0 120 125 120t125 -120v-250q0 -30 25 -30q175 0 175 -170v-350q0 -120 -125 -120h-200q-125 0 -125 120zM-25 1200v100q0 120 125 120h200q125 0 125 -120v-100q0 -120 -125 -120h-200q-125 0 -125 120z" />
<glyph unicode="j" horiz-adv-x="500" d="M-125 -300q0 120 125 120h100q75 0 75 80v50q0 30 -25 30h-50q-125 0 -125 120v800q0 120 125 120t125 -120v-250q0 -30 25 -30q175 0 175 -170v-700q0 -170 -175 -170h-250q-125 0 -125 120zM-25 1200v100q0 120 125 120h200q125 0 125 -120v-100q0 -120 -125 -120h-200 q-125 0 -125 120z" />
<glyph unicode="k" horiz-adv-x="900" d="M-25 100v1200q0 120 125 120t125 -120v-650q0 -30 25 -30h100q25 0 25 30v250q0 120 125 120t125 -120v-250q0 -30 25 -30q175 0 175 -170v-350q0 -120 -125 -120t-125 120v200q0 80 -75 80h-50q-25 0 -25 -30v-250q0 -120 -125 -120h-200q-125 0 -125 120z" />
<glyph unicode="l" horiz-adv-x="500" d="M-25 100v1200q0 120 125 120t125 -120v-250q0 -30 25 -30q175 0 175 -170v-750q0 -120 -125 -120h-200q-125 0 -125 120z" />
<glyph unicode="m" horiz-adv-x="1300" d="M-26 850q0 170 176 170h900q175 0 175 -169v-751q0 -120 -125 -120t-125 120l-1 598q0 80 -74 82h-150q-25 0 -25 -30v-650q0 -120 -125 -120t-125 120v650q0 30 -25 30h-150q-75 0 -75 -80l1 -49q0 -30 25 -30q174 -1 174 -171v-350q0 -120 -125 -120h-200 q-125 0 -125 120z" />
<glyph unicode="n" horiz-adv-x="900" d="M-26 850q0 170 176 170h500q175 0 175 -169v-751q0 -120 -125 -120t-125 120l-1 598q0 80 -74 82h-200q-75 0 -75 -80l1 -49q0 -30 25 -30q174 -1 174 -171v-350q0 -120 -125 -120h-200q-125 0 -125 120z" />
<glyph unicode="o" horiz-adv-x="900" d="M-26 850q0 170 176 170h500q175 0 175 -169v-701q0 -170 -176 -170h-499q-175 0 -175 169zM225 700l1 -49q0 -30 25 -30q174 -1 174 -171v-150q0 -80 76 -81q74 1 74 79l-1 400q0 80 -74 82h-200q-75 0 -75 -80z" />
<glyph unicode="p" horiz-adv-x="900" d="M-26 850q0 170 176 170h500q175 0 175 -169v-701q0 -170 -176 -170h-399q-25 0 -25 -30v-250q0 -120 -125 -120t-125 120zM225 700l1 -49q0 -30 25 -30q174 -1 174 -171v-150q0 -80 76 -81q74 1 74 79l-1 400q0 80 -74 82h-200q-75 0 -75 -80z" />
<glyph unicode="q" horiz-adv-x="900" d="M-26 850q0 170 176 170h500q175 0 175 -169v-1151q0 -120 -125 -120t-125 120v250q0 30 -25 30h-400q-175 0 -175 169zM225 700l1 -49q0 -30 25 -30q174 -1 174 -171v-150q0 -80 76 -81q74 1 74 79l-1 400q0 80 -74 82h-200q-75 0 -75 -80z" />
<glyph unicode="r" horiz-adv-x="800" d="M-26 850q0 170 176 170h450q125 0 125 -120t-125 -120h-300q-75 0 -75 -80l1 -49q0 -30 25 -30q174 -1 174 -171v-350q0 -120 -125 -120h-200q-125 0 -125 120z" />
<glyph unicode="s" horiz-adv-x="900" d="M-26 150l1 100q1 120 125 120t124 -121q1 -30 25 -30l101 1q74 0 74 80q0 79 -73 79l-201 1q-175 0 -175 170v298q0 169 175 169h499q176 0 176 -170v-99q0 -121 -125 -121t-125 121q0 29 -25 29h-250q-75 0 -75 -78q1 -79 75 -79l351 -1q175 0 175 -170l-1 -300 q0 -169 -175 -169h-500q-176 0 -176 170z" />
<glyph unicode="t" horiz-adv-x="700" d="M-25 900q0 120 125 120h50q25 0 25 30v250q0 120 125 120t125 -120v-250q1 -30 26 -30h49q125 0 126 -120q0 -119 -126 -120h-50q-25 0 -25 -31v-99q0 -30 25 -30h50q125 0 125 -120v-400q0 -120 -125 -120h-200q-125 0 -125 120v650q0 30 -25 30h-50q-125 0 -125 120z " />
<glyph unicode="u" horiz-adv-x="900" d="M-25 149v751q0 119 125 120q125 0 125 -120l1 -249q0 -30 25 -30q174 -1 174 -171v-150q0 -80 76 -81q74 1 74 79v602q0 120 125 120t125 -120v-750q0 -170 -176 -170h-499q-175 0 -175 169z" />
<glyph unicode="v" horiz-adv-x="900" d="M-25 150v751q0 119 125 119t125 -120l-1 -250q1 -30 26 -30q175 0 175 -170l1 -200q0 -30 23 -30q14 1 57 42l51 52q18 18 18 61v525q0 120 126 121q124 -1 124 -121v-600q0 -57 -57 -114l-148 -148q-57 -58 -120 -58h-350q-175 0 -175 170z" />
<glyph unicode="w" horiz-adv-x="1300" d="M-26 150l1 750q0 120 125 120t125 -120v-250q0 -30 25 -30q175 0 175 -170v-200q0 -30 25 -30t25 30v650q0 120 125 120t125 -120v-650q0 -30 25 -30h150q74 2 74 82l1 598q0 120 125 120t125 -120v-751q0 -169 -175 -169h-900q-176 0 -176 170z" />
<glyph unicode="x" horiz-adv-x="900" d="M-25 100v250q0 111 78 150q-78 39 -78 150v250q0 120 125 120t125 -119v-251q0 -30 25 -30h300q25 0 25 30v250q0 120 125 120t125 -120v-250q0 -111 -78 -150q78 -39 78 -150v-250q0 -120 -125 -120t-125 120v250q-1 29 -25 30h-150q-25 0 -25 -30v-250 q0 -120 -129 -120h-146q-125 0 -125 120z" />
<glyph unicode="y" horiz-adv-x="900" d="M-25 149v751q0 120 125 120t125 -120l1 -249q0 -30 25 -30q174 -1 174 -171v-150q0 -80 76 -81q74 1 74 79v601q0 121 125 121t125 -120v-1150q0 -170 -175 -170h-450q-125 0 -125 120t125 120h300q75 0 75 80v50q0 30 -25 30h-400q-175 0 -175 169z" />
<glyph unicode="z" horiz-adv-x="900" d="M-25 149v201q1 114 165 168l348 150q87 43 87 82q0 28 -26 30h-298q-26 -2 -26 -32q0 -121 -125 -121t-125 121v99q0 170 176 170h499q175 0 175 -169v-247q0 -87 -162 -167l-201 -102q-86 -44 -86 -82q0 -29 24 -29h51l100 -2q24 0 25 30q0 121 124 121t125 -120l1 -100 q0 -170 -176 -170h-500q-175 0 -175 169z" />
<glyph unicode="{" horiz-adv-x="800" d="M-25 750q0 120 125 120q25 0 25 30v550q0 169 175 170h300q125 0 125 -120t-125 -120h-150q-75 0 -75 -80v-400q0 -30 25 -30q175 0 175 -170v-650q0 -30 25 -30q125 0 125 -120t-125 -120l-301 -2q-174 1 -174 171v651q-1 29 -25 30q-125 0 -125 120z" />
<glyph unicode="|" horiz-adv-x="300" d="M-25 -100v1600q0 120 125 120t125 -120v-1600q0 -120 -125 -120t-125 120z" />
<glyph unicode="}" horiz-adv-x="800" d="M-25 -100q0 120 125 120q25 0 25 30v650q0 170 175 170q25 0 25 30v400q0 80 -75 80h-150q-125 0 -125 120t125 120h300q175 -1 175 -170v-550q0 -30 25 -30q125 0 125 -120t-125 -120q-24 -1 -25 -30v-651q0 -170 -174 -171l-301 2q-125 0 -125 120z" />
<glyph unicode="~" horiz-adv-x="900" d="M-25 1600v100q0 120 125 120h250q62 0 118 -56q44 -44 82 -44q25 0 25 30q0 70 75 70h50q124 0 124 -118v-102q0 -120 -119 -120h-255q-62 0 -118 56q-44 44 -82 44q-25 0 -25 -30q0 -70 -75 -70h-50q-125 0 -125 120z" />
<glyph unicode="&#xa1;" horiz-adv-x="500" d="M-25 550v350q0 120 125 120h200q125 0 125 -120v-800q0 -120 -125 -120t-125 120v250q0 30 -25 30q-175 0 -175 170zM-25 1200v100q0 120 125 120h200q125 0 125 -120v-100q0 -120 -125 -120h-200q-125 0 -125 120z" />
<glyph unicode="&#xa2;" horiz-adv-x="900" d="M-25 1050q0 170 176 170h99q25 0 25 30v50q0 120 125 120t125 -120v-50q0 -30 25 -30h101q175 0 175 -169v-101q0 -120 -125 -120q-124 0 -125 120q-1 29 -26 30h-249q-75 0 -75 -80l1 -49q0 -30 25 -30q174 -1 174 -171v-150q0 -80 76 -81l50 1q24 0 24 30 q0 120 125 120t125 -120v-100q0 -170 -176 -170h-100q-25 0 -25 -30v-50q0 -120 -125 -120t-125 120v50q0 30 -25 30h-99q-175 0 -175 169z" />
<glyph unicode="&#xa3;" horiz-adv-x="1000" d="M-25 100v400q0 120 125 120h50q25 0 25 30v100q0 30 -25 30h-50q-125 0 -125 120t125 120h50q25 0 25 30v200q0 171 176 171l249 -1q125 0 126 -120q0 -120 -125 -120h-100q-76 -1 -76 -80v-50q1 -30 26 -30h49q125 0 126 -120q0 -119 -126 -120h-50q-25 0 -25 -31v-499 q0 -30 25 -30h350q125 0 125 -120t-125 -120h-700q-125 0 -125 120z" />
<glyph unicode="&#xa4;" d="M-25 100v500q0 111 78 150q-78 39 -78 150v400q0 120 125 120t125 -119v-352q0 170 175 170l300 1q174 -1 175 -170v350q0 120 125 120t125 -120v-400q0 -111 -78 -150q78 -39 78 -150v-500q0 -120 -125 -120t-125 120v450q0 -169 -175 -170l-300 -1q-26 0 -26 -1h1v-278 q0 -120 -129 -120h-146q-125 0 -125 120zM476 699q1 -79 74 -79q75 0 75 80v100q0 79 -74 79q-75 0 -75 -80v-100z" />
<glyph unicode="&#xa5;" d="M-25 900v400q0 120 125 120t125 -119v-251q0 -80 75 -80h500q75 0 75 80v250q0 120 125 120t125 -120v-400q0 -170 -175 -170h-175q-25 0 -25 -30t26 -30h124q125 0 126 -120q0 -119 -126 -120h-125q-25 0 -25 -30t26 -30h124q125 0 126 -120q0 -119 -126 -120h-125 q-25 0 -25 -30q0 -120 -129 -120h-146q-124 0 -129 120q0 30 -21 30h-124q-126 0 -126 119q0 121 125 121h125q21 0 21 23v7q0 30 -21 30h-124q-126 0 -126 119q0 121 125 121h125q21 0 21 30t-25 30h-171q-175 0 -175 170z" />
<glyph unicode="&#xa6;" horiz-adv-x="300" d="M-25 -100v600q0 120 125 120t125 -120v-600q0 -120 -125 -120t-125 120zM-25 900v600q0 120 125 120t125 -120v-600q0 -120 -125 -120t-125 120z" />
<glyph unicode="&#xa7;" d="M-26 1450q1 170 175 170h800q175 -1 175 -170v-200q0 -120 -125 -120t-125 120v50q0 80 -75 80h-500q-73 0 -74 -80v-351q0 170 175 170l300 1q174 -1 175 -170v-80h75q175 0 175 -170v-750q0 -170 -174 -171l-801 1q-175 0 -175 170v200q0 120 126 120q124 0 124 -120 l1 -50q0 -80 75 -80l349 -1q24 1 25 31v330l-275 -1q-174 0 -175 170v81h-75q-175 0 -175 170zM476 699q1 -79 74 -79q75 0 75 80v100q0 79 -74 79q-75 0 -75 -80v-100z" />
<glyph unicode="&#xa8;" horiz-adv-x="1000" d="M-25 1600v100q0 120 125 120h200q125 0 125 -120v-100q0 -120 -125 -120h-200q-125 0 -125 120zM475 1600v100q0 120 125 120h200q125 0 125 -120v-100q0 -120 -125 -120h-200q-125 0 -125 120z" />
<glyph unicode="&#xa9;" horiz-adv-x="1250" d="M-25 550l1 1000q0 170 175 170h851q174 -1 174 -171l-1 -1000q0 -169 -175 -170l-850 1q-174 0 -175 170zM226 700q1 -80 74 -80h550q75 0 75 79l1 700q0 80 -76 81h-548q-75 0 -75 -80zM275 775v550q0 95 100 95h400q100 0 100 -95v-100q0 -70 -75 -70t-75 70v25 q-1 30 -25 30h-250q-25 0 -25 -30v-100q0 -5 1 -5q100 0 100 -94l-1 -226v-5h175q25 0 25 30v25q0 70 75 70t75 -70v-100q0 -95 -100 -95h-400q-100 0 -100 95z" />
<glyph unicode="&#xaa;" horiz-adv-x="1650" d="M0 200v1100q0 200 200 200h1100q200 0 200 -200v-1100q0 -200 -200 -200h-1100q-200 0 -200 200zM25 200q1 -175 175 -175h1101q174 0 174 176v1099q0 175 -175 175h-1100q-174 0 -175 -175v-1100z" />
<glyph unicode="&#xab;" horiz-adv-x="2100" d="M-25 550v300q0 113 165 168l501 201q253 101 309 101h50q125 0 125 -120q0 -113 -165 -168l-486 -187q-78 -33 -99 -97v-96q21 -64 99 -97l486 -187q165 -55 165 -168q0 -120 -125 -120h-50q-56 0 -309 101l-501 201q-165 55 -165 168zM875 550v300q0 113 165 168 l501 201q253 101 309 101h50q125 0 125 -120q0 -113 -165 -168l-486 -187q-78 -33 -99 -97v-96q21 -64 99 -97l486 -187q165 -55 165 -168q0 -120 -125 -120h-50q-56 0 -309 101l-501 201q-165 55 -165 168z" />
<glyph unicode="&#xac;" horiz-adv-x="1650" d="M0 200v1100q0 200 200 200h1100q200 0 200 -200v-1100q0 -200 -200 -200h-1100q-200 0 -200 200zM25 200q1 -175 175 -175h1101q174 0 174 176v1099q0 175 -175 175h-1100q-174 0 -175 -175v-1100z" />
<glyph unicode="&#xad;" horiz-adv-x="1000" d="M-25 749q0 121 125 121h700q125 0 126 -120q0 -119 -126 -120h-699q-126 0 -126 119z" />
<glyph unicode="&#xae;" horiz-adv-x="1250" d="M-25 550l1 1000q0 170 175 170h851q174 -1 174 -171l-1 -1000q0 -169 -175 -170l-850 1q-174 0 -175 170zM226 700q1 -80 74 -80h550q75 0 75 79l1 700q0 80 -76 81h-548q-75 0 -75 -80zM275 750v600q0 70 75 70h325q100 0 100 -95v-180q100 0 100 -95v-300 q0 -70 -75 -70t-75 70v225q0 30 -25 30h-200v-255q0 -70 -77 -70h-73q-75 0 -75 70zM425 1145h200v80q0 55 -50 55h-150v-135z" />
<glyph unicode="&#xaf;" horiz-adv-x="1650" d="M0 200v1100q0 200 200 200h1100q200 0 200 -200v-1100q0 -200 -200 -200h-1100q-200 0 -200 200zM25 200q1 -175 175 -175h1101q174 0 174 176v1099q0 175 -175 175h-1100q-174 0 -175 -175v-1100z" />
<glyph unicode="&#xb0;" horiz-adv-x="600" d="M-25 1750q0 111 79.5 190.5t195.5 79.5t195.5 -79.5t79.5 -190.5t-79.5 -190.5t-195.5 -79.5t-195.5 79.5t-79.5 190.5zM225 1750q0 -14 8 -22t17 -8t17 8t8 22t-8 22t-17 8t-17 -8t-8 -22z" />
<glyph unicode="&#xb1;" horiz-adv-x="1000" d="M-25 149q0 121 125 121h700q125 0 126 -120q0 -119 -126 -120h-699q-126 0 -126 119zM-25 849q0 121 125 121h100q25 0 25 30v250q0 120 125 120h200q125 0 125 -120v-250q0 -30 25 -30h100q125 0 126 -120q0 -119 -126 -120h-100q-25 0 -25 -30v-250q0 -120 -125 -120 h-200q-125 0 -125 120v250q0 30 -24 30h-100q-126 0 -126 119z" />
<glyph unicode="&#xb2;" horiz-adv-x="1650" d="M0 200v1100q0 200 200 200h1100q200 0 200 -200v-1100q0 -200 -200 -200h-1100q-200 0 -200 200zM25 200q1 -175 175 -175h1101q174 0 174 176v1099q0 175 -175 175h-1100q-174 0 -175 -175v-1100z" />
<glyph unicode="&#xb3;" horiz-adv-x="1650" d="M0 200v1100q0 200 200 200h1100q200 0 200 -200v-1100q0 -200 -200 -200h-1100q-200 0 -200 200zM25 200q1 -175 175 -175h1101q174 0 174 176v1099q0 175 -175 175h-1100q-174 0 -175 -175v-1100z" />
<glyph unicode="&#xb4;" horiz-adv-x="500" d="M-25 1600v200q0 32 31 63l25 25q32 32 69 32h200q125 0 125 -120q0 -57 -32 -89l-200 -200q-31 -31 -93 -31q-125 0 -125 120z" />
<glyph unicode="&#xb5;" horiz-adv-x="900" d="M-25 -300v1200q0 119 125 120q125 0 125 -120l1 -249q0 -30 25 -30q174 -1 174 -171v-150q0 -80 76 -81q74 1 74 79v602q0 120 125 120t125 -120v-750q0 -170 -176 -170h-399q-25 0 -25 -30v-250q0 -120 -125 -120t-125 120z" />
<glyph unicode="&#xb6;" horiz-adv-x="1100" d="M-25 800v450q0 170 175 170h700q176 0 176 -171l-1 -1150q0 -119 -126 -119l-199 2q-124 0 -125 119v998q0 31 -25 31t-25 -30v-1000q0 -120 -125 -120t-125 120v500q0 30 -25 30h-100q-175 2 -175 170z" />
<glyph unicode="&#xb7;" horiz-adv-x="500" d="M-25 700v100q0 120 125 120h200q125 0 125 -120v-100q0 -120 -125 -120h-200q-125 0 -125 120z" />
<glyph unicode="&#xb8;" horiz-adv-x="600" d="M-25 -300q0 120 125 120h100q75 0 75 80t-75 80q-125 0 -125 120t125 120h150q175 0 175 -170v-300q0 -170 -175 -170h-250q-125 0 -125 120z" />
<glyph unicode="&#xb9;" horiz-adv-x="1650" d="M0 200v1100q0 200 200 200h1100q200 0 200 -200v-1100q0 -200 -200 -200h-1100q-200 0 -200 200zM25 200q1 -175 175 -175h1101q174 0 174 176v1099q0 175 -175 175h-1100q-174 0 -175 -175v-1100z" />
<glyph unicode="&#xba;" horiz-adv-x="1650" d="M0 200v1100q0 200 200 200h1100q200 0 200 -200v-1100q0 -200 -200 -200h-1100q-200 0 -200 200zM25 200q1 -175 175 -175h1101q174 0 174 176v1099q0 175 -175 175h-1100q-174 0 -175 -175v-1100z" />
<glyph unicode="&#xbb;" horiz-adv-x="2100" d="M-25 200q0 113 165 168l486 187q78 33 99 97v96q-21 64 -99 97l-486 187q-165 55 -165 168q0 120 125 120h50q56 0 309 -101l501 -201q165 -55 165 -168v-300q0 -113 -165 -168l-501 -201q-253 -101 -309 -101h-50q-125 0 -125 120zM875 200q0 113 165 168l486 187 q78 33 99 97v96q-21 64 -99 97l-486 187q-165 55 -165 168q0 120 125 120h50q56 0 309 -101l501 -201q165 -55 165 -168v-300q0 -113 -165 -168l-501 -201q-253 -101 -309 -101h-50q-125 0 -125 120z" />
<glyph unicode="&#xbc;" horiz-adv-x="1650" d="M0 200v1100q0 200 200 200h1100q200 0 200 -200v-1100q0 -200 -200 -200h-1100q-200 0 -200 200zM25 200q1 -175 175 -175h1101q174 0 174 176v1099q0 175 -175 175h-1100q-174 0 -175 -175v-1100z" />
<glyph unicode="&#xbd;" horiz-adv-x="1650" d="M0 200v1100q0 200 200 200h1100q200 0 200 -200v-1100q0 -200 -200 -200h-1100q-200 0 -200 200zM25 200q1 -175 175 -175h1101q174 0 174 176v1099q0 175 -175 175h-1100q-174 0 -175 -175v-1100z" />
<glyph unicode="&#xbe;" horiz-adv-x="1650" d="M0 200v1100q0 200 200 200h1100q200 0 200 -200v-1100q0 -200 -200 -200h-1100q-200 0 -200 200zM25 200q1 -175 175 -175h1101q174 0 174 176v1099q0 175 -175 175h-1100q-174 0 -175 -175v-1100z" />
<glyph unicode="&#xbf;" horiz-adv-x="1100" d="M-25 151v450q0 168 175 170l350 2q75 0 75 80v51q1 119 125 119h199q126 0 126 -119v-201q0 -170 -175 -170l-550 -2q-75 0 -75 -80v-150q0 -80 75 -80h399q76 1 76 80v52q0 120 125 120t125 -120v-202q0 -171 -176 -171l-699 1q-175 0 -175 170zM575 1203v100 q0 120 125 120h200q125 0 125 -120v-100q0 -120 -125 -120h-200q-125 0 -125 120z" />
<glyph unicode="&#xc0;" d="M-25 100v600q0 170 150 170v380q0 170 175 170h500q175 0 175 -170v-380q150 0 150 -170v-600q0 -120 -125 -120t-125 120v450q-1 79 -75 80h-299q-60 -4 -76 -82v-448q0 -120 -129 -120h-196q-125 0 -125 120zM325 1800q0 120 125 120h200q37 0 70 -32l25 -25 q30 -31 30 -63v-200q0 -120 -125 -120q-62 0 -93 31l-200 200q-32 32 -32 89zM375 901q0 -30 25 -30l300 -1q25 0 25 30v200q0 80 -75 80h-200q-75 0 -75 -80v-199z" />
<glyph unicode="&#xc1;" d="M-25 100v600q0 170 150 170v380q0 170 175 170h500q175 0 175 -170v-380q150 0 150 -170v-600q0 -120 -125 -120t-125 120v450q-1 79 -75 80h-299q-60 -4 -76 -82v-448q0 -120 -129 -120h-196q-125 0 -125 120zM325 1600v200q0 32 31 63l25 25q32 32 69 32h200 q125 0 125 -120q0 -57 -32 -89l-200 -200q-31 -31 -93 -31q-125 0 -125 120zM375 901q0 -30 25 -30l300 -1q25 0 25 30v200q0 80 -75 80h-200q-75 0 -75 -80v-199z" />
<glyph unicode="&#xc2;" d="M-25 100v600q0 170 150 170v380q0 170 175 170h500q175 0 175 -170v-380q150 0 150 -170v-600q0 -120 -125 -120t-125 120v450q-1 79 -75 80h-299q-60 -4 -76 -82v-448q0 -120 -129 -120h-196q-125 0 -125 120zM175 1550v50q1 45 33 65l151 126q59 29 91 29h200 q32 0 91 -29l150 -126q34 -20 34 -65v-50q0 -70 -75 -70h-125q-37 0 -68 31q-69 69 -82 69h-50q-13 0 -82 -69q-31 -31 -68 -31h-125q-75 0 -75 70zM375 901q0 -30 25 -30l300 -1q25 0 25 30v200q0 80 -75 80h-200q-75 0 -75 -80v-199z" />
<glyph unicode="&#xc3;" d="M-25 100v600q0 170 150 170v380q0 170 175 170h500q175 0 175 -170v-380q150 0 150 -170v-600q0 -120 -125 -120t-125 120v450q-1 79 -75 80h-299q-60 -4 -76 -82v-448q0 -120 -129 -120h-196q-125 0 -125 120zM125 1600v100q0 120 125 120h250q62 0 118 -56 q44 -44 82 -44q25 0 25 30q0 70 75 70h50q125 0 125 -120v-100q0 -120 -120 -120h-255q-62 0 -118 56q-44 44 -82 44q-25 0 -25 -30q0 -70 -75 -70h-50q-125 0 -125 120zM375 901q0 -30 25 -30l300 -1q25 0 25 30v200q0 80 -75 80h-200q-75 0 -75 -80v-199z" />
<glyph unicode="&#xc4;" d="M-25 100v600q0 170 150 170v380q0 170 175 170h500q175 0 175 -170v-380q150 0 150 -170v-600q0 -120 -125 -120t-125 120v450q-1 79 -75 80h-299q-60 -4 -76 -82v-448q0 -120 -129 -120h-196q-125 0 -125 120zM75 1600v100q0 120 125 120h200q125 0 125 -120v-100 q0 -120 -125 -120h-200q-125 0 -125 120zM375 901q0 -30 25 -30l300 -1q25 0 25 30v200q0 80 -75 80h-200q-75 0 -75 -80v-199zM575 1600v100q0 120 125 120h200q125 0 125 -120v-100q0 -120 -125 -120h-200q-125 0 -125 120z" />
<glyph unicode="&#xc5;" d="M-25 100v600q0 170 150 170v380q0 170 175 170h500q175 0 175 -170v-380q150 0 150 -170v-600q0 -120 -125 -120t-125 120v450q-1 79 -75 80h-299q-60 -4 -76 -82v-448q0 -120 -129 -120h-196q-125 0 -125 120zM275 1750q0 111 79.5 190.5t195.5 79.5t195.5 -79.5 t79.5 -190.5t-79.5 -190.5t-195.5 -79.5t-195.5 79.5t-79.5 190.5zM375 901q0 -30 25 -30l300 -1q25 0 25 30v200q0 80 -75 80h-200q-75 0 -75 -80v-199zM525 1750q0 -14 8 -22t17 -8t17 8t8 22t-8 22t-17 8t-17 -8t-8 -22z" />
<glyph unicode="&#xc6;" horiz-adv-x="1750" d="M-25 100v600q0 170 150 170v380q0 170 175 170l1249 -1q125 0 126 -120q0 -120 -125 -120h-500q-68 -1 -75 -62v-229q3 -19 25 -19h549q125 0 126 -120q0 -119 -126 -119l-350 -1q-23 0 -24 -31v-349q0 -30 24 -30h350q125 0 126 -120q0 -120 -126 -120h-699 q-126 0 -126 119v532h-223q-60 -4 -76 -82v-448q0 -120 -129 -120h-196q-125 0 -125 120zM375 901q0 -30 25 -30l300 -1q25 0 25 30v200q0 80 -75 80h-200q-75 0 -75 -80v-199z" />
<glyph unicode="&#xc7;" d="M-25 150v1100q0 169 175 170h800q174 0 175 -170v-200q0 -120 -125 -120t-125 121l-1 49q-1 80 -74 80h-500q-75 0 -75 -80v-200q0 -30 26 -30q175 -1 175 -169l-1 -451q1 -30 25 -31h133q7 1 17 1h199q75 0 75 80l1 50q0 120 125 120t125 -120v-200q0 -170 -175 -170 q-25 0 -25 -30v-200q0 -170 -175 -170h-250q-125 0 -125 120t125 120h100q75 0 75 80q0 76 -63 80l-463 -1q-174 1 -174 171z" />
<glyph unicode="&#xc8;" horiz-adv-x="1000" d="M-25 99v1151q0 171 176 171l649 -1q125 0 126 -120q0 -120 -125 -120h-500q-76 -1 -76 -80v-200q1 -30 26 -30h549q125 0 126 -120q0 -119 -126 -119l-350 -1q-23 0 -24 -31v-349q0 -30 24 -30h350q125 0 126 -120q0 -120 -126 -120h-699q-126 0 -126 119zM225 1800 q0 120 125 120h200q37 0 70 -32l25 -25q30 -31 30 -63v-200q0 -120 -125 -120q-62 0 -93 31l-200 200q-32 32 -32 89z" />
<glyph unicode="&#xc9;" horiz-adv-x="1000" d="M-25 99v1151q0 171 176 171l649 -1q125 0 126 -120q0 -120 -125 -120h-500q-76 -1 -76 -80v-200q1 -30 26 -30h549q125 0 126 -120q0 -119 -126 -119l-350 -1q-23 0 -24 -31v-349q0 -30 24 -30h350q125 0 126 -120q0 -120 -126 -120h-699q-126 0 -126 119zM225 1600v200 q0 32 31 63l25 25q32 32 69 32h200q125 0 125 -120q0 -57 -32 -89l-200 -200q-31 -31 -93 -31q-125 0 -125 120z" />
<glyph unicode="&#xca;" horiz-adv-x="1000" d="M-25 99v1151q0 171 176 171l649 -1q125 0 126 -120q0 -120 -125 -120h-500q-76 -1 -76 -80v-200q1 -30 26 -30h549q125 0 126 -120q0 -119 -126 -119l-350 -1q-23 0 -24 -31v-349q0 -30 24 -30h350q125 0 126 -120q0 -120 -126 -120h-699q-126 0 -126 119zM75 1550v50 q1 45 33 65l151 126q59 29 91 29h200q32 0 91 -29l150 -126q34 -20 34 -65v-50q0 -70 -75 -70h-125q-37 0 -68 31q-69 69 -82 69h-50q-13 0 -82 -69q-31 -31 -68 -31h-125q-75 0 -75 70z" />
<glyph unicode="&#xcb;" horiz-adv-x="1000" d="M-25 99v1151q0 171 176 171l649 -1q125 0 126 -120q0 -120 -125 -120h-500q-76 -1 -76 -80v-200q1 -30 26 -30h549q125 0 126 -120q0 -119 -126 -119l-350 -1q-23 0 -24 -31v-349q0 -30 24 -30h350q125 0 126 -120q0 -120 -126 -120h-699q-126 0 -126 119zM-25 1600v100 q0 120 125 120h200q125 0 125 -120v-100q0 -120 -125 -120h-200q-125 0 -125 120zM475 1600v100q0 120 125 120h200q125 0 125 -120v-100q0 -120 -125 -120h-200q-125 0 -125 120z" />
<glyph unicode="&#xcc;" horiz-adv-x="500" d="M-25 100v1200q0 120 125 120t125 -120v-400q0 -30 25 -30q175 0 175 -170v-600q0 -120 -125 -120h-200q-125 0 -125 120zM-25 1800q0 120 125 120h200q37 0 70 -32l25 -25q30 -31 30 -63v-200q0 -120 -125 -120q-62 0 -93 31l-200 200q-32 32 -32 89z" />
<glyph unicode="&#xcd;" horiz-adv-x="500" d="M-25 100v1200q0 120 125 120t125 -120v-400q0 -30 25 -30q175 0 175 -170v-600q0 -120 -125 -120h-200q-125 0 -125 120zM-25 1600v200q0 32 31 63l25 25q32 32 69 32h200q125 0 125 -120q0 -57 -32 -89l-200 -200q-31 -31 -93 -31q-125 0 -125 120z" />
<glyph unicode="&#xce;" horiz-adv-x="500" d="M-175 1550v50q1 45 33 65l151 126q59 29 91 29h200q32 0 91 -29l150 -126q34 -20 34 -65v-50q0 -70 -75 -70h-125q-37 0 -68 31q-69 69 -82 69h-50q-13 0 -82 -69q-31 -31 -68 -31h-125q-75 0 -75 70zM-25 100v1200q0 120 125 120t125 -120v-400q0 -30 25 -30 q175 0 175 -170v-600q0 -120 -125 -120h-200q-125 0 -125 120z" />
<glyph unicode="&#xcf;" horiz-adv-x="500" d="M-275 1600v100q0 120 125 120h200q125 0 125 -120v-100q0 -120 -125 -120h-200q-125 0 -125 120zM-25 100v1200q0 120 125 120t125 -120v-400q0 -30 25 -30q175 0 175 -170v-600q0 -120 -125 -120h-200q-125 0 -125 120zM225 1600v100q0 120 125 120h200q125 0 125 -120 v-100q0 -120 -125 -120h-200q-125 0 -125 120z" />
<glyph unicode="&#xd0;" horiz-adv-x="1400" d="M-25 750q0 120 125 120h50q25 0 25 30v400q0 120 125 120h850q175 0 175 -170v-1100q0 -170 -175 -170h-849q-126 0 -126 119v501q0 30 -25 30h-50q-125 0 -125 120zM425 900q1 -30 26 -30h199q125 0 125 -120t-125 -120q-25 0 -25 -30v-350q0 -30 25 -30h350q75 0 75 80 v800q0 80 -75 80h-550q-25 -1 -25 -30v-250z" />
<glyph unicode="&#xd1;" d="M-25 99v1151q0 171 176 171l799 -1q175 0 175 -170v-1150q0 -120 -125 -120t-125 120v1000q0 80 -75 80h-499q-76 -1 -76 -80v-200q1 -30 26 -30q174 0 174 -170v-600q0 -120 -126 -120h-198q-126 0 -126 119zM125 1600v100q0 120 125 120h250q62 0 118 -56 q44 -44 82 -44q25 0 25 30q0 70 75 70h50q125 0 125 -120v-100q0 -120 -120 -120h-255q-62 0 -118 56q-44 44 -82 44q-25 0 -25 -30q0 -70 -75 -70h-50q-125 0 -125 120z" />
<glyph unicode="&#xd2;" d="M-25 149v1100q0 170 175 170l801 1q174 -1 174 -171v-1100q0 -169 -175 -170h-800q-174 0 -175 170zM226 299q1 -80 74 -80h500q75 0 75 80v501q0 30 -25 30q-175 1 -175 169v150q-1 30 -25 31l-349 -1q-75 0 -75 -80v-800zM325 1800q0 120 125 120h200q37 0 70 -32 l25 -25q30 -31 30 -63v-200q0 -120 -125 -120q-62 0 -93 31l-200 200q-32 32 -32 89z" />
<glyph unicode="&#xd3;" d="M-25 149v1100q0 170 175 170l801 1q174 -1 174 -171v-1100q0 -169 -175 -170h-800q-174 0 -175 170zM226 299q1 -80 74 -80h500q75 0 75 80v501q0 30 -25 30q-175 1 -175 169v150q-1 30 -25 31l-349 -1q-75 0 -75 -80v-800zM325 1600v200q0 32 31 63l25 25q32 32 69 32 h200q125 0 125 -120q0 -57 -32 -89l-200 -200q-31 -31 -93 -31q-125 0 -125 120z" />
<glyph unicode="&#xd4;" d="M-25 149v1100q0 170 175 170l801 1q174 -1 174 -171v-1100q0 -169 -175 -170h-800q-174 0 -175 170zM175 1550v50q1 45 33 65l151 126q59 29 91 29h200q32 0 91 -29l150 -126q34 -20 34 -65v-50q0 -70 -75 -70h-125q-37 0 -68 31q-69 69 -82 69h-50q-13 0 -82 -69 q-31 -31 -68 -31h-125q-75 0 -75 70zM226 299q1 -80 74 -80h500q75 0 75 80v501q0 30 -25 30q-175 1 -175 169v150q-1 30 -25 31l-349 -1q-75 0 -75 -80v-800z" />
<glyph unicode="&#xd5;" d="M-25 149v1100q0 170 175 170l801 1q174 -1 174 -171v-1100q0 -169 -175 -170h-800q-174 0 -175 170zM125 1600v100q0 120 125 120h250q62 0 118 -56q44 -44 82 -44q25 0 25 30q0 70 75 70h50q125 0 125 -120v-100q0 -120 -120 -120h-255q-62 0 -118 56q-44 44 -82 44 q-25 0 -25 -30q0 -70 -75 -70h-50q-125 0 -125 120zM226 299q1 -80 74 -80h500q75 0 75 80v501q0 30 -25 30q-175 1 -175 169v150q-1 30 -25 31l-349 -1q-75 0 -75 -80v-800z" />
<glyph unicode="&#xd6;" d="M-25 149v1100q0 170 175 170l801 1q174 -1 174 -171v-1100q0 -169 -175 -170h-800q-174 0 -175 170zM75 1600v100q0 120 125 120h200q125 0 125 -120v-100q0 -120 -125 -120h-200q-125 0 -125 120zM226 299q1 -80 74 -80h500q75 0 75 80v501q0 30 -25 30q-175 1 -175 169 v150q-1 30 -25 31l-349 -1q-75 0 -75 -80v-800zM575 1600v100q0 120 125 120h200q125 0 125 -120v-100q0 -120 -125 -120h-200q-125 0 -125 120z" />
<glyph unicode="&#xd7;" horiz-adv-x="900" d="M-25 300v250q0 111 78 150q-78 39 -78 150v250q0 120 125 120t125 -119v-251q0 -30 25 -30h300q25 0 25 30v250q0 120 125 120t125 -120v-250q0 -111 -78 -150q78 -39 78 -150v-250q0 -120 -125 -120t-125 120v250q-1 29 -25 30h-150q-25 0 -25 -30v-250 q0 -120 -129 -120h-146q-125 0 -125 120z" />
<glyph unicode="&#xd8;" d="M-25 149v1100q0 170 175 170l801 1q174 -1 174 -170v-1101q0 -169 -175 -170h-800q-174 0 -175 170zM226 480l449 581v88q-1 30 -25 31l-349 -1q-75 0 -75 -80v-619zM333 219h467q75 0 75 80v501q0 30 -25 30q-34 0 -43 2z" />
<glyph unicode="&#xd9;" d="M-25 150v1151q0 119 125 119t125 -120v-400q1 -30 26 -30q175 0 175 -170v-450q0 -30 24 -30h351q73 0 73 80l1 1000q0 120 126 121q124 -1 124 -121v-1150q0 -170 -174 -170h-801q-175 0 -175 170zM325 1800q0 120 125 120h200q37 0 70 -32l25 -25q30 -31 30 -63v-200 q0 -120 -125 -120q-62 0 -93 31l-200 200q-32 32 -32 89z" />
<glyph unicode="&#xda;" d="M-25 150v1151q0 119 125 119t125 -120v-400q1 -30 26 -30q175 0 175 -170v-450q0 -30 24 -30h351q73 0 73 80l1 1000q0 120 126 121q124 -1 124 -121v-1150q0 -170 -174 -170h-801q-175 0 -175 170zM325 1600v200q0 32 31 63l25 25q32 32 69 32h200q125 0 125 -120 q0 -57 -32 -89l-200 -200q-31 -31 -93 -31q-125 0 -125 120z" />
<glyph unicode="&#xdb;" d="M-25 150v1151q0 119 125 119t125 -120v-400q1 -30 26 -30q175 0 175 -170v-450q0 -30 24 -30h351q73 0 73 80l1 1000q0 120 126 121q124 -1 124 -121v-1150q0 -170 -174 -170h-801q-175 0 -175 170zM175 1550v50q1 45 33 65l151 126q59 29 91 29h200q32 0 91 -29 l150 -126q34 -20 34 -65v-50q0 -70 -75 -70h-125q-37 0 -68 31q-69 69 -82 69h-50q-13 0 -82 -69q-31 -31 -68 -31h-125q-75 0 -75 70z" />
<glyph unicode="&#xdc;" d="M-25 150v1151q0 119 125 119t125 -120v-400q1 -30 26 -30q175 0 175 -170v-450q0 -30 24 -30h351q73 0 73 80l1 1000q0 120 126 121q124 -1 124 -121v-1150q0 -170 -174 -170h-801q-175 0 -175 170zM75 1600v100q0 120 125 120h200q125 0 125 -120v-100q0 -120 -125 -120 h-200q-125 0 -125 120zM575 1600v100q0 120 125 120h200q125 0 125 -120v-100q0 -120 -125 -120h-200q-125 0 -125 120z" />
<glyph unicode="&#xdd;" d="M-25 800v500q0 120 125 120t125 -119v-351q0 -80 75 -80h500q75 0 75 80v350q0 120 125 120t125 -120v-500q0 -170 -175 -170h-175q-25 0 -25 -30v-500q0 -120 -129 -120h-146q-124 0 -129 120v500q0 30 -25 30h-171q-175 0 -175 170zM325 1600v200q0 32 31 63l25 25 q32 32 69 32h200q125 0 125 -120q0 -57 -32 -89l-200 -200q-31 -31 -93 -31q-125 0 -125 120z" />
<glyph unicode="&#xde;" horiz-adv-x="1100" d="M-25 99v1201q0 120 125 120t125 -120v-150q0 -30 25 -30l599 -1q175 0 175 -170v-450q0 -168 -175 -170h-400q-25 0 -25 -31l1 -197q-1 -119 -125 -119l-199 -2q-126 0 -126 119zM224 599q1 -30 26 -30h449q75 0 75 80v150q0 80 -75 80h-399q-76 -1 -76 -80v-200z" />
<glyph unicode="&#xdf;" d="M-25 100v1150q0 170 175 170h600q175 0 175 -170v-350q0 -30 25 -30q175 0 175 -170v-550q0 -170 -175 -170h-400q-125 0 -125 120t125 120h250q75 0 75 80v250q-1 79 -75 80h-250q-125 0 -125 120t125 120h100q25 0 25 30v200q0 80 -75 80h-300q-75 0 -75 -80v-200 q0 -30 25 -30q125 0 125 -120v-650q0 -120 -125 -120h-150q-125 0 -125 120z" />
<glyph unicode="&#xe0;" horiz-adv-x="900" d="M-26 449q0 169 175 169l401 1q24 0 25 30v50q0 78 -75 78h-250q-25 0 -25 -29q0 -121 -125 -121t-125 121v99q0 170 175 170h499q176 0 176 -169l1 -698q0 -170 -177 -170h-499q-175 0 -175 169zM175 1400q0 120 125 120h200q37 0 70 -32l25 -25q30 -31 30 -63v-200 q0 -120 -125 -120q-62 0 -93 31l-200 200q-32 32 -32 89zM376 300q0 -80 74 -80l101 -1q24 0 24 30v102q-1 28 -26 28h-100q-73 0 -73 -79z" />
<glyph unicode="&#xe1;" horiz-adv-x="900" d="M-26 449q0 169 175 169l401 1q24 0 25 30v50q0 78 -75 78h-250q-25 0 -25 -29q0 -121 -125 -121t-125 121v99q0 170 175 170h499q176 0 176 -169l1 -698q0 -170 -177 -170h-499q-175 0 -175 169zM175 1200v200q0 32 31 63l25 25q32 32 69 32h200q125 0 125 -120 q0 -57 -32 -89l-200 -200q-31 -31 -93 -31q-125 0 -125 120zM376 300q0 -80 74 -80l101 -1q24 0 24 30v102q-1 28 -26 28h-100q-73 0 -73 -79z" />
<glyph unicode="&#xe2;" horiz-adv-x="900" d="M-26 449q0 169 175 169l401 1q24 0 25 30v50q0 78 -75 78h-250q-25 0 -25 -29q0 -121 -125 -121t-125 121v99q0 170 175 170h499q176 0 176 -169l1 -698q0 -170 -177 -170h-499q-175 0 -175 169zM25 1150v50q1 45 33 65l151 126q59 29 91 29h200q32 0 91 -29l150 -126 q34 -20 34 -65v-50q0 -70 -75 -70h-125q-37 0 -68 31q-69 69 -82 69h-50q-13 0 -82 -69q-31 -31 -68 -31h-125q-75 0 -75 70zM376 300q0 -80 74 -80l101 -1q24 0 24 30v102q-1 28 -26 28h-100q-73 0 -73 -79z" />
<glyph unicode="&#xe3;" horiz-adv-x="900" d="M-26 449q0 169 175 169l401 1q24 0 25 30v50q0 78 -75 78h-250q-25 0 -25 -29q0 -121 -125 -121t-125 121v99q0 170 175 170h499q176 0 176 -169l1 -698q0 -170 -177 -170h-499q-175 0 -175 169zM-25 1200v100q0 120 125 120h250q62 0 118 -56q44 -44 82 -44q25 0 25 30 q0 70 75 70h50q125 0 125 -120v-100q0 -120 -120 -120h-255q-62 0 -118 56q-44 44 -82 44q-25 0 -25 -30q0 -70 -75 -70h-50q-125 0 -125 120zM376 300q0 -80 74 -80l101 -1q24 0 24 30v102q-1 28 -26 28h-100q-73 0 -73 -79z" />
<glyph unicode="&#xe4;" horiz-adv-x="900" d="M-75 1200v100q0 120 125 120h200q125 0 125 -120v-100q0 -120 -125 -120h-200q-125 0 -125 120zM-26 449q0 169 175 169l401 1q24 0 25 30v50q0 78 -75 78h-250q-25 0 -25 -29q0 -121 -125 -121t-125 121v99q0 170 175 170h499q176 0 176 -169l1 -698q0 -170 -177 -170 h-499q-175 0 -175 169zM376 300q0 -80 74 -80l101 -1q24 0 24 30v102q-1 28 -26 28h-100q-73 0 -73 -79zM425 1200v100q0 120 125 120h200q125 0 125 -120v-100q0 -120 -125 -120h-200q-125 0 -125 120z" />
<glyph unicode="&#xe5;" horiz-adv-x="900" d="M-26 449q0 169 175 169l401 1q24 0 25 30v50q0 78 -75 78h-250q-25 0 -25 -29q0 -121 -125 -121t-125 121v99q0 170 175 170h499q176 0 176 -169l1 -698q0 -170 -177 -170h-499q-175 0 -175 169zM125 1350q0 111 79.5 190.5t195.5 79.5t195.5 -79.5t79.5 -190.5 t-79.5 -190.5t-195.5 -79.5t-195.5 79.5t-79.5 190.5zM375 1350q0 -14 8 -22t17 -8t17 8t8 22t-8 22t-17 8t-17 -8t-8 -22zM376 300q0 -80 74 -80l101 -1q24 0 24 30v102q-1 28 -26 28h-100q-73 0 -73 -79z" />
<glyph unicode="&#xe6;" horiz-adv-x="1500" d="M-26 449q0 169 175 169l401 1q24 0 25 30v50q0 78 -75 78h-250q-25 0 -25 -29q0 -121 -125 -121t-125 121v99q0 170 175 170l1101 3q175 0 175 -169v-303q0 -169 -175 -169l-200 -1q-24 0 -24 -30l-1 -97q0 -31 24 -31l99 1q25 0 25 29q0 120 126 120q125 0 125 -120 v-100q0 -170 -176 -170h-1099q-175 0 -175 169zM376 300q0 -80 74 -80l101 -1q24 0 24 30v102q-1 28 -26 28h-100q-73 0 -73 -79zM825 751l1 -102q0 -30 25 -30l250 -2q74 1 74 81t-74 82h-250q-26 0 -26 -29z" />
<glyph unicode="&#xe7;" horiz-adv-x="900" d="M-26 850q0 170 176 170h500q175 0 175 -169v-101q0 -120 -125 -120q-124 0 -125 120q-1 29 -26 30h-249q-75 0 -75 -80l1 -49q0 -30 25 -30q174 -1 174 -171v-150q0 -80 76 -81l50 1q24 0 24 30q0 120 125 120t125 -120v-100q0 -170 -176 -170q-24 0 -24 -30v-200 q0 -170 -175 -170h-250q-125 0 -125 120t125 120h100q75 0 75 80t-75 80h-150q-175 0 -175 169z" />
<glyph unicode="&#xe8;" horiz-adv-x="900" d="M-25 149v701q0 170 176 170h500q175 0 175 -169v-303q0 -169 -175 -169l-200 -1q-24 0 -24 -30l-1 -97q0 -31 24 -31l99 1q25 0 25 29q0 120 126 120q125 0 125 -120v-100q0 -170 -176 -170h-499q-175 0 -175 169zM175 1400q0 120 125 120h200q37 0 70 -32l25 -25 q30 -31 30 -63v-200q0 -120 -125 -120q-62 0 -93 31l-200 200q-32 32 -32 89zM225 751l1 -102q0 -30 25 -30l250 -2q74 1 74 81t-74 82h-250q-26 0 -26 -29z" />
<glyph unicode="&#xe9;" horiz-adv-x="900" d="M-25 149v701q0 170 176 170h500q175 0 175 -169v-303q0 -169 -175 -169l-200 -1q-24 0 -24 -30l-1 -97q0 -31 24 -31l99 1q25 0 25 29q0 120 126 120q125 0 125 -120v-100q0 -170 -176 -170h-499q-175 0 -175 169zM175 1200v200q0 32 31 63l25 25q32 32 69 32h200 q125 0 125 -120q0 -57 -32 -89l-200 -200q-31 -31 -93 -31q-125 0 -125 120zM225 751l1 -102q0 -30 25 -30l250 -2q74 1 74 81t-74 82h-250q-26 0 -26 -29z" />
<glyph unicode="&#xea;" horiz-adv-x="900" d="M-25 149v701q0 170 176 170h500q175 0 175 -169v-303q0 -169 -175 -169l-200 -1q-24 0 -24 -30l-1 -97q0 -31 24 -31l99 1q25 0 25 29q0 120 126 120q125 0 125 -120v-100q0 -170 -176 -170h-499q-175 0 -175 169zM25 1150v50q1 45 33 65l151 126q59 29 91 29h200 q32 0 91 -29l150 -126q34 -20 34 -65v-50q0 -70 -75 -70h-125q-37 0 -68 31q-69 69 -82 69h-50q-13 0 -82 -69q-31 -31 -68 -31h-125q-75 0 -75 70zM225 751l1 -102q0 -30 25 -30l250 -2q74 1 74 81t-74 82h-250q-26 0 -26 -29z" />
<glyph unicode="&#xeb;" horiz-adv-x="900" d="M-75 1200v100q0 120 125 120h200q125 0 125 -120v-100q0 -120 -125 -120h-200q-125 0 -125 120zM-25 149v701q0 170 176 170h500q175 0 175 -169v-303q0 -169 -175 -169l-200 -1q-24 0 -24 -30l-1 -97q0 -31 24 -31l99 1q25 0 25 29q0 120 126 120q125 0 125 -120v-100 q0 -170 -176 -170h-499q-175 0 -175 169zM225 751l1 -102q0 -30 25 -30l250 -2q74 1 74 81t-74 82h-250q-26 0 -26 -29zM425 1200v100q0 120 125 120h200q125 0 125 -120v-100q0 -120 -125 -120h-200q-125 0 -125 120z" />
<glyph unicode="&#xec;" horiz-adv-x="500" d="M-25 100v800q0 120 125 120t125 -120v-250q0 -30 25 -30q175 0 175 -170v-350q0 -120 -125 -120h-200q-125 0 -125 120zM-25 1400q0 120 125 120h200q37 0 70 -32l25 -25q30 -31 30 -63v-200q0 -120 -125 -120q-62 0 -93 31l-200 200q-32 32 -32 89z" />
<glyph unicode="&#xed;" horiz-adv-x="500" d="M-25 100v800q0 120 125 120t125 -120v-250q0 -30 25 -30q175 0 175 -170v-350q0 -120 -125 -120h-200q-125 0 -125 120zM-25 1200v200q0 32 31 63l25 25q32 32 69 32h200q125 0 125 -120q0 -57 -32 -89l-200 -200q-31 -31 -93 -31q-125 0 -125 120z" />
<glyph unicode="&#xee;" horiz-adv-x="500" d="M-175 1150v50q1 45 33 65l151 126q59 29 91 29h200q32 0 91 -29l150 -126q34 -20 34 -65v-50q0 -70 -75 -70h-125q-37 0 -68 31q-69 69 -82 69h-50q-13 0 -82 -69q-31 -31 -68 -31h-125q-75 0 -75 70zM-25 100v800q0 120 125 120t125 -120v-250q0 -30 25 -30 q175 0 175 -170v-350q0 -120 -125 -120h-200q-125 0 -125 120z" />
<glyph unicode="&#xef;" horiz-adv-x="500" d="M-275 1200v100q0 120 125 120h200q125 0 125 -120v-100q0 -120 -125 -120h-200q-125 0 -125 120zM-25 100v800q0 120 125 120t125 -120v-250q0 -30 25 -30q175 0 175 -170v-350q0 -120 -125 -120h-200q-125 0 -125 120zM225 1200v100q0 120 125 120h200q125 0 125 -120 v-100q0 -120 -125 -120h-200q-125 0 -125 120z" />
<glyph unicode="&#xf0;" horiz-adv-x="1050" d="M-26 850q0 170 176 170h400q25 0 25 30v50q0 80 -75 80h-200q-125 0 -125 120t125 120h350q175 0 175 -170v-200q0 -30 25 -30q125 0 125 -120t-125 -120q-25 0 -25 -30v-600q0 -170 -176 -170h-499q-175 0 -175 169zM225 700l2 -49q0 -30 25 -30q174 -1 174 -171 l-1 -150q0 -80 76 -81q74 1 74 79l-1 400q0 80 -74 82h-200q-75 0 -75 -80z" />
<glyph unicode="&#xf1;" horiz-adv-x="900" d="M-26 850q0 170 176 170h500q175 0 175 -169v-751q0 -120 -125 -120t-125 120l-1 598q0 80 -74 82h-200q-75 0 -75 -80l1 -49q0 -30 25 -30q174 -1 174 -171v-350q0 -120 -125 -120h-200q-125 0 -125 120zM-25 1200v100q0 120 125 120h250q62 0 118 -56q44 -44 82 -44 q25 0 25 30q0 70 75 70h50q125 0 125 -120v-100q0 -120 -120 -120h-255q-62 0 -118 56q-44 44 -82 44q-25 0 -25 -30q0 -70 -75 -70h-50q-125 0 -125 120z" />
<glyph unicode="&#xf2;" horiz-adv-x="900" d="M-26 850q0 170 176 170h500q175 0 175 -169v-701q0 -170 -176 -170h-499q-175 0 -175 169zM175 1400q0 120 125 120h200q37 0 70 -32l25 -25q30 -31 30 -63v-200q0 -120 -125 -120q-62 0 -93 31l-200 200q-32 32 -32 89zM225 700l1 -49q0 -30 25 -30q174 -1 174 -171 v-150q0 -80 76 -81q74 1 74 79l-1 400q0 80 -74 82h-200q-75 0 -75 -80z" />
<glyph unicode="&#xf3;" horiz-adv-x="900" d="M-26 850q0 170 176 170h500q175 0 175 -169v-701q0 -170 -176 -170h-499q-175 0 -175 169zM175 1200v200q0 32 31 63l25 25q32 32 69 32h200q125 0 125 -120q0 -57 -32 -89l-200 -200q-31 -31 -93 -31q-125 0 -125 120zM225 700l1 -49q0 -30 25 -30q174 -1 174 -171v-150 q0 -80 76 -81q74 1 74 79l-1 400q0 80 -74 82h-200q-75 0 -75 -80z" />
<glyph unicode="&#xf4;" horiz-adv-x="900" d="M-26 850q0 170 176 170h500q175 0 175 -169v-701q0 -170 -176 -170h-499q-175 0 -175 169zM25 1150v50q1 45 33 65l151 126q59 29 91 29h200q32 0 91 -29l150 -126q34 -20 34 -65v-50q0 -70 -75 -70h-125q-37 0 -68 31q-69 69 -82 69h-50q-13 0 -82 -69q-31 -31 -68 -31 h-125q-75 0 -75 70zM225 700l1 -49q0 -30 25 -30q174 -1 174 -171v-150q0 -80 76 -81q74 1 74 79l-1 400q0 80 -74 82h-200q-75 0 -75 -80z" />
<glyph unicode="&#xf5;" horiz-adv-x="900" d="M-26 850q0 170 176 170h500q175 0 175 -169v-701q0 -170 -176 -170h-499q-175 0 -175 169zM-25 1200v100q0 120 125 120h250q62 0 118 -56q44 -44 82 -44q25 0 25 30q0 70 75 70h50q125 0 125 -120v-100q0 -120 -120 -120h-255q-62 0 -118 56q-44 44 -82 44 q-25 0 -25 -30q0 -70 -75 -70h-50q-125 0 -125 120zM225 700l1 -49q0 -30 25 -30q174 -1 174 -171v-150q0 -80 76 -81q74 1 74 79l-1 400q0 80 -74 82h-200q-75 0 -75 -80z" />
<glyph unicode="&#xf6;" horiz-adv-x="900" d="M-75 1200v100q0 120 125 120h200q125 0 125 -120v-100q0 -120 -125 -120h-200q-125 0 -125 120zM-26 850q0 170 176 170h500q175 0 175 -169v-701q0 -170 -176 -170h-499q-175 0 -175 169zM225 700l1 -49q0 -30 25 -30q174 -1 174 -171v-150q0 -80 76 -81q74 1 74 79 l-1 400q0 80 -74 82h-200q-75 0 -75 -80zM425 1200v100q0 120 125 120h200q125 0 125 -120v-100q0 -120 -125 -120h-200q-125 0 -125 120z" />
<glyph unicode="&#xf7;" horiz-adv-x="1000" d="M-25 749q0 121 125 121h700q125 0 126 -120q0 -119 -126 -120h-699q-126 0 -126 119zM225 350v100q0 120 125 120h200q125 0 125 -120v-100q0 -120 -125 -120h-200q-125 0 -125 120zM225 1050v100q0 120 125 120h200q125 0 125 -120v-100q0 -120 -125 -120h-200 q-125 0 -125 120z" />
<glyph unicode="&#xf8;" horiz-adv-x="900" d="M-26 850q0 170 176 170h500q175 0 175 -169v-701q0 -170 -176 -170h-499q-175 0 -175 169zM225 700l1 -49q0 -30 25 -30q61 0 81 -12l133 171h-165q-75 0 -75 -80zM425 300q0 -80 76 -81q74 1 74 79l-1 228l-149 -191v-35z" />
<glyph unicode="&#xf9;" horiz-adv-x="900" d="M-25 149v751q0 119 125 120q125 0 125 -120l1 -249q0 -30 25 -30q174 -1 174 -171v-150q0 -80 76 -81q74 1 74 79v602q0 120 125 120t125 -120v-750q0 -170 -176 -170h-499q-175 0 -175 169zM175 1400q0 120 125 120h200q37 0 70 -32l25 -25q30 -31 30 -63v-200 q0 -120 -125 -120q-62 0 -93 31l-200 200q-32 32 -32 89z" />
<glyph unicode="&#xfa;" horiz-adv-x="900" d="M-25 149v751q0 119 125 120q125 0 125 -120l1 -249q0 -30 25 -30q174 -1 174 -171v-150q0 -80 76 -81q74 1 74 79v602q0 120 125 120t125 -120v-750q0 -170 -176 -170h-499q-175 0 -175 169zM175 1200v200q0 32 31 63l25 25q32 32 69 32h200q125 0 125 -120 q0 -57 -32 -89l-200 -200q-31 -31 -93 -31q-125 0 -125 120z" />
<glyph unicode="&#xfb;" horiz-adv-x="900" d="M-25 149v751q0 119 125 120q125 0 125 -120l1 -249q0 -30 25 -30q174 -1 174 -171v-150q0 -80 76 -81q74 1 74 79v602q0 120 125 120t125 -120v-750q0 -170 -176 -170h-499q-175 0 -175 169zM25 1150v50q1 45 33 65l151 126q59 29 91 29h200q32 0 91 -29l150 -126 q34 -20 34 -65v-50q0 -70 -75 -70h-125q-37 0 -68 31q-69 69 -82 69h-50q-13 0 -82 -69q-31 -31 -68 -31h-125q-75 0 -75 70z" />
<glyph unicode="&#xfc;" horiz-adv-x="900" d="M-75 1200v100q0 120 125 120h200q125 0 125 -120v-100q0 -120 -125 -120h-200q-125 0 -125 120zM-25 149v751q0 119 125 120q125 0 125 -120l1 -249q0 -30 25 -30q174 -1 174 -171v-150q0 -80 76 -81q74 1 74 79v602q0 120 125 120t125 -120v-750q0 -170 -176 -170h-499 q-175 0 -175 169zM425 1200v100q0 120 125 120h200q125 0 125 -120v-100q0 -120 -125 -120h-200q-125 0 -125 120z" />
<glyph unicode="&#xfd;" horiz-adv-x="900" d="M-25 149v751q0 120 125 120t125 -120l1 -249q0 -30 25 -30q174 -1 174 -171v-150q0 -80 76 -81q74 1 74 79v601q0 121 125 121t125 -120v-1150q0 -170 -175 -170h-450q-125 0 -125 120t125 120h300q75 0 75 80v50q0 30 -25 30h-400q-175 0 -175 169zM175 1200v200 q0 32 31 63l25 25q32 32 69 32h200q125 0 125 -120q0 -57 -32 -89l-200 -200q-31 -31 -93 -31q-125 0 -125 120z" />
<glyph unicode="&#xfe;" horiz-adv-x="900" d="M-26 850q0 13 1 24v426q0 120 125 120t125 -120v-250q0 -30 25 -30h400q175 0 175 -169v-701q0 -170 -176 -170h-399q-25 0 -25 -30v-250q0 -120 -125 -120t-125 120zM225 700l1 -49q0 -30 25 -30q174 -1 174 -171v-150q0 -80 76 -81q74 1 74 79l-1 400q0 80 -74 82h-200 q-75 0 -75 -80z" />
<glyph unicode="&#xff;" horiz-adv-x="900" d="M-75 1200v100q0 120 125 120h200q125 0 125 -120v-100q0 -120 -125 -120h-200q-125 0 -125 120zM-25 149v751q0 120 125 120t125 -120l1 -249q0 -30 25 -30q174 -1 174 -171v-150q0 -80 76 -81q74 1 74 79v601q0 121 125 121t125 -120v-1150q0 -170 -175 -170h-450 q-125 0 -125 120t125 120h300q75 0 75 80v50q0 30 -25 30h-400q-175 0 -175 169zM425 1200v100q0 120 125 120h200q125 0 125 -120v-100q0 -120 -125 -120h-200q-125 0 -125 120z" />
<glyph unicode="&#x152;" horiz-adv-x="1900" d="M-25 149v1100q0 170 175 170l801 1q39 0 48 -10q11 11 52 11l649 -1q125 0 126 -120q0 -120 -125 -120h-500q-76 -1 -76 -80v-200q1 -30 26 -30h549q125 0 126 -120q0 -119 -126 -119l-350 -1q-23 0 -24 -31v-349q0 -30 24 -30h350q125 0 126 -120q0 -120 -126 -120 l-1550 -1q-174 0 -175 170zM226 299q1 -80 74 -80h500q75 0 75 80v501q0 30 -25 30q-175 1 -175 169v150q-1 30 -25 31l-349 -1q-75 0 -75 -80v-800z" />
<glyph unicode="&#x153;" horiz-adv-x="1500" d="M-26 850q0 170 176 170h500q41 0 50 -11q11 11 51 11h500q175 0 175 -169v-303q0 -169 -175 -169l-200 -1q-24 0 -24 -30l-1 -97q0 -31 24 -31l99 1q25 0 25 29q0 120 126 120q125 0 125 -120v-100q0 -170 -176 -170h-499q-41 0 -50 11q-11 -11 -51 -11h-499 q-175 0 -175 169zM225 700l1 -49q0 -30 25 -30q174 -1 174 -171v-150q0 -80 76 -81q74 1 74 79l-1 400q0 80 -74 82h-200q-75 0 -75 -80zM825 751l1 -102q0 -30 25 -30l250 -2q74 1 74 81t-74 82h-250q-26 0 -26 -29z" />
<glyph unicode="&#x2c6;" horiz-adv-x="800" d="M-25 1550v50q1 45 33 65l151 126q59 29 91 29h200q32 0 91 -29l150 -126q34 -20 34 -65v-50q0 -70 -75 -70h-125q-37 0 -68 31q-69 69 -82 69h-50q-13 0 -82 -69q-31 -31 -68 -31h-125q-75 0 -75 70z" />
<glyph unicode="&#x2dc;" horiz-adv-x="900" d="M-25 1600v100q0 120 125 120h250q62 0 118 -56q44 -44 82 -44q25 0 25 30q0 70 75 70h50q124 0 124 -118v-102q0 -120 -119 -120h-255q-62 0 -118 56q-44 44 -82 44q-25 0 -25 -30q0 -70 -75 -70h-50q-125 0 -125 120z" />
<glyph unicode="&#x2000;" horiz-adv-x="1010" />
<glyph unicode="&#x2001;" horiz-adv-x="2020" />
<glyph unicode="&#x2002;" horiz-adv-x="1010" />
<glyph unicode="&#x2003;" horiz-adv-x="2020" />
<glyph unicode="&#x2004;" horiz-adv-x="673" />
<glyph unicode="&#x2005;" horiz-adv-x="505" />
<glyph unicode="&#x2006;" horiz-adv-x="336" />
<glyph unicode="&#x2007;" horiz-adv-x="336" />
<glyph unicode="&#x2008;" horiz-adv-x="252" />
<glyph unicode="&#x2009;" horiz-adv-x="404" />
<glyph unicode="&#x200a;" horiz-adv-x="112" />
<glyph unicode="&#x2010;" horiz-adv-x="1000" d="M-25 749q0 121 125 121h700q125 0 126 -120q0 -119 -126 -120h-699q-126 0 -126 119z" />
<glyph unicode="&#x2011;" horiz-adv-x="1000" d="M-25 749q0 121 125 121h700q125 0 126 -120q0 -119 -126 -120h-699q-126 0 -126 119z" />
<glyph unicode="&#x2012;" horiz-adv-x="1000" d="M-25 749q0 121 125 121h700q125 0 126 -120q0 -119 -126 -120h-699q-126 0 -126 119z" />
<glyph unicode="&#x2013;" horiz-adv-x="1000" d="M-25 749q0 121 125 121h700q125 0 126 -120q0 -119 -126 -120h-699q-126 0 -126 119z" />
<glyph unicode="&#x2014;" horiz-adv-x="1100" d="M-25 749q0 121 125 121h799q125 0 126 -120q0 -119 -126 -120h-798q-126 0 -126 119z" />
<glyph unicode="&#x2018;" horiz-adv-x="500" d="M-25 1000v300q0 120 125 120h200q125 0 125 -120v-100q0 -57 -32 -89l-200 -200q-31 -31 -93 -31q-125 0 -125 120z" />
<glyph unicode="&#x2019;" horiz-adv-x="500" d="M-25 1200v100q0 120 125 120h200q125 0 125 -120v-300q0 -120 -125 -120q-62 0 -93 31l-200 200q-32 32 -32 89z" />
<glyph unicode="&#x201a;" horiz-adv-x="500" d="M-25 100v100q0 120 125 120h200q125 0 125 -120v-300q0 -120 -125 -120q-62 0 -93 31l-200 200q-32 32 -32 89z" />
<glyph unicode="&#x201c;" horiz-adv-x="1000" d="M-25 1000v300q0 120 125 120h200q125 0 125 -120v-100q0 -57 -32 -89l-200 -200q-31 -31 -93 -31q-125 0 -125 120zM475 1000v300q0 120 125 120h200q125 0 125 -120v-100q0 -57 -32 -89l-200 -200q-31 -31 -93 -31q-125 0 -125 120z" />
<glyph unicode="&#x201d;" horiz-adv-x="1000" d="M-25 1200v100q0 120 125 120h200q125 0 125 -120v-300q0 -120 -125 -120q-62 0 -93 31l-200 200q-32 32 -32 89zM475 1200v100q0 120 125 120h200q125 0 125 -120v-300q0 -120 -125 -120q-62 0 -93 31l-200 200q-32 32 -32 89z" />
<glyph unicode="&#x201e;" horiz-adv-x="1000" d="M-25 100v100q0 120 125 120h200q125 0 125 -120v-300q0 -120 -125 -120q-62 0 -93 31l-200 200q-32 32 -32 89zM475 100v100q0 120 125 120h200q125 0 125 -120v-300q0 -120 -125 -120q-62 0 -93 31l-200 200q-32 32 -32 89z" />
<glyph unicode="&#x2022;" horiz-adv-x="1024" d="M-38 806q0 72 41 131q69 96 206 96q132 0 251 -91.5t157 -219.5q15 -48 15 -91q0 -73 -41 -132q-70 -98 -206 -98q-133 0 -251.5 92t-156.5 221q-15 48 -15 92z" />
<glyph unicode="&#x2026;" horiz-adv-x="1500" d="M-25 100v100q0 120 125 120h200q125 0 125 -120v-100q0 -120 -125 -120h-200q-125 0 -125 120zM475 100v100q0 120 125 120h200q125 0 125 -120v-100q0 -120 -125 -120h-200q-125 0 -125 120zM975 100v100q0 120 125 120h200q125 0 125 -120v-100q0 -120 -125 -120h-200 q-125 0 -125 120z" />
<glyph unicode="&#x202f;" horiz-adv-x="404" />
<glyph unicode="&#x2039;" d="M-25 600v200q0 113 165 168l501 201q253 101 309 101h50q125 0 125 -120q0 -113 -165 -168l-486 -187q-78 -33 -98 -95q20 -62 98 -95l486 -187q165 -55 165 -168q0 -120 -125 -120h-50q-56 0 -309 101l-501 201q-165 55 -165 168z" />
<glyph unicode="&#x203a;" d="M-25 250q0 113 165 168l486 187q78 33 98 95q-20 62 -98 95l-486 187q-165 55 -165 168q0 120 125 120h50q56 0 309 -101l501 -201q165 -55 165 -168v-200q0 -113 -165 -168l-501 -201q-253 -101 -309 -101h-50q-125 0 -125 120z" />
<glyph unicode="&#x205f;" horiz-adv-x="505" />
<glyph unicode="&#x20ac;" d="M-25 500q0 120 125 120q25 0 25 30v100q0 30 -25 30q-125 0 -125 120t125 120q25 0 25 30v200q0 169 175 170h700q124 0 125 -120q0 -120 -125 -120h-550q-75 0 -75 -80v-50q0 -30 25 -30h250q125 0 125 -120t-125 -120h-50q-25 0 -25 -30l-1 -100q1 -30 26 -30h50 q125 0 125 -120t-125 -120h-50q-25 0 -25 -30v-100q1 -30 25 -31l401 1q124 0 124 -120t-125 -120l-701 -1q-174 1 -174 171v200q0 30 -25 30q-125 0 -125 120z" />
<glyph unicode="&#x2122;" horiz-adv-x="1400" d="M-25 1351q0 70 75 70h450q75 0 75 -70t-75 -70q-150 0 -150 -5v-130q100 0 100 -95v-300q0 -70 -75 -70h-100q-75 0 -75 70v530h-150q-75 0 -75 70zM575 750v576q0 95 101 95h549q100 0 100 -95v-575q0 -70 -75 -70t-75 70v500q0 30 -25 30h-125v-530q0 -70 -75 -70 t-75 70v530h-124q-26 -1 -26 -30v-100q0 -5 1 -5q99 0 99 -95v-300q0 -70 -75 -70h-99q-76 0 -76 69z" />
<glyph unicode="&#x25fc;" horiz-adv-x="1020" d="M0 0v1020h1020v-1020h-1020z" />
</font>
</defs>
</svg>
