<?xml version="1.0" standalone="no"?>
<!DOCTYPE svg PUBLIC "-//W3C//DTD SVG 1.1//EN" "http://www.w3.org/Graphics/SVG/1.1/DTD/svg11.dtd" >
<svg xmlns="http://www.w3.org/2000/svg">
<metadata></metadata>
<defs>
<font id="twobitbold_italic" horiz-adv-x="1200" >
<font-face units-per-em="2048" ascent="1638" descent="-410" />
<missing-glyph horiz-adv-x="652" />
<glyph unicode="&#xd;" horiz-adv-x="508" />
<glyph horiz-adv-x="0" />
<glyph horiz-adv-x="0" />
<glyph unicode=" "  horiz-adv-x="652" />
<glyph unicode="&#x09;" horiz-adv-x="652" />
<glyph unicode="&#xa0;" horiz-adv-x="652" />
<glyph unicode="!" horiz-adv-x="500" d="M-5 56q0 20 7 44l27 100q32 120 157 120h200q100 0 100 -76q0 -20 -7 -44l-27 -100q-32 -120 -157 -120h-200q-100 0 -100 76zM102 456q0 20 7 44l214 800q32 120 157 120q100 0 100 -76q0 -20 -7 -44l-67 -250q-2 -7 -2 -13q0 -17 19 -17q139 0 139 -108q0 -27 -9 -62 l-94 -350q-32 -120 -157 -120h-200q-100 0 -100 76z" />
<glyph unicode="&#x22;" horiz-adv-x="1000" d="M291 1158q0 19 6 42l26 100q32 120 157 120h200q100 0 100 -76q0 -20 -7 -44l-80 -300q-32 -120 -157 -120q-62 0 -85 31l-146 200q-14 19 -14 47zM791 1158q0 19 6 42l26 100q32 120 157 120h200q100 0 100 -76q0 -20 -7 -44l-80 -300q-32 -120 -157 -120q-62 0 -85 31 l-146 200q-14 19 -14 47z" />
<glyph unicode="#" horiz-adv-x="1000" d="M117 506q0 19 6 43q33 121 157 121q25 0 33 30l28 105q1 4 1 7q0 18 -20 18q-99 0 -99 75q0 20 7 45q32 120 157 120q21 0 29 19l16 61q32 120 157 120h200q100 0 100 -76q0 -20 -7 -44l-8 -30h1q-4 -17 -4 -28q0 -22 16 -22q25 0 33 30l13 50q32 120 157 120 q100 0 100 -76q0 -20 -7 -44l-15 -55q-1 -4 -1 -7q0 -18 20 -18q100 0 100 -76q0 -20 -7 -44q-33 -120 -158 -120q-21 0 -29 -19l-29 -111q-2 -7 -2 -13q0 -17 19 -17q100 0 100 -76q0 -20 -7 -44q-32 -119 -158 -120q-25 0 -33 -30l-14 -50q-32 -120 -157 -120 q-100 0 -100 76q0 20 7 44l14 50q2 7 2 13q0 17 -19 17h-1q-25 0 -33 -30l-14 -50q-32 -120 -157 -120h-200q-100 0 -100 76q0 20 7 44l14 50q2 8 2 13q0 17 -17 17q-100 0 -100 76zM761 687q0 -17 19 -17h1q25 0 33 30l21 80h-1q4 17 4 28q0 22 -16 22q-25 0 -33 -30 l-26 -100q-2 -7 -2 -13z" />
<glyph unicode="$" d="M48 256q0 20 7 44q33 120 158 120h500q74 0 96 80q3 15 3 27q0 53 -56 54l-451 -1q-139 0 -139 107q0 28 10 63l79 299q47 170 221 170h226v1q50 0 58 30l13 50q32 120 157 120q100 0 100 -76q0 -20 -7 -44l-13 -50q-1 -4 -1 -8q0 -22 43 -22v-1h274q99 -1 99 -76 q0 -20 -7 -44q-32 -120 -157 -120h-700q-73 0 -95 -79q-5 -17 -5 -31q0 -49 59 -49h650q139 0 139 -107q0 -28 -10 -63l-80 -300q-46 -170 -220 -171h-262q-15 -2 -22 -29l-13 -50q-32 -120 -157 -120q-100 0 -100 76q0 20 7 44l13 50q2 7 2 13q0 17 -19 17h-300 q-100 0 -100 76z" />
<glyph unicode="%" d="M-5 56q0 20 7 44l120 450q31 113 210 168l715 250q99 43 109 82l67 250q32 120 157 120q99 0 99 -77q0 -19 -6 -43l-107 -400q-30 -113 -210 -168l-551 -200q-42 -18 -46 -31l-107 -401q-32 -120 -157 -120h-200q-100 0 -100 76zM349 1006q0 20 7 44l27 100 q32 120 157 120h200q100 0 100 -76q0 -20 -7 -44l-27 -100q-32 -120 -157 -120h-200q-100 0 -100 76zM648 256q0 20 7 44l27 100q32 120 157 120h200q100 0 100 -76q0 -20 -7 -44l-27 -100q-32 -120 -157 -120h-200q-100 0 -100 76z" />
<glyph unicode="&#x26;" d="M6 88q0 27 9 62l148 550q45 170 220 170q25 0 33 30l94 350q45 170 220 170h400q100 0 100 -76q0 -20 -7 -44q-32 -120 -157 -120h-250q-75 0 -96 -80l-54 -200q-2 -7 -2 -13q0 -17 19 -17h250q25 0 33 30q32 120 157 120q100 0 100 -76q0 -20 -7 -44q-2 -7 -2 -13 q0 -17 19 -17q100 0 100 -76q0 -20 -7 -44q-32 -120 -157 -120q-25 0 -33 -30l-121 -450q-45 -170 -220 -170h-650q-139 0 -139 108zM490 237q0 -17 19 -17h200q75 0 96 80l81 300q2 7 2 13q0 17 -19 17h-250q-24 -1 -33 -30l-94 -350q-2 -7 -2 -13z" />
<glyph unicode="'" horiz-adv-x="500" d="M291 1158q0 19 6 42l26 100q32 120 157 120h200q100 0 100 -76q0 -20 -7 -44l-80 -300q-32 -120 -157 -120q-62 0 -85 31l-146 200q-14 19 -14 47z" />
<glyph unicode="(" horiz-adv-x="700" d="M-48 -114q0 28 10 64l402 1501q45 169 220 170l350 -1q100 0 100 -76q0 -20 -7 -44q-32 -120 -157 -120l-200 1q-75 0 -96 -80l-108 -401q-2 -7 -2 -13q0 -17 19 -17q139 0 139 -108q0 -27 -9 -62l-175 -650q-2 -7 -2 -13q0 -17 19 -17h50q100 0 100 -76q0 -20 -7 -44 q-32 -120 -157 -120l-351 -1q-138 1 -138 107z" />
<glyph unicode=")" horiz-adv-x="700" d="M-59 -144q0 20 7 44q32 120 157 120h50q25 0 33 30l175 650q45 170 220 170q25 0 33 30l108 401q5 18 5 31q0 49 -59 49l-200 -1q-100 0 -100 76q0 20 7 44q32 120 157 120l350 1q139 -1 139 -108q0 -27 -9 -62l-402 -1501q-46 -170 -220 -171l-351 1q-100 0 -100 76z " />
<glyph unicode="*" horiz-adv-x="1100" d="M209 856q0 20 7 44l40 150q30 111 119 150q-47 27 -47 89q0 27 9 61l40 150q32 120 157 120q100 0 100 -75q0 -20 -7 -44l-40 -151q-2 -7 -2 -13q0 -17 19 -17q25 0 33 30l67 250q32 120 157 120h200q100 0 100 -76q0 -20 -7 -44l-67 -250q-2 -7 -2 -13q0 -17 19 -17 q25 0 33 30l40 150q32 120 157 120q100 0 100 -76q0 -20 -7 -44l-40 -150q-30 -111 -118 -150q46 -27 46 -88q0 -28 -9 -62l-40 -150q-32 -120 -157 -120q-100 0 -100 76q0 20 7 44l40 150q2 7 2 12q0 17 -19 18q-25 0 -33 -30l-67 -250q-32 -120 -157 -120h-200 q-100 0 -100 76q0 20 7 44l67 250q2 8 2 13q0 17 -18 17h-1q-25 0 -33 -30l-40 -150q-32 -120 -157 -120q-100 0 -100 76z" />
<glyph unicode="+" horiz-adv-x="1000" d="M170 706q0 19 6 43q32 121 157 121h100q25 0 33 30l67 250q32 120 157 120h200q100 0 100 -76q0 -20 -7 -44l-67 -250q-2 -7 -2 -13q0 -17 19 -17h100q100 0 100 -77q0 -19 -6 -43q-32 -119 -158 -120h-100q-25 0 -33 -30l-67 -250q-32 -120 -157 -120h-200 q-100 0 -100 76q0 20 7 44l67 250q2 8 2 13q0 17 -18 17h-100q-100 0 -100 76z" />
<glyph unicode="," horiz-adv-x="500" d="M-4 59q0 19 6 41l27 100q32 120 157 120h200q100 0 100 -76q0 -20 -7 -44l-81 -300q-32 -120 -157 -120q-62 0 -85 31l-146 200q-14 19 -14 48z" />
<glyph unicode="-" horiz-adv-x="1000" d="M170 706q0 19 6 43q32 121 157 121h700q100 0 100 -77q0 -19 -6 -43q-32 -119 -158 -120h-699q-100 0 -100 76z" />
<glyph unicode="." horiz-adv-x="500" d="M-5 56q0 20 7 44l27 100q32 120 157 120h200q100 0 100 -76q0 -20 -7 -44l-27 -100q-32 -120 -157 -120h-200q-100 0 -100 76z" />
<glyph unicode="/" d="M-5 56q0 20 7 44l120 450q31 113 210 168l715 250q99 43 109 82l67 250q32 120 157 120q99 0 99 -77q0 -19 -6 -43l-107 -400q-30 -113 -210 -168l-551 -200q-42 -18 -46 -31l-107 -401q-32 -120 -157 -120h-200q-100 0 -100 76z" />
<glyph unicode="0" d="M6 88q0 27 9 62l295 1100q46 170 220 170h800q139 -1 139 -107q0 -28 -9 -62l-295 -1101q-45 -170 -220 -171l-800 1q-139 0 -139 108zM301 269q0 -49 59 -49l349 -1q24 1 33 31l120 450q45 169 220 169q26 0 34 31l54 200q5 18 5 31q0 49 -59 49h-500q-73 0 -95 -80 l-215 -800q-5 -17 -5 -31z" />
<glyph unicode="1" horiz-adv-x="500" d="M-5 56q0 19 7 44l161 600q45 170 220 170q25 0 33 30l107 400q32 120 157 120q100 0 100 -76q0 -20 -7 -44l-321 -1200q-32 -120 -157 -120h-201q-99 0 -99 76z" />
<glyph unicode="2" d="M6 87q0 28 9 63l148 550q45 170 220 170h650q75 0 97 80l39 150q4 17 4 31q0 49 -57 49h-500q-75 0 -96 -80l-14 -50q-32 -120 -157 -120q-100 0 -100 76q0 20 7 44l54 200q45 169 220 170h800q139 0 139 -108q0 -28 -9 -62l-121 -450q-45 -170 -220 -170h-500 q-21 0 -33 -30l-94 -350q-2 -7 -2 -12q0 -18 19 -19l550 1q100 0 100 -76q0 -20 -7 -44q-32 -120 -157 -120l-852 -1q-137 1 -137 108z" />
<glyph unicode="3" d="M6 88q0 27 9 62l54 200q32 120 157 120q100 0 100 -76q0 -20 -7 -44l-14 -50q-5 -17 -5 -31q0 -49 59 -49h350q25 0 33 30l94 350q2 7 2 12q0 17 -19 18h-350q-100 0 -100 76q0 20 7 44q32 120 157 120h350q25 0 33 30l54 200q5 18 5 31q0 49 -59 49h-300q-75 0 -96 -80 l-14 -50q-32 -120 -157 -120q-100 0 -100 76q0 20 7 44l54 200q45 170 220 170h600q139 0 139 -108q0 -27 -9 -62l-94 -350q-2 -7 -2 -13q0 -17 19 -17q139 0 139 -108q0 -27 -9 -62l-148 -550q-45 -170 -220 -170h-800q-139 0 -139 108z" />
<glyph unicode="4" d="M60 288q0 27 9 62l241 900q45 170 220 170h650q140 0 140 -108q0 -28 -9 -63l-218 -811v-2q0 -16 20 -16q99 0 99 -75q0 -20 -7 -45q-32 -120 -157 -120q-21 0 -29 -18l-17 -64q-32 -119 -158 -119l-198 2q-99 0 -99 76q0 19 6 43l13 48q2 8 2 13q0 18 -19 18l-351 1 q-138 2 -138 108zM354 469q0 -49 59 -49l399 -1q25 0 34 30l174 650q5 18 5 32q0 47 -59 48l-350 1q-75 0 -96 -80l-161 -600q-5 -17 -5 -31z" />
<glyph unicode="5" d="M6 88q0 27 9 62l54 200q32 120 158 120q99 0 99 -76q0 -19 -7 -44l-13 -50q-5 -17 -5 -31q0 -49 59 -49l349 -1q24 1 33 31l94 350q1 5 1 9q0 21 -18 21h-500q-139 0 -139 108q0 27 9 62l121 450q46 170 220 170h750q100 0 100 -76q0 -20 -7 -44q-32 -120 -157 -120h-600 q-73 0 -95 -80l-41 -150q-5 -18 -5 -32q0 -48 58 -48h650q139 0 139 -108q0 -27 -9 -62l-148 -550q-45 -170 -220 -171l-800 1q-139 0 -139 108z" />
<glyph unicode="6" d="M6 88q0 27 9 62l295 1100q46 170 220 170h750q100 0 100 -76q0 -20 -7 -44q-32 -120 -157 -120h-600q-73 0 -95 -80l-41 -150q-5 -18 -5 -32q0 -48 58 -48h650q139 0 139 -108q0 -27 -9 -62l-148 -550q-45 -170 -220 -171l-800 1q-139 0 -139 108zM301 269q0 -49 59 -49 l349 -1q24 1 33 31l94 350q1 5 1 9q0 21 -18 21h-350q-75 0 -97 -80l-53 -200l-13 -50q-5 -17 -5 -31z" />
<glyph unicode="7" d="M316 1256q0 20 7 44q32 120 157 120h900q100 0 100 -76q0 -20 -7 -44l-321 -1200q-32 -120 -157 -120h-200q-100 0 -100 76q0 20 7 44l161 600q45 170 220 170q25 0 33 30l67 250q2 7 2 13q0 17 -19 17h-750q-100 0 -100 76z" />
<glyph unicode="8" d="M6 88q0 27 9 62l148 550q45 170 220 170q25 0 33 30l94 350q45 170 220 170h400q139 0 139 -108q0 -27 -9 -62l-94 -350q-2 -7 -2 -13q0 -17 19 -17q139 0 139 -108q0 -27 -9 -62l-148 -550q-45 -170 -220 -170h-800q-139 0 -139 108zM300 269q0 -49 59 -49h350 q25 0 33 30l94 350q2 7 2 12q0 17 -19 18h-350q-75 0 -97 -80l-67 -250q-5 -17 -5 -31zM664 887q0 -17 19 -17h200q25 0 33 30l54 200q5 18 5 31q0 49 -59 49h-100q-75 0 -96 -80l-54 -200q-2 -7 -2 -13z" />
<glyph unicode="9" d="M180 738q0 28 9 62l121 450q45 170 220 170l800 1q140 0 140 -108q0 -28 -10 -63l-308 -1151q-32 -119 -158 -119l-199 2q-99 0 -99 76q0 19 6 43l134 498q2 8 2 13q0 18 -19 18h-500q-139 2 -139 108zM475 918q0 -48 58 -48h549q25 0 34 30l54 200q5 17 5 31 q0 48 -60 49h-499q-75 0 -96 -80l-40 -150q-5 -18 -5 -32z" />
<glyph unicode=":" horiz-adv-x="500" d="M-5 56q0 20 7 44l27 100q32 120 157 120h200q100 0 100 -76q0 -20 -7 -44l-27 -100q-32 -120 -157 -120h-200q-100 0 -100 76zM156 655q0 20 7 45l26 100q33 120 158 120h200q99 0 99 -75q0 -20 -7 -45l-26 -100q-33 -120 -158 -120h-200q-99 0 -99 75z" />
<glyph unicode=";" horiz-adv-x="500" d="M-4 59q0 19 6 41l27 100q32 120 157 120h200q100 0 100 -76q0 -20 -7 -44l-81 -300q-32 -120 -157 -120q-62 0 -85 31l-146 200q-14 19 -14 48zM156 655q0 20 7 45l26 100q33 120 158 120h200q99 0 99 -75q0 -20 -7 -45l-26 -100q-33 -120 -158 -120h-200q-99 0 -99 75z " />
<glyph unicode="&#x3c;" d="M131 563q0 18 5 37l53 200q31 113 210 168l555 201q280 101 336 101h50q100 0 100 -76q0 -20 -7 -44q-30 -113 -210 -168l-536 -187q-87 -33 -123 -95q3 -62 72 -95l436 -187q125 -46 125 -132q0 -17 -5 -36q-32 -120 -157 -120h-50q-56 0 -282 101l-447 201 q-125 46 -125 131z" />
<glyph unicode="=" horiz-adv-x="1000" d="M115 506q0 19 6 43q33 121 158 121h700q100 0 100 -76q0 -20 -7 -44q-32 -119 -158 -120h-699q-100 0 -100 76zM223 906q0 19 6 43q33 121 158 121h700q100 0 100 -77q0 -19 -6 -43q-32 -119 -159 -120h-699q-100 0 -100 76z" />
<glyph unicode="&#x3e;" d="M35 206q0 20 7 44q30 113 210 168l536 187q87 33 124 95q-4 62 -73 95l-436 187q-125 46 -125 132q0 17 5 36q32 120 157 120h50q56 0 282 -101l447 -201q125 -46 125 -131q0 -18 -5 -37l-53 -200q-31 -113 -210 -168l-555 -201q-280 -101 -336 -101h-50q-100 0 -100 76z " />
<glyph unicode="?" horiz-adv-x="1100" d="M-5 56q0 20 7 44l27 100q32 120 157 120h200q100 0 100 -76q0 -20 -7 -44l-27 -100q-32 -120 -157 -120h-200q-100 0 -100 76zM103 456q0 19 6 43l54 201q45 170 220 170l551 2q75 0 96 80l40 150q5 18 5 32q0 48 -58 48h-399q-77 -1 -98 -80l-14 -52q-32 -120 -157 -120 q-100 0 -100 76q0 20 7 44l54 202q46 171 222 171l699 -1q139 0 139 -107q0 -28 -10 -63l-120 -450q-45 -168 -221 -170l-350 -2q-75 0 -97 -80l-13 -51q-33 -119 -157 -119h-199q-100 0 -100 76z" />
<glyph unicode="@" d="M6 87q0 28 9 63l295 1100q45 169 220 170h800q139 0 139 -108q0 -28 -9 -62l-228 -850q-32 -120 -157 -120h-350q-139 0 -139 107q0 28 10 63l120 450q46 170 221 170h200q21 0 32 31q4 17 4 30q0 49 -57 49h-500q-75 0 -96 -80l-54 -200q-2 -7 -2 -12q0 -18 20 -18 q139 -1 139 -107q0 -28 -9 -62l-122 -451q-2 -7 -2 -12q0 -18 19 -19l551 1q99 0 99 -76q0 -19 -7 -44q-32 -120 -157 -120l-852 -1q-137 1 -137 108zM881 568q0 -48 58 -48h50q25 0 33 30l54 200q5 18 5 31q0 49 -59 49q-75 0 -96 -80l-40 -150q-5 -18 -5 -32z" />
<glyph unicode="A" d="M-5 56q0 20 7 44l161 600q45 170 195 170l102 380q45 170 220 170h500q139 0 139 -108q0 -27 -9 -62l-102 -380q115 0 115 -101q0 -30 -10 -69l-161 -600q-32 -120 -157 -120q-100 0 -100 76q0 20 7 44l120 450q5 17 5 31q0 48 -58 49h-299q-61 -4 -98 -82l-120 -448 q-32 -120 -161 -120h-196q-100 0 -100 76zM614 888q0 -17 19 -17l300 -1q25 0 33 30l54 200q5 18 5 31q0 49 -59 49h-200q-75 0 -96 -80l-54 -199q-2 -7 -2 -13z" />
<glyph unicode="B" d="M-5 56q0 20 7 44l321 1200q32 120 157 120h650q139 0 139 -108q0 -27 -9 -62l-94 -350q-2 -7 -2 -13q0 -17 19 -17q139 0 139 -108q0 -27 -9 -62l-148 -550q-45 -170 -220 -170h-850q-100 0 -100 76zM464 887q0 -17 19 -17h400q25 0 33 30l54 200q5 18 5 31q0 49 -59 49 h-350q-25 0 -33 -30l-67 -250q-2 -7 -2 -13zM490 237q0 -17 19 -17h350q75 0 96 80l67 250q5 17 5 31q0 48 -58 49h-350q-25 0 -33 -30l-94 -350q-2 -7 -2 -13z" />
<glyph unicode="C" d="M6 87q0 28 9 63l295 1100q45 169 220 170h800q139 0 139 -108q0 -28 -9 -62l-54 -200q-32 -120 -157 -120q-99 0 -99 76q0 20 7 45l12 49q4 17 4 31q0 49 -57 49h-500q-75 0 -96 -80l-54 -200q-2 -7 -2 -12q0 -18 20 -18q139 -1 139 -107q0 -28 -9 -62l-122 -451 q-2 -7 -2 -12q0 -18 19 -19l349 1q75 0 96 80l15 50q32 120 157 120q100 0 100 -76q0 -20 -7 -44l-54 -200q-45 -170 -220 -170l-802 -1q-137 1 -137 108z" />
<glyph unicode="D" d="M-4 56q0 19 6 43l321 1201q32 120 157 120h850q139 0 139 -108q0 -27 -9 -62l-295 -1100q-45 -170 -220 -170h-849q-100 0 -100 76zM464 888q0 -18 20 -18q138 0 138 -107q0 -28 -9 -63l-121 -450q-2 -7 -2 -13q0 -17 19 -17h350q75 0 96 80l215 800q5 18 5 31 q0 49 -59 49h-550q-25 -1 -33 -30l-67 -250q-2 -7 -2 -12z" />
<glyph unicode="E" horiz-adv-x="1000" d="M-4 56q0 19 6 43l308 1151q46 171 222 171l648 -1q100 0 100 -77q0 -19 -6 -43q-32 -120 -157 -120h-500q-76 -1 -97 -80l-54 -200q-2 -7 -2 -12q0 -18 20 -18h549q100 0 100 -77q0 -19 -6 -43q-32 -119 -158 -119l-350 -1q-23 0 -32 -31l-94 -349q-2 -7 -2 -13 q0 -17 18 -17h350q100 0 100 -77q0 -19 -6 -43q-32 -120 -158 -120h-699q-100 0 -100 76z" />
<glyph unicode="F" horiz-adv-x="1000" d="M-4 56q0 19 6 43l308 1151q46 171 222 171l648 -1q100 0 100 -77q0 -19 -6 -43q-32 -120 -157 -120h-500q-76 -1 -97 -80l-54 -200q-2 -7 -2 -12q0 -18 20 -18h549q100 0 100 -77q0 -19 -6 -43q-32 -119 -158 -120l-350 1q-25 0 -33 -31l-134 -499q-33 -119 -157 -119 l-199 -2q-100 0 -100 76z" />
<glyph unicode="G" d="M6 87q0 28 9 63l295 1100q45 169 220 170h800q139 0 139 -108q0 -28 -9 -62l-54 -200q-32 -120 -157 -120q-99 0 -99 76q0 20 7 45l12 49q4 17 4 31q0 49 -57 49h-500q-75 0 -96 -80l-54 -200q-2 -7 -2 -12q0 -18 20 -18q139 -1 139 -107q0 -28 -9 -62l-122 -451 q-2 -7 -2 -12q0 -18 19 -19l349 1q75 0 96 80l15 50l53 200q5 18 5 32q0 48 -58 48q-100 0 -100 76q0 20 7 44q32 120 157 120h150q139 0 139 -108q0 -27 -9 -62l-148 -550q-45 -170 -220 -170l-802 -1q-137 1 -137 108z" />
<glyph unicode="H" d="M-5 56q0 20 7 44l321 1200q32 120 157 120q100 0 100 -76q0 -19 -6 -43l-108 -401q-2 -7 -2 -13q0 -17 19 -17h600q25 0 33 30l107 400q32 120 157 120q100 0 100 -76q0 -20 -7 -44l-321 -1200q-32 -120 -157 -120q-100 0 -100 76q0 20 7 44l134 500q2 7 2 12 q0 17 -19 18h-450q-25 0 -33 -30l-134 -500q-32 -120 -161 -120h-146q-100 0 -100 76z" />
<glyph unicode="I" horiz-adv-x="500" d="M-5 56q0 20 7 44l321 1200q32 120 157 120q100 0 100 -76q0 -20 -7 -44l-107 -400q-2 -7 -2 -13q0 -17 19 -17q139 0 139 -108q0 -27 -9 -62l-161 -600q-32 -120 -157 -120h-200q-100 0 -100 76z" />
<glyph unicode="J" d="M6 88q0 27 9 62l54 200q32 120 157 120q100 0 100 -76q0 -20 -7 -44l-14 -50q-5 -17 -5 -31q0 -49 59 -49h300q75 0 96 80l269 1001q31 119 156 119q100 0 100 -76q0 -20 -7 -44l-106 -400q-2 -7 -2 -13q0 -17 19 -17q139 0 139 -108q0 -27 -9 -62l-149 -550 q-45 -170 -220 -170h-800q-139 0 -139 108z" />
<glyph unicode="K" d="M-5 56q0 20 7 44l321 1200q32 120 157 120q100 0 100 -76q0 -19 -6 -43l-108 -401q-2 -7 -2 -13q0 -17 19 -17h400q25 0 33 30l107 400q32 120 157 120q100 0 100 -76q0 -20 -7 -44l-107 -400q-2 -7 -2 -13q0 -17 19 -17q139 0 139 -108q0 -27 -9 -62l-161 -600 q-32 -120 -157 -120q-100 0 -100 76q0 20 7 44l120 450q5 17 5 31q0 48 -58 49h-400q-25 0 -33 -30l-134 -500q-32 -120 -161 -120h-146q-100 0 -100 76z" />
<glyph unicode="L" horiz-adv-x="1000" d="M-4 56q0 19 6 43l321 1201q32 120 157 120q99 0 99 -77q0 -19 -6 -43l-107 -400q-2 -7 -2 -12q0 -18 20 -18q138 0 138 -107q0 -28 -9 -63l-120 -450q-2 -7 -2 -13q0 -17 18 -17h350q100 0 100 -77q0 -19 -6 -43q-32 -120 -158 -120h-699q-100 0 -100 76z" />
<glyph unicode="M" horiz-adv-x="1500" d="M-4 56q0 19 6 43l308 1151q46 171 222 171l1098 -1q139 0 139 -108q0 -27 -9 -62l-308 -1150q-32 -120 -157 -120q-100 0 -100 76q0 20 7 44l268 1000q5 18 5 31q0 49 -59 49h-250q-25 0 -33 -30l-281 -1050q-32 -120 -157 -120q-100 0 -100 76q0 20 7 44l281 1050 q2 7 2 13q0 17 -19 17h-249q-76 -1 -97 -80l-54 -200q-2 -7 -2 -12q0 -18 20 -18q138 0 138 -107q0 -28 -9 -63l-161 -600q-32 -120 -158 -120h-198q-100 0 -100 76z" />
<glyph unicode="N" d="M-4 56q0 19 6 43l308 1151q46 171 222 171l798 -1q139 0 139 -108q0 -27 -9 -62l-308 -1150q-32 -120 -157 -120q-100 0 -100 76q0 20 7 44l268 1000q5 18 5 31q0 49 -59 49h-499q-76 -1 -97 -80l-54 -200q-2 -7 -2 -12q0 -18 20 -18q138 0 138 -107q0 -28 -9 -63 l-161 -600q-32 -120 -158 -120h-198q-100 0 -100 76z" />
<glyph unicode="O" d="M6 86q0 28 9 63l295 1100q45 170 220 170l801 1q138 -1 138 -108q0 -28 -9 -63l-295 -1100q-45 -169 -221 -170h-800q-138 0 -138 107zM302 268q0 -49 57 -49h500q75 0 96 80l134 501q2 7 2 13q0 17 -19 17q-138 1 -138 107q0 27 9 62l40 150q2 7 2 12q0 18 -19 19 l-349 -1q-75 0 -97 -80l-214 -800q-4 -17 -4 -31z" />
<glyph unicode="P" horiz-adv-x="1100" d="M-4 56q0 19 6 43l308 1151q46 171 222 171l698 -1q139 0 139 -108q0 -27 -9 -62l-121 -450q-45 -168 -220 -170h-400q-25 0 -33 -31l-134 -498q-33 -119 -157 -119l-199 -2q-100 0 -100 76zM464 888q0 -18 20 -18h449q75 0 97 80l40 150q5 18 5 31q0 49 -59 49h-399 q-76 -1 -97 -80l-54 -200q-2 -7 -2 -12z" />
<glyph unicode="Q" d="M6 86q0 28 9 63l295 1100q45 170 220 170l801 1q138 -1 138 -108q0 -28 -9 -63l-295 -1100q-45 -169 -221 -170h-161q-14 -2 -21 -29l-67 -250q-33 -120 -158 -120q-99 0 -99 75q0 20 7 45l67 250q2 9 2 15q0 13 -9 14h-361q-138 0 -138 107zM302 268q0 -49 57 -49l200 1 q25 0 33 30l13 50q33 120 158 120q99 0 99 -75q0 -20 -7 -45l-13 -50q-1 -4 -1 -8q0 -22 43 -22v-1q50 0 71 80l134 501q2 7 2 13q0 17 -19 17q-138 1 -138 107q0 27 9 62l40 150q2 7 2 12q0 18 -19 19l-349 -1q-75 0 -97 -80l-214 -800q-4 -17 -4 -31z" />
<glyph unicode="R" d="M-5 56q0 20 7 44l321 1200q32 120 157 120h650q139 0 139 -108q0 -27 -9 -62l-94 -350q-2 -7 -2 -13q0 -17 19 -17q139 0 139 -108q0 -27 -9 -62l-161 -600q-32 -120 -157 -120q-100 0 -100 76q0 20 7 44l120 450q5 17 5 31q0 48 -58 49h-400q-25 0 -33 -30l-134 -500 q-32 -120 -161 -120h-146q-100 0 -100 76zM464 887q0 -17 19 -17h400q25 0 33 30l40 150q8 28 8 51q0 79 -98 79h-300q-25 0 -33 -30l-67 -250q-2 -7 -2 -13z" />
<glyph unicode="S" d="M6 88q0 27 9 62l54 200q32 120 158 120q99 0 99 -76q0 -19 -7 -44l-13 -50q-5 -17 -5 -31q0 -49 59 -49l349 -1q24 1 33 31l94 350q1 5 1 9q0 21 -18 21h-500q-139 0 -139 108q0 27 9 62l121 450q46 170 220 170h800q139 -1 139 -108q0 -27 -9 -62l-54 -200 q-32 -120 -157 -120q-100 0 -100 76q0 20 7 44l14 50q5 18 5 31q0 49 -59 49h-500q-73 0 -95 -80l-41 -150q-5 -18 -5 -32q0 -48 58 -48h650q139 0 139 -108q0 -27 -9 -62l-148 -550q-45 -170 -220 -171l-800 1q-139 0 -139 108z" />
<glyph unicode="T" d="M316 1256q0 20 7 44q32 120 157 120h900q100 0 100 -76q0 -20 -7 -44q-32 -120 -157 -120h-300q-25 0 -33 -30l-67 -250q-2 -7 -2 -13q0 -17 19 -17q139 0 139 -108q0 -27 -9 -62l-161 -600q-32 -120 -157 -120h-200q-100 0 -100 76q0 20 7 44l281 1050q2 7 2 13 q0 17 -19 17h-300q-100 0 -100 76z" />
<glyph unicode="U" d="M6 88q0 27 9 62l309 1151q31 119 156 119q100 0 100 -76q0 -20 -7 -44l-107 -400q-2 -7 -2 -12q0 -18 20 -18q139 0 139 -108q0 -27 -9 -62l-121 -450q-2 -7 -2 -13q0 -17 18 -17h351q73 0 94 80l269 1000q32 120 159 121q98 -1 98 -77q0 -19 -7 -44l-308 -1150 q-45 -170 -219 -170h-801q-139 0 -139 108z" />
<glyph unicode="V" d="M6 88q0 27 9 62l309 1151q31 119 156 119q100 0 100 -76q0 -20 -7 -44l-107 -400q-2 -7 -2 -12q0 -18 20 -18q139 0 139 -108q0 -27 -9 -62l-121 -450q-2 -8 -2 -13q0 -17 17 -17q5 0 71 44l392 251q50 29 58 60l194 725q32 120 159 121q98 -1 98 -77q0 -19 -7 -44 l-221 -825q-13 -48 -113 -114l-512 -325q-80 -56 -132 -56h-350q-139 0 -139 108z" />
<glyph unicode="W" horiz-adv-x="1500" d="M6 88q0 28 9 63l309 1151q31 118 156 118q100 0 100 -76q0 -20 -7 -44l-107 -400q-2 -7 -2 -13q0 -17 19 -17q139 0 139 -108q0 -27 -9 -62l-121 -450q-2 -7 -2 -12q0 -17 19 -18l100 1q25 0 33 30l282 1050q32 120 157 120q100 0 100 -76q0 -20 -7 -44l-282 -1050 q-2 -7 -2 -13q0 -17 19 -17h250q75 0 97 80l268 1000q32 120 157 120q100 0 100 -76q0 -20 -7 -44l-309 -1150q-45 -170 -220 -170l-1099 -1q-140 0 -140 108z" />
<glyph unicode="X" d="M-5 56q0 20 7 44l134 500q30 111 118 150q-47 27 -47 89q0 27 9 61l107 400q32 120 157 120q100 0 100 -76q0 -19 -6 -43l-108 -401q-2 -7 -2 -13q0 -17 19 -17h600q25 0 33 30l107 400q32 120 157 120q100 0 100 -76q0 -20 -7 -44l-107 -400q-30 -111 -118 -150 q47 -27 47 -89q0 -27 -9 -61l-134 -500q-32 -120 -157 -120q-100 0 -100 76q0 20 7 44l134 500q2 7 2 12q0 17 -19 18h-450q-25 0 -33 -30l-134 -500q-32 -120 -161 -120h-146q-100 0 -100 76z" />
<glyph unicode="Y" d="M180 738q0 27 9 62l134 500q32 120 157 120q100 0 100 -76q0 -19 -6 -43l-94 -351q-5 -18 -5 -32q0 -48 58 -48h500q75 0 97 80l93 350q32 120 157 120q100 0 100 -76q0 -20 -7 -44l-134 -500q-45 -170 -220 -170h-175q-25 0 -33 -30l-134 -500q-32 -120 -161 -120h-146 q-102 0 -102 81q0 18 5 39l134 500q2 7 2 13q0 17 -19 17h-171q-139 0 -139 108z" />
<glyph unicode="Z" d="M6 87q0 28 9 63l107 400q31 113 210 168l715 250q99 43 109 82l27 100q2 7 2 12q0 18 -19 18h-550q-75 0 -96 -80l-14 -50q-32 -120 -157 -120q-100 0 -100 76q0 20 7 44l54 200q45 169 220 170h850q99 0 99 -77q0 -19 -6 -43l-107 -400q-30 -113 -210 -168l-551 -200 q-42 -18 -46 -31l-67 -251q-2 -7 -2 -12q0 -18 19 -18h350q74 0 95 80l15 50q32 120 156 120q100 0 100 -76q0 -20 -6 -44l-54 -200q-45 -170 -220 -170l-802 -1q-137 1 -137 108z" />
<glyph unicode="[" horiz-adv-x="700" d="M-59 -144q0 20 7 44l429 1600q32 120 157 120h400q100 0 100 -76q0 -20 -7 -44q-32 -120 -157 -120h-250q-24 0 -33 -30l-121 -450q-2 -7 -2 -13q0 -17 19 -17q139 0 139 -108q0 -27 -9 -62l-175 -650q-2 -7 -2 -13q0 -17 19 -17h50q100 0 100 -76q0 -20 -7 -44 q-32 -120 -157 -120h-400q-100 0 -100 76z" />
<glyph unicode="\" d="M211 864q0 17 5 36l107 400q33 120 157 120q100 0 100 -76q0 -20 -7 -44l-67 -250q-1 -5 -1 -9q0 -35 66 -73l581 -250q125 -46 125 -131q0 -18 -5 -37l-120 -450q-32 -120 -157 -120h-200q-100 0 -100 76q0 20 7 44l107 401v3q0 12 -28 28l-445 200q-125 46 -125 132z " />
<glyph unicode="]" horiz-adv-x="700" d="M-59 -144q0 20 7 44q32 120 157 120h50q25 0 33 30l175 650q45 170 220 170q25 0 33 30l121 450q2 7 2 12q0 18 -19 18h-250q-100 0 -100 76q0 20 7 44q32 120 157 120h400q100 0 100 -76q0 -20 -7 -44l-429 -1600q-32 -120 -157 -120h-400q-100 0 -100 76z" />
<glyph unicode="^" horiz-adv-x="800" d="M387 1526q0 10 3 24l14 50q13 45 50 65l185 126q67 29 99 29h200q32 0 83 -29l116 -126q21 -14 21 -41q0 -11 -4 -24l-14 -50q-18 -70 -93 -70h-125q-37 0 -60 31q-51 69 -64 69h-50q-13 0 -100 -69q-39 -31 -76 -31h-125q-60 0 -60 46z" />
<glyph unicode="_" horiz-adv-x="1000" d="M-85 -244q0 19 6 43q33 121 158 121h700q100 0 100 -76q0 -20 -7 -44q-31 -119 -158 -120h-699q-100 0 -100 76z" />
<glyph unicode="`" horiz-adv-x="500" d="M451 1759q0 19 6 41q32 120 157 120h200q37 0 62 -32l18 -25q16 -22 16 -45q0 -9 -3 -18l-53 -200q-32 -120 -157 -120q-62 0 -85 31l-147 200q-14 19 -14 48z" />
<glyph unicode="a" horiz-adv-x="900" d="M6 87q0 27 9 62l79 300q46 169 221 169l401 1q24 0 33 30l13 50q5 17 5 30q0 48 -59 48h-250q-25 0 -33 -29q-32 -121 -157 -121q-100 0 -100 77q0 19 7 44l27 99q46 170 221 170h499q140 0 140 -106q0 -28 -10 -63l-186 -698q-45 -170 -222 -170h-499q-139 0 -139 107z M451 269q0 -49 58 -49l101 -1q24 0 32 30l27 102q2 6 2 11q0 17 -20 17h-100q-73 0 -95 -79q-5 -18 -5 -31z" />
<glyph unicode="b" horiz-adv-x="900" d="M-5 56q0 20 7 44l321 1200q32 120 157 120q100 0 100 -76q0 -20 -7 -44l-67 -250q-2 -7 -2 -13q0 -17 19 -17h400q139 0 139 -108q0 -27 -9 -62l-188 -700q-45 -170 -220 -170h-550q-100 0 -100 76zM397 637q0 -17 19 -17q139 0 139 -108q0 -27 -9 -62l-67 -250 q-2 -7 -2 -13q0 -17 19 -17h50q75 0 96 80l121 450q5 18 5 31q0 49 -59 49h-250q-25 0 -33 -30l-27 -100q-2 -7 -2 -13z" />
<glyph unicode="c" horiz-adv-x="900" d="M6 87q0 27 9 62l187 701q45 170 221 170h500q139 0 139 -107q0 -27 -9 -62l-27 -101q-32 -120 -157 -120q-99 0 -99 77q0 19 6 43q2 6 2 11q0 18 -20 19h-249q-75 0 -96 -80l-13 -49q-2 -7 -2 -13q0 -17 19 -17q138 -1 138 -108q0 -28 -9 -63l-41 -150q-5 -17 -5 -31 q0 -49 60 -50l50 1q24 0 32 30q32 120 157 120q100 0 100 -76q0 -20 -7 -44l-27 -100q-45 -170 -221 -170h-499q-139 0 -139 107z" />
<glyph unicode="d" horiz-adv-x="900" d="M6 87q0 27 9 62l187 701q45 170 221 170h400q25 0 33 30l67 250q32 120 157 120q100 0 100 -76q0 -20 -7 -44l-308 -1150q-45 -170 -221 -170h-499q-139 0 -139 107zM399 638q0 -17 19 -17q138 -1 138 -108q0 -28 -9 -63l-42 -150q-5 -17 -5 -31q0 -49 60 -50q74 1 95 79 l106 400q5 18 5 32q0 48 -57 50h-200q-75 0 -96 -80l-12 -49q-2 -7 -2 -13z" />
<glyph unicode="e" horiz-adv-x="900" d="M6 87q0 27 9 62l188 701q45 170 221 170h500q139 0 139 -107q0 -27 -9 -62l-81 -303q-45 -169 -220 -169l-201 -1q-24 0 -32 -30l-27 -97q-2 -8 -2 -14q0 -17 18 -17l99 1q25 0 33 29q32 120 158 120q100 0 100 -76q0 -20 -7 -44l-27 -100q-45 -170 -221 -170h-499 q-139 0 -139 107zM398 636q0 -17 19 -17l249 -2q75 1 96 81q5 18 5 32q0 48 -57 50h-250q-26 0 -34 -29l-26 -102q-2 -7 -2 -13z" />
<glyph unicode="f" horiz-adv-x="700" d="M-5 56q0 20 7 44l107 400q32 120 157 120h50q25 0 33 30l27 100q2 7 2 13q0 17 -19 17h-50q-100 0 -100 76q0 20 7 44q32 120 157 120h50q25 0 33 30l54 200q46 171 222 171l248 -1q100 0 100 -77q0 -19 -6 -43q-32 -120 -157 -120h-100q-76 -1 -97 -80l-14 -50 q-2 -7 -2 -12q0 -18 20 -18h49q100 0 100 -77q0 -19 -6 -43q-32 -119 -158 -120h-50q-25 0 -33 -31l-174 -649q-32 -120 -157 -120h-200q-100 0 -100 76z" />
<glyph unicode="g" horiz-adv-x="900" d="M-12 -345q0 20 7 45q32 120 157 120h300q75 0 96 80l14 50q2 7 2 13q0 17 -19 17h-400q-139 0 -139 107q0 27 9 62l187 701q45 170 221 170h500q139 0 139 -107q0 -27 -9 -62l-295 -1101q-46 -170 -221 -170h-450q-99 0 -99 75zM398 638q0 -17 19 -17q138 -1 138 -108 q0 -28 -9 -63l-41 -150q-5 -17 -5 -31q0 -49 60 -50q74 1 95 79l106 400q5 18 5 32q0 48 -57 50h-200q-75 0 -96 -80l-13 -49q-2 -7 -2 -13z" />
<glyph unicode="h" horiz-adv-x="900" d="M-5 56q0 20 7 44l321 1200q32 120 157 120q100 0 100 -76q0 -20 -7 -44l-75 -280h425q139 0 139 -108q0 -27 -9 -62l-201 -750q-32 -120 -157 -120q-100 0 -100 76q0 20 7 44l161 600q5 18 5 31q0 49 -59 49h-250q-25 0 -33 -30l-27 -100q-2 -7 -2 -13q0 -17 19 -17 q139 0 139 -108q0 -27 -9 -62l-94 -350q-32 -120 -157 -120h-200q-100 0 -100 76z" />
<glyph unicode="i" horiz-adv-x="500" d="M-5 56q0 20 7 44l214 800q32 120 157 120q100 0 100 -76q0 -20 -7 -44l-67 -250q-2 -7 -2 -13q0 -17 19 -17q139 0 139 -108q0 -27 -9 -62l-94 -350q-32 -120 -157 -120h-200q-100 0 -100 76zM290 1155q0 20 7 45l26 100q32 120 157 120h200q100 0 100 -76q0 -20 -7 -44 l-26 -100q-33 -120 -158 -120h-200q-99 0 -99 75z" />
<glyph unicode="j" horiz-adv-x="500" d="M-212 -345q0 20 7 45q32 120 157 120h100q75 0 96 80l14 50q2 7 2 13q0 17 -19 17h-50q-100 0 -100 76q0 20 7 44l214 800q32 120 157 120q100 0 100 -76q0 -20 -7 -44l-67 -250q-2 -7 -2 -13q0 -17 19 -17q139 0 139 -108q0 -27 -9 -62l-188 -700q-46 -170 -221 -170 h-250q-99 0 -99 75zM290 1155q0 20 7 45l26 100q32 120 157 120h200q100 0 100 -76q0 -20 -7 -44l-26 -100q-33 -120 -158 -120h-200q-99 0 -99 75z" />
<glyph unicode="k" horiz-adv-x="900" d="M-5 56q0 20 7 44l321 1200q32 120 157 120q100 0 100 -76q0 -20 -7 -44l-174 -650q-2 -7 -2 -13q0 -17 19 -17h100q25 0 33 30l67 250q32 120 157 120q100 0 100 -76q0 -20 -7 -44l-67 -250q-2 -7 -2 -13q0 -17 19 -17q139 0 139 -108q0 -27 -9 -62l-94 -350 q-32 -120 -157 -120q-100 0 -100 76q0 20 7 44l53 200q5 18 5 32q0 48 -58 48h-50q-25 0 -33 -30l-67 -250q-32 -120 -157 -120h-200q-100 0 -100 76z" />
<glyph unicode="l" horiz-adv-x="500" d="M-5 56q0 20 7 44l321 1200q32 120 157 120q100 0 100 -76q0 -20 -7 -44l-67 -250q-2 -7 -2 -13q0 -17 19 -17q139 0 139 -108q0 -27 -9 -62l-201 -750q-32 -120 -157 -120h-200q-100 0 -100 76z" />
<glyph unicode="m" horiz-adv-x="1300" d="M-5 56q0 20 7 44l200 750q45 170 221 170h900q139 0 139 -107q0 -27 -9 -62l-201 -751q-32 -120 -157 -120q-100 0 -100 76q0 20 7 44l159 598q5 18 5 32q0 48 -57 50h-150q-25 0 -33 -30l-174 -650q-32 -120 -157 -120q-100 0 -100 76q0 20 7 44l174 650q2 7 2 13 q0 17 -19 17h-150q-75 0 -96 -80l-13 -49q-2 -7 -2 -13q0 -17 19 -17q138 -1 138 -108q0 -28 -9 -63l-94 -350q-32 -120 -157 -120h-200q-100 0 -100 76z" />
<glyph unicode="n" horiz-adv-x="900" d="M-5 56q0 20 7 44l200 750q45 170 221 170h500q139 0 139 -107q0 -27 -9 -62l-201 -751q-32 -120 -157 -120q-100 0 -100 76q0 20 7 44l159 598q5 18 5 32q0 48 -57 50h-200q-75 0 -96 -80l-13 -49q-2 -7 -2 -13q0 -17 19 -17q138 -1 138 -108q0 -28 -9 -63l-94 -350 q-32 -120 -157 -120h-200q-100 0 -100 76z" />
<glyph unicode="o" horiz-adv-x="900" d="M6 87q0 27 9 62l187 701q45 170 221 170h500q139 0 139 -107q0 -27 -9 -62l-188 -701q-45 -170 -221 -170h-499q-139 0 -139 107zM398 638q0 -17 19 -17q138 -1 138 -108q0 -28 -9 -63l-41 -150q-5 -17 -5 -31q0 -49 60 -50q74 1 95 79l106 400q5 18 5 32q0 48 -57 50 h-200q-75 0 -96 -80l-13 -49q-2 -7 -2 -13z" />
<glyph unicode="p" horiz-adv-x="900" d="M-112 -345q0 20 7 45l307 1150q45 170 221 170h500q139 0 139 -107q0 -27 -9 -62l-188 -701q-45 -170 -221 -170h-399q-25 0 -33 -30l-67 -250q-33 -120 -158 -120q-99 0 -99 75zM398 638q0 -17 19 -17q138 -1 138 -108q0 -28 -9 -63l-41 -150q-5 -17 -5 -31 q0 -49 60 -50q74 1 95 79l106 400q5 18 5 32q0 48 -57 50h-200q-75 0 -96 -80l-13 -49q-2 -7 -2 -13z" />
<glyph unicode="q" horiz-adv-x="900" d="M6 87q0 27 9 62l187 701q45 170 221 170h500q139 0 139 -107q0 -27 -9 -62l-308 -1151q-33 -120 -158 -120q-99 0 -99 75q0 20 7 45l67 250q2 7 2 13q0 17 -19 17h-400q-139 0 -139 107zM398 638q0 -17 19 -17q138 -1 138 -108q0 -28 -9 -63l-41 -150q-5 -17 -5 -31 q0 -49 60 -50q74 1 95 79l106 400q5 18 5 32q0 48 -57 50h-200q-75 0 -96 -80l-13 -49q-2 -7 -2 -13z" />
<glyph unicode="r" horiz-adv-x="800" d="M-5 56q0 20 7 44l200 750q45 170 221 170h450q100 0 100 -76q0 -20 -7 -44q-32 -120 -157 -120h-300q-75 0 -96 -80l-13 -49q-2 -7 -2 -13q0 -17 19 -17q138 -1 138 -108q0 -28 -9 -63l-94 -350q-32 -120 -157 -120h-200q-100 0 -100 76z" />
<glyph unicode="s" horiz-adv-x="900" d="M5 88q0 27 9 62l28 100q33 120 157 120q99 0 99 -76q0 -20 -7 -45q-2 -7 -2 -12q0 -18 19 -18l101 1q74 0 95 80q5 18 5 32q0 47 -56 47l-201 1q-139 0 -139 108q0 27 9 62l80 298q46 169 221 169h499q140 0 140 -107q0 -28 -10 -63l-27 -99q-32 -121 -157 -121 q-100 0 -100 77q0 19 7 44q2 7 2 12q0 17 -19 17h-250q-75 0 -96 -78q-4 -17 -4 -30q0 -49 58 -49l351 -1q139 0 139 -107q0 -28 -10 -63l-81 -300q-45 -169 -220 -169h-500q-140 0 -140 108z" />
<glyph unicode="t" horiz-adv-x="700" d="M195 56q0 20 7 44l174 650q2 7 2 13q0 17 -19 17h-50q-100 0 -100 76q0 20 7 44q32 120 157 120h50q25 0 33 30l67 250q32 120 157 120q100 0 100 -76q0 -20 -7 -44l-67 -250q-2 -7 -2 -12q0 -18 20 -18h49q100 0 100 -77q0 -19 -6 -43q-32 -119 -158 -120h-50 q-25 0 -33 -31l-27 -99q-2 -7 -2 -13q0 -17 19 -17h50q100 0 100 -76q0 -20 -7 -44l-107 -400q-32 -120 -157 -120h-200q-100 0 -100 76z" />
<glyph unicode="u" horiz-adv-x="900" d="M6 87q0 27 9 62l201 751q32 119 157 120q100 0 100 -76q0 -20 -7 -44l-66 -249q-2 -7 -2 -13q0 -17 19 -17q138 -1 138 -108q0 -28 -9 -63l-41 -150q-5 -17 -5 -31q0 -49 60 -50q74 1 95 79l161 602q32 120 157 120q100 0 100 -76q0 -20 -7 -44l-201 -750 q-45 -170 -221 -170h-499q-139 0 -139 107z" />
<glyph unicode="v" horiz-adv-x="900" d="M6 88q0 27 9 62l201 751q32 119 157 119q100 0 100 -76q0 -20 -7 -44l-68 -250q-2 -7 -2 -12q0 -18 20 -18q139 0 139 -108q0 -27 -9 -62l-53 -200q-2 -8 -2 -13q0 -17 17 -17q14 1 68 42l65 52q23 18 34 61l141 525q32 120 159 121q98 -1 98 -77q0 -19 -7 -44l-161 -600 q-15 -57 -87 -114l-188 -148q-72 -58 -135 -58h-350q-139 0 -139 108z" />
<glyph unicode="w" horiz-adv-x="1300" d="M5 88q0 27 9 62l202 750q32 120 157 120q100 0 100 -76q0 -20 -7 -44l-67 -250q-2 -7 -2 -13q0 -17 19 -17q139 0 139 -108q0 -27 -9 -62l-54 -200q-2 -7 -2 -13q0 -17 19 -17q25 0 33 30l174 650q32 120 157 120q100 0 100 -76q0 -20 -7 -44l-174 -650q-2 -7 -2 -13 q0 -17 19 -17h150q74 2 96 82l161 598q32 120 157 120q100 0 100 -76q0 -20 -7 -44l-201 -751q-45 -169 -220 -169h-900q-140 0 -140 108z" />
<glyph unicode="x" horiz-adv-x="900" d="M-5 56q0 20 7 44l67 250q30 111 118 150q-47 27 -47 89q0 27 9 61l67 250q32 120 157 120q100 0 100 -75q0 -20 -7 -44l-67 -251q-2 -7 -2 -13q0 -17 19 -17h300q25 0 33 30l67 250q32 120 157 120q100 0 100 -76q0 -20 -7 -44l-67 -250q-30 -111 -118 -150 q47 -27 47 -89q0 -27 -9 -61l-67 -250q-32 -120 -157 -120q-100 0 -100 76q0 20 7 44l67 250q2 7 2 12q0 17 -19 18h-150q-25 0 -33 -30l-67 -250q-32 -120 -161 -120h-146q-100 0 -100 76z" />
<glyph unicode="y" horiz-adv-x="900" d="M-12 -345q0 20 7 45q32 120 157 120h300q75 0 96 80l14 50q2 7 2 13q0 17 -19 17h-400q-139 0 -139 107q0 27 9 62l201 751q32 120 157 120q100 0 100 -76q0 -20 -7 -44l-66 -249q-2 -7 -2 -13q0 -17 19 -17q138 -1 138 -108q0 -28 -9 -63l-41 -150q-5 -17 -5 -31 q0 -49 60 -50q74 1 95 79l161 601q32 121 157 121q100 0 100 -76q0 -20 -7 -44l-308 -1150q-46 -170 -221 -170h-450q-99 0 -99 75z" />
<glyph unicode="z" horiz-adv-x="900" d="M6 87q0 27 9 62l54 201q31 114 210 168l388 150q99 43 109 82q2 6 2 11q0 17 -20 19h-298q-27 -2 -35 -32q-32 -121 -157 -121q-100 0 -100 77q0 19 7 44l27 99q46 170 222 170h499q139 0 139 -106q0 -28 -10 -63l-66 -247q-23 -87 -207 -167l-228 -102q-98 -44 -108 -82 q-2 -7 -2 -13q0 -16 18 -16h51l100 -2q24 0 33 30q32 121 156 121q99 0 99 -77q0 -19 -6 -43l-26 -100q-45 -170 -221 -170h-500q-139 0 -139 107z" />
<glyph unicode="{" horiz-adv-x="800" d="M102 -114q0 28 9 63l175 651q2 7 2 12q0 17 -19 18q-100 0 -100 76q0 20 7 44q32 120 157 120q25 0 33 30l148 550q45 169 220 170h300q100 0 100 -76q0 -20 -7 -44q-32 -120 -157 -120h-150q-75 0 -97 -80l-107 -400q-2 -7 -2 -13q0 -17 19 -17q139 0 139 -108 q0 -27 -9 -62l-175 -650q-2 -7 -2 -13q0 -17 19 -17q100 0 100 -76q0 -20 -7 -44q-32 -120 -157 -120l-301 -2q-138 1 -138 108z" />
<glyph unicode="|" horiz-adv-x="300" d="M-59 -144q0 20 7 44l429 1600q32 120 157 120q100 0 100 -76q0 -20 -7 -44l-429 -1600q-32 -120 -157 -120q-100 0 -100 76z" />
<glyph unicode="}" horiz-adv-x="800" d="M-59 -144q0 20 7 44q32 120 157 120q25 0 33 30l175 650q45 170 220 170q25 0 33 30l107 400q5 18 5 32q0 48 -58 48h-150q-100 0 -100 76q0 20 7 44q32 120 157 120h300q139 -1 139 -108q0 -27 -9 -62l-148 -550q-2 -7 -2 -13q0 -17 19 -17q100 0 100 -76q0 -20 -7 -44 q-32 -120 -157 -120q-24 -1 -33 -30l-175 -651q-45 -170 -219 -171l-301 2q-100 0 -100 76z" />
<glyph unicode="~" horiz-adv-x="900" d="M397 1556q0 20 7 44l27 100q32 120 157 120h250q62 0 103 -56q32 -44 70 -44q25 0 33 30q19 70 94 70h50q99 0 99 -75q0 -19 -7 -43l-27 -102q-32 -120 -151 -120h-255q-62 0 -103 56q-33 44 -71 44q-25 0 -33 -30q-18 -70 -93 -70h-50q-100 0 -100 76z" />
<glyph unicode="&#xa1;" horiz-adv-x="500" d="M113 488q0 27 9 62l94 350q32 120 157 120h200q100 0 100 -76q0 -20 -7 -44l-214 -800q-32 -120 -157 -120q-100 0 -100 76q0 20 7 44l67 250q2 7 2 13q0 17 -19 17q-139 0 -139 108zM290 1155q0 20 7 45l26 100q32 120 157 120h200q100 0 100 -76q0 -20 -7 -44l-26 -100 q-33 -120 -158 -120h-200q-99 0 -99 75z" />
<glyph unicode="&#xa2;" horiz-adv-x="900" d="M60 286q0 28 10 63l186 701q46 170 222 170h99q25 0 33 30l13 50q32 120 157 120q100 0 100 -76q0 -20 -7 -44l-13 -50q-2 -7 -2 -13q0 -17 19 -17h101q139 0 139 -107q0 -27 -9 -62l-27 -101q-33 -120 -158 -120q-99 0 -99 76q0 19 7 44q1 6 1 10q0 19 -19 20h-249 q-75 0 -97 -80l-12 -49q-2 -7 -2 -13q0 -17 19 -17q138 -1 138 -107q0 -28 -10 -64l-40 -150q-5 -17 -5 -31q0 -49 59 -50l51 1q24 0 32 30q32 120 157 120q100 0 100 -76q0 -20 -7 -44l-27 -100q-46 -170 -222 -170h-100q-25 0 -33 -30l-13 -50q-32 -120 -157 -120 q-100 0 -100 76q0 20 7 44l13 50q2 7 2 13q0 17 -19 17h-99q-139 0 -139 106z" />
<glyph unicode="&#xa3;" horiz-adv-x="1000" d="M-5 56q0 20 7 44l107 400q32 120 157 120h50q25 0 33 30l27 100q2 7 2 13q0 17 -19 17h-50q-100 0 -100 76q0 20 7 44q32 120 157 120h50q25 0 33 30l54 200q46 171 222 171l248 -1q100 0 100 -77q0 -19 -6 -43q-32 -120 -157 -120h-100q-76 -1 -97 -80l-14 -50 q-2 -7 -2 -12q0 -18 20 -18h49q100 0 100 -77q0 -19 -6 -43q-32 -119 -158 -120h-50q-25 0 -33 -31l-134 -499q-2 -7 -2 -13q0 -17 19 -17h350q100 0 100 -76q0 -20 -7 -44q-32 -120 -157 -120h-700q-100 0 -100 76z" />
<glyph unicode="&#xa4;" d="M-5 56q0 20 7 44l134 500q30 111 118 150q-47 27 -47 89q0 27 9 61l107 400q32 120 157 120q100 0 100 -76q0 -19 -6 -43l-95 -352q46 170 221 170l300 1q139 -1 139 -109q0 -27 -9 -61l93 350q32 120 157 120q100 0 100 -76q0 -20 -7 -44l-107 -400q-30 -111 -118 -150 q47 -27 47 -89q0 -27 -9 -61l-134 -500q-32 -120 -157 -120q-100 0 -100 76q0 20 7 44l120 450q-55 -169 -220 -170l-300 -1q-26 0 -27 -1h1l-74 -278q-32 -120 -161 -120h-146q-100 0 -100 76zM659 669q0 -49 57 -49q75 0 97 80l26 100q5 18 5 32q0 47 -57 47 q-75 0 -97 -80l-27 -100q-4 -17 -4 -30z" />
<glyph unicode="&#xa5;" d="M136 206q0 19 6 43q32 121 157 121h125q21 0 27 23l2 7q2 8 2 14q0 16 -15 16h-124q-100 0 -100 76q0 19 6 43q33 121 158 121h125q21 0 29 30q2 7 2 13q0 17 -19 17h-171q-139 0 -139 108q0 27 9 62l107 400q32 120 157 120q100 0 100 -76q0 -19 -6 -43l-68 -251 q-5 -17 -5 -31q0 -49 59 -49h500q75 0 96 80l67 250q32 120 157 120q100 0 100 -76q0 -20 -7 -44l-107 -400q-45 -170 -220 -170h-175q-25 0 -33 -30q-2 -7 -2 -12q0 -18 20 -18h124q100 0 100 -76q0 -20 -7 -44q-32 -119 -158 -120h-125q-25 0 -33 -30q-2 -7 -2 -12 q0 -18 20 -18h124q100 0 100 -77q0 -19 -6 -43q-32 -119 -158 -120h-125q-25 0 -33 -30q-32 -120 -161 -120h-146q-102 0 -102 81q0 18 5 39q2 8 2 14q0 16 -15 16h-124q-100 0 -100 76z" />
<glyph unicode="&#xa6;" horiz-adv-x="300" d="M-59 -144q0 20 7 44l161 600q32 120 157 120q100 0 100 -76q0 -20 -7 -44l-161 -600q-32 -120 -157 -120q-100 0 -100 76zM209 856q0 20 7 44l161 600q32 120 157 120q100 0 100 -76q0 -20 -7 -44l-161 -600q-32 -120 -157 -120q-100 0 -100 76z" />
<glyph unicode="&#xa7;" d="M-48 -113q0 28 10 63l53 200q32 120 158 120q99 0 99 -76q0 -19 -7 -44l-12 -50q-5 -18 -5 -32q0 -48 58 -48l349 -1q24 1 33 31l89 330l-275 -1q-139 0 -139 108q0 28 9 62l22 81h-75q-139 0 -139 108q0 27 9 62l174 650q46 170 220 170h800q139 -1 139 -108 q0 -27 -9 -62l-54 -200q-32 -120 -157 -120q-100 0 -100 76q0 20 7 44l13 50q5 18 5 32q0 48 -58 48h-500q-73 0 -96 -80l-94 -351q46 170 221 170l300 1q139 -1 139 -109q0 -27 -9 -61l-22 -80h75q139 0 139 -108q0 -27 -9 -62l-201 -750q-46 -170 -220 -171l-801 1 q-139 0 -139 107zM659 669q0 -49 57 -49q75 0 97 80l26 100q5 18 5 32q0 47 -57 47q-75 0 -97 -80l-27 -100q-4 -17 -4 -30z" />
<glyph unicode="&#xa8;" horiz-adv-x="1000" d="M397 1556q0 20 7 44l27 100q32 120 157 120h200q100 0 100 -76q0 -20 -7 -44l-27 -100q-32 -120 -157 -120h-200q-100 0 -100 76zM897 1556q0 20 7 44l27 100q32 120 157 120h200q100 0 100 -76q0 -20 -7 -44l-27 -100q-32 -120 -157 -120h-200q-100 0 -100 76z" />
<glyph unicode="&#xa9;" horiz-adv-x="1250" d="M113 488q0 28 9 62l269 1000q46 170 221 170h851q138 -1 138 -107q0 -28 -10 -64l-269 -1000q-45 -169 -220 -170l-850 1q-139 0 -139 108zM409 668q0 -48 57 -48h550q75 0 96 79l189 700q5 18 5 31q0 49 -59 50h-548q-75 0 -97 -80l-188 -700q-5 -18 -5 -32zM478 740 q0 15 5 35l147 550q25 95 125 95h400q80 0 80 -61q0 -15 -5 -34l-27 -100q-19 -70 -94 -70q-60 0 -60 45q0 11 4 25l7 25q2 7 2 12q0 18 -19 18h-250q-25 0 -33 -30l-27 -100v-5q80 0 80 -60q0 -15 -5 -34l-62 -226l-1 -5h175q25 0 33 30l6 25q19 70 94 70q60 0 60 -45 q0 -11 -4 -25l-26 -100q-26 -95 -126 -95h-400q-79 0 -79 60z" />
<glyph unicode="&#xaa;" horiz-adv-x="1650" d="M0 200v1100q0 200 200 200h1100q200 0 200 -200v-1100q0 -200 -200 -200h-1100q-200 0 -200 200zM25 200q1 -175 175 -175h1101q174 0 174 176v1099q0 175 -175 175h-1100q-174 0 -175 -175v-1100z" />
<glyph unicode="&#xab;" horiz-adv-x="2100" d="M117 514q0 17 5 36l81 300q30 113 210 168l555 201q280 101 336 101h50q100 0 100 -76q0 -20 -7 -44q-31 -113 -210 -168l-537 -187q-86 -33 -125 -97l-25 -96q4 -64 73 -97l436 -187q125 -46 125 -132q0 -17 -5 -36q-33 -120 -158 -120h-50q-56 0 -282 101l-447 201 q-125 46 -125 132zM1017 514q0 17 5 36l81 300q30 113 210 168l555 201q280 101 336 101h50q100 0 100 -76q0 -20 -7 -44q-31 -113 -210 -168l-537 -187q-86 -33 -125 -97l-25 -96q4 -64 73 -97l436 -187q125 -46 125 -132q0 -17 -5 -36q-33 -120 -158 -120h-50 q-56 0 -282 101l-447 201q-125 46 -125 132z" />
<glyph unicode="&#xac;" horiz-adv-x="1650" d="M0 200v1100q0 200 200 200h1100q200 0 200 -200v-1100q0 -200 -200 -200h-1100q-200 0 -200 200zM25 200q1 -175 175 -175h1101q174 0 174 176v1099q0 175 -175 175h-1100q-174 0 -175 -175v-1100z" />
<glyph unicode="&#xad;" horiz-adv-x="1000" d="M170 706q0 19 6 43q32 121 157 121h700q100 0 100 -77q0 -19 -6 -43q-32 -119 -158 -120h-699q-100 0 -100 76z" />
<glyph unicode="&#xae;" horiz-adv-x="1250" d="M113 488q0 28 9 62l269 1000q46 170 221 170h851q138 -1 138 -107q0 -28 -10 -64l-269 -1000q-45 -169 -220 -170l-850 1q-139 0 -139 108zM409 668q0 -48 57 -48h550q75 0 96 79l189 700q5 18 5 31q0 49 -59 50h-548q-75 0 -97 -80l-188 -700q-5 -18 -5 -32zM472 725 q0 11 4 25l161 600q18 70 93 70h325q80 0 80 -61q0 -15 -5 -34l-48 -180q79 0 79 -60q0 -15 -5 -35l-80 -300q-19 -70 -94 -70q-60 0 -60 45q0 11 4 25l60 225q2 7 2 13q0 17 -19 17h-200l-68 -255q-19 -70 -96 -70h-73q-60 0 -60 45zM732 1145h200l21 80q3 13 3 22 q0 33 -38 33h-150z" />
<glyph unicode="&#xaf;" horiz-adv-x="1650" d="M0 200v1100q0 200 200 200h1100q200 0 200 -200v-1100q0 -200 -200 -200h-1100q-200 0 -200 200zM25 200q1 -175 175 -175h1101q174 0 174 176v1099q0 175 -175 175h-1100q-174 0 -175 -175v-1100z" />
<glyph unicode="&#xb0;" horiz-adv-x="600" d="M434 1678q0 34 10 72q30 111 130.5 190.5t216.5 79.5t175 -79q38 -53 38 -119q0 -34 -10 -72q-30 -111 -130.5 -190.5t-216.5 -79.5t-174 80q-39 52 -39 118zM692 1740q0 -7 4 -12q6 -8 15 -8t19 8t14 22q2 6 2 10q0 7 -4 12q-6 8 -15 8t-19 -8t-14 -22q-2 -6 -2 -10z " />
<glyph unicode="&#xb1;" horiz-adv-x="1000" d="M9 106q0 19 6 43q32 121 157 121h700q100 0 100 -77q0 -19 -6 -43q-32 -119 -158 -120h-699q-100 0 -100 76zM196 807q0 19 6 42q33 121 158 121h100q25 0 33 30l67 250q32 120 157 120h200q100 0 100 -76q0 -20 -7 -44l-67 -250q-2 -7 -2 -13q0 -17 19 -17h100 q100 0 100 -77q0 -19 -6 -43q-32 -119 -158 -120h-100q-25 0 -33 -30l-67 -250q-33 -120 -158 -120h-200q-99 0 -99 75q0 20 7 45l67 250q2 8 2 13q0 17 -18 17h-100q-101 0 -101 77z" />
<glyph unicode="&#xb2;" horiz-adv-x="1650" d="M0 200v1100q0 200 200 200h1100q200 0 200 -200v-1100q0 -200 -200 -200h-1100q-200 0 -200 200zM25 200q1 -175 175 -175h1101q174 0 174 176v1099q0 175 -175 175h-1100q-174 0 -175 -175v-1100z" />
<glyph unicode="&#xb3;" horiz-adv-x="1650" d="M0 200v1100q0 200 200 200h1100q200 0 200 -200v-1100q0 -200 -200 -200h-1100q-200 0 -200 200zM25 200q1 -175 175 -175h1101q174 0 174 176v1099q0 175 -175 175h-1100q-174 0 -175 -175v-1100z" />
<glyph unicode="&#xb4;" horiz-adv-x="500" d="M397 1556q0 20 7 44l53 200q9 32 48 63l32 25q40 32 77 32h200q100 0 100 -76q0 -20 -7 -44q-15 -57 -56 -89l-253 -200q-39 -31 -101 -31q-100 0 -100 76z" />
<glyph unicode="&#xb5;" horiz-adv-x="900" d="M-112 -345q0 20 7 45l321 1200q32 119 157 120q100 0 100 -76q0 -20 -7 -44l-66 -249q-2 -7 -2 -13q0 -17 19 -17q138 -1 138 -108q0 -28 -9 -63l-41 -150q-5 -17 -5 -31q0 -49 60 -50q74 1 95 79l161 602q32 120 157 120q100 0 100 -76q0 -20 -7 -44l-201 -750 q-45 -170 -221 -170h-399q-25 0 -33 -30l-67 -250q-33 -120 -158 -120q-99 0 -99 75z" />
<glyph unicode="&#xb6;" horiz-adv-x="1100" d="M180 738q0 28 9 62l121 450q45 170 220 170h700q140 0 140 -108q0 -28 -9 -63l-309 -1150q-32 -119 -158 -119l-199 2q-99 0 -99 76q0 19 6 43l267 998q2 8 2 14q0 17 -18 17q-25 0 -33 -30l-268 -1000q-32 -120 -157 -120q-100 0 -100 76q0 20 7 44l134 500q2 7 2 13 q0 17 -19 17h-100q-139 2 -139 108z" />
<glyph unicode="&#xb7;" horiz-adv-x="500" d="M156 655q0 20 7 45l26 100q33 120 158 120h200q99 0 99 -75q0 -20 -7 -45l-26 -100q-33 -120 -158 -120h-200q-99 0 -99 75z" />
<glyph unicode="&#xb8;" horiz-adv-x="600" d="M-112 -345q0 20 7 45q32 120 157 120h100q75 0 96 80q5 18 5 32q0 48 -58 48q-100 0 -100 76q0 20 7 44q32 120 157 120h150q139 0 139 -107q0 -28 -10 -63l-80 -300q-46 -170 -221 -170h-250q-99 0 -99 75z" />
<glyph unicode="&#xb9;" horiz-adv-x="1650" d="M0 200v1100q0 200 200 200h1100q200 0 200 -200v-1100q0 -200 -200 -200h-1100q-200 0 -200 200zM25 200q1 -175 175 -175h1101q174 0 174 176v1099q0 175 -175 175h-1100q-174 0 -175 -175v-1100z" />
<glyph unicode="&#xba;" horiz-adv-x="1650" d="M0 200v1100q0 200 200 200h1100q200 0 200 -200v-1100q0 -200 -200 -200h-1100q-200 0 -200 200zM25 200q1 -175 175 -175h1101q174 0 174 176v1099q0 175 -175 175h-1100q-174 0 -175 -175v-1100z" />
<glyph unicode="&#xbb;" horiz-adv-x="2100" d="M22 155q0 20 7 45q30 113 210 168l536 187q87 33 125 97l25 96q-3 64 -73 97l-435 187q-125 46 -125 131q0 18 5 37q32 120 157 120h50q56 0 282 -101l447 -201q125 -46 125 -132q0 -17 -5 -36l-81 -300q-30 -113 -210 -168l-555 -201q-280 -101 -336 -101h-50 q-99 0 -99 75zM922 155q0 20 7 45q30 113 210 168l536 187q87 33 125 97l25 96q-3 64 -73 97l-435 187q-125 46 -125 131q0 18 5 37q32 120 157 120h50q56 0 282 -101l447 -201q125 -46 125 -132q0 -17 -5 -36l-81 -300q-30 -113 -210 -168l-555 -201q-280 -101 -336 -101 h-50q-99 0 -99 75z" />
<glyph unicode="&#xbc;" horiz-adv-x="1650" d="M0 200v1100q0 200 200 200h1100q200 0 200 -200v-1100q0 -200 -200 -200h-1100q-200 0 -200 200zM25 200q1 -175 175 -175h1101q174 0 174 176v1099q0 175 -175 175h-1100q-174 0 -175 -175v-1100z" />
<glyph unicode="&#xbd;" horiz-adv-x="1650" d="M0 200v1100q0 200 200 200h1100q200 0 200 -200v-1100q0 -200 -200 -200h-1100q-200 0 -200 200zM25 200q1 -175 175 -175h1101q174 0 174 176v1099q0 175 -175 175h-1100q-174 0 -175 -175v-1100z" />
<glyph unicode="&#xbe;" horiz-adv-x="1650" d="M0 200v1100q0 200 200 200h1100q200 0 200 -200v-1100q0 -200 -200 -200h-1100q-200 0 -200 200zM25 200q1 -175 175 -175h1101q174 0 174 176v1099q0 175 -175 175h-1100q-174 0 -175 -175v-1100z" />
<glyph unicode="&#xbf;" horiz-adv-x="1100" d="M6 89q0 27 9 62l121 450q45 168 221 170l350 2q75 0 97 80l13 51q33 119 157 119h199q100 0 100 -76q0 -19 -6 -43l-54 -201q-45 -170 -220 -170l-551 -2q-75 0 -96 -80l-40 -150q-5 -18 -5 -32q0 -48 58 -48h399q76 1 98 80l14 52q32 120 157 120q100 0 100 -76 q0 -20 -7 -44l-55 -202q-45 -171 -221 -171l-699 1q-139 0 -139 108zM890 1159q0 20 7 44l27 100q32 120 157 120h200q100 0 100 -76q0 -20 -7 -44l-27 -100q-32 -120 -157 -120h-200q-100 0 -100 76z" />
<glyph unicode="&#xc0;" d="M-5 56q0 20 7 44l161 600q45 170 195 170l102 380q45 170 220 170h500q139 0 139 -108q0 -27 -9 -62l-102 -380q115 0 115 -101q0 -30 -10 -69l-161 -600q-32 -120 -157 -120q-100 0 -100 76q0 20 7 44l120 450q5 17 5 31q0 48 -58 49h-299q-61 -4 -98 -82l-120 -448 q-32 -120 -161 -120h-196q-100 0 -100 76zM614 888q0 -17 19 -17l300 -1q25 0 33 30l54 200q5 18 5 31q0 49 -59 49h-200q-75 0 -96 -80l-54 -199q-2 -7 -2 -13zM801 1759q0 19 6 41q32 120 157 120h200q37 0 62 -32l18 -25q16 -22 16 -45q0 -9 -3 -18l-53 -200 q-32 -120 -157 -120q-62 0 -85 31l-147 200q-14 19 -14 48z" />
<glyph unicode="&#xc1;" d="M-5 56q0 20 7 44l161 600q45 170 195 170l102 380q45 170 220 170h500q139 0 139 -108q0 -27 -9 -62l-102 -380q115 0 115 -101q0 -30 -10 -69l-161 -600q-32 -120 -157 -120q-100 0 -100 76q0 20 7 44l120 450q5 17 5 31q0 48 -58 49h-299q-61 -4 -98 -82l-120 -448 q-32 -120 -161 -120h-196q-100 0 -100 76zM614 888q0 -17 19 -17l300 -1q25 0 33 30l54 200q5 18 5 31q0 49 -59 49h-200q-75 0 -96 -80l-54 -199q-2 -7 -2 -13zM747 1556q0 20 7 44l53 200q9 32 48 63l32 25q40 32 77 32h200q100 0 100 -76q0 -20 -7 -44q-15 -57 -56 -89 l-253 -200q-39 -31 -101 -31q-100 0 -100 76z" />
<glyph unicode="&#xc2;" d="M-5 56q0 20 7 44l161 600q45 170 195 170l102 380q45 170 220 170h500q139 0 139 -108q0 -27 -9 -62l-102 -380q115 0 115 -101q0 -30 -10 -69l-161 -600q-32 -120 -157 -120q-100 0 -100 76q0 20 7 44l120 450q5 17 5 31q0 48 -58 49h-299q-61 -4 -98 -82l-120 -448 q-32 -120 -161 -120h-196q-100 0 -100 76zM587 1526q0 10 3 24l14 50q13 45 50 65l185 126q67 29 99 29h200q32 0 83 -29l116 -126q21 -14 21 -41q0 -11 -4 -24l-14 -50q-18 -70 -93 -70h-125q-37 0 -60 31q-51 69 -64 69h-50q-13 0 -100 -69q-39 -31 -76 -31h-125 q-60 0 -60 46zM614 888q0 -17 19 -17l300 -1q25 0 33 30l54 200q5 18 5 31q0 49 -59 49h-200q-75 0 -96 -80l-54 -199q-2 -7 -2 -13z" />
<glyph unicode="&#xc3;" d="M-5 56q0 20 7 44l161 600q45 170 195 170l102 380q45 170 220 170h500q139 0 139 -108q0 -27 -9 -62l-102 -380q115 0 115 -101q0 -30 -10 -69l-161 -600q-32 -120 -157 -120q-100 0 -100 76q0 20 7 44l120 450q5 17 5 31q0 48 -58 49h-299q-61 -4 -98 -82l-120 -448 q-32 -120 -161 -120h-196q-100 0 -100 76zM547 1556q0 20 7 44l27 100q32 120 157 120h250q62 0 103 -56q32 -44 70 -44q25 0 33 30q19 70 94 70h50q100 0 100 -76q0 -20 -7 -44l-27 -100q-32 -120 -152 -120h-255q-62 0 -103 56q-33 44 -71 44q-25 0 -33 -30 q-18 -70 -93 -70h-50q-100 0 -100 76zM614 888q0 -17 19 -17l300 -1q25 0 33 30l54 200q5 18 5 31q0 49 -59 49h-200q-75 0 -96 -80l-54 -199q-2 -7 -2 -13z" />
<glyph unicode="&#xc4;" d="M-5 56q0 20 7 44l161 600q45 170 195 170l102 380q45 170 220 170h500q139 0 139 -108q0 -27 -9 -62l-102 -380q115 0 115 -101q0 -30 -10 -69l-161 -600q-32 -120 -157 -120q-100 0 -100 76q0 20 7 44l120 450q5 17 5 31q0 48 -58 49h-299q-61 -4 -98 -82l-120 -448 q-32 -120 -161 -120h-196q-100 0 -100 76zM497 1556q0 20 7 44l27 100q32 120 157 120h200q100 0 100 -76q0 -20 -7 -44l-27 -100q-32 -120 -157 -120h-200q-100 0 -100 76zM614 888q0 -17 19 -17l300 -1q25 0 33 30l54 200q5 18 5 31q0 49 -59 49h-200q-75 0 -96 -80 l-54 -199q-2 -7 -2 -13zM997 1556q0 20 7 44l27 100q32 120 157 120h200q100 0 100 -76q0 -20 -7 -44l-27 -100q-32 -120 -157 -120h-200q-100 0 -100 76z" />
<glyph unicode="&#xc5;" d="M-5 56q0 20 7 44l161 600q45 170 195 170l102 380q45 170 220 170h500q139 0 139 -108q0 -27 -9 -62l-102 -380q115 0 115 -101q0 -30 -10 -69l-161 -600q-32 -120 -157 -120q-100 0 -100 76q0 20 7 44l120 450q5 17 5 31q0 48 -58 49h-299q-61 -4 -98 -82l-120 -448 q-32 -120 -161 -120h-196q-100 0 -100 76zM614 888q0 -17 19 -17l300 -1q25 0 33 30l54 200q5 18 5 31q0 49 -59 49h-200q-75 0 -96 -80l-54 -199q-2 -7 -2 -13zM734 1678q0 34 10 72q30 111 130.5 190.5t216.5 79.5t175 -79q38 -53 38 -119q0 -34 -10 -72 q-30 -111 -130.5 -190.5t-216.5 -79.5t-174 80q-39 52 -39 118zM992 1740q0 -7 4 -12q6 -8 15 -8t19 8t14 22q2 6 2 10q0 7 -4 12q-6 8 -15 8t-19 -8t-14 -22q-2 -6 -2 -10z" />
<glyph unicode="&#xc6;" horiz-adv-x="1750" d="M-5 56q0 20 7 44l161 600q45 170 195 170l102 380q45 170 220 170l1249 -1q100 0 100 -77q0 -19 -6 -43q-32 -120 -157 -120h-500q-68 -1 -92 -62l-61 -229v-3q0 -16 20 -16h549q100 0 100 -77q0 -19 -6 -43q-32 -119 -158 -119l-350 -1q-23 0 -33 -31l-93 -349 q-2 -7 -2 -13q0 -17 18 -17h350q100 0 100 -77q0 -19 -6 -43q-33 -120 -159 -120h-699q-100 0 -100 76q0 19 6 43l143 532h-223q-61 -4 -98 -82l-120 -448q-32 -120 -161 -120h-196q-100 0 -100 76zM614 888q0 -17 19 -17l300 -1q25 0 33 30l54 200q5 18 5 31q0 49 -59 49 h-200q-75 0 -96 -80l-54 -199q-2 -7 -2 -13z" />
<glyph unicode="&#xc7;" d="M6 87q0 28 9 63l295 1100q45 169 220 170h800q139 0 139 -108q0 -28 -9 -62l-54 -200q-32 -120 -157 -120q-99 0 -99 76q0 20 7 45l12 49q4 17 4 31q0 49 -57 49h-500q-75 0 -96 -80l-54 -200q-2 -7 -2 -12q0 -18 20 -18q139 -1 139 -107q0 -28 -9 -62l-122 -451 q-2 -7 -2 -12q0 -18 19 -19h133q7 1 17 1h199q75 0 96 80l15 50q32 120 157 120q100 0 100 -76q0 -20 -7 -44l-54 -200q-45 -170 -220 -170q-25 0 -33 -30l-54 -200q-46 -170 -221 -170h-250q-99 0 -99 75q0 20 7 45q32 120 157 120h100q75 0 96 80q5 19 5 34q0 43 -46 46 l-464 -1q-137 1 -137 108z" />
<glyph unicode="&#xc8;" horiz-adv-x="1000" d="M-4 56q0 19 6 43l308 1151q46 171 222 171l648 -1q100 0 100 -77q0 -19 -6 -43q-32 -120 -157 -120h-500q-76 -1 -97 -80l-54 -200q-2 -7 -2 -12q0 -18 20 -18h549q100 0 100 -77q0 -19 -6 -43q-32 -119 -158 -119l-350 -1q-23 0 -32 -31l-94 -349q-2 -7 -2 -13 q0 -17 18 -17h350q100 0 100 -77q0 -19 -6 -43q-32 -120 -158 -120h-699q-100 0 -100 76zM701 1759q0 19 6 41q32 120 157 120h200q37 0 62 -32l18 -25q16 -22 16 -45q0 -9 -3 -18l-53 -200q-32 -120 -157 -120q-62 0 -85 31l-147 200q-14 19 -14 48z" />
<glyph unicode="&#xc9;" horiz-adv-x="1000" d="M-4 56q0 19 6 43l308 1151q46 171 222 171l648 -1q100 0 100 -77q0 -19 -6 -43q-32 -120 -157 -120h-500q-76 -1 -97 -80l-54 -200q-2 -7 -2 -12q0 -18 20 -18h549q100 0 100 -77q0 -19 -6 -43q-32 -119 -158 -119l-350 -1q-23 0 -32 -31l-94 -349q-2 -7 -2 -13 q0 -17 18 -17h350q100 0 100 -77q0 -19 -6 -43q-32 -120 -158 -120h-699q-100 0 -100 76zM647 1556q0 20 7 44l53 200q9 32 48 63l32 25q40 32 77 32h200q100 0 100 -76q0 -20 -7 -44q-15 -57 -56 -89l-253 -200q-39 -31 -101 -31q-100 0 -100 76z" />
<glyph unicode="&#xca;" horiz-adv-x="1000" d="M-4 56q0 19 6 43l308 1151q46 171 222 171l648 -1q100 0 100 -77q0 -19 -6 -43q-32 -120 -157 -120h-500q-76 -1 -97 -80l-54 -200q-2 -7 -2 -12q0 -18 20 -18h549q100 0 100 -77q0 -19 -6 -43q-32 -119 -158 -119l-350 -1q-23 0 -32 -31l-94 -349q-2 -7 -2 -13 q0 -17 18 -17h350q100 0 100 -77q0 -19 -6 -43q-32 -120 -158 -120h-699q-100 0 -100 76zM487 1526q0 10 3 24l14 50q13 45 50 65l185 126q67 29 99 29h200q32 0 83 -29l116 -126q21 -14 21 -41q0 -11 -4 -24l-14 -50q-18 -70 -93 -70h-125q-37 0 -60 31q-51 69 -64 69h-50 q-13 0 -100 -69q-39 -31 -76 -31h-125q-60 0 -60 46z" />
<glyph unicode="&#xcb;" horiz-adv-x="1000" d="M-4 56q0 19 6 43l308 1151q46 171 222 171l648 -1q100 0 100 -77q0 -19 -6 -43q-32 -120 -157 -120h-500q-76 -1 -97 -80l-54 -200q-2 -7 -2 -12q0 -18 20 -18h549q100 0 100 -77q0 -19 -6 -43q-32 -119 -158 -119l-350 -1q-23 0 -32 -31l-94 -349q-2 -7 -2 -13 q0 -17 18 -17h350q100 0 100 -77q0 -19 -6 -43q-32 -120 -158 -120h-699q-100 0 -100 76zM397 1556q0 20 7 44l27 100q32 120 157 120h200q100 0 100 -76q0 -20 -7 -44l-27 -100q-32 -120 -157 -120h-200q-100 0 -100 76zM897 1556q0 20 7 44l27 100q32 120 157 120h200 q100 0 100 -76q0 -20 -7 -44l-27 -100q-32 -120 -157 -120h-200q-100 0 -100 76z" />
<glyph unicode="&#xcc;" horiz-adv-x="500" d="M-5 56q0 20 7 44l321 1200q32 120 157 120q100 0 100 -76q0 -20 -7 -44l-107 -400q-2 -7 -2 -13q0 -17 19 -17q139 0 139 -108q0 -27 -9 -62l-161 -600q-32 -120 -157 -120h-200q-100 0 -100 76zM451 1759q0 19 6 41q32 120 157 120h200q37 0 62 -32l18 -25 q16 -22 16 -45q0 -9 -3 -18l-53 -200q-32 -120 -157 -120q-62 0 -85 31l-147 200q-14 19 -14 48z" />
<glyph unicode="&#xcd;" horiz-adv-x="500" d="M-5 56q0 20 7 44l321 1200q32 120 157 120q100 0 100 -76q0 -20 -7 -44l-107 -400q-2 -7 -2 -13q0 -17 19 -17q139 0 139 -108q0 -27 -9 -62l-161 -600q-32 -120 -157 -120h-200q-100 0 -100 76zM397 1556q0 20 7 44l53 200q9 32 48 63l32 25q40 32 77 32h200 q100 0 100 -76q0 -20 -7 -44q-15 -57 -56 -89l-253 -200q-39 -31 -101 -31q-100 0 -100 76z" />
<glyph unicode="&#xce;" horiz-adv-x="500" d="M-5 56q0 20 7 44l321 1200q32 120 157 120q100 0 100 -76q0 -20 -7 -44l-107 -400q-2 -7 -2 -13q0 -17 19 -17q139 0 139 -108q0 -27 -9 -62l-161 -600q-32 -120 -157 -120h-200q-100 0 -100 76zM237 1526q0 10 3 24l14 50q13 45 50 65l185 126q67 29 99 29h200 q32 0 83 -29l116 -126q21 -14 21 -41q0 -11 -4 -24l-14 -50q-18 -70 -93 -70h-125q-37 0 -60 31q-51 69 -64 69h-50q-13 0 -100 -69q-39 -31 -76 -31h-125q-60 0 -60 46z" />
<glyph unicode="&#xcf;" horiz-adv-x="500" d="M-5 56q0 20 7 44l321 1200q32 120 157 120q100 0 100 -76q0 -20 -7 -44l-107 -400q-2 -7 -2 -13q0 -17 19 -17q139 0 139 -108q0 -27 -9 -62l-161 -600q-32 -120 -157 -120h-200q-100 0 -100 76zM147 1556q0 20 7 44l27 100q32 120 157 120h200q100 0 100 -76 q0 -20 -7 -44l-27 -100q-32 -120 -157 -120h-200q-100 0 -100 76zM647 1556q0 20 7 44l27 100q32 120 157 120h200q100 0 100 -76q0 -20 -7 -44l-27 -100q-32 -120 -157 -120h-200q-100 0 -100 76z" />
<glyph unicode="&#xd0;" horiz-adv-x="1400" d="M169 706q0 20 7 44q32 120 157 120h50q25 0 33 30l107 400q32 120 157 120h850q139 0 139 -108q0 -27 -9 -62l-295 -1100q-45 -170 -220 -170h-849q-100 0 -100 76q0 19 6 43l134 501q2 7 2 13q0 17 -19 17h-50q-100 0 -100 76zM664 888q0 -18 20 -18h199q100 0 100 -76 q0 -20 -7 -44q-32 -120 -157 -120q-25 0 -33 -30l-94 -350q-2 -7 -2 -13q0 -17 19 -17h350q75 0 96 80l215 800q5 18 5 31q0 49 -59 49h-550q-25 -1 -33 -30l-67 -250q-2 -7 -2 -12z" />
<glyph unicode="&#xd1;" d="M-4 56q0 19 6 43l308 1151q46 171 222 171l798 -1q139 0 139 -108q0 -27 -9 -62l-308 -1150q-32 -120 -157 -120q-100 0 -100 76q0 20 7 44l268 1000q5 18 5 31q0 49 -59 49h-499q-76 -1 -97 -80l-54 -200q-2 -7 -2 -12q0 -18 20 -18q138 0 138 -107q0 -28 -9 -63 l-161 -600q-32 -120 -158 -120h-198q-100 0 -100 76zM547 1556q0 20 7 44l27 100q32 120 157 120h250q62 0 103 -56q32 -44 70 -44q25 0 33 30q19 70 94 70h50q100 0 100 -76q0 -20 -7 -44l-27 -100q-32 -120 -152 -120h-255q-62 0 -103 56q-33 44 -71 44q-25 0 -33 -30 q-18 -70 -93 -70h-50q-100 0 -100 76z" />
<glyph unicode="&#xd2;" d="M6 86q0 28 9 63l295 1100q45 170 220 170l801 1q138 -1 138 -108q0 -28 -9 -63l-295 -1100q-45 -169 -221 -170h-800q-138 0 -138 107zM302 268q0 -49 57 -49h500q75 0 96 80l134 501q2 7 2 13q0 17 -19 17q-138 1 -138 107q0 27 9 62l40 150q2 7 2 12q0 18 -19 19 l-349 -1q-75 0 -97 -80l-214 -800q-4 -17 -4 -31zM801 1759q0 19 6 41q32 120 157 120h200q37 0 62 -32l18 -25q16 -22 16 -45q0 -9 -3 -18l-53 -200q-32 -120 -157 -120q-62 0 -85 31l-147 200q-14 19 -14 48z" />
<glyph unicode="&#xd3;" d="M6 86q0 28 9 63l295 1100q45 170 220 170l801 1q138 -1 138 -108q0 -28 -9 -63l-295 -1100q-45 -169 -221 -170h-800q-138 0 -138 107zM302 268q0 -49 57 -49h500q75 0 96 80l134 501q2 7 2 13q0 17 -19 17q-138 1 -138 107q0 27 9 62l40 150q2 7 2 12q0 18 -19 19 l-349 -1q-75 0 -97 -80l-214 -800q-4 -17 -4 -31zM747 1556q0 20 7 44l53 200q9 32 48 63l32 25q40 32 77 32h200q100 0 100 -76q0 -20 -7 -44q-15 -57 -56 -89l-253 -200q-39 -31 -101 -31q-100 0 -100 76z" />
<glyph unicode="&#xd4;" d="M6 86q0 28 9 63l295 1100q45 170 220 170l801 1q138 -1 138 -108q0 -28 -9 -63l-295 -1100q-45 -169 -221 -170h-800q-138 0 -138 107zM302 268q0 -49 57 -49h500q75 0 96 80l134 501q2 7 2 13q0 17 -19 17q-138 1 -138 107q0 27 9 62l40 150q2 7 2 12q0 18 -19 19 l-349 -1q-75 0 -97 -80l-214 -800q-4 -17 -4 -31zM587 1526q0 10 3 24l14 50q13 45 50 65l185 126q67 29 99 29h200q32 0 83 -29l116 -126q21 -14 21 -41q0 -11 -4 -24l-14 -50q-18 -70 -93 -70h-125q-37 0 -60 31q-51 69 -64 69h-50q-13 0 -100 -69q-39 -31 -76 -31h-125 q-60 0 -60 46z" />
<glyph unicode="&#xd5;" d="M6 86q0 28 9 63l295 1100q45 170 220 170l801 1q138 -1 138 -108q0 -28 -9 -63l-295 -1100q-45 -169 -221 -170h-800q-138 0 -138 107zM302 268q0 -49 57 -49h500q75 0 96 80l134 501q2 7 2 13q0 17 -19 17q-138 1 -138 107q0 27 9 62l40 150q2 7 2 12q0 18 -19 19 l-349 -1q-75 0 -97 -80l-214 -800q-4 -17 -4 -31zM547 1556q0 20 7 44l27 100q32 120 157 120h250q62 0 103 -56q32 -44 70 -44q25 0 33 30q19 70 94 70h50q100 0 100 -76q0 -20 -7 -44l-27 -100q-32 -120 -152 -120h-255q-62 0 -103 56q-33 44 -71 44q-25 0 -33 -30 q-18 -70 -93 -70h-50q-100 0 -100 76z" />
<glyph unicode="&#xd6;" d="M6 86q0 28 9 63l295 1100q45 170 220 170l801 1q138 -1 138 -108q0 -28 -9 -63l-295 -1100q-45 -169 -221 -170h-800q-138 0 -138 107zM302 268q0 -49 57 -49h500q75 0 96 80l134 501q2 7 2 13q0 17 -19 17q-138 1 -138 107q0 27 9 62l40 150q2 7 2 12q0 18 -19 19 l-349 -1q-75 0 -97 -80l-214 -800q-4 -17 -4 -31zM497 1556q0 20 7 44l27 100q32 120 157 120h200q100 0 100 -76q0 -20 -7 -44l-27 -100q-32 -120 -157 -120h-200q-100 0 -100 76zM997 1556q0 20 7 44l27 100q32 120 157 120h200q100 0 100 -76q0 -20 -7 -44l-27 -100 q-32 -120 -157 -120h-200q-100 0 -100 76z" />
<glyph unicode="&#xd7;" horiz-adv-x="900" d="M48 256q0 20 7 44l67 250q30 111 119 150q-47 27 -47 89q0 27 9 61l67 250q32 120 157 120q100 0 100 -75q0 -20 -7 -44l-67 -251q-2 -7 -2 -13q0 -17 19 -17h300q25 0 33 30l67 250q32 120 157 120q100 0 100 -76q0 -20 -7 -44l-67 -250q-30 -111 -118 -150 q46 -27 46 -88q0 -28 -9 -62l-67 -250q-32 -120 -157 -120q-100 0 -100 76q0 20 7 44l67 250q2 7 2 12q0 17 -19 18h-150q-25 0 -33 -30l-67 -250q-32 -120 -161 -120h-146q-100 0 -100 76z" />
<glyph unicode="&#xd8;" d="M6 86q0 28 9 63l295 1100q45 170 220 170l801 1q138 -1 138 -108q0 -27 -9 -62l-295 -1101q-45 -169 -221 -170h-800q-138 0 -138 107zM355 480l604 581l24 88q2 7 2 12q0 18 -19 19l-349 -1q-75 0 -97 -80zM392 219h467q75 0 96 80l134 501q2 7 2 13q0 17 -19 17 q-34 0 -42 2z" />
<glyph unicode="&#xd9;" d="M6 88q0 27 9 62l309 1151q31 119 156 119q100 0 100 -76q0 -20 -7 -44l-107 -400q-2 -7 -2 -12q0 -18 20 -18q139 0 139 -108q0 -27 -9 -62l-121 -450q-2 -7 -2 -13q0 -17 18 -17h351q73 0 94 80l269 1000q32 120 159 121q98 -1 98 -77q0 -19 -7 -44l-308 -1150 q-45 -170 -219 -170h-801q-139 0 -139 108zM801 1759q0 19 6 41q32 120 157 120h200q37 0 62 -32l18 -25q16 -22 16 -45q0 -9 -3 -18l-53 -200q-32 -120 -157 -120q-62 0 -85 31l-147 200q-14 19 -14 48z" />
<glyph unicode="&#xda;" d="M6 88q0 27 9 62l309 1151q31 119 156 119q100 0 100 -76q0 -20 -7 -44l-107 -400q-2 -7 -2 -12q0 -18 20 -18q139 0 139 -108q0 -27 -9 -62l-121 -450q-2 -7 -2 -13q0 -17 18 -17h351q73 0 94 80l269 1000q32 120 159 121q98 -1 98 -77q0 -19 -7 -44l-308 -1150 q-45 -170 -219 -170h-801q-139 0 -139 108zM747 1556q0 20 7 44l53 200q9 32 48 63l32 25q40 32 77 32h200q100 0 100 -76q0 -20 -7 -44q-15 -57 -56 -89l-253 -200q-39 -31 -101 -31q-100 0 -100 76z" />
<glyph unicode="&#xdb;" d="M6 88q0 27 9 62l309 1151q31 119 156 119q100 0 100 -76q0 -20 -7 -44l-107 -400q-2 -7 -2 -12q0 -18 20 -18q139 0 139 -108q0 -27 -9 -62l-121 -450q-2 -7 -2 -13q0 -17 18 -17h351q73 0 94 80l269 1000q32 120 159 121q98 -1 98 -77q0 -19 -7 -44l-308 -1150 q-45 -170 -219 -170h-801q-139 0 -139 108zM587 1526q0 10 3 24l14 50q13 45 50 65l185 126q67 29 99 29h200q32 0 83 -29l116 -126q21 -14 21 -41q0 -11 -4 -24l-14 -50q-18 -70 -93 -70h-125q-37 0 -60 31q-51 69 -64 69h-50q-13 0 -100 -69q-39 -31 -76 -31h-125 q-60 0 -60 46z" />
<glyph unicode="&#xdc;" d="M6 88q0 27 9 62l309 1151q31 119 156 119q100 0 100 -76q0 -20 -7 -44l-107 -400q-2 -7 -2 -12q0 -18 20 -18q139 0 139 -108q0 -27 -9 -62l-121 -450q-2 -7 -2 -13q0 -17 18 -17h351q73 0 94 80l269 1000q32 120 159 121q98 -1 98 -77q0 -19 -7 -44l-308 -1150 q-45 -170 -219 -170h-801q-139 0 -139 108zM497 1556q0 20 7 44l27 100q32 120 157 120h200q100 0 100 -76q0 -20 -7 -44l-27 -100q-32 -120 -157 -120h-200q-100 0 -100 76zM997 1556q0 20 7 44l27 100q32 120 157 120h200q100 0 100 -76q0 -20 -7 -44l-27 -100 q-32 -120 -157 -120h-200q-100 0 -100 76z" />
<glyph unicode="&#xdd;" d="M180 738q0 27 9 62l134 500q32 120 157 120q100 0 100 -76q0 -19 -6 -43l-94 -351q-5 -18 -5 -32q0 -48 58 -48h500q75 0 97 80l93 350q32 120 157 120q100 0 100 -76q0 -20 -7 -44l-134 -500q-45 -170 -220 -170h-175q-25 0 -33 -30l-134 -500q-32 -120 -161 -120h-146 q-102 0 -102 81q0 18 5 39l134 500q2 7 2 13q0 17 -19 17h-171q-139 0 -139 108zM747 1556q0 20 7 44l53 200q9 32 48 63l32 25q40 32 77 32h200q100 0 100 -76q0 -20 -7 -44q-15 -57 -56 -89l-253 -200q-39 -31 -101 -31q-100 0 -100 76z" />
<glyph unicode="&#xde;" horiz-adv-x="1100" d="M-4 56q0 19 6 43l321 1201q32 120 157 120q100 0 100 -76q0 -20 -7 -44l-40 -150q-2 -7 -2 -13q0 -17 19 -17l599 -1q139 0 139 -107q0 -28 -10 -63l-120 -450q-45 -168 -221 -170h-400q-25 0 -33 -31l-52 -197q-33 -119 -157 -119l-199 -2q-100 0 -100 76zM383 586 q0 -17 19 -17h449q75 0 97 80l40 150q5 18 5 32q0 48 -58 48h-399q-77 -1 -98 -80l-53 -200q-2 -7 -2 -13z" />
<glyph unicode="&#xdf;" d="M-5 56q0 20 7 44l308 1150q45 170 220 170h600q139 0 139 -108q0 -27 -9 -62l-94 -350q-2 -7 -2 -13q0 -17 19 -17q139 0 139 -108q0 -27 -9 -62l-148 -550q-45 -170 -220 -170h-400q-100 0 -100 76q0 20 7 44q32 120 157 120h250q75 0 96 80l67 250q5 17 5 31 q0 48 -58 49h-250q-100 0 -100 76q0 20 7 44q32 120 157 120h100q25 0 33 30l54 200q5 18 5 31q0 49 -59 49h-300q-75 0 -96 -80l-54 -200q-2 -7 -2 -13q0 -17 19 -17q100 0 100 -76q0 -20 -7 -44l-174 -650q-32 -120 -157 -120h-150q-100 0 -100 76z" />
<glyph unicode="&#xe0;" horiz-adv-x="900" d="M6 87q0 27 9 62l79 300q46 169 221 169l401 1q24 0 33 30l13 50q5 17 5 30q0 48 -59 48h-250q-25 0 -33 -29q-32 -121 -157 -121q-100 0 -100 77q0 19 7 44l27 99q46 170 221 170h499q140 0 140 -106q0 -28 -10 -63l-186 -698q-45 -170 -222 -170h-499q-139 0 -139 107z M451 269q0 -49 58 -49l101 -1q24 0 32 30l27 102q2 6 2 11q0 17 -20 17h-100q-73 0 -95 -79q-5 -18 -5 -31zM544 1359q0 19 6 41q32 120 157 120h200q37 0 62 -32l18 -25q16 -22 16 -45q0 -9 -3 -18l-53 -200q-33 -120 -158 -120q-62 0 -84 31l-147 200q-14 19 -14 48z" />
<glyph unicode="&#xe1;" horiz-adv-x="900" d="M6 87q0 27 9 62l79 300q46 169 221 169l401 1q24 0 33 30l13 50q5 17 5 30q0 48 -59 48h-250q-25 0 -33 -29q-32 -121 -157 -121q-100 0 -100 77q0 19 7 44l27 99q46 170 221 170h499q140 0 140 -106q0 -28 -10 -63l-186 -698q-45 -170 -222 -170h-499q-139 0 -139 107z M451 269q0 -49 58 -49l101 -1q24 0 32 30l27 102q2 6 2 11q0 17 -20 17h-100q-73 0 -95 -79q-5 -18 -5 -31zM490 1155q0 20 7 45l53 200q9 32 48 63l32 25q40 32 77 32h200q100 0 100 -76q0 -20 -7 -44q-15 -57 -56 -89l-253 -200q-40 -31 -102 -31q-99 0 -99 75z" />
<glyph unicode="&#xe2;" horiz-adv-x="900" d="M6 87q0 27 9 62l79 300q46 169 221 169l401 1q24 0 33 30l13 50q5 17 5 30q0 48 -59 48h-250q-25 0 -33 -29q-32 -121 -157 -121q-100 0 -100 77q0 19 7 44l27 99q46 170 221 170h499q140 0 140 -106q0 -28 -10 -63l-186 -698q-45 -170 -222 -170h-499q-139 0 -139 107z M329 1125q0 11 4 25l14 50q13 45 50 65l185 126q66 29 98 29h200q32 0 84 -29l116 -126q21 -14 21 -41q0 -11 -4 -24l-14 -50q-19 -70 -94 -70h-125q-37 0 -59 31q-51 69 -64 69h-50q-13 0 -100 -69q-40 -31 -77 -31h-125q-60 0 -60 45zM451 269q0 -49 58 -49l101 -1 q24 0 32 30l27 102q2 6 2 11q0 17 -20 17h-100q-73 0 -95 -79q-5 -18 -5 -31z" />
<glyph unicode="&#xe3;" horiz-adv-x="900" d="M6 87q0 27 9 62l79 300q46 169 221 169l401 1q24 0 33 30l13 50q5 17 5 30q0 48 -59 48h-250q-25 0 -33 -29q-32 -121 -157 -121q-100 0 -100 77q0 19 7 44l27 99q46 170 221 170h499q140 0 140 -106q0 -28 -10 -63l-186 -698q-45 -170 -222 -170h-499q-139 0 -139 107z M290 1155q0 20 7 45l26 100q32 120 157 120h250q62 0 103 -56q33 -44 71 -44q25 0 33 30q18 70 93 70h50q100 0 100 -76q0 -20 -7 -44l-26 -100q-33 -120 -153 -120h-255q-62 0 -103 56q-32 44 -70 44q-25 0 -33 -30q-19 -70 -94 -70h-50q-99 0 -99 75zM451 269 q0 -49 58 -49l101 -1q24 0 32 30l27 102q2 6 2 11q0 17 -20 17h-100q-73 0 -95 -79q-5 -18 -5 -31z" />
<glyph unicode="&#xe4;" horiz-adv-x="900" d="M6 87q0 27 9 62l79 300q46 169 221 169l401 1q24 0 33 30l13 50q5 17 5 30q0 48 -59 48h-250q-25 0 -33 -29q-32 -121 -157 -121q-100 0 -100 77q0 19 7 44l27 99q46 170 221 170h499q140 0 140 -106q0 -28 -10 -63l-186 -698q-45 -170 -222 -170h-499q-139 0 -139 107z M240 1155q0 20 7 45l26 100q32 120 157 120h200q100 0 100 -76q0 -20 -7 -44l-26 -100q-33 -120 -158 -120h-200q-99 0 -99 75zM451 269q0 -49 58 -49l101 -1q24 0 32 30l27 102q2 6 2 11q0 17 -20 17h-100q-73 0 -95 -79q-5 -18 -5 -31zM740 1155q0 20 7 45l26 100 q32 120 157 120h200q100 0 100 -76q0 -20 -7 -44l-26 -100q-33 -120 -158 -120h-200q-99 0 -99 75z" />
<glyph unicode="&#xe5;" horiz-adv-x="900" d="M6 87q0 27 9 62l79 300q46 169 221 169l401 1q24 0 33 30l13 50q5 17 5 30q0 48 -59 48h-250q-25 0 -33 -29q-32 -121 -157 -121q-100 0 -100 77q0 19 7 44l27 99q46 170 221 170h499q140 0 140 -106q0 -28 -10 -63l-186 -698q-45 -170 -222 -170h-499q-139 0 -139 107z M451 269q0 -49 58 -49l101 -1q24 0 32 30l27 102q2 6 2 11q0 17 -20 17h-100q-73 0 -95 -79q-5 -18 -5 -31zM477 1278q0 34 10 72q29 111 130 190.5t217 79.5t174 -79q39 -53 39 -121q0 -33 -10 -70q-30 -111 -131 -190.5t-217 -79.5t-174 80q-38 52 -38 118zM735 1340 q0 -7 4 -12q6 -8 15 -8t19 8t14 22q1 5 1 9q0 8 -3 13q-6 8 -15 8t-19.5 -8t-13.5 -22q-2 -6 -2 -10z" />
<glyph unicode="&#xe6;" horiz-adv-x="1500" d="M6 87q0 27 9 62l79 300q46 169 221 169l401 1q24 0 33 30l13 50q5 17 5 30q0 48 -59 48h-250q-25 0 -33 -29q-32 -121 -157 -121q-100 0 -100 77q0 19 7 44l27 99q46 170 221 170l1101 3q139 0 139 -107q0 -27 -9 -62l-81 -303q-45 -169 -220 -169l-201 -1q-24 0 -32 -30 l-27 -97q-2 -8 -2 -14q0 -17 18 -17l99 1q25 0 33 29q32 120 158 120q100 0 100 -76q0 -20 -7 -44l-27 -100q-45 -170 -221 -170h-1099q-139 0 -139 107zM451 269q0 -49 58 -49l101 -1q24 0 32 30l27 102q2 6 2 11q0 17 -20 17h-100q-73 0 -95 -79q-5 -18 -5 -31zM998 636 q0 -17 19 -17l249 -2q75 1 96 81q5 18 5 32q0 48 -57 50h-250q-26 0 -34 -29l-26 -102q-2 -7 -2 -13z" />
<glyph unicode="&#xe7;" horiz-adv-x="900" d="M-12 -345q0 20 7 45q32 120 157 120h100q75 0 96 80q5 18 5 32q0 48 -58 48h-150q-139 0 -139 107q0 27 9 62l187 701q45 170 221 170h500q139 0 139 -107q0 -27 -9 -62l-27 -101q-32 -120 -157 -120q-99 0 -99 77q0 19 6 43q2 6 2 11q0 18 -20 19h-249q-75 0 -96 -80 l-13 -49q-2 -7 -2 -13q0 -17 19 -17q138 -1 138 -108q0 -28 -9 -63l-41 -150q-5 -17 -5 -31q0 -49 60 -50l50 1q24 0 32 30q32 120 157 120q100 0 100 -76q0 -20 -7 -44l-27 -100q-45 -170 -221 -170q-24 0 -32 -30l-54 -200q-46 -170 -221 -170h-250q-99 0 -99 75z" />
<glyph unicode="&#xe8;" horiz-adv-x="900" d="M6 87q0 27 9 62l188 701q45 170 221 170h500q139 0 139 -107q0 -27 -9 -62l-81 -303q-45 -169 -220 -169l-201 -1q-24 0 -32 -30l-27 -97q-2 -8 -2 -14q0 -17 18 -17l99 1q25 0 33 29q32 120 158 120q100 0 100 -76q0 -20 -7 -44l-27 -100q-45 -170 -221 -170h-499 q-139 0 -139 107zM398 636q0 -17 19 -17l249 -2q75 1 96 81q5 18 5 32q0 48 -57 50h-250q-26 0 -34 -29l-26 -102q-2 -7 -2 -13zM544 1359q0 19 6 41q32 120 157 120h200q37 0 62 -32l18 -25q16 -22 16 -45q0 -9 -3 -18l-53 -200q-33 -120 -158 -120q-62 0 -84 31l-147 200 q-14 19 -14 48z" />
<glyph unicode="&#xe9;" horiz-adv-x="900" d="M6 87q0 27 9 62l188 701q45 170 221 170h500q139 0 139 -107q0 -27 -9 -62l-81 -303q-45 -169 -220 -169l-201 -1q-24 0 -32 -30l-27 -97q-2 -8 -2 -14q0 -17 18 -17l99 1q25 0 33 29q32 120 158 120q100 0 100 -76q0 -20 -7 -44l-27 -100q-45 -170 -221 -170h-499 q-139 0 -139 107zM398 636q0 -17 19 -17l249 -2q75 1 96 81q5 18 5 32q0 48 -57 50h-250q-26 0 -34 -29l-26 -102q-2 -7 -2 -13zM490 1155q0 20 7 45l53 200q9 32 48 63l32 25q40 32 77 32h200q100 0 100 -76q0 -20 -7 -44q-15 -57 -56 -89l-253 -200q-40 -31 -102 -31 q-99 0 -99 75z" />
<glyph unicode="&#xea;" horiz-adv-x="900" d="M6 87q0 27 9 62l188 701q45 170 221 170h500q139 0 139 -107q0 -27 -9 -62l-81 -303q-45 -169 -220 -169l-201 -1q-24 0 -32 -30l-27 -97q-2 -8 -2 -14q0 -17 18 -17l99 1q25 0 33 29q32 120 158 120q100 0 100 -76q0 -20 -7 -44l-27 -100q-45 -170 -221 -170h-499 q-139 0 -139 107zM329 1125q0 11 4 25l14 50q13 45 50 65l185 126q66 29 98 29h200q32 0 84 -29l116 -126q21 -14 21 -41q0 -11 -4 -24l-14 -50q-19 -70 -94 -70h-125q-37 0 -59 31q-51 69 -64 69h-50q-13 0 -100 -69q-40 -31 -77 -31h-125q-60 0 -60 45zM398 636 q0 -17 19 -17l249 -2q75 1 96 81q5 18 5 32q0 48 -57 50h-250q-26 0 -34 -29l-26 -102q-2 -7 -2 -13z" />
<glyph unicode="&#xeb;" horiz-adv-x="900" d="M6 87q0 27 9 62l188 701q45 170 221 170h500q139 0 139 -107q0 -27 -9 -62l-81 -303q-45 -169 -220 -169l-201 -1q-24 0 -32 -30l-27 -97q-2 -8 -2 -14q0 -17 18 -17l99 1q25 0 33 29q32 120 158 120q100 0 100 -76q0 -20 -7 -44l-27 -100q-45 -170 -221 -170h-499 q-139 0 -139 107zM240 1155q0 20 7 45l26 100q32 120 157 120h200q100 0 100 -76q0 -20 -7 -44l-26 -100q-33 -120 -158 -120h-200q-99 0 -99 75zM398 636q0 -17 19 -17l249 -2q75 1 96 81q5 18 5 32q0 48 -57 50h-250q-26 0 -34 -29l-26 -102q-2 -7 -2 -13zM740 1155 q0 20 7 45l26 100q32 120 157 120h200q100 0 100 -76q0 -20 -7 -44l-26 -100q-33 -120 -158 -120h-200q-99 0 -99 75z" />
<glyph unicode="&#xec;" horiz-adv-x="500" d="M-5 56q0 20 7 44l214 800q32 120 157 120q100 0 100 -76q0 -20 -7 -44l-67 -250q-2 -7 -2 -13q0 -17 19 -17q139 0 139 -108q0 -27 -9 -62l-94 -350q-32 -120 -157 -120h-200q-100 0 -100 76zM344 1359q0 19 6 41q32 120 157 120h200q37 0 62 -32l18 -25q16 -22 16 -45 q0 -9 -3 -18l-53 -200q-33 -120 -158 -120q-62 0 -84 31l-147 200q-14 19 -14 48z" />
<glyph unicode="&#xed;" horiz-adv-x="500" d="M-5 56q0 20 7 44l214 800q32 120 157 120q100 0 100 -76q0 -20 -7 -44l-67 -250q-2 -7 -2 -13q0 -17 19 -17q139 0 139 -108q0 -27 -9 -62l-94 -350q-32 -120 -157 -120h-200q-100 0 -100 76zM290 1155q0 20 7 45l53 200q9 32 48 63l32 25q40 32 77 32h200q100 0 100 -76 q0 -20 -7 -44q-15 -57 -56 -89l-253 -200q-40 -31 -102 -31q-99 0 -99 75z" />
<glyph unicode="&#xee;" horiz-adv-x="500" d="M-5 56q0 20 7 44l214 800q32 120 157 120q100 0 100 -76q0 -20 -7 -44l-67 -250q-2 -7 -2 -13q0 -17 19 -17q139 0 139 -108q0 -27 -9 -62l-94 -350q-32 -120 -157 -120h-200q-100 0 -100 76zM129 1125q0 11 4 25l14 50q13 45 50 65l185 126q66 29 98 29h200q32 0 84 -29 l116 -126q21 -14 21 -41q0 -11 -4 -24l-14 -50q-19 -70 -94 -70h-125q-37 0 -59 31q-51 69 -64 69h-50q-13 0 -100 -69q-40 -31 -77 -31h-125q-60 0 -60 45z" />
<glyph unicode="&#xef;" horiz-adv-x="500" d="M-5 56q0 20 7 44l214 800q32 120 157 120q100 0 100 -76q0 -20 -7 -44l-67 -250q-2 -7 -2 -13q0 -17 19 -17q139 0 139 -108q0 -27 -9 -62l-94 -350q-32 -120 -157 -120h-200q-100 0 -100 76zM40 1155q0 20 7 45l26 100q32 120 157 120h200q100 0 100 -76q0 -20 -7 -44 l-26 -100q-33 -120 -158 -120h-200q-99 0 -99 75zM540 1155q0 20 7 45l26 100q32 120 157 120h200q100 0 100 -76q0 -20 -7 -44l-26 -100q-33 -120 -158 -120h-200q-99 0 -99 75z" />
<glyph unicode="&#xf0;" horiz-adv-x="1050" d="M6 87q0 27 9 62l187 701q45 170 221 170h400q25 0 33 30l14 50q5 18 5 31q0 49 -59 49h-200q-100 0 -100 76q0 20 7 44q32 120 157 120h350q139 0 139 -108q0 -27 -9 -62l-54 -200q-2 -7 -2 -13q0 -17 19 -17q100 0 100 -76q0 -20 -7 -44q-32 -120 -157 -120 q-25 0 -33 -30l-161 -600q-45 -170 -221 -170h-499q-139 0 -139 107zM399 638q0 -17 19 -17q138 -1 138 -108q0 -28 -9 -63l-42 -150q-5 -17 -5 -31q0 -49 60 -50q74 1 95 79l106 400q5 18 5 32q0 48 -57 50h-200q-75 0 -96 -80l-12 -49q-2 -7 -2 -13z" />
<glyph unicode="&#xf1;" horiz-adv-x="900" d="M-5 56q0 20 7 44l200 750q45 170 221 170h500q139 0 139 -107q0 -27 -9 -62l-201 -751q-32 -120 -157 -120q-100 0 -100 76q0 20 7 44l159 598q5 18 5 32q0 48 -57 50h-200q-75 0 -96 -80l-13 -49q-2 -7 -2 -13q0 -17 19 -17q138 -1 138 -108q0 -28 -9 -63l-94 -350 q-32 -120 -157 -120h-200q-100 0 -100 76zM290 1155q0 20 7 45l26 100q32 120 157 120h250q62 0 103 -56q33 -44 71 -44q25 0 33 30q18 70 93 70h50q100 0 100 -76q0 -20 -7 -44l-26 -100q-33 -120 -153 -120h-255q-62 0 -103 56q-32 44 -70 44q-25 0 -33 -30 q-19 -70 -94 -70h-50q-99 0 -99 75z" />
<glyph unicode="&#xf2;" horiz-adv-x="900" d="M6 87q0 27 9 62l187 701q45 170 221 170h500q139 0 139 -107q0 -27 -9 -62l-188 -701q-45 -170 -221 -170h-499q-139 0 -139 107zM398 638q0 -17 19 -17q138 -1 138 -108q0 -28 -9 -63l-41 -150q-5 -17 -5 -31q0 -49 60 -50q74 1 95 79l106 400q5 18 5 32q0 48 -57 50 h-200q-75 0 -96 -80l-13 -49q-2 -7 -2 -13zM544 1359q0 19 6 41q32 120 157 120h200q37 0 62 -32l18 -25q16 -22 16 -45q0 -9 -3 -18l-53 -200q-33 -120 -158 -120q-62 0 -84 31l-147 200q-14 19 -14 48z" />
<glyph unicode="&#xf3;" horiz-adv-x="900" d="M6 87q0 27 9 62l187 701q45 170 221 170h500q139 0 139 -107q0 -27 -9 -62l-188 -701q-45 -170 -221 -170h-499q-139 0 -139 107zM398 638q0 -17 19 -17q138 -1 138 -108q0 -28 -9 -63l-41 -150q-5 -17 -5 -31q0 -49 60 -50q74 1 95 79l106 400q5 18 5 32q0 48 -57 50 h-200q-75 0 -96 -80l-13 -49q-2 -7 -2 -13zM490 1155q0 20 7 45l53 200q9 32 48 63l32 25q40 32 77 32h200q100 0 100 -76q0 -20 -7 -44q-15 -57 -56 -89l-253 -200q-40 -31 -102 -31q-99 0 -99 75z" />
<glyph unicode="&#xf4;" horiz-adv-x="900" d="M6 87q0 27 9 62l187 701q45 170 221 170h500q139 0 139 -107q0 -27 -9 -62l-188 -701q-45 -170 -221 -170h-499q-139 0 -139 107zM329 1125q0 11 4 25l14 50q13 45 50 65l185 126q66 29 98 29h200q32 0 84 -29l116 -126q21 -14 21 -41q0 -11 -4 -24l-14 -50 q-19 -70 -94 -70h-125q-37 0 -59 31q-51 69 -64 69h-50q-13 0 -100 -69q-40 -31 -77 -31h-125q-60 0 -60 45zM398 638q0 -17 19 -17q138 -1 138 -108q0 -28 -9 -63l-41 -150q-5 -17 -5 -31q0 -49 60 -50q74 1 95 79l106 400q5 18 5 32q0 48 -57 50h-200q-75 0 -96 -80 l-13 -49q-2 -7 -2 -13z" />
<glyph unicode="&#xf5;" horiz-adv-x="900" d="M6 87q0 27 9 62l187 701q45 170 221 170h500q139 0 139 -107q0 -27 -9 -62l-188 -701q-45 -170 -221 -170h-499q-139 0 -139 107zM290 1155q0 20 7 45l26 100q32 120 157 120h250q62 0 103 -56q33 -44 71 -44q25 0 33 30q18 70 93 70h50q100 0 100 -76q0 -20 -7 -44 l-26 -100q-33 -120 -153 -120h-255q-62 0 -103 56q-32 44 -70 44q-25 0 -33 -30q-19 -70 -94 -70h-50q-99 0 -99 75zM398 638q0 -17 19 -17q138 -1 138 -108q0 -28 -9 -63l-41 -150q-5 -17 -5 -31q0 -49 60 -50q74 1 95 79l106 400q5 18 5 32q0 48 -57 50h-200 q-75 0 -96 -80l-13 -49q-2 -7 -2 -13z" />
<glyph unicode="&#xf6;" horiz-adv-x="900" d="M6 87q0 27 9 62l187 701q45 170 221 170h500q139 0 139 -107q0 -27 -9 -62l-188 -701q-45 -170 -221 -170h-499q-139 0 -139 107zM240 1155q0 20 7 45l26 100q32 120 157 120h200q100 0 100 -76q0 -20 -7 -44l-26 -100q-33 -120 -158 -120h-200q-99 0 -99 75zM398 638 q0 -17 19 -17q138 -1 138 -108q0 -28 -9 -63l-41 -150q-5 -17 -5 -31q0 -49 60 -50q74 1 95 79l106 400q5 18 5 32q0 48 -57 50h-200q-75 0 -96 -80l-13 -49q-2 -7 -2 -13zM740 1155q0 20 7 45l26 100q32 120 157 120h200q100 0 100 -76q0 -20 -7 -44l-26 -100 q-33 -120 -158 -120h-200q-99 0 -99 75z" />
<glyph unicode="&#xf7;" horiz-adv-x="1000" d="M170 706q0 19 6 43q32 121 157 121h700q100 0 100 -77q0 -19 -6 -43q-32 -119 -158 -120h-699q-100 0 -100 76zM312 306q0 20 7 44l27 100q32 120 157 120h200q100 0 100 -76q0 -20 -7 -44l-27 -100q-32 -120 -157 -120h-200q-100 0 -100 76zM499 1006q0 20 7 44l27 100 q32 120 157 120h200q100 0 100 -76q0 -20 -7 -44l-27 -100q-32 -120 -157 -120h-200q-100 0 -100 76z" />
<glyph unicode="&#xf8;" horiz-adv-x="900" d="M6 87q0 27 9 62l187 701q45 170 221 170h500q139 0 139 -107q0 -27 -9 -62l-188 -701q-45 -170 -221 -170h-499q-139 0 -139 107zM398 638q0 -17 19 -17q61 0 78 -12l179 171h-165q-75 0 -96 -80l-13 -49q-2 -7 -2 -13zM500 269q0 -49 60 -50q74 1 95 79l60 228 l-200 -191l-10 -35q-5 -17 -5 -31z" />
<glyph unicode="&#xf9;" horiz-adv-x="900" d="M6 87q0 27 9 62l201 751q32 119 157 120q100 0 100 -76q0 -20 -7 -44l-66 -249q-2 -7 -2 -13q0 -17 19 -17q138 -1 138 -108q0 -28 -9 -63l-41 -150q-5 -17 -5 -31q0 -49 60 -50q74 1 95 79l161 602q32 120 157 120q100 0 100 -76q0 -20 -7 -44l-201 -750 q-45 -170 -221 -170h-499q-139 0 -139 107zM544 1359q0 19 6 41q32 120 157 120h200q37 0 62 -32l18 -25q16 -22 16 -45q0 -9 -3 -18l-53 -200q-33 -120 -158 -120q-62 0 -84 31l-147 200q-14 19 -14 48z" />
<glyph unicode="&#xfa;" horiz-adv-x="900" d="M6 87q0 27 9 62l201 751q32 119 157 120q100 0 100 -76q0 -20 -7 -44l-66 -249q-2 -7 -2 -13q0 -17 19 -17q138 -1 138 -108q0 -28 -9 -63l-41 -150q-5 -17 -5 -31q0 -49 60 -50q74 1 95 79l161 602q32 120 157 120q100 0 100 -76q0 -20 -7 -44l-201 -750 q-45 -170 -221 -170h-499q-139 0 -139 107zM490 1155q0 20 7 45l53 200q9 32 48 63l32 25q40 32 77 32h200q100 0 100 -76q0 -20 -7 -44q-15 -57 -56 -89l-253 -200q-40 -31 -102 -31q-99 0 -99 75z" />
<glyph unicode="&#xfb;" horiz-adv-x="900" d="M6 87q0 27 9 62l201 751q32 119 157 120q100 0 100 -76q0 -20 -7 -44l-66 -249q-2 -7 -2 -13q0 -17 19 -17q138 -1 138 -108q0 -28 -9 -63l-41 -150q-5 -17 -5 -31q0 -49 60 -50q74 1 95 79l161 602q32 120 157 120q100 0 100 -76q0 -20 -7 -44l-201 -750 q-45 -170 -221 -170h-499q-139 0 -139 107zM329 1125q0 11 4 25l14 50q13 45 50 65l185 126q66 29 98 29h200q32 0 84 -29l116 -126q21 -14 21 -41q0 -11 -4 -24l-14 -50q-19 -70 -94 -70h-125q-37 0 -59 31q-51 69 -64 69h-50q-13 0 -100 -69q-40 -31 -77 -31h-125 q-60 0 -60 45z" />
<glyph unicode="&#xfc;" horiz-adv-x="900" d="M6 87q0 27 9 62l201 751q32 119 157 120q100 0 100 -76q0 -20 -7 -44l-66 -249q-2 -7 -2 -13q0 -17 19 -17q138 -1 138 -108q0 -28 -9 -63l-41 -150q-5 -17 -5 -31q0 -49 60 -50q74 1 95 79l161 602q32 120 157 120q100 0 100 -76q0 -20 -7 -44l-201 -750 q-45 -170 -221 -170h-499q-139 0 -139 107zM240 1155q0 20 7 45l26 100q32 120 157 120h200q100 0 100 -76q0 -20 -7 -44l-26 -100q-33 -120 -158 -120h-200q-99 0 -99 75zM740 1155q0 20 7 45l26 100q32 120 157 120h200q100 0 100 -76q0 -20 -7 -44l-26 -100 q-33 -120 -158 -120h-200q-99 0 -99 75z" />
<glyph unicode="&#xfd;" horiz-adv-x="900" d="M-12 -345q0 20 7 45q32 120 157 120h300q75 0 96 80l14 50q2 7 2 13q0 17 -19 17h-400q-139 0 -139 107q0 27 9 62l201 751q32 120 157 120q100 0 100 -76q0 -20 -7 -44l-66 -249q-2 -7 -2 -13q0 -17 19 -17q138 -1 138 -108q0 -28 -9 -63l-41 -150q-5 -17 -5 -31 q0 -49 60 -50q74 1 95 79l161 601q32 121 157 121q100 0 100 -76q0 -20 -7 -44l-308 -1150q-46 -170 -221 -170h-450q-99 0 -99 75zM490 1155q0 20 7 45l53 200q9 32 48 63l32 25q40 32 77 32h200q100 0 100 -76q0 -20 -7 -44q-15 -57 -56 -89l-253 -200q-40 -31 -102 -31 q-99 0 -99 75z" />
<glyph unicode="&#xfe;" horiz-adv-x="900" d="M-112 -345q0 20 7 45l307 1150q3 13 7 24l114 426q32 120 157 120q100 0 100 -76q0 -20 -7 -44l-67 -250q-2 -7 -2 -13q0 -17 19 -17h400q139 0 139 -107q0 -27 -9 -62l-188 -701q-45 -170 -221 -170h-399q-25 0 -33 -30l-67 -250q-33 -120 -158 -120q-99 0 -99 75z M398 638q0 -17 19 -17q138 -1 138 -108q0 -28 -9 -63l-41 -150q-5 -17 -5 -31q0 -49 60 -50q74 1 95 79l106 400q5 18 5 32q0 48 -57 50h-200q-75 0 -96 -80l-13 -49q-2 -7 -2 -13z" />
<glyph unicode="&#xff;" horiz-adv-x="900" d="M-12 -345q0 20 7 45q32 120 157 120h300q75 0 96 80l14 50q2 7 2 13q0 17 -19 17h-400q-139 0 -139 107q0 27 9 62l201 751q32 120 157 120q100 0 100 -76q0 -20 -7 -44l-66 -249q-2 -7 -2 -13q0 -17 19 -17q138 -1 138 -108q0 -28 -9 -63l-41 -150q-5 -17 -5 -31 q0 -49 60 -50q74 1 95 79l161 601q32 121 157 121q100 0 100 -76q0 -20 -7 -44l-308 -1150q-46 -170 -221 -170h-450q-99 0 -99 75zM240 1155q0 20 7 45l26 100q32 120 157 120h200q100 0 100 -76q0 -20 -7 -44l-26 -100q-33 -120 -158 -120h-200q-99 0 -99 75zM740 1155 q0 20 7 45l26 100q32 120 157 120h200q100 0 100 -76q0 -20 -7 -44l-26 -100q-33 -120 -158 -120h-200q-99 0 -99 75z" />
<glyph unicode="&#x152;" horiz-adv-x="1900" d="M6 86q0 28 9 63l295 1100q45 170 220 170l801 1q39 0 46 -10q14 11 55 11l648 -1q100 0 100 -77q0 -19 -6 -43q-32 -120 -157 -120h-500q-76 -1 -97 -80l-54 -200q-2 -7 -2 -12q0 -18 20 -18h549q100 0 100 -77q0 -19 -6 -43q-32 -119 -158 -119l-350 -1q-23 0 -32 -31 l-94 -349q-2 -7 -2 -13q0 -17 18 -17h350q100 0 100 -77q0 -19 -6 -43q-32 -120 -158 -120l-1551 -1q-138 0 -138 107zM302 268q0 -49 57 -49h500q75 0 96 80l134 501q2 7 2 13q0 17 -19 17q-138 1 -138 107q0 27 9 62l40 150q2 7 2 12q0 18 -19 19l-349 -1q-75 0 -97 -80 l-214 -800q-4 -17 -4 -31z" />
<glyph unicode="&#x153;" horiz-adv-x="1500" d="M6 87q0 27 9 62l187 701q45 170 221 170h500q41 0 47 -11q14 11 54 11h500q139 0 139 -107q0 -27 -9 -62l-81 -303q-45 -169 -220 -169l-201 -1q-24 0 -32 -30l-27 -97q-2 -8 -2 -14q0 -17 18 -17l99 1q25 0 33 29q32 120 158 120q100 0 100 -76q0 -20 -7 -44l-27 -100 q-45 -170 -221 -170h-499q-41 0 -47 11q-14 -11 -54 -11h-499q-139 0 -139 107zM398 638q0 -17 19 -17q138 -1 138 -108q0 -28 -9 -63l-41 -150q-5 -17 -5 -31q0 -49 60 -50q74 1 95 79l106 400q5 18 5 32q0 48 -57 50h-200q-75 0 -96 -80l-13 -49q-2 -7 -2 -13zM998 636 q0 -17 19 -17l249 -2q75 1 96 81q5 18 5 32q0 48 -57 50h-250q-26 0 -34 -29l-26 -102q-2 -7 -2 -13z" />
<glyph unicode="&#x2c6;" horiz-adv-x="800" d="M387 1526q0 10 3 24l14 50q13 45 50 65l185 126q67 29 99 29h200q32 0 83 -29l116 -126q21 -14 21 -41q0 -11 -4 -24l-14 -50q-18 -70 -93 -70h-125q-37 0 -60 31q-51 69 -64 69h-50q-13 0 -100 -69q-39 -31 -76 -31h-125q-60 0 -60 46z" />
<glyph unicode="&#x2dc;" horiz-adv-x="900" d="M397 1556q0 20 7 44l27 100q32 120 157 120h250q62 0 103 -56q32 -44 70 -44q25 0 33 30q19 70 94 70h50q99 0 99 -75q0 -19 -7 -43l-27 -102q-32 -120 -151 -120h-255q-62 0 -103 56q-33 44 -71 44q-25 0 -33 -30q-18 -70 -93 -70h-50q-100 0 -100 76z" />
<glyph unicode="&#x2000;" horiz-adv-x="1010" />
<glyph unicode="&#x2001;" horiz-adv-x="2020" />
<glyph unicode="&#x2002;" horiz-adv-x="1010" />
<glyph unicode="&#x2003;" horiz-adv-x="2020" />
<glyph unicode="&#x2004;" horiz-adv-x="673" />
<glyph unicode="&#x2005;" horiz-adv-x="505" />
<glyph unicode="&#x2006;" horiz-adv-x="336" />
<glyph unicode="&#x2007;" horiz-adv-x="336" />
<glyph unicode="&#x2008;" horiz-adv-x="252" />
<glyph unicode="&#x2009;" horiz-adv-x="404" />
<glyph unicode="&#x200a;" horiz-adv-x="112" />
<glyph unicode="&#x2010;" horiz-adv-x="1000" d="M170 706q0 19 6 43q32 121 157 121h700q100 0 100 -77q0 -19 -6 -43q-32 -119 -158 -120h-699q-100 0 -100 76z" />
<glyph unicode="&#x2011;" horiz-adv-x="1000" d="M170 706q0 19 6 43q32 121 157 121h700q100 0 100 -77q0 -19 -6 -43q-32 -119 -158 -120h-699q-100 0 -100 76z" />
<glyph unicode="&#x2012;" horiz-adv-x="1000" d="M170 706q0 19 6 43q32 121 157 121h700q100 0 100 -77q0 -19 -6 -43q-32 -119 -158 -120h-699q-100 0 -100 76z" />
<glyph unicode="&#x2013;" horiz-adv-x="1000" d="M170 706q0 19 6 43q32 121 157 121h700q100 0 100 -77q0 -19 -6 -43q-32 -119 -158 -120h-699q-100 0 -100 76z" />
<glyph unicode="&#x2014;" horiz-adv-x="1100" d="M170 706q0 19 6 43q32 121 157 121h799q100 0 100 -77q0 -19 -6 -43q-32 -119 -158 -120h-798q-100 0 -100 76z" />
<glyph unicode="&#x2018;" horiz-adv-x="500" d="M236 956q0 20 7 44l80 300q32 120 157 120h200q100 0 100 -76q0 -20 -7 -44l-26 -100q-16 -57 -56 -89l-254 -200q-39 -31 -101 -31q-100 0 -100 76z" />
<glyph unicode="&#x2019;" horiz-adv-x="500" d="M291 1158q0 19 6 42l26 100q32 120 157 120h200q100 0 100 -76q0 -20 -7 -44l-80 -300q-32 -120 -157 -120q-62 0 -85 31l-146 200q-14 19 -14 47z" />
<glyph unicode="&#x201a;" horiz-adv-x="500" d="M-4 59q0 19 6 41l27 100q32 120 157 120h200q100 0 100 -76q0 -20 -7 -44l-81 -300q-32 -120 -157 -120q-62 0 -85 31l-146 200q-14 19 -14 48z" />
<glyph unicode="&#x201c;" horiz-adv-x="1000" d="M236 956q0 20 7 44l80 300q32 120 157 120h200q100 0 100 -76q0 -20 -7 -44l-26 -100q-16 -57 -56 -89l-254 -200q-39 -31 -101 -31q-100 0 -100 76zM736 956q0 20 7 44l80 300q32 120 157 120h200q100 0 100 -76q0 -20 -7 -44l-26 -100q-16 -57 -56 -89l-254 -200 q-39 -31 -101 -31q-100 0 -100 76z" />
<glyph unicode="&#x201d;" horiz-adv-x="1000" d="M291 1158q0 19 6 42l26 100q32 120 157 120h200q100 0 100 -76q0 -20 -7 -44l-80 -300q-32 -120 -157 -120q-62 0 -85 31l-146 200q-14 19 -14 47zM791 1158q0 19 6 42l26 100q32 120 157 120h200q100 0 100 -76q0 -20 -7 -44l-80 -300q-32 -120 -157 -120q-62 0 -85 31 l-146 200q-14 19 -14 47z" />
<glyph unicode="&#x201e;" horiz-adv-x="1000" d="M-4 59q0 19 6 41l27 100q32 120 157 120h200q100 0 100 -76q0 -20 -7 -44l-81 -300q-32 -120 -157 -120q-62 0 -85 31l-146 200q-14 19 -14 48zM496 59q0 19 6 41l27 100q32 120 157 120h200q100 0 100 -76q0 -20 -7 -44l-81 -300q-32 -120 -157 -120q-62 0 -85 31 l-146 200q-14 19 -14 48z" />
<glyph unicode="&#x2022;" horiz-adv-x="1024" d="M168 714v14q0 40 10 78q19 72 76 131q95 96 232 96q132 0 226.5 -91.5t97.5 -219.5q1 -10 1 -19q0 -38 -10 -72q-19 -73 -76 -132q-97 -98 -233 -98q-133 0 -226.5 92t-97.5 221z" />
<glyph unicode="&#x2026;" horiz-adv-x="1500" d="M-5 56q0 20 7 44l27 100q32 120 157 120h200q100 0 100 -76q0 -20 -7 -44l-27 -100q-32 -120 -157 -120h-200q-100 0 -100 76zM495 56q0 20 7 44l27 100q32 120 157 120h200q100 0 100 -76q0 -20 -7 -44l-27 -100q-32 -120 -157 -120h-200q-100 0 -100 76zM995 56 q0 20 7 44l27 100q32 120 157 120h200q100 0 100 -76q0 -20 -7 -44l-27 -100q-32 -120 -157 -120h-200q-100 0 -100 76z" />
<glyph unicode="&#x202f;" horiz-adv-x="404" />
<glyph unicode="&#x2039;" d="M131 563q0 18 5 37l53 200q31 113 210 168l555 201q280 101 336 101h50q100 0 100 -76q0 -20 -7 -44q-30 -113 -210 -168l-536 -187q-87 -33 -123 -95q3 -62 72 -95l436 -187q125 -46 125 -132q0 -17 -5 -36q-32 -120 -157 -120h-50q-56 0 -282 101l-447 201 q-125 46 -125 131z" />
<glyph unicode="&#x203a;" d="M35 206q0 20 7 44q30 113 210 168l536 187q87 33 124 95q-4 62 -73 95l-436 187q-125 46 -125 132q0 17 5 36q32 120 157 120h50q56 0 282 -101l447 -201q125 -46 125 -131q0 -18 -5 -37l-53 -200q-31 -113 -210 -168l-555 -201q-280 -101 -336 -101h-50q-100 0 -100 76z " />
<glyph unicode="&#x205f;" horiz-adv-x="505" />
<glyph unicode="&#x20ac;" d="M102 456q0 20 7 44q32 120 157 120q25 0 33 30l27 100q2 7 2 13q0 17 -19 17q-100 0 -100 76q0 20 7 44q32 120 157 120q25 0 33 30l54 200q45 169 220 170h700q99 0 99 -77q0 -19 -6 -43q-32 -120 -157 -120h-550q-75 0 -96 -80l-14 -50q-2 -7 -2 -13q0 -17 19 -17h250 q100 0 100 -76q0 -20 -7 -44q-32 -120 -157 -120h-50q-25 0 -33 -30l-28 -100q-2 -7 -2 -12q0 -18 20 -18h50q100 0 100 -76q0 -20 -7 -44q-32 -120 -157 -120h-50q-25 0 -33 -30l-27 -100q-2 -7 -2 -12q0 -18 19 -19l401 1q99 0 99 -76q0 -19 -7 -44q-32 -120 -157 -120 l-702 -1q-137 1 -137 108q0 28 9 63l54 200q2 7 2 13q0 17 -19 17q-100 0 -100 76z" />
<glyph unicode="&#x2122;" horiz-adv-x="1400" d="M333 1326q0 11 4 25q19 70 94 70h450q60 0 60 -45q0 -11 -4 -25q-19 -70 -94 -70q-150 0 -151 -5l-35 -130q80 0 80 -61q0 -15 -5 -34l-81 -300q-19 -70 -94 -70h-100q-60 0 -60 45q0 11 4 25l142 530h-150q-60 0 -60 45zM772 725q0 11 4 25l154 576q26 95 127 95h549 q79 0 79 -60q0 -15 -5 -35l-154 -575q-19 -70 -94 -70q-60 0 -60 45q0 11 4 25l134 500q2 7 2 13q0 17 -19 17h-125l-142 -530q-19 -70 -94 -70q-60 0 -60 45q0 11 4 25l142 530h-124q-26 -1 -34 -30l-27 -100v-5q79 0 79 -61q0 -15 -5 -34l-81 -300q-19 -70 -94 -70h-99 q-61 0 -61 44z" />
<glyph unicode="&#x25fc;" horiz-adv-x="1020" d="M0 0v1020h1020v-1020h-1020z" />
</font>
</defs>
</svg>
