<?xml version="1.0" encoding="utf-8"?>
<!-- Generator: Adobe Illustrator 18.0.0, SVG Export Plug-In . SVG Version: 6.00 Build 0)  -->
<!DOCTYPE svg PUBLIC "-//W3C//DTD SVG 1.0//EN" "http://www.w3.org/TR/2001/REC-SVG-20010904/DTD/svg10.dtd">
<svg version="1.0" id="Layer_1" xmlns="http://www.w3.org/2000/svg" xmlns:xlink="http://www.w3.org/1999/xlink" x="0px" y="0px"
	 viewBox="0 0 1440 1440" enable-background="new 0 0 1440 1440" xml:space="preserve">
<path fill="#48B9AE" d="M761.5,142.1H442c-0.7,0-1.3-0.1-2-0.1c-88.8,0-160.8,72-160.8,160.8v803.9c0,88.8,72,160.8,160.8,160.8
	s160.8-72,160.8-160.8V945.8h160.7c221.6,0,401.8-180.3,401.8-401.8S983.1,142.1,761.5,142.1z"/>
<g>
	<circle fill="#3B3A77" cx="440" cy="302.8" r="160.8"/>
	<path fill="#3B3A77" d="M1134.3,1014.4c50.9,72.7,33.3,173-39.5,223.9c-72.7,50.9-173,33.3-223.9-39.5l-240.8-344
		c-50.9-72.7-33.3-173,39.5-223.9c72.7-50.9,173-33.3,223.9,39.5L1134.3,1014.4z"/>
</g>
</svg>
