<?xml version="1.0" encoding="utf-8"?>
<!-- Generator: Adobe Illustrator 18.0.0, SVG Export Plug-In . SVG Version: 6.00 Build 0)  -->
<!DOCTYPE svg PUBLIC "-//W3C//DTD SVG 1.0//EN" "http://www.w3.org/TR/2001/REC-SVG-20010904/DTD/svg10.dtd">
<svg version="1.0" id="Layer_1" xmlns="http://www.w3.org/2000/svg" xmlns:xlink="http://www.w3.org/1999/xlink" x="0px" y="0px"
	 viewBox="0 0 1440 1440" enable-background="new 0 0 1440 1440" xml:space="preserve">
<g>
	<linearGradient id="SVGID_1_" gradientUnits="userSpaceOnUse" x1="1059.7715" y1="1260.6764" x2="303.2543" y2="207.8713">
		<stop  offset="0" style="stop-color:#90338B"/>
		<stop  offset="1" style="stop-color:#8FD0DA"/>
	</linearGradient>
	<path fill="url(#SVGID_1_)" d="M438.8,155l0.2,0c0.6,0,1.1,0.1,1.8,0.1h319.6c215.2,0,390.2,175.1,390.2,390.2
		S975.6,935.5,760.4,935.5H599.6h-11.7v11.7v161c0,82.2-66.9,149.1-149.1,149.1s-149.1-66.9-149.1-149.1V304
		C289.7,221.8,356.6,155,438.8,155 M438.8,143.2C350,143.2,278,215.2,278,304v804.2c0,88.8,72,160.8,160.8,160.8
		s160.8-72,160.8-160.8v-161h160.8c221.6,0,402-180.3,402-402s-180.3-402-402-402H440.8C440.1,143.3,439.5,143.2,438.8,143.2
		L438.8,143.2z"/>
	<g>
		<g>
			<linearGradient id="SVGID_2_" gradientUnits="userSpaceOnUse" x1="1059.7928" y1="1260.6428" x2="303.2894" y2="207.857">
				<stop  offset="0" style="stop-color:#90338B"/>
				<stop  offset="1" style="stop-color:#8FD0DA"/>
			</linearGradient>
			<path fill="url(#SVGID_2_)" d="M438.8,1234.7c-69.7,0-126.5-56.7-126.5-126.5V304c0-69.2,56.3-125.9,125.4-126.5
				c1.2,0.1,1.9,0.1,2.6,0.1h320c202.7,0,367.6,164.9,367.6,367.6S963.1,912.9,760.4,912.9H565.3v195.3
				C565.3,1178,508.5,1234.7,438.8,1234.7z M437.4,189.3c-62.3,0.5-113.4,52-113.4,114.7v804.2c0,63.3,51.5,114.7,114.7,114.7
				s114.7-51.5,114.7-114.7V901.1h206.8c196.2,0,355.9-159.6,355.9-355.9S956.6,189.4,760.4,189.4H440.3
				C439.3,189.4,438.4,189.4,437.4,189.3z"/>
		</g>
		<g>
			<linearGradient id="SVGID_3_" gradientUnits="userSpaceOnUse" x1="1059.781" y1="1260.6263" x2="303.2965" y2="207.8668">
				<stop  offset="0" style="stop-color:#90338B"/>
				<stop  offset="1" style="stop-color:#8FD0DA"/>
			</linearGradient>
			<path fill="url(#SVGID_3_)" d="M438.8,1194.5c-47.6,0-86.3-38.7-86.3-86.3V304c0-46.6,37.9-85.2,84.4-86.2c1.3,0,2.2,0.1,3,0.1
				h320.4c180.5,0,327.4,146.9,327.4,327.4S940.9,872.7,760.4,872.7H525.1v235.6C525.1,1155.8,486.4,1194.5,438.8,1194.5z
				 M436.8,229.5c-39.8,0.9-72.5,34.3-72.5,74.5v804.2c0,41.1,33.4,74.5,74.5,74.5s74.5-33.4,74.5-74.5V860.9h247.1
				c174,0,315.6-141.6,315.6-315.7S934.4,229.6,760.4,229.6H439.9C438.9,229.6,437.8,229.6,436.8,229.5z"/>
		</g>
		<g>
			<linearGradient id="SVGID_4_" gradientUnits="userSpaceOnUse" x1="1059.7666" y1="1260.6063" x2="303.3051" y2="207.8788">
				<stop  offset="0" style="stop-color:#90338B"/>
				<stop  offset="1" style="stop-color:#8FD0DA"/>
			</linearGradient>
			<path fill="url(#SVGID_4_)" d="M438.8,1154.3c-25.4,0-46-20.6-46-46V304c0-24.2,19.7-44.9,43.9-46l3,0h320.7
				c158.3,0,287.2,128.8,287.2,287.2S918.7,832.4,760.4,832.4H484.8v275.8C484.8,1133.6,464.2,1154.3,438.8,1154.3z M436.8,269.8
				c-17.6,0.8-32.3,16.2-32.3,34.2v804.2c0,18.9,15.4,34.3,34.3,34.3s34.3-15.4,34.3-34.3V820.7h287.3
				c151.9,0,275.4-123.6,275.4-275.4S912.3,269.8,760.4,269.8L436.8,269.8z"/>
		</g>
		<g>
			<linearGradient id="SVGID_5_" gradientUnits="userSpaceOnUse" x1="1135.3475" y1="1206.8838" x2="378.5785" y2="153.7282">
				<stop  offset="0" style="stop-color:#90338B"/>
				<stop  offset="1" style="stop-color:#8FD0DA"/>
			</linearGradient>
			<path fill="url(#SVGID_5_)" d="M760.4,792.2H432.9l0-493.9l327.4,0c136.2,0,246.9,110.8,246.9,246.9S896.6,792.2,760.4,792.2z
				 M444.7,780.5h315.7c129.7,0,235.2-105.5,235.2-235.2S890.1,310.1,760.4,310.1l-315.7,0L444.7,780.5z"/>
		</g>
		<g>
			<linearGradient id="SVGID_6_" gradientUnits="userSpaceOnUse" x1="1141.821" y1="1202.2426" x2="385.0457" y2="149.078">
				<stop  offset="0" style="stop-color:#90338B"/>
				<stop  offset="1" style="stop-color:#8FD0DA"/>
			</linearGradient>
			<path fill="url(#SVGID_6_)" d="M760.4,752H473.2l0-413.4h287.2c114,0,206.7,92.7,206.7,206.7S874.4,752,760.4,752z M484.9,740.3
				h275.5c107.5,0,195-87.5,195-195s-87.5-195-195-195H484.9L484.9,740.3z"/>
		</g>
		<g>
			<linearGradient id="SVGID_7_" gradientUnits="userSpaceOnUse" x1="1148.2971" y1="1197.6029" x2="391.5125" y2="144.4258">
				<stop  offset="0" style="stop-color:#90338B"/>
				<stop  offset="1" style="stop-color:#8FD0DA"/>
			</linearGradient>
			<path fill="url(#SVGID_7_)" d="M760.4,711.8h-247l0-333h247c91.8,0,166.5,74.7,166.5,166.5S852.2,711.8,760.4,711.8z M525.1,700
				h235.3c85.3,0,154.8-69.4,154.8-154.8c0-85.3-69.4-154.8-154.8-154.8H525.2L525.1,700z"/>
		</g>
		<g>
			<linearGradient id="SVGID_8_" gradientUnits="userSpaceOnUse" x1="1154.7761" y1="1192.9674" x2="397.9774" y2="139.7707">
				<stop  offset="0" style="stop-color:#90338B"/>
				<stop  offset="1" style="stop-color:#8FD0DA"/>
			</linearGradient>
			<path fill="url(#SVGID_8_)" d="M760.4,671.6H553.6l0-252.6h206.7c69.6,0,126.3,56.7,126.3,126.3S830,671.6,760.4,671.6z
				 M565.4,659.8h195c63.2,0,114.5-51.4,114.5-114.5c0-63.2-51.4-114.5-114.5-114.5h-195L565.4,659.8z"/>
		</g>
		<g>
			<linearGradient id="SVGID_9_" gradientUnits="userSpaceOnUse" x1="1161.2615" y1="1188.3409" x2="404.438" y2="135.1096">
				<stop  offset="0" style="stop-color:#90338B"/>
				<stop  offset="1" style="stop-color:#8FD0DA"/>
			</linearGradient>
			<path fill="url(#SVGID_9_)" d="M760.4,631.3H593.9l0-172.1h166.5c47.5,0,86.1,38.6,86.1,86.1
				C846.4,592.7,807.8,631.3,760.4,631.3z M605.6,619.6h154.8c41,0,74.3-33.3,74.3-74.3s-33.3-74.3-74.3-74.3H605.6L605.6,619.6z"/>
		</g>
		<g>
			<linearGradient id="SVGID_10_" gradientUnits="userSpaceOnUse" x1="1167.7645" y1="1183.7405" x2="410.8855" y2="130.4319">
				<stop  offset="0" style="stop-color:#90338B"/>
				<stop  offset="1" style="stop-color:#8FD0DA"/>
			</linearGradient>
			<path fill="url(#SVGID_10_)" d="M760.4,591.1H634.1l0-91.7h126.3c25.3,0,45.8,20.6,45.8,45.8
				C806.2,570.6,785.7,591.1,760.4,591.1z M645.8,579.4h114.6c18.8,0,34.1-15.3,34.1-34.1c0-18.8-15.3-34.1-34.1-34.1H645.8
				L645.8,579.4z"/>
		</g>
		<g>
			<linearGradient id="SVGID_11_" gradientUnits="userSpaceOnUse" x1="789.1558" y1="1455.0289" x2="32.7142" y2="402.3291">
				<stop  offset="0" style="stop-color:#90338B"/>
				<stop  offset="1" style="stop-color:#8FD0DA"/>
			</linearGradient>
			<path fill="url(#SVGID_11_)" d="M438.8,1114.1c-3.2,0-5.9-2.6-5.9-5.9V826.7c0-3.2,2.6-5.9,5.9-5.9s5.9,2.6,5.9,5.9v281.5
				C444.7,1111.5,442.1,1114.1,438.8,1114.1z"/>
		</g>
	</g>
	<g>
		<linearGradient id="SVGID_12_" gradientUnits="userSpaceOnUse" x1="1175.4476" y1="1178.5024" x2="418.3461" y2="124.8842">
			<stop  offset="0" style="stop-color:#90338B"/>
			<stop  offset="1" style="stop-color:#8FD0DA"/>
		</linearGradient>
		<path fill="url(#SVGID_12_)" d="M680.2,545.2c0-3.2,2.6-5.9,5.9-5.9h68.7c3.2,0,5.9,2.6,5.9,5.9s-2.6,5.9-5.9,5.9h-68.7
			C682.8,551.1,680.2,548.5,680.2,545.2z"/>
	</g>
</g>
<g>
	<circle fill="#6FC6CE" cx="439.1" cy="304.1" r="160.8"/>
	<path fill="#6FC6CE" d="M1133.5,1015.9c51,72.8,33.3,173.1-39.5,224c-72.8,51-173.1,33.3-224-39.5L629.1,856.3
		c-51-72.8-33.3-173.1,39.5-224s173.1-33.3,224,39.5L1133.5,1015.9z"/>
</g>
</svg>
